<svg xmlns="http://www.w3.org/2000/svg" width="173" height="33" viewBox="0 0 173 33" fill="none"><path d="M11.6601 27.5607C8.32714 30.9009 2.68238 30.8876 1.10595 26.4359C0.797311 25.5644 0.550541 24.6682 0.369041 23.7538C-0.372016 20.0201 0.00832153 16.1502 1.46196 12.6332C2.9156 9.11632 5.37724 6.11033 8.53561 3.99542C11.694 1.88052 15.4073 0.751694 19.2058 0.751694C23.0043 0.751694 26.7176 1.88052 29.8759 3.99542C33.0343 6.11033 35.4959 9.11632 36.9496 12.6333C38.4032 16.1502 38.7835 20.0201 38.0425 23.7538C37.861 24.6682 37.6142 25.5644 37.3055 26.4359C35.7291 30.8876 30.0844 30.9009 26.7514 27.5607L21.6065 22.4047C21.1149 21.9121 21.1657 21.0998 21.3013 20.4166C21.3837 20.0012 21.3414 19.5707 21.1797 19.1794C21.0179 18.7882 20.7442 18.4537 20.3928 18.2185C20.0414 17.9833 19.6284 17.8577 19.2058 17.8577C18.7832 17.8577 18.3702 17.9833 18.0188 18.2185C17.6673 18.4537 17.3935 18.7882 17.2318 19.1794C17.0701 19.5707 17.0278 20.0012 17.1103 20.4166C17.2459 21.0998 17.2966 21.9121 16.805 22.4047L11.6601 27.5607Z" fill="url(#paint0_linear_5563_2489)"></path><path d="M54.0377 22.9397H59.2002V25.9885H50.0967V9.77467H54.0377V22.9397Z" fill="#29295F"></path><path d="M66.242 26.1733C64.9821 26.1733 63.8451 25.9038 62.831 25.3649C61.8324 24.826 61.0411 24.0561 60.4572 23.0553C59.8888 22.0544 59.6045 20.8842 59.6045 19.5445C59.6045 18.2204 59.8964 17.0578 60.4802 16.0569C61.0642 15.0407 61.8631 14.2631 62.8771 13.7242C63.8912 13.1853 65.0282 12.9159 66.2881 12.9159C67.548 12.9159 68.685 13.1853 69.699 13.7242C70.7131 14.2631 71.512 15.0407 72.0959 16.0569C72.6797 17.0578 72.9717 18.2204 72.9717 19.5445C72.9717 20.8688 72.672 22.039 72.0729 23.0553C71.489 24.0561 70.6824 24.826 69.6529 25.3649C68.6389 25.9038 67.5019 26.1733 66.242 26.1733ZM66.242 22.7549C66.9948 22.7549 67.6325 22.4779 68.1549 21.9235C68.6927 21.3692 68.9616 20.5763 68.9616 19.5445C68.9616 18.5129 68.7003 17.72 68.1779 17.1656C67.6709 16.6113 67.0409 16.3341 66.2881 16.3341C65.5199 16.3341 64.8822 16.6113 64.3752 17.1656C63.8681 17.7045 63.6146 18.4975 63.6146 19.5445C63.6146 20.5763 63.8605 21.3692 64.3522 21.9235C64.8592 22.4779 65.4892 22.7549 66.242 22.7549Z" fill="#29295F"></path><path d="M79.2564 12.9159C80.1629 12.9159 80.9543 13.1006 81.6303 13.4702C82.3216 13.8397 82.8518 14.3248 83.2206 14.9252V13.1006H87.1615V25.9654C87.1615 27.151 86.9234 28.2212 86.4471 29.1758C85.9861 30.1459 85.2717 30.9158 84.3038 31.4854C83.3512 32.0552 82.1604 32.3401 80.7315 32.3401C78.8262 32.3401 77.2821 31.8859 76.099 30.9774C74.916 30.0843 74.2398 28.8679 74.0709 27.3281H77.9658C78.0887 27.8208 78.3807 28.2058 78.8417 28.483C79.3025 28.7755 79.8711 28.9218 80.5471 28.9218C81.3614 28.9218 82.0067 28.6831 82.483 28.2058C82.9747 27.7438 83.2206 26.9971 83.2206 25.9654V24.1408C82.8364 24.7412 82.3063 25.2341 81.6303 25.619C80.9543 25.9885 80.1629 26.1733 79.2564 26.1733C78.1963 26.1733 77.236 25.9038 76.3756 25.3649C75.5151 24.8106 74.8314 24.033 74.3244 23.0321C73.8328 22.0159 73.5869 20.8457 73.5869 19.5215C73.5869 18.1973 73.8328 17.0348 74.3244 16.0339C74.8314 15.033 75.5151 14.2631 76.3756 13.7242C77.236 13.1853 78.1963 12.9159 79.2564 12.9159ZM83.2206 19.5445C83.2206 18.5591 82.944 17.7815 82.3908 17.2118C81.8531 16.6422 81.1923 16.3573 80.4088 16.3573C79.6252 16.3573 78.9568 16.6422 78.4037 17.2118C77.8659 17.7662 77.5971 18.5361 77.5971 19.5215C77.5971 20.5069 77.8659 21.2922 78.4037 21.8773C78.9568 22.447 79.6252 22.7319 80.4088 22.7319C81.1923 22.7319 81.8531 22.447 82.3908 21.8773C82.944 21.3076 83.2206 20.5301 83.2206 19.5445Z" fill="#29295F"></path><path d="M95.1756 26.1733C93.9157 26.1733 92.7787 25.9038 91.7647 25.3649C90.766 24.826 89.9747 24.0561 89.3908 23.0553C88.8224 22.0544 88.5381 20.8842 88.5381 19.5445C88.5381 18.2204 88.83 17.0578 89.4139 16.0569C89.9978 15.0407 90.7967 14.2631 91.8107 13.7242C92.8248 13.1853 93.9618 12.9159 95.2217 12.9159C96.4816 12.9159 97.6186 13.1853 98.6326 13.7242C99.6467 14.2631 100.446 15.0407 101.029 16.0569C101.613 17.0578 101.905 18.2204 101.905 19.5445C101.905 20.8688 101.606 22.039 101.006 23.0553C100.423 24.0561 99.616 24.826 98.5865 25.3649C97.5725 25.9038 96.4355 26.1733 95.1756 26.1733ZM95.1756 22.7549C95.9284 22.7549 96.5661 22.4779 97.0885 21.9235C97.6263 21.3692 97.8952 20.5763 97.8952 19.5445C97.8952 18.5129 97.6339 17.72 97.1115 17.1656C96.6045 16.6113 95.9745 16.3341 95.2217 16.3341C94.4535 16.3341 93.8158 16.6113 93.3088 17.1656C92.8018 17.7045 92.5482 18.4975 92.5482 19.5445C92.5482 20.5763 92.7941 21.3692 93.2858 21.9235C93.7928 22.4779 94.4228 22.7549 95.1756 22.7549Z" fill="#29295F"></path><path d="M105.286 11.761C104.595 11.761 104.026 11.5609 103.581 11.1605C103.151 10.7448 102.936 10.2367 102.936 9.63615C102.936 9.02024 103.151 8.51211 103.581 8.11176C104.026 7.69603 104.595 7.48816 105.286 7.48816C105.962 7.48816 106.516 7.69603 106.946 8.11176C107.391 8.51211 107.614 9.02024 107.614 9.63615C107.614 10.2367 107.391 10.7448 106.946 11.1605C106.516 11.5609 105.962 11.761 105.286 11.761ZM107.245 13.1007V25.9885H103.304V13.1007H107.245Z" fill="#29295F"></path><path d="M113.35 14.9252C113.734 14.3248 114.265 13.8397 114.941 13.4702C115.617 13.1006 116.409 12.9159 117.315 12.9159C118.375 12.9159 119.335 13.1853 120.196 13.7242C121.056 14.2631 121.733 15.033 122.224 16.0339C122.73 17.0348 122.985 18.1973 122.985 19.5215C122.985 20.8457 122.73 22.0159 122.224 23.0321C121.733 24.033 121.056 24.8106 120.196 25.3649C119.335 25.9038 118.375 26.1733 117.315 26.1733C116.423 26.1733 115.633 25.9885 114.941 25.619C114.265 25.2494 113.734 24.7721 113.35 24.187V32.1322H109.41V13.1006H113.35V14.9252ZM118.975 19.5215C118.975 18.5361 118.698 17.7662 118.144 17.2118C117.606 16.6422 116.939 16.3573 116.14 16.3573C115.356 16.3573 114.688 16.6422 114.134 17.2118C113.597 17.7815 113.328 18.5591 113.328 19.5445C113.328 20.5301 113.597 21.3076 114.134 21.8773C114.688 22.447 115.356 22.7319 116.14 22.7319C116.923 22.7319 117.592 22.447 118.144 21.8773C118.698 21.2922 118.975 20.5069 118.975 19.5215Z" fill="#29295F"></path><path d="M129.593 26.1733C128.471 26.1733 127.472 25.9808 126.596 25.5959C125.721 25.2109 125.029 24.6874 124.522 24.0253C124.015 23.3478 123.731 22.5933 123.669 21.7618H127.565C127.61 22.2083 127.818 22.5702 128.186 22.8473C128.556 23.1245 129.009 23.2631 129.547 23.2631C130.038 23.2631 130.414 23.1707 130.675 22.9859C130.952 22.7858 131.091 22.5317 131.091 22.2238C131.091 21.8542 130.899 21.5847 130.515 21.4154C130.131 21.2306 129.508 21.0305 128.647 20.8148C127.725 20.5993 126.958 20.376 126.343 20.1451C125.729 19.8988 125.199 19.5215 124.753 19.0133C124.307 18.4899 124.085 17.7892 124.085 16.9116C124.085 16.1725 124.284 15.5027 124.684 14.9022C125.098 14.2863 125.697 13.8012 126.481 13.4471C127.28 13.0929 128.225 12.9159 129.316 12.9159C130.929 12.9159 132.197 13.3162 133.119 14.1168C134.056 14.9176 134.594 15.98 134.733 17.3042H131.091C131.029 16.8577 130.829 16.5036 130.491 16.2417C130.169 15.98 129.739 15.8491 129.201 15.8491C128.74 15.8491 128.386 15.9415 128.141 16.1263C127.895 16.2956 127.772 16.5343 127.772 16.8423C127.772 17.2118 127.964 17.489 128.348 17.6738C128.748 17.8586 129.362 18.0433 130.192 18.228C131.144 18.4744 131.92 18.7208 132.519 18.9671C133.119 19.1981 133.641 19.583 134.086 20.122C134.547 20.6455 134.786 21.3538 134.802 22.2469C134.802 23.0014 134.586 23.6789 134.155 24.2794C133.741 24.8645 133.134 25.3265 132.335 25.6652C131.552 26.004 130.637 26.1733 129.593 26.1733Z" fill="#29295F"></path><path d="M149.22 13.1007V25.9885H145.279V24.2332C144.879 24.8029 144.334 25.2648 143.643 25.619C142.966 25.9578 142.214 26.1271 141.384 26.1271C140.4 26.1271 139.532 25.9116 138.78 25.4804C138.026 25.0339 137.443 24.3948 137.029 23.5634C136.613 22.7319 136.406 21.7542 136.406 20.6301V13.1007H140.323V20.0989C140.323 20.9612 140.547 21.6309 140.992 22.1083C141.437 22.5856 142.037 22.8243 142.79 22.8243C143.558 22.8243 144.165 22.5856 144.61 22.1083C145.056 21.6309 145.279 20.9612 145.279 20.0989V13.1007H149.22Z" fill="#29295F"></path><path d="M167.769 12.962C169.366 12.962 170.634 13.447 171.571 14.4171C172.523 15.3871 173 16.7344 173 18.4589V25.9885H169.082V18.9902C169.082 18.1587 168.859 17.5197 168.414 17.0732C167.983 16.6112 167.385 16.3802 166.616 16.3802C165.848 16.3802 165.241 16.6112 164.795 17.0732C164.366 17.5197 164.15 18.1587 164.15 18.9902V25.9885H160.231V18.9902C160.231 18.1587 160.009 17.5197 159.564 17.0732C159.133 16.6112 158.534 16.3802 157.766 16.3802C156.998 16.3802 156.391 16.6112 155.946 17.0732C155.515 17.5197 155.3 18.1587 155.3 18.9902V25.9885H151.359V13.1006H155.3V14.7173C155.7 14.1784 156.222 13.7549 156.867 13.447C157.513 13.1236 158.243 12.962 159.056 12.962C160.025 12.962 160.886 13.1698 161.638 13.5856C162.406 14.0013 163.005 14.5942 163.436 15.3641C163.881 14.6557 164.488 14.0783 165.256 13.6318C166.024 13.1853 166.862 12.962 167.769 12.962Z" fill="#29295F"></path><defs><linearGradient id="paint0_linear_5563_2489" x1="36.6633" y1="10.3753" x2="2.57309" y2="10.3753" gradientUnits="userSpaceOnUse"><stop stop-color="#64C2DB"></stop><stop offset="0.510417" stop-color="#7476ED"></stop><stop offset="1" stop-color="#E56F8C"></stop></linearGradient></defs></svg>