<svg xmlns="http://www.w3.org/2000/svg" width="148" height="27" viewBox="0 0 148 27" fill="none"><path d="M11.9964 0.233643L28.3136 0.233643L16.3172 17.9641H-6.10352e-05L11.9964 0.233643Z" fill="#007AFF"></path><path d="M12.711 19.6071L8.06445 26.4746H25.1557L37.1522 8.74414H24.5377L17.1878 19.6071H12.711Z" fill="#312ECB"></path><path d="M45.7726 4.85962C45.9067 5.84347 45.9515 6.49191 45.9515 8.16892V20.1539C45.9515 21.6521 45.9067 22.5912 45.7726 23.4632H50.6918C50.5576 22.5241 50.5129 21.6968 50.5129 20.1539V8.16892C50.5129 6.53663 50.5576 5.77638 50.6918 4.85962H45.7726Z" fill="#26254A"></path><path d="M57.8862 23.4632C57.752 22.3005 57.7073 21.3614 57.7073 20.0869V15.5701C58.6688 14.0049 59.7868 13.2223 61.039 13.2223C61.7098 13.2223 62.224 13.4459 62.5147 13.8484C62.783 14.2285 62.8725 14.6086 62.8725 15.503V20.0869C62.8725 21.4508 62.8278 22.39 62.6936 23.4632H67.3445C67.2327 22.5241 67.1656 21.4061 67.1656 20.1092V14.4968C67.1656 12.7304 66.7855 11.6347 65.8911 10.7403C65.0638 9.91301 63.834 9.48816 62.2911 9.48816C60.4576 9.48816 59.0936 10.0472 57.6849 11.3888C57.6849 11.2323 57.7073 10.8969 57.7073 10.7627V9.82357H53.2576C53.3918 10.718 53.4365 11.6571 53.4365 13.1999V20.0869C53.4365 21.4732 53.3918 22.4123 53.2576 23.4632H57.8862Z" fill="#26254A"></path><path d="M82.8485 13.9602C82.1106 10.9863 79.718 9.28692 76.2746 9.28692C71.9144 9.28692 69.097 12.149 69.097 16.621C69.097 18.8123 69.8125 20.78 71.1094 22.0546C72.3392 23.3067 74.1727 23.9775 76.3193 23.9775C78.9131 23.9775 80.9478 23.0608 82.0659 21.4061C82.4907 20.7577 82.759 20.1539 83.005 19.1925L78.8907 18.544C78.8013 19.0583 78.6895 19.2819 78.4882 19.5726C78.041 20.1987 77.2361 20.5564 76.364 20.5564C74.5752 20.5564 73.4349 18.9912 73.4349 16.5763C73.4349 14.1167 74.5081 12.6857 76.3193 12.6857C77.1243 12.6857 77.7504 12.954 78.1976 13.4683C78.4882 13.8037 78.6224 14.1167 78.8236 14.7875L82.8485 13.9602Z" fill="#26254A"></path><path d="M93.7116 14.631C92.1017 14.6757 91.4309 14.6981 90.5589 14.7875C88.5464 14.9664 87.0483 15.436 85.908 16.2409C84.8347 16.9788 84.2757 18.0968 84.2757 19.5055C84.2757 20.7353 84.7005 21.8086 85.5055 22.5465C86.3999 23.3738 87.6744 23.7763 89.3738 23.7763C91.2073 23.7763 92.4595 23.3962 93.7116 22.4347V23.4632H98.0495C97.9377 22.457 97.893 21.6521 97.893 20.2881V14.2509C97.893 12.2385 97.2669 11.0087 95.8358 10.226C94.9638 9.75649 93.3539 9.44344 91.6992 9.44344C89.5303 9.44344 87.8756 9.86829 86.6682 10.718C85.7291 11.3888 85.2371 12.1043 84.7899 13.4235L89.0607 14.1167C89.3961 13.0211 90.1564 12.5515 91.5874 12.5515C93.0632 12.5515 93.7116 13.0434 93.7116 14.1167V14.631ZM93.7116 18.1192C93.7116 18.79 93.421 19.3937 92.9067 19.8409C92.3029 20.3552 91.2967 20.6906 90.38 20.6906C89.2173 20.6906 88.5464 20.221 88.5464 19.4161C88.5464 18.7676 89.0384 18.2086 89.8433 17.9403C90.7601 17.6496 91.7216 17.5378 93.7116 17.4931V18.1192Z" fill="#26254A"></path><path d="M105.052 23.4632C104.918 22.3005 104.873 21.3614 104.873 20.0869V15.5701C105.835 14.0049 106.953 13.2223 108.205 13.2223C108.876 13.2223 109.39 13.4459 109.681 13.8484C109.949 14.2285 110.038 14.6086 110.038 15.503V20.0869C110.038 21.4508 109.994 22.39 109.859 23.4632H114.51C114.399 22.5241 114.332 21.4061 114.332 20.1092V14.4968C114.332 12.7304 113.951 11.6347 113.057 10.7403C112.23 9.91301 111 9.48816 109.457 9.48816C107.623 9.48816 106.26 10.0472 104.851 11.3888C104.851 11.2323 104.873 10.8969 104.873 10.7627V9.82357H100.424C100.558 10.718 100.602 11.6571 100.602 13.1999V20.0869C100.602 21.4732 100.558 22.4123 100.424 23.4632H105.052Z" fill="#26254A"></path><path d="M118.611 9.82357H117.806C117.023 9.82357 116.464 9.77885 115.816 9.68941V13.4235C116.464 13.3341 117.045 13.2894 117.761 13.2894H118.611V20.1316C118.611 21.6521 118.924 22.4123 119.773 23.0608C120.489 23.5974 121.54 23.8434 123.06 23.8434C124.268 23.8434 125.14 23.7092 126.146 23.3962L125.811 19.9974C125.252 20.2881 124.827 20.3999 124.245 20.3999C123.821 20.3999 123.463 20.3105 123.217 20.1539C122.926 19.9527 122.814 19.6397 122.814 19.0136V13.2894H123.754C124.558 13.2894 125.14 13.3341 125.811 13.4235V9.71177C125.117 9.80121 124.603 9.82357 123.619 9.82357H122.814V9.354C122.814 8.28072 122.881 7.20743 122.993 6.29067H118.432C118.566 7.34159 118.611 8.236 118.611 9.354V9.82357Z" fill="#26254A"></path><path d="M134.319 23.9775C138.769 23.9775 141.72 21.026 141.72 16.5763C141.72 12.149 138.858 9.30928 134.341 9.30928C129.825 9.30928 126.963 12.149 126.963 16.621C126.963 21.1154 129.825 23.9775 134.319 23.9775ZM134.364 12.6633C136.264 12.6633 137.405 14.1391 137.405 16.6434C137.405 19.1254 136.287 20.5788 134.341 20.5788C132.396 20.5788 131.233 19.0807 131.233 16.5987C131.233 14.1391 132.396 12.6633 134.364 12.6633Z" fill="#26254A"></path><path d="M143.483 18.9465V23.4632H148V18.9465H143.483Z" fill="#26254A"></path></svg>