<svg xmlns="http://www.w3.org/2000/svg" width="168" height="45" viewBox="0 0 168 45" fill="none"><path d="M55.8868 29.3976V10.4573H52.7701V29.3976H55.8868Z" fill="black"></path><path d="M57.7957 23.0843C57.7957 26.9538 60.4014 29.7032 64.361 29.7032C68.3206 29.7032 70.9263 26.9538 70.9263 23.0843C70.9263 19.2147 68.3206 16.4653 64.361 16.4653C60.4014 16.4653 57.7957 19.2147 57.7957 23.0843ZM60.9378 23.0843C60.9378 20.8185 62.2918 19.2402 64.361 19.2402C66.4302 19.2402 67.7842 20.8185 67.7842 23.0843C67.7842 25.3245 66.4302 26.9283 64.361 26.9283C62.2918 26.9283 60.9378 25.3245 60.9378 23.0843Z" fill="black"></path><path d="M71.9741 22.8293C71.9741 26.4952 74.3499 29.1428 77.9008 29.1428C79.7401 29.1428 81.324 28.4045 82.1159 27.1825V29.321C82.1159 31.383 80.8131 32.7577 78.6416 32.7577C76.7001 32.7577 75.3717 31.8158 75.1929 30.161H72.0508C72.4595 33.4451 74.9886 35.5835 78.4628 35.5835C82.5502 35.5835 85.1559 32.9104 85.1559 28.7609V16.8214H82.3969L82.2181 18.527C81.4517 17.2032 79.8679 16.4141 78.003 16.4141C74.401 16.4141 71.9741 19.138 71.9741 22.8293ZM75.1418 22.753C75.1418 20.6654 76.4702 19.138 78.4373 19.138C80.5832 19.138 82.0137 20.6909 82.0137 22.753C82.0137 24.8405 80.5832 26.4443 78.4373 26.4443C76.4958 26.4443 75.1418 24.8659 75.1418 22.753Z" fill="black"></path><path d="M86.698 23.0843C86.698 26.9538 89.3037 29.7032 93.2633 29.7032C97.223 29.7032 99.8287 26.9538 99.8287 23.0843C99.8287 19.2147 97.223 16.4653 93.2633 16.4653C89.3037 16.4653 86.698 19.2147 86.698 23.0843ZM89.8402 23.0843C89.8402 20.8185 91.1941 19.2402 93.2633 19.2402C95.3326 19.2402 96.6865 20.8185 96.6865 23.0843C96.6865 25.3245 95.3326 26.9283 93.2633 26.9283C91.1941 26.9283 89.8402 25.3245 89.8402 23.0843Z" fill="black"></path><path d="M103.202 14.2504C104.224 14.2504 105.067 13.4358 105.067 12.392C105.067 11.3737 104.224 10.5591 103.202 10.5591C102.154 10.5591 101.363 11.3737 101.363 12.392C101.363 13.4358 102.154 14.2504 103.202 14.2504ZM101.644 29.3975H104.76V16.8216H101.644V29.3975Z" fill="black"></path><path d="M107.49 35.2272H110.531V27.6664C111.322 28.9647 113.034 29.7285 114.924 29.7285C118.654 29.7285 120.877 26.8772 120.826 22.9568C120.749 19.0109 118.475 16.4397 114.899 16.4397C112.983 16.4397 111.246 17.2798 110.479 18.7309L110.301 16.8216H107.49V35.2272ZM110.658 23.1095C110.658 20.8438 112.038 19.2655 114.209 19.2655C116.381 19.2655 117.683 20.8693 117.683 23.1095C117.683 25.3498 116.381 26.9281 114.209 26.9281C112.038 26.9281 110.658 25.3752 110.658 23.1095Z" fill="black"></path><path d="M121.616 25.6298C121.719 28.1246 123.66 29.7285 126.675 29.7285C129.638 29.7285 131.656 28.1501 131.656 25.7062C131.656 23.8987 130.532 22.6768 128.463 22.1676L126.24 21.633C125.295 21.3784 124.656 21.0475 124.656 20.2328C124.656 19.3673 125.346 18.7563 126.47 18.7563C127.645 18.7563 128.412 19.4182 128.412 20.5129H131.247C131.145 18.0181 129.28 16.4397 126.547 16.4397C123.839 16.4397 121.821 18.0181 121.821 20.4111C121.821 22.0403 122.766 23.3896 125.193 24.026L127.39 24.5861C128.207 24.8152 128.718 25.197 128.718 25.9098C128.718 26.9027 127.773 27.3609 126.623 27.3609C125.244 27.3609 124.452 26.7245 124.452 25.6298H121.616Z" fill="black"></path><path d="M138.122 29.7287C139.833 29.7287 141.468 28.9395 142.209 27.7685L142.414 29.3977H145.326V16.8218H142.209V23.4152C142.209 25.6809 141.341 26.9538 139.297 26.9538C137.713 26.9538 136.615 26.1901 136.615 23.5934V16.8218H133.498V24.6881C133.498 27.6921 135.133 29.7287 138.122 29.7287Z" fill="black"></path><path d="M151.193 29.3975V22.1676C151.193 20.131 152.393 19.1636 153.875 19.1636C155.357 19.1636 156.327 20.1056 156.327 21.8876V29.3975H159.367V22.1931C159.367 20.131 160.542 19.1636 162.024 19.1636C163.531 19.1636 164.502 20.1056 164.502 21.8876V29.3975H167.517V21.1748C167.517 18.2726 165.907 16.4397 162.842 16.4397C160.926 16.4397 159.418 17.3562 158.805 18.8327C158.116 17.3562 156.736 16.4397 154.641 16.4397C153.16 16.4397 151.831 17.127 151.09 18.2472L150.937 16.8216H148.076V29.3975H151.193Z" fill="black"></path><path d="M143.72 40.6364C144.184 40.6364 144.588 40.2468 144.588 39.7841C144.588 39.3093 144.184 38.9197 143.72 38.9197C143.244 38.9197 142.84 39.3093 142.84 39.7841C142.84 40.2468 143.244 40.6364 143.72 40.6364Z" fill="black"></path><path d="M145.484 37.4952C145.484 39.358 146.633 40.6121 148.307 40.6121C149.748 40.6121 150.848 39.7476 151.08 38.457H149.98C149.773 39.1754 149.137 39.6015 148.38 39.6015C147.305 39.6015 146.621 38.7736 146.621 37.483C146.621 36.1681 147.341 35.3645 148.404 35.3645C149.137 35.3645 149.773 35.7541 149.968 36.5212H151.068C150.872 35.2184 149.846 34.3418 148.417 34.3418C146.682 34.3418 145.484 35.6202 145.484 37.4952Z" fill="black"></path><path d="M151.513 37.483C151.513 39.2728 152.735 40.6121 154.568 40.6121C156.4 40.6121 157.622 39.2728 157.622 37.483C157.622 35.6933 156.4 34.354 154.568 34.354C152.735 34.354 151.513 35.6933 151.513 37.483ZM152.674 37.483C152.674 36.2655 153.419 35.3767 154.568 35.3767C155.716 35.3767 156.461 36.2655 156.461 37.483C156.461 38.7006 155.716 39.5894 154.568 39.5894C153.419 39.5894 152.674 38.7006 152.674 37.483Z" fill="black"></path><path d="M159.751 40.4782V36.8986C159.751 35.9611 160.337 35.3524 161.193 35.3524C162.011 35.3524 162.524 35.8759 162.524 36.8134V40.4782H163.648V36.9108C163.648 35.9611 164.223 35.3524 165.09 35.3524C165.896 35.3524 166.41 35.8759 166.41 36.8134V40.4782H167.521V36.5699C167.521 35.1941 166.715 34.354 165.347 34.354C164.418 34.354 163.697 34.8045 163.404 35.535C163.099 34.8045 162.427 34.354 161.449 34.354C160.704 34.354 160.044 34.6949 159.714 35.2793L159.629 34.5245H158.602V40.4782H159.751Z" fill="black"></path><path fill-rule="evenodd" clip-rule="evenodd" d="M0.975708 23.2383L0.977852 23.0165L0.982272 22.7946L0.988981 22.5726L0.997966 22.3507L1.00925 22.1288L1.02281 21.9069L1.03867 21.6851L1.05681 21.4632L1.07725 21.2415L1.09997 21.0198L1.12499 20.7985L1.15228 20.5771L1.18186 20.356L1.21374 20.135L1.2479 19.9143L1.28434 19.694L1.32307 19.4737L1.36406 19.2539L1.40735 19.0343L1.45291 18.815L1.50075 18.5961L1.55084 18.3776L1.60322 18.1595L1.65784 17.9418L1.71475 17.7247L1.77389 17.5078L1.8353 17.2916L1.89895 17.0758L1.96485 16.8607L2.03298 16.646L2.10336 16.432L2.17596 16.2185L2.25079 16.0056L2.32783 15.7934L2.40709 15.5819L2.48855 15.3711L2.57222 15.161L2.65807 14.9516L2.74612 14.7431L2.83634 14.5352L2.92874 14.3281L3.0233 14.1219L3.12002 13.9166L3.2189 13.712L3.31992 13.5084L3.42307 13.3057L3.52834 13.1039L3.63573 12.903L3.74523 12.7033L3.85682 12.5044L3.97051 12.3064L4.08627 12.1097L4.2041 11.9139L4.32399 11.7192L4.44593 11.5256L4.56991 11.3331L4.69592 11.1418L4.82395 10.9516L4.95398 10.7626L5.08601 10.5748L5.22001 10.3882L5.35598 10.2029L5.49392 10.0187L5.6338 9.83598L5.77563 9.65445L5.91936 9.47419L6.06501 9.29533L6.21256 9.11781L6.36198 8.94167L6.51328 8.76691L6.66643 8.59357L6.82142 8.42166L6.97824 8.2512L7.13688 8.08221L7.29731 7.9147L7.45953 7.74869L7.62351 7.5842L7.78925 7.42126L7.95673 7.25987L8.12594 7.10005L8.29685 6.94184L8.46945 6.78522L8.64373 6.63024L8.81968 6.4769L8.99727 6.3252L9.17648 6.1752L9.3573 6.0269L9.53972 5.8803L9.72372 5.73542L9.90928 5.59229L10.0963 5.45092L10.285 5.31131L10.4752 5.17351L10.6668 5.03751L10.8598 4.90333L11.0544 4.77099L11.2503 4.64048L11.4477 4.51185L11.6465 4.3851L11.8468 4.26024L12.0483 4.1373L12.2512 4.01626L12.4553 3.89718L12.6608 3.78004L12.8676 3.66486L13.0757 3.55167L13.2849 3.44045L13.4954 3.33125L13.7071 3.22405L13.92 3.11889L14.1341 3.01577L14.3493 2.91469L14.5656 2.81568L14.783 2.71876L15.0015 2.62391L15.2211 2.53117L15.4417 2.44054L15.6633 2.35203L15.8858 2.26564L16.1094 2.18141L16.3339 2.09931L16.5594 2.0194L16.7857 1.94164L17.013 1.86607L17.241 1.79269L17.4699 1.72151L17.6997 1.65255L17.9303 1.5858L18.1616 1.52129L18.3937 1.45899L18.6265 1.39895L18.86 1.34116L19.0941 1.28564L19.329 1.23237L19.5645 1.18138L19.8005 1.13267L20.0372 1.08625L20.2744 1.04213L20.5122 1.00031L20.7506 0.960791L20.9894 0.92359L21.2286 0.888702L21.4683 0.85615L21.7085 0.825922L21.949 0.79803L22.19 0.772462L22.4312 0.749262L22.6728 0.728398L22.9147 0.709881L23.1568 0.693732L24.459 0.619629L24.5333 6.87182L24.5758 6.87133L24.7557 6.87108L24.9355 6.87258L25.1153 6.87585L25.2954 6.88088L25.4753 6.88768L25.6553 6.89622L25.8354 6.90655L26.0154 6.91865L26.1954 6.9325L26.3754 6.94812L26.5552 6.96552L26.735 6.98469L26.9146 7.00562L27.0942 7.02833L27.2736 7.0528L27.4529 7.07903L27.6319 7.10704L27.8109 7.13682L27.9895 7.16835L28.168 7.20166L28.3461 7.23672L28.5239 7.27356L28.7017 7.31214L28.8789 7.35249L29.0559 7.39458L29.2326 7.43843L29.4088 7.48405L29.5847 7.5314L29.7601 7.5805L29.9353 7.63133L30.1099 7.68391L30.2841 7.73822L30.4578 7.79427L30.631 7.85205L30.8038 7.91154L30.9759 7.97276L31.1476 8.03569L31.3187 8.10034L31.4892 8.16668L31.6591 8.23474L31.8284 8.30449L31.997 8.37593L32.165 8.44906L32.3324 8.52387L32.499 8.60035L32.665 8.6785L32.8302 8.75831L32.9947 8.83978L33.1584 8.92291L33.3214 9.00767L33.4835 9.09407L33.6449 9.18211L33.8054 9.27176L33.9651 9.36303L34.124 9.45591L34.2819 9.55041L34.439 9.64649L34.5951 9.74411L34.7503 9.84339L34.9046 9.94412L35.0578 10.0465L35.2102 10.1504L35.3615 10.2558L35.5119 10.3628L35.6612 10.4713L35.8094 10.5813L35.9566 10.6929L36.1027 10.8059L36.2477 10.9205L36.3916 11.0363L36.5344 11.1538L36.676 11.2728L36.8165 11.3931L36.9559 11.5148L37.0941 11.638L37.2309 11.7627L37.3667 11.8887L37.5012 12.0161L37.6345 12.1448L37.7664 12.275L37.8971 12.4065L38.0265 12.5394L38.1547 12.6736L38.2814 12.8091L38.4069 12.9459L38.531 13.084L38.6537 13.2234L38.7751 13.364L38.8951 13.5059L39.0137 13.649L39.1309 13.7935L39.2466 13.939L39.3609 14.0858L39.4738 14.2338L39.5852 14.383L39.695 14.5333L39.8034 14.6848L39.9103 14.8375L40.0157 14.9911L40.1195 15.1459L40.2218 15.3019L40.3226 15.459L40.4216 15.617L40.5193 15.7761L40.6152 15.9362L40.7096 16.0974L40.8024 16.2595L40.8936 16.4227L40.9831 16.5868L41.071 16.7519L41.1571 16.9179L41.2417 17.0848L41.3245 17.2526L41.4057 17.4214L41.4852 17.591L41.563 17.7614L41.6391 17.9328L41.7134 18.1049L41.7859 18.2779L41.8568 18.4515L41.9259 18.6261L41.9932 18.8013L42.0587 18.9774L42.1225 19.154L42.1844 19.3316L42.2446 19.5097L42.3031 19.6885L42.3596 19.868L42.4143 20.048L42.4672 20.2288L42.5183 20.4101L42.5675 20.5921L42.6149 20.7746L42.6604 20.9575L42.7041 21.1412L42.7459 21.3252L42.7858 21.5098L42.8239 21.6948L42.86 21.8804L42.8942 22.0664L42.9266 22.2528L42.957 22.4395L42.9856 22.6267L43.0122 22.8143L43.0369 23.0021L43.0597 23.1904L43.0805 23.3789L43.0994 23.5677L43.1164 23.7567L43.1315 23.9461L43.1446 24.1357L43.1557 24.3255L43.165 24.5155L43.1723 24.7057L43.1775 24.896L43.181 25.0865L43.1823 25.2771L43.1817 25.4678L43.1792 25.6586L43.1746 25.8496L43.1682 26.0404L43.1597 26.2313L43.1494 26.4222L43.137 26.6132L43.1226 26.8041L43.1063 26.9949L43.088 27.1857L43.0678 27.3764L43.0454 27.5669L43.0212 27.7574L42.9951 27.9477L42.9669 28.1378L42.9368 28.3278L42.9047 28.5175L42.8706 28.707L42.8346 28.8963L42.7967 29.0853L42.7567 29.274L42.7147 29.4624L42.6708 29.6506L42.625 29.8383L42.5772 30.0257L42.5274 30.2126L42.4758 30.3992L42.4221 30.5854L42.3666 30.7711L42.3091 30.9565L42.2495 31.1413L42.1882 31.3257L42.1249 31.5094L42.0596 31.6927L41.9925 31.8754L41.9234 32.0575L41.8524 32.239L41.7796 32.42L41.7048 32.6003L41.6282 32.7799L41.5497 32.959L41.4693 33.1372L41.3869 33.3149L41.3028 33.4918L41.2168 33.6679L41.1288 33.8433L41.0392 34.0178L40.9476 34.1917L40.8543 34.3646L40.759 34.5368L40.662 34.7081L40.5631 34.8785L40.4625 35.0481L40.3601 35.2167L40.2559 35.3845L40.1499 35.5511L40.0421 35.7169L39.9327 35.8818L39.8214 36.0456L39.7085 36.2084L39.5937 36.3702L39.4773 36.5309L39.3591 36.6906L39.2393 36.8492L39.1178 37.0068L38.9946 37.163L38.8698 37.3183L38.7433 37.4724L38.6151 37.6253L38.4852 37.777L38.3539 37.9275L38.2208 38.0768L38.0862 38.2249L37.95 38.3718L37.8123 38.5174L37.6729 38.6617L37.532 38.8046L37.3895 38.9463L37.2456 39.0866L37.1002 39.2256L36.9533 39.3633L36.8049 39.4996L36.6549 39.6345L36.5035 39.7679L36.3508 39.8999L36.1965 40.0306L36.0409 40.1598L35.8839 40.2874L35.7255 40.4137L35.5657 40.5385L35.4045 40.6617L35.242 40.7833L35.0782 40.9035L34.9131 41.0222L34.7466 41.1391L34.5789 41.2547L34.41 41.3686L34.2398 41.4808L34.0683 41.5915L33.8957 41.7007L33.7219 41.808L33.5469 41.9138L33.3706 42.0179L33.1932 42.1204L33.0148 42.2211L32.8351 42.32L32.6545 42.4174L32.4727 42.513L32.2899 42.6068L32.1059 42.699L31.921 42.7893L31.7351 42.8779L31.5482 42.9648L31.3602 43.0498L31.1714 43.133L30.9816 43.2144L30.7909 43.294L30.5993 43.3718L30.4068 43.4477L30.2134 43.5217L30.0192 43.594L29.8241 43.6643L29.6282 43.7328L29.4316 43.7993L29.2342 43.8641L29.036 43.9268L28.837 43.9877L28.6375 44.0467L28.4372 44.1037L28.2362 44.1588L28.0346 44.2121L27.8322 44.2632L27.6294 44.3125L27.4259 44.3598L27.2218 44.4051L27.0172 44.4485L26.812 44.4899L26.6063 44.5293L26.4002 44.5667L26.1936 44.602L25.9864 44.6354L25.779 44.6669L25.5709 44.6962L25.3627 44.7235L25.154 44.7489L24.9448 44.7721L24.7355 44.7934L24.5258 44.8127L24.3158 44.8298L24.1056 44.845L23.8951 44.858L23.6843 44.8691L23.4734 44.8781L23.2623 44.8849L23.051 44.8898L22.8396 44.8926L22.628 44.8933L22.4164 44.892L22.2047 44.8886L21.9929 44.8832L21.7811 44.8755L21.5693 44.8659L21.3575 44.8543L21.1458 44.8404L20.934 44.8246L20.7224 44.8067L20.5108 44.7866L20.2993 44.7646L20.0881 44.7405L19.8769 44.7143L19.6659 44.6859L19.4552 44.6555L19.2446 44.623L19.0343 44.5885L18.8243 44.552L18.6145 44.5133L18.4051 44.4725L18.196 44.4298L17.9873 44.3849L17.7788 44.3379L17.5709 44.289L17.3633 44.238L17.1562 44.1848L16.9495 44.1297L16.7433 44.0726L16.5376 44.0134L16.3323 43.9522L16.1278 43.8889L15.9237 43.8236L15.7202 43.7563L15.5173 43.6869L15.3151 43.6155L15.1135 43.5422L14.9125 43.4668L14.7123 43.3895L14.5128 43.3101L14.314 43.2288L14.1159 43.1454L13.9187 43.0602L13.7222 42.973L13.5265 42.8838L13.3317 42.7926L13.1378 42.6995L12.9447 42.6044L12.7525 42.5074L12.5612 42.4086L12.3709 42.3078L12.1814 42.2052L11.9931 42.1006L11.8057 41.9941L11.6193 41.8857L11.4339 41.7755L11.2497 41.6635L11.0664 41.5495L10.8843 41.4338L10.7033 41.3161L10.5234 41.1968L10.3447 41.0755L10.1672 40.9525L9.99081 40.8278L9.81566 40.7012L9.64175 40.5729L9.46908 40.4427L9.29769 40.3109L9.12758 40.1774L8.95876 40.042L8.79128 39.9051L8.62513 39.7664L8.46033 39.6261L8.29692 39.4841L8.1349 39.3403L7.97429 39.195L7.81512 39.0481L7.65738 38.8995L7.50111 38.7494L7.34632 38.5975L7.19303 38.4442L7.04125 38.2894L6.891 38.1329L6.7423 37.9749L6.59517 37.8154L6.44962 37.6544L6.30567 37.4919L6.16332 37.328L6.0226 37.1625L5.88353 36.9957L5.74613 36.8273L5.61039 36.6577L5.47635 36.4865L5.34401 36.3141L5.21339 36.1402L5.08451 35.965L4.95738 35.7884L4.832 35.6106L4.70841 35.4315L4.58661 35.2511L4.46663 35.0693L4.34846 34.8865L4.23211 34.7023L4.11762 34.5169L4.005 34.3304L3.89424 34.1426L3.78538 33.9538L3.67841 33.7637L3.57334 33.5726L3.47022 33.3802L3.36901 33.1868L3.26977 32.9925L3.17247 32.797L3.07716 32.6005L2.98383 32.403L2.89249 32.2045L2.80315 32.0049L2.71583 31.8046L2.63054 31.6031L2.54729 31.4009L2.46608 31.1977L2.38693 30.9936L2.30986 30.7887L2.23485 30.583L2.16194 30.3764L2.09111 30.1691L2.02239 29.9609L1.95579 29.7521L1.8913 29.5424L1.82896 29.3321L1.76875 29.1211L1.71068 28.9093L1.65477 28.697L1.60102 28.4841L1.54944 28.2704L1.50005 28.0563L1.45283 27.8414L1.4078 27.6261L1.36497 27.4103L1.32435 27.194L1.28593 26.9772L1.24973 26.7599L1.21574 26.5422L1.18399 26.3241L1.15446 26.1055L1.12719 25.8865L1.10214 25.6673L1.07934 25.4477L1.05879 25.2278L1.0405 25.0076L1.02446 24.7871L1.01068 24.5664L0.999177 24.3455L0.989936 24.1243L0.982961 23.9031L0.978263 23.6816L0.975852 23.46L0.975708 23.2383ZM22.499 7.00278L22.4483 2.74121L22.4002 2.74584L22.1794 2.76926L21.9592 2.79481L21.739 2.82252L21.5198 2.8523L21.3007 2.88424L21.0819 2.91832L20.8638 2.95449L20.6459 2.99282L20.4291 3.03314L20.2119 3.07572L19.9963 3.12022L19.7804 3.16696L19.5656 3.21568L19.351 3.26658L19.1374 3.31942L18.9244 3.37438L18.7119 3.4314L18.5001 3.49047L18.2893 3.55152L18.0788 3.61468L17.8694 3.67979L17.6606 3.74698L17.4529 3.81602L17.2456 3.88725L17.0393 3.96038L16.8341 4.03545L16.6294 4.11256L16.4258 4.19155L16.2233 4.27245L16.0214 4.35543L15.8204 4.44029L15.6205 4.52709L15.4217 4.61572L15.2239 4.70627L15.0272 4.79865L14.8311 4.89306L14.6365 4.9892L14.4429 5.08721L14.2505 5.18707L14.0591 5.28878L13.869 5.39222L13.6798 5.49758L13.4917 5.60477L13.3054 5.71349L13.1195 5.82432L12.9355 5.93664L12.7527 6.0507L12.5707 6.16663L12.3903 6.28425L12.2111 6.40359L12.0336 6.52434L11.8568 6.64722L11.6817 6.77142L11.508 6.89733L11.3355 7.02497L11.1646 7.15413L10.9952 7.28484L10.8268 7.41738L10.6603 7.55119L10.4951 7.68675L10.3314 7.82379L10.1691 7.96242L10.0085 8.10238L9.84906 8.24412L9.69148 8.38711L9.53524 8.53175L9.3808 8.67761L9.22778 8.82505L9.07646 8.97382L8.92668 9.12407L8.77836 9.27586L8.63198 9.42869L8.48725 9.58284L8.3438 9.7388L8.20234 9.89575L8.06261 10.0538L7.92432 10.2135L7.78804 10.3742L7.65327 10.5364L7.5203 10.6996L7.38909 10.8642L7.25958 11.0299L7.13198 11.1967L7.00605 11.3647L6.88185 11.5341L6.75965 11.7042L6.63909 11.8758L6.52044 12.0482L6.40363 12.2218L6.28857 12.3964L6.17546 12.5721L6.0642 12.7486L5.95481 12.9263L5.84737 13.1048L5.7417 13.2845L5.63792 13.4651L5.5362 13.6464L5.43629 13.8287L5.33829 14.012L5.24228 14.1961L5.14816 14.381L5.05606 14.5666L4.96588 14.7531L4.8777 14.9404L4.79143 15.1286L4.7072 15.3173L4.62489 15.5069L4.54459 15.6972L4.46634 15.888L4.39004 16.0796L4.31575 16.2718L4.2435 16.4646L4.17324 16.6581L4.10507 16.852L4.03886 17.0467L3.97471 17.2419L3.91261 17.4376L3.85256 17.6336L3.79452 17.8304L3.73857 18.0274L3.68467 18.225L3.63281 18.4229L3.58302 18.6213L3.5353 18.82L3.48965 19.0191L3.44607 19.2186L3.40456 19.4184L3.36513 19.6184L3.32777 19.8187L3.29249 20.0193L3.2593 20.2202L3.22818 20.4212L3.19915 20.6224L3.1722 20.8238L3.14734 21.0254L3.12456 21.227L3.10386 21.4289L3.08526 21.6308L3.06873 21.8327L3.05429 22.0348L3.04194 22.2369L3.03167 22.4389L3.02348 22.641L3.01737 22.843L3.01335 23.045L3.0114 23.2469L3.01153 23.4488L3.01373 23.6505L3.01801 23.8521L3.02435 24.0536L3.03276 24.2548L3.04324 24.4559L3.05577 24.6567L3.07036 24.8574L3.08701 25.0577L3.10572 25.2578L3.12646 25.4577L3.14925 25.6572L3.17407 25.8564L3.20093 26.0552L3.22982 26.2537L3.26074 26.4518L3.29366 26.6494L3.32861 26.8466L3.36557 27.0434L3.40452 27.2396L3.44547 27.4356L3.48841 27.6308L3.53334 27.8256L3.58024 28.0199L3.62911 28.2136L3.67996 28.4067L3.73274 28.5991L3.7875 28.791L3.84419 28.9823L3.90281 29.1729L3.96337 29.3628L4.02582 29.5519L4.0902 29.7404L4.15648 29.9282L4.22466 30.1152L4.2947 30.3014L4.36666 30.4869L4.44045 30.6715L4.5161 30.8554L4.59361 31.0383L4.67295 31.2204L4.75413 31.4017L4.83712 31.5821L4.92192 31.7615L5.00851 31.9401L5.0969 32.1176L5.18706 32.2943L5.27899 32.4699L5.37267 32.6446L5.4681 32.8182L5.56525 32.9908L5.66413 33.1624L5.76471 33.3329L5.86701 33.5023L5.97093 33.6706L6.07661 33.8379L6.18389 34.0039L6.29285 34.1689L6.40344 34.3327L6.51563 34.4953L6.62943 34.6568L6.74487 34.8171L6.86185 34.9761L6.98044 35.134L7.10053 35.2905L7.22223 35.4458L7.34538 35.5997L7.47009 35.7525L7.59633 35.904L7.72398 36.0541L7.85316 36.2029L7.98377 36.3503L8.11586 36.4964L8.24935 36.6411L8.38422 36.7844L8.52052 36.9263L8.65819 37.0669L8.79728 37.206L8.93767 37.3436L9.07944 37.4798L9.22247 37.6145L9.36683 37.7479L9.51252 37.8797L9.65946 38.01L9.80757 38.1387L9.95705 38.266L10.1078 38.3917L10.2595 38.5159L10.4127 38.6387L10.5668 38.7597L10.7222 38.8792L10.8787 38.9972L11.0364 39.1135L11.1951 39.2282L11.355 39.3413L11.5158 39.4528L11.6779 39.5627L11.8408 39.6708L12.005 39.7774L12.1699 39.8823L12.3359 39.9855L12.503 40.0871L12.6708 40.1869L12.8398 40.2851L13.0095 40.3815L13.1802 40.4763L13.3517 40.5692L13.5242 40.6606L13.6973 40.7501L13.8714 40.838L14.0463 40.924L14.222 41.0083L14.3984 41.0909L14.5756 41.1717L14.7534 41.2506L14.9321 41.3279L15.1114 41.4032L15.2914 41.477L15.472 41.5488L15.6533 41.6187L15.8352 41.687L16.0176 41.7534L16.2006 41.818L16.3843 41.8807L16.5685 41.9417L16.7532 42.0008L16.9382 42.0581L17.1241 42.1135L17.3101 42.1671L17.4967 42.2188L17.6837 42.2687L17.8711 42.3167L18.0589 42.3629L18.247 42.4071L18.4356 42.4496L18.6244 42.4902L18.8134 42.5289L19.0029 42.5658L19.1926 42.6007L19.3826 42.6338L19.5727 42.665L19.7631 42.6944L19.9537 42.7218L20.1445 42.7474L20.3353 42.7712L20.5264 42.793L20.7175 42.8129L20.9088 42.8311L21.1001 42.8472L21.2915 42.8616L21.4829 42.874L21.6744 42.8846L21.8657 42.8933L22.0571 42.9001L22.2485 42.9051L22.4399 42.9081L22.631 42.9093L22.8222 42.9087L23.0132 42.9061L23.204 42.9018L23.3947 42.8955L23.5853 42.8874L23.7757 42.8774L23.9657 42.8656L24.1557 42.852L24.3454 42.8365L24.5348 42.8191L24.7238 42.7999L24.9126 42.7788L25.101 42.756L25.2891 42.7313L25.4768 42.7048L25.6642 42.6764L25.8512 42.6463L26.0378 42.6144L26.2239 42.5806L26.4095 42.5451L26.5947 42.5078L26.7794 42.4686L26.9635 42.4277L27.1471 42.385L27.3303 42.3405L27.5128 42.2944L27.6947 42.2463L27.876 42.1966L28.0568 42.1452L28.2368 42.0919L28.4163 42.037L28.595 41.9805L28.7732 41.922L28.9506 41.862L29.1271 41.8003L29.3031 41.7367L29.4783 41.6716L29.6526 41.6048L29.8262 41.5364L29.999 41.4663L30.1709 41.3945L30.342 41.3211L30.5123 41.2461L30.6816 41.1695L30.8502 41.0912L31.0178 41.0113L31.1844 40.93L31.3502 40.8468L31.5149 40.7623L31.6788 40.6762L31.8417 40.5884L32.0034 40.4992L32.1643 40.4084L32.324 40.3162L32.4829 40.2224L32.6404 40.1272L32.7972 40.0303L32.9526 39.9321L33.107 39.8324L33.2604 39.7312L33.4127 39.6285L33.5635 39.5247L33.7134 39.4192L33.8621 39.3124L34.0096 39.2043L34.156 39.0946L34.3009 38.9838L34.445 38.8713L34.5875 38.7578L34.7288 38.6429L34.869 38.5266L35.0079 38.4089L35.1453 38.2901L35.2815 38.1699L35.4164 38.0486L35.55 37.926L35.6823 37.8021L35.813 37.6772L35.9426 37.5508L36.0708 37.4233L36.1975 37.2946L36.3229 37.1648L36.4468 37.034L36.5692 36.902L36.6905 36.7686L36.81 36.6344L36.9283 36.4989L37.0449 36.3626L37.1602 36.225L37.2739 36.0865L37.3861 35.9469L37.497 35.8063L37.6061 35.6648L37.714 35.5221L37.82 35.3787L37.9248 35.2341L38.0281 35.0886L38.1294 34.9425L38.2295 34.7952L38.3278 34.6472L38.4246 34.4981L38.52 34.3481L38.6135 34.1976L38.7055 34.0462L38.796 33.8935L38.8847 33.7407L38.9718 33.5867L39.0575 33.432L39.1412 33.2768L39.2235 33.1205L39.3042 32.9636L39.3829 32.8065L39.4602 32.6481L39.5359 32.4892L39.6097 32.3298L39.6819 32.1697L39.7524 32.009L39.8212 31.8479L39.8884 31.6858L39.9538 31.5233L40.0175 31.3607L40.0794 31.1969L40.1396 31.0331L40.1983 30.8685L40.2551 30.7036L40.3102 30.5381L40.3634 30.3727L40.4152 30.206L40.465 30.0395L40.5131 29.8725L40.5595 29.7052L40.6041 29.5373L40.6469 29.3694L40.6881 29.201L40.7274 29.0322L40.7651 28.8633L40.8009 28.6939L40.8349 28.5247L40.8673 28.3547L40.8978 28.1851L40.9266 28.0149L40.9536 27.8445L40.9788 27.6742L41.0023 27.5035L41.024 27.3331L41.044 27.1618L41.0621 26.9913L41.0785 26.8201L41.0931 26.6494L41.1059 26.478L41.1171 26.3073L41.1264 26.1361L41.1339 25.9648L41.1397 25.7939L41.1438 25.6233L41.146 25.4521L41.1466 25.2812L41.1454 25.1105L41.1424 24.94L41.1376 24.7694L41.131 24.5995L41.1228 24.4289L41.1128 24.2591L41.1011 24.0893L41.0876 23.9201L41.0724 23.7505L41.0555 23.5817L41.0369 23.4128L41.0164 23.2445L40.9943 23.0763L40.9706 22.9086L40.9449 22.7408L40.9177 22.5737L40.8888 22.4073L40.8582 22.2407L40.8257 22.0747L40.7917 21.9093L40.756 21.7438L40.7188 21.5796L40.6795 21.4151L40.639 21.2517L40.5965 21.0881L40.5525 20.9258L40.5068 20.7636L40.4595 20.6018L40.4106 20.441L40.3601 20.2807L40.3078 20.1205L40.2542 19.9616L40.1986 19.8028L40.1417 19.6449L40.0831 19.4874L40.023 19.331L39.9611 19.1749L39.8978 19.0196L39.8331 18.8653L39.7668 18.7116L39.6986 18.5582L39.6294 18.4063L39.5582 18.2544L39.4858 18.104L39.4118 17.9541L39.3362 17.8048L39.2593 17.6567L39.1808 17.5093L39.1007 17.3625L39.0196 17.2172L38.9366 17.0722L38.8524 16.9284L38.7666 16.7853L38.6797 16.6436L38.591 16.5023L38.5012 16.3623L38.4098 16.2229L38.3172 16.0848L38.2233 15.9479L38.1278 15.8115L38.0311 15.6763L37.9331 15.5422L37.8337 15.4093L37.7331 15.2771L37.6311 15.1463L37.5279 15.0163L37.4234 14.8876L37.3177 14.76L37.2106 14.6334L37.1023 14.508L36.9929 14.3837L36.8824 14.2606L36.7705 14.1386L36.6573 14.0176L36.5434 13.8983L36.4277 13.7797L36.3114 13.6627L36.1938 13.5466L36.0751 13.4319L35.955 13.3181L35.8343 13.2061L35.7122 13.095L35.589 12.9852L35.4651 12.8768L35.3401 12.7697L35.2136 12.6635L35.0864 12.5589L34.9583 12.4557L34.8292 12.3537L34.699 12.253L34.5681 12.1539L34.4359 12.0556L34.3031 11.9592L34.1693 11.864L34.0345 11.7701L33.8991 11.6777L33.7622 11.5863L33.6254 11.4969L33.487 11.4085L33.3482 11.3216L33.2082 11.236L33.0677 11.1519L32.9264 11.0693L32.7846 10.9883L32.6414 10.9083L32.4982 10.8301L32.3539 10.7532L32.2089 10.6778L32.0634 10.604L31.917 10.5315L31.7701 10.4605L31.6226 10.3911L31.4743 10.323L31.3257 10.2566L31.1763 10.1915L31.0216 10.126L30.8761 10.0661L30.7247 10.0054L30.5735 9.94666L30.4211 9.889L30.2687 9.83321L30.1157 9.77875L29.9623 9.72596L29.8082 9.67449L29.6541 9.62479L29.4992 9.57653L29.3441 9.52982L29.1888 9.48478L29.0329 9.44112L28.8764 9.39897L28.7201 9.35854L28.5635 9.31965L28.4059 9.28218L28.2488 9.24644L28.091 9.21213L27.9332 9.17947L27.7748 9.14831L27.6166 9.11878L27.458 9.09077L27.2995 9.0644L27.1402 9.03949L26.9814 9.01624L26.8222 8.99452L26.6629 8.97437L26.5035 8.95579L26.3441 8.93881L26.1846 8.92338L26.025 8.90953L25.8653 8.89723L25.7054 8.88649L25.546 8.87735L25.3865 8.86977L25.2265 8.86374L25.0673 8.85929L24.9078 8.85639L24.7485 8.85506L24.5888 8.85528L24.5569 8.85565L24.6072 13.0862L24.6977 13.0858L24.8142 13.0864L24.9307 13.0882L25.0473 13.0912L25.1641 13.0953L25.2808 13.1006L25.3975 13.107L25.5144 13.1146L25.6312 13.1233L25.7481 13.1332L25.8649 13.1442L25.9817 13.1564L26.0985 13.1698L26.2152 13.1843L26.3319 13.1999L26.4485 13.2168L26.565 13.2348L26.6814 13.2539L26.7978 13.2743L26.914 13.2957L27.0301 13.3184L27.146 13.3422L27.2619 13.3671L27.3775 13.3933L27.4929 13.4206L27.6082 13.449L27.7231 13.4786L27.838 13.5094L27.9526 13.5412L28.067 13.5743L28.1812 13.6085L28.295 13.6438L28.4085 13.6804L28.5218 13.718L28.6349 13.7569L28.7475 13.7968L28.8599 13.8379L28.9719 13.88L29.0836 13.9234L29.1949 13.9679L29.3059 14.0135L29.4164 14.0604L29.5266 14.1082L29.6363 14.1572L29.7456 14.2072L29.8544 14.2585L29.963 14.3108L30.0709 14.3643L30.1784 14.4189L30.2855 14.4745L30.392 14.5312L30.4981 14.5891L30.6036 14.648L30.7086 14.708L30.8131 14.7691L30.9171 14.8313L31.0203 14.8945L31.1231 14.9588L31.2253 15.0242L31.3269 15.0906L31.4279 15.158L31.5283 15.2265L31.628 15.2961L31.7271 15.3666L31.8255 15.4383L31.9232 15.511L32.0204 15.5846L32.1167 15.6593L32.2125 15.735L32.3074 15.8116L32.4017 15.8893L32.4952 15.968L32.5881 16.0476L32.6802 16.1282L32.7715 16.2097L32.862 16.2923L32.9516 16.3758L33.0406 16.4602L33.1287 16.5455L33.216 16.6319L33.3025 16.7191L33.3881 16.8073L33.473 16.8963L33.5569 16.9863L33.6399 17.0772L33.7221 17.1689L33.8034 17.2615L33.8838 17.355L33.9634 17.4493L34.042 17.5445L34.1196 17.6405L34.1964 17.7374L34.2721 17.8351L34.347 17.9336L34.4209 18.033L34.4937 18.1331L34.5657 18.234L34.6366 18.3358L34.7065 18.4382L34.7754 18.5415L34.8433 18.6455L34.9101 18.7503L34.976 18.8557L35.0409 18.9619L35.1046 19.0688L35.1673 19.1765L35.2289 19.2848L35.2894 19.3938L35.3489 19.5035L35.4073 19.6138L35.4646 19.7248L35.5207 19.8365L35.5758 19.9489L35.6297 20.0618L35.6825 20.1752L35.7342 20.2894L35.7847 20.4041L35.8341 20.5194L35.8823 20.6353L35.9294 20.7518L35.9753 20.8688L36.0199 20.9862L36.0635 21.1043L36.1058 21.2228L36.147 21.3419L36.187 21.4615L36.2256 21.5816L36.2632 21.702L36.2995 21.823L36.3346 21.9444L36.3685 22.0663L36.401 22.1886L36.4325 22.3112L36.4626 22.4343L36.4914 22.5577L36.5191 22.6816L36.5454 22.8057L36.5705 22.9303L36.5943 23.0551L36.6168 23.1804L36.6382 23.3059L36.6581 23.4317L36.6768 23.5578L36.6942 23.6841L36.7104 23.8108L36.7252 23.9377L36.7387 24.0649L36.7509 24.1922L36.7619 24.3198L36.7714 24.4475L36.7798 24.5755L36.7867 24.7035L36.7923 24.8318L36.7967 24.9603L36.7997 25.0888L36.8013 25.2175L36.8017 25.3464L36.8006 25.4752L36.7983 25.6042L36.7947 25.7332L36.7897 25.8624L36.7833 25.9915L36.7757 26.1206L36.7667 26.2499L36.7563 26.3791L36.7446 26.5082L36.7316 26.6374L36.7171 26.7665L36.7015 26.8956L36.6844 27.0246L36.6659 27.1535L36.6462 27.2824L36.625 27.4111L36.6026 27.5397L36.5787 27.6682L36.5536 27.7966L36.5271 27.9248L36.4992 28.0528L36.4701 28.1807L36.4396 28.3083L36.4077 28.4357L36.3745 28.563L36.3399 28.6899L36.3041 28.8167L36.2668 28.9431L36.2283 29.0693L36.1884 29.1952L36.1471 29.3208L36.1046 29.446L36.0607 29.571L36.0156 29.6956L35.9691 29.8198L35.9212 29.9437L35.8721 30.0672L35.8217 30.1903L35.7699 30.313L35.7168 30.4352L35.6625 30.5571L35.6069 30.6785L35.5499 30.7994L35.4917 30.9198L35.4322 31.0398L35.3713 31.1592L35.3092 31.2782L35.2459 31.3965L35.1812 31.5144L35.1154 31.6317L35.0483 31.7485L34.9799 31.8646L34.9102 31.9802L34.8394 32.0951L34.7673 32.2096L34.6939 32.3233L34.6194 32.4364L34.5435 32.5487L34.4665 32.6605L34.3883 32.7716L34.3089 32.882L34.2283 32.9917L34.1465 33.1007L34.0636 33.209L33.9794 33.3164L33.8941 33.4231L33.8075 33.5292L33.7199 33.6343L33.6312 33.7388L33.5412 33.8424L33.4501 33.9452L33.3579 34.0472L33.2646 34.1483L33.1702 34.2486L33.0748 34.3481L32.9782 34.4466L32.8805 34.5444L32.7817 34.6411L32.682 34.7371L32.581 34.832L32.4791 34.926L32.3762 35.0192L32.2721 35.1113L32.1671 35.2025L32.0611 35.2928L31.9541 35.382L31.846 35.4703L31.7371 35.5576L31.627 35.6438L31.5161 35.729L31.4042 35.8132L31.2914 35.8964L31.1775 35.9785L31.0629 36.0596L30.9473 36.1395L30.8308 36.2185L30.7132 36.2963L30.595 36.373L30.4758 36.4486L30.3558 36.5231L30.2349 36.5963L30.1132 36.6686L29.9906 36.7397L29.8673 36.8095L29.7432 36.8782L29.6182 36.9459L29.4925 37.0123L29.366 37.0775L29.2387 37.1415L29.1107 37.2042L28.982 37.2659L28.8525 37.3262L28.7223 37.3853L28.5915 37.4432L28.46 37.4999L28.3277 37.5552L28.1948 37.6093L28.0613 37.6622L27.9272 37.7138L27.7924 37.7642L27.657 37.8132L27.5211 37.8609L27.3845 37.9073L27.2474 37.9524L27.1097 37.9962L26.9715 38.0387L26.8328 38.0798L26.6935 38.1196L26.5538 38.1581L26.4135 38.1952L26.2728 38.2309L26.1316 38.2653L25.99 38.2984L25.8478 38.3301L25.7054 38.3604L25.5625 38.3893L25.4192 38.4169L25.2756 38.4431L25.1315 38.4679L24.9871 38.4912L24.8425 38.5132L24.6975 38.5338L24.5521 38.5529L24.4065 38.5707L24.2606 38.587L24.1145 38.6019L23.9681 38.6154L23.8215 38.6275L23.6746 38.6381L23.5276 38.6473L23.3803 38.6551L23.2329 38.6614L23.0853 38.6662L22.9376 38.6697L22.7897 38.6717L22.6417 38.6722L22.4936 38.6713L22.3456 38.6689L22.1973 38.6651L22.049 38.6598L21.9007 38.6531L21.7523 38.6449L21.6041 38.6353L21.4557 38.6242L21.3074 38.6116L21.1591 38.5975L21.0108 38.582L20.8627 38.5651L20.7146 38.5467L20.5666 38.5268L20.4187 38.5054L20.271 38.4826L20.1234 38.4584L19.9759 38.4326L19.8286 38.4055L19.6816 38.3768L19.5347 38.3466L19.388 38.315L19.2416 38.2821L19.0954 38.2475L18.9495 38.2116L18.8039 38.1741L18.6585 38.1353L18.5134 38.095L18.3688 38.0533L18.2244 38.0101L18.0804 37.9655L17.9368 37.9193L17.7936 37.8719L17.6506 37.8229L17.5082 37.7726L17.3663 37.7208L17.2247 37.6675L17.0836 37.6129L16.943 37.5569L16.8028 37.4993L16.6632 37.4404L16.5242 37.3802L16.3857 37.3184L16.2476 37.2553L16.1102 37.1909L15.9734 37.1251L15.8371 37.0578L15.7014 36.9892L15.5664 36.9192L15.432 36.8478L15.2983 36.7751L15.1652 36.701L15.0328 36.6256L14.9011 36.5489L14.7702 36.4707L14.6399 36.3912L14.5104 36.3106L14.3816 36.2284L14.2537 36.1451L14.1265 36.0603L14.0001 35.9743L13.8745 35.8871L13.7498 35.7985L13.6258 35.7086L13.5027 35.6176L13.3804 35.5251L13.2592 35.4315L13.1388 35.3366L13.0192 35.2405L12.9006 35.1432L12.7829 35.0445L12.6662 34.9448L12.5504 34.8438L12.4356 34.7416L12.3217 34.6382L12.209 34.5337L12.0971 34.428L11.9863 34.3211L11.8766 34.2131L11.7679 34.104L11.6603 33.9936L11.5537 33.8822L11.4482 33.7697L11.3439 33.6561L11.2406 33.5413L11.1384 33.4256L11.0374 33.3087L10.9375 33.1908L10.8388 33.0718L10.7412 32.9517L10.6449 32.8307L10.5497 32.7087L10.4557 32.5856L10.363 32.4615L10.2714 32.3365L10.1811 32.2105L10.0921 32.0835L10.0043 31.9556L9.91773 31.8267L9.83249 31.697L9.74853 31.5663L9.66586 31.4347L9.58452 31.3022L9.50448 31.1688L9.42578 31.0347L9.3484 30.8995L9.27238 30.7637L9.19772 30.6269L9.12442 30.4894L9.05249 30.3511L8.98195 30.212L8.91281 30.0721L8.84507 29.9314L8.77874 29.79L8.71383 29.6478L8.65034 29.505L8.5883 29.3615L8.5277 29.2171L8.46854 29.0722L8.41086 28.9267L8.35464 28.7804L8.29989 28.6335L8.24662 28.4861L8.19485 28.3379L8.14458 28.1892L8.09581 28.0399L8.04855 27.89L8.00281 27.7397L7.9586 27.5887L7.91591 27.4373L7.87476 27.2854L7.83517 27.1328L7.79711 26.98L7.7606 26.8266L7.72567 26.6727L7.6923 26.5184L7.6605 26.3638L7.63027 26.2087L7.60163 26.0532L7.57457 25.8974L7.54912 25.7412L7.52525 25.5847L7.50298 25.4278L7.48232 25.2707L7.46327 25.1132L7.44583 24.9554L7.43 24.7975L7.4158 24.6392L7.40323 24.4807L7.39227 24.3221L7.38294 24.1632L7.37526 24.0041L7.3692 23.845L7.3648 23.6856L7.36202 23.5261L7.36089 23.3664L7.36141 23.2066L7.36356 23.0468L7.36738 22.887L7.37284 22.727L7.37996 22.567L7.38873 22.4071L7.39915 22.247L7.41123 22.0871L7.42496 21.927L7.44036 21.7672L7.45742 21.6073L7.47612 21.4475L7.49649 21.2878L7.51852 21.1282L7.5422 20.9687L7.56754 20.8094L7.59453 20.6503L7.62319 20.4913L7.6535 20.3325L7.68547 20.1739L7.71907 20.0156L7.75435 19.8574L7.79127 19.6996L7.82983 19.542L7.87004 19.3847L7.9119 19.2278L7.9554 19.071L8.00054 18.9147L8.04732 18.7588L8.09572 18.6032L8.14577 18.4479L8.19744 18.2931L8.25073 18.1387L8.30566 17.9848L8.36219 17.8313L8.42034 17.6782L8.48009 17.5257L8.54146 17.3736L8.60442 17.222L8.66899 17.0711L8.73514 16.9205L8.8029 16.7707L8.87221 16.6214L8.94312 16.4726L9.01559 16.3245L9.08965 16.1771L9.16525 16.0302L9.24241 15.8841L9.32111 15.7385L9.40137 15.5938L9.48317 15.4497L9.56648 15.3062L9.65133 15.1637L9.73769 15.0218L9.82556 14.8806L9.91495 14.7403L10.0058 14.6007L10.0982 14.462L10.192 14.3241L10.2874 14.1871L10.3841 14.0508L10.4823 13.9155L10.582 13.7811L10.6831 13.6475L10.7857 13.5149L10.8897 13.3832L10.9951 13.2525L11.1018 13.1227L11.21 12.9939L11.3197 12.8661L11.4306 12.7392L11.5429 12.6135L11.6566 12.4887L11.7716 12.365L11.888 12.2424L12.0057 12.1207L12.1247 12.0003L12.245 11.8809L12.3666 11.7625L12.4896 11.6454L12.6137 11.5293L12.7391 11.4146L12.8659 11.3008L12.9938 11.1883L13.1229 11.077L13.2533 10.9668L13.3849 10.8579L13.5176 10.7502L13.6516 10.6438L13.7867 10.5386L13.923 10.4347L14.0604 10.3321L14.199 10.2307L14.3386 10.1306L14.4794 10.0319L14.6213 9.93449L14.7643 9.83841L14.9082 9.74378L15.0534 9.65036L15.1994 9.55838L15.3466 9.46777L15.4948 9.37855L15.6439 9.29074L15.794 9.20433L15.9452 9.11935L16.0972 9.0358L16.2502 8.9537L16.4041 8.87306L16.5589 8.79387L16.7147 8.71616L16.8713 8.63993L17.0288 8.5652L17.1871 8.49197L17.3463 8.42025L17.5064 8.35004L17.6672 8.28137L17.8288 8.21424L17.9912 8.14865L18.1542 8.08462L18.3182 8.02215L18.4828 7.96125L18.6482 7.90194L18.8142 7.8442L18.9809 7.78806L19.1483 7.73353L19.3162 7.68061L19.485 7.6293L19.6542 7.57961L19.8242 7.53156L19.9945 7.48514L20.1656 7.44037L20.3372 7.39725L20.5094 7.35579L20.682 7.31599L20.8551 7.27785L21.0287 7.24139L21.2028 7.20662L21.3774 7.17353L21.5523 7.14213L21.7277 7.11242L21.9035 7.08442L22.0797 7.05812L22.2562 7.03354L22.433 7.01066L22.499 7.00278ZM22.5736 13.2776L22.5227 9.00052L22.3778 9.02071L22.2219 9.04399L22.066 9.06881L21.9111 9.09506L21.7559 9.1229L21.6015 9.15218L21.4475 9.18296L21.294 9.21518L21.1408 9.24893L20.988 9.28417L20.8356 9.32086L20.6838 9.359L20.5322 9.39867L20.3866 9.43829L20.2315 9.48223L20.0816 9.52617L19.9325 9.57155L19.7841 9.61826L19.636 9.66652L19.4885 9.71622L19.3417 9.76724L19.1956 9.8196L19.0501 9.8735L18.9053 9.92862L18.761 9.98529L18.6178 10.0432L18.4747 10.1026L18.3326 10.1633L18.1912 10.2253L18.0508 10.2886L17.9108 10.3533L17.7715 10.4194L17.6334 10.4866L17.4956 10.5553L17.3592 10.6252L17.223 10.6965L17.0882 10.7688L16.9536 10.8429L16.8203 10.9177L16.6879 10.994L16.5562 11.0715L16.4254 11.1502L16.2954 11.2304L16.1666 11.3114L16.0385 11.3939L15.9115 11.4774L15.7854 11.5621L15.6603 11.6481L15.5359 11.7353L15.4129 11.8233L15.2906 11.9129L15.1693 12.0034L15.0492 12.095L14.9301 12.1877L14.8118 12.2817L14.6948 12.3765L14.5789 12.4725L14.4638 12.5698L14.3502 12.6677L14.2373 12.767L14.1256 12.8673L14.0151 12.9685L13.9058 13.0706L13.7973 13.174L13.6903 13.278L13.5844 13.3832L13.4794 13.4894L13.3758 13.5965L13.2733 13.7046L13.172 13.8135L13.0719 13.9233L12.9729 14.0341L12.8751 14.1459L12.7789 14.2583L12.6836 14.3717L12.5895 14.486L12.4968 14.601L12.4054 14.7168L12.3149 14.8337L12.226 14.9511L12.1382 15.0695L12.0518 15.1886L11.9666 15.3084L11.8829 15.4289L11.8004 15.5502L11.7191 15.6722L11.6391 15.795L11.5606 15.9183L11.4834 16.0424L11.4074 16.1673L11.3328 16.2926L11.2596 16.4187L11.1876 16.5454L11.1172 16.6725L11.048 16.8005L10.98 16.9291L10.9137 17.0579L10.8486 17.1876L10.785 17.3178L10.7227 17.4483L10.6618 17.5796L10.6023 17.7112L10.5442 17.8433L10.4874 17.9759L10.4322 18.109L10.3783 18.2424L10.3258 18.3765L10.2747 18.5109L10.2252 18.6456L10.1769 18.7808L10.1302 18.9162L10.0848 19.0521L10.0409 19.1884L9.99836 19.3249L9.95738 19.4617L9.91773 19.5989L9.87963 19.7362L9.84288 19.874L9.8076 20.012L9.77378 20.1502L9.74142 20.2887L9.71048 20.4272L9.68099 20.5662L9.65299 20.7052L9.62641 20.8443L9.60129 20.9838L9.57764 21.1232L9.55542 21.2629L9.53468 21.4025L9.51537 21.5424L9.49753 21.6823L9.48113 21.8223L9.46619 21.9623L9.45271 22.1024L9.44068 22.2426L9.43011 22.3826L9.42098 22.5228L9.41329 22.663L9.40706 22.803L9.40228 22.943L9.39894 23.0829L9.39705 23.2228L9.3966 23.3627L9.39759 23.5024L9.40002 23.642L9.40388 23.7814L9.40917 23.9207L9.4159 24.0599L9.42405 24.1989L9.43363 24.3376L9.44464 24.4763L9.45705 24.6147L9.47089 24.7528L9.48614 24.8907L9.50279 25.0284L9.52086 25.1659L9.54032 25.3029L9.56119 25.4398L9.58344 25.5762L9.60709 25.7124L9.63212 25.8483L9.65852 25.9837L9.68631 26.119L9.71546 26.2537L9.74599 26.3881L9.77785 26.522L9.8111 26.6556L9.84569 26.7887L9.88163 26.9214L9.91884 27.0536L9.95749 27.1854L9.99736 27.3167L10.0387 27.4475L10.0812 27.5779L10.1251 27.7076L10.1703 27.8368L10.2167 27.9655L10.2645 28.0937L10.3136 28.2213L10.3639 28.3483L10.4154 28.4747L10.4683 28.6005L10.5224 28.7257L10.5778 28.8502L10.6343 28.9742L10.6922 29.0974L10.7513 29.22L10.8115 29.342L10.873 29.4632L10.9357 29.5838L10.9995 29.7037L11.0646 29.8228L11.1308 29.9412L11.1983 30.0589L11.2668 30.1758L11.3365 30.2919L11.4074 30.4073L11.4794 30.5219L11.5525 30.6357L11.6268 30.7488L11.702 30.8608L11.7785 30.9722L11.8559 31.0827L11.9345 31.1924L12.0142 31.3012L12.0949 31.4091L12.1767 31.5161L12.2595 31.6224L12.3433 31.7277L12.4281 31.832L12.514 31.9355L12.6008 32.0381L12.6887 32.1396L12.7776 32.2405L12.8673 32.3401L12.958 32.4389L13.0497 32.5367L13.1423 32.6335L13.2358 32.7294L13.3303 32.8242L13.4256 32.9181L13.5219 33.0109L13.6191 33.1028L13.717 33.1936L13.8159 33.2834L13.9156 33.3721L14.0161 33.4598L14.1175 33.5464L14.2197 33.632L14.3226 33.7166L14.4264 33.7999L14.5309 33.8822L14.6362 33.9635L14.7423 34.0437L14.8491 34.1228L14.9565 34.2007L15.0647 34.2775L15.1737 34.3532L15.2833 34.4278L15.3937 34.5013L15.5047 34.5736L15.6163 34.6447L15.7286 34.7148L15.8414 34.7837L15.9549 34.8514L16.0691 34.9179L16.1837 34.9832L16.2991 35.0474L16.4149 35.1104L16.5314 35.1723L16.6483 35.2329L16.7657 35.2923L16.8838 35.3506L17.0024 35.4076L17.1214 35.4635L17.2408 35.5181L17.3609 35.5715L17.4811 35.6236L17.602 35.6746L17.7233 35.7244L17.845 35.7728L17.967 35.8201L18.0895 35.8661L18.2123 35.911L18.3355 35.9546L18.459 35.9969L18.583 36.038L18.7071 36.0778L18.8316 36.1164L18.9565 36.1537L19.0816 36.1898L19.2068 36.2247L19.3325 36.2582L19.4583 36.2906L19.5844 36.3216L19.7107 36.3514L19.8372 36.3799L19.9639 36.4073L20.0907 36.4333L20.2177 36.458L20.345 36.4814L20.4721 36.5037L20.5997 36.5247L20.7272 36.5443L20.8548 36.5628L20.9825 36.58L21.1102 36.5959L21.2381 36.6105L21.3659 36.6239L21.4939 36.636L21.6218 36.6468L21.7498 36.6563L21.8777 36.6647L22.0056 36.6717L22.1334 36.6776L22.2614 36.6821L22.3891 36.6854L22.5167 36.6874L22.6443 36.6882L22.7719 36.6878L22.8992 36.686L23.0265 36.6831L23.1536 36.6789L23.2807 36.6735L23.4074 36.6667L23.534 36.6589L23.6604 36.6497L23.7867 36.6393L23.9127 36.6277L24.0385 36.6148L24.1641 36.6008L24.2894 36.5855L24.4145 36.569L24.5392 36.5514L24.6637 36.5325L24.7879 36.5123L24.9116 36.4911L25.0352 36.4685L25.1584 36.4448L25.2813 36.42L25.4039 36.3939L25.5258 36.3667L25.6476 36.3383L25.7689 36.3087L25.8898 36.278L26.0103 36.2461L26.1304 36.213L26.25 36.1788L26.3692 36.1435L26.4878 36.1071L26.606 36.0695L26.7238 36.0307L26.841 35.9909L26.9577 35.9499L27.0739 35.9079L27.1895 35.8647L27.3046 35.8204L27.4191 35.7751L27.5332 35.7286L27.6466 35.6811L27.7593 35.6325L27.8716 35.5829L27.9831 35.5322L28.0942 35.4804L28.2046 35.4276L28.3141 35.3739L28.4234 35.3189L28.5317 35.2631L28.6396 35.2061L28.7464 35.1484L28.8528 35.0895L28.9586 35.0296L29.0634 34.9687L29.1677 34.9069L29.2712 34.8441L29.3738 34.7803L29.476 34.7156L29.5771 34.6501L29.6776 34.5834L29.7775 34.5158L29.8763 34.4474L29.9743 34.3782L30.0718 34.3078L30.1682 34.2369L30.264 34.1648L30.3589 34.0919L30.4527 34.0183L30.5461 33.9436L30.6385 33.8681L30.7297 33.7919L30.8205 33.7146L30.9102 33.6367L30.9989 33.5582L31.0871 33.4784L31.174 33.3982L31.2601 33.3171L31.3454 33.2352L31.4296 33.1526L31.5131 33.0692L31.5956 32.985L31.6771 32.9001L31.7575 32.8146L31.8372 32.7283L31.9159 32.6413L31.9934 32.5537L32.0703 32.4652L32.1459 32.3762L32.2206 32.2865L32.2944 32.196L32.3671 32.1052L32.4388 32.0135L32.5096 31.9213L32.5793 31.8283L32.648 31.7349L32.7155 31.641L32.7823 31.5461L32.8478 31.4511L32.9123 31.3553L32.976 31.2589L33.0382 31.1623L33.0997 31.0649L33.16 30.9669L33.2193 30.8686L33.2774 30.7698L33.3347 30.6703L33.3906 30.5708L33.4457 30.4703L33.4995 30.3697L33.5522 30.2686L33.6041 30.1668L33.6545 30.0652L33.7041 29.9625L33.7523 29.8601L33.7999 29.7566L33.8459 29.6533L33.8911 29.5492L33.935 29.4451L33.9778 29.3407L34.0196 29.2357L34.0602 29.1305L34.0995 29.0252L34.1381 28.9193L34.1752 28.8132L34.2113 28.707L34.2463 28.6004L34.2801 28.4935L34.3129 28.3864L34.3444 28.2793L34.3749 28.1717L34.4041 28.0641L34.4323 27.9562L34.4593 27.8482L34.4852 27.7402L34.5099 27.6316L34.5335 27.5231L34.556 27.4145L34.5773 27.3059L34.5975 27.1971L34.6165 27.0879L34.6343 26.9791L34.6511 26.87L34.6667 26.7607L34.6811 26.6517L34.6944 26.5424L34.7066 26.4329L34.7176 26.3241L34.7276 26.2144L34.7364 26.1051L34.744 25.9961L34.7505 25.8867L34.7559 25.7776L34.7601 25.6686L34.7632 25.5592L34.7651 25.4505L34.766 25.3414L34.7656 25.2326L34.7643 25.1238L34.7617 25.0154L34.7581 24.9069L34.7533 24.7985L34.7474 24.6906L34.7404 24.5823L34.7323 24.4744L34.7232 24.3671L34.7129 24.2594L34.7014 24.1523L34.6889 24.0451L34.6753 23.9384L34.6607 23.8318L34.6449 23.7253L34.628 23.6193L34.6101 23.5136L34.5911 23.4081L34.571 23.3029L34.5498 23.1977L34.5276 23.0932L34.5044 22.989L34.4801 22.885L34.4546 22.7812L34.4283 22.6782L34.4008 22.575L34.3723 22.4726L34.3428 22.3703L34.3122 22.2687L34.2807 22.1672L34.248 22.0661L34.2145 21.9658L34.18 21.8657L34.1442 21.7657L34.1078 21.6667L34.0701 21.5678L34.0316 21.4697L33.992 21.3717L33.9515 21.2742L33.9101 21.1776L33.8675 21.0811L33.8242 20.9853L33.7799 20.8901L33.7346 20.7952L33.6882 20.7007L33.6413 20.6072L33.5931 20.5139L33.5442 20.4215L33.4943 20.3296L33.4435 20.2379L33.3919 20.1472L33.3393 20.0569L33.2858 19.9674L33.2314 19.8781L33.1764 19.7899L33.1202 19.7019L33.0635 19.6149L33.0057 19.5285L32.9472 19.4427L32.8877 19.3574L32.8275 19.2729L32.7666 19.1892L32.7046 19.1059L32.6421 19.0235L32.5786 18.9417L32.5146 18.8608L32.4495 18.7804L32.3837 18.7008L32.3172 18.6219L32.25 18.5436L32.1821 18.4664L32.1133 18.3895L32.044 18.3137L31.9738 18.2385L31.9031 18.1643L31.8314 18.0905L31.7593 18.0178L31.6862 17.9455L31.6127 17.8743L31.5386 17.8039L31.4637 17.7342L31.3881 17.6652L31.3119 17.5973L31.2352 17.5301L31.1575 17.4635L31.0799 17.3981L31.0011 17.3332L30.9219 17.2693L30.8422 17.2063L30.7618 17.1439L30.6809 17.0826L30.5997 17.0223L30.5175 16.9625L30.4348 16.9035L30.352 16.8458L30.2682 16.7886L30.1844 16.7327L30.0999 16.6774L30.0148 16.6229L29.9292 16.5693L29.8435 16.5169L29.7568 16.4651L29.6701 16.4144L29.5825 16.3644L29.4951 16.3155L29.4069 16.2675L29.3183 16.2202L29.2293 16.174L29.1402 16.1288L29.0504 16.0843L28.9602 16.0408L28.8699 15.9983L28.7794 15.9568L28.6879 15.916L28.5968 15.8763L28.5051 15.8376L28.4129 15.7996L28.3206 15.7628L28.2282 15.7269L28.1353 15.6919L28.0419 15.6577L27.9487 15.6248L27.855 15.5926L27.761 15.5613L27.6671 15.5311L27.5728 15.5019L27.4786 15.4736L27.3835 15.4461L27.2887 15.4198L27.1938 15.3943L27.0986 15.3699L27.0033 15.3463L26.9075 15.3237L26.812 15.3021L26.7165 15.2815L26.6205 15.2618L26.5243 15.243L26.4287 15.2254L26.3324 15.2086L26.2363 15.1928L26.1398 15.1778L26.0439 15.164L25.9471 15.1509L25.851 15.1391L25.7546 15.128L25.6582 15.1179L25.5619 15.1089L25.4654 15.1007L25.3693 15.0935L25.2727 15.0873L25.1765 15.082L25.0806 15.0777L24.9839 15.0742L24.8881 15.0718L24.7921 15.0703L24.6962 15.0698L24.6307 15.07L24.6804 19.2488L24.71 19.2489L24.7651 19.2497L24.8203 19.251L24.8756 19.2528L24.9309 19.2553L24.9864 19.2583L25.0418 19.2618L25.0973 19.2661L25.1529 19.2708L25.2085 19.2761L25.2642 19.282L25.3198 19.2884L25.3756 19.2955L25.4312 19.3031L25.487 19.3113L25.5427 19.3202L25.5985 19.3296L25.6541 19.3396L25.7099 19.3502L25.7655 19.3612L25.8212 19.3731L25.8768 19.3854L25.9325 19.3983L25.9879 19.4118L26.0434 19.4259L26.0988 19.4406L26.1542 19.4559L26.2095 19.4717L26.2647 19.4882L26.3198 19.5052L26.3747 19.523L26.4297 19.5412L26.4845 19.56L26.5392 19.5794L26.5938 19.5994L26.6482 19.62L26.7025 19.6412L26.7567 19.663L26.8107 19.6853L26.8646 19.7082L26.9183 19.7318L26.9718 19.7559L27.0253 19.7806L27.0785 19.806L27.1315 19.8318L27.1843 19.8582L27.2369 19.8853L27.2893 19.9129L27.3415 19.9411L27.3935 19.9699L27.4452 19.9992L27.4968 20.0291L27.548 20.0596L27.5991 20.0907L27.6498 20.1223L27.7004 20.1545L27.7506 20.1872L27.8005 20.2205L27.8503 20.2545L27.8997 20.2889L27.9488 20.3239L27.9977 20.3594L28.0462 20.3955L28.0944 20.4321L28.1423 20.4693L28.19 20.507L28.2372 20.5453L28.284 20.5841L28.3307 20.6235L28.3769 20.6633L28.4228 20.7037L28.4683 20.7447L28.5134 20.7862L28.5582 20.8281L28.6025 20.8706L28.6466 20.9137L28.6901 20.9572L28.7333 21.0013L28.7762 21.0457L28.8185 21.0908L28.8605 21.1364L28.902 21.1824L28.9432 21.2289L28.9839 21.276L29.0241 21.3235L29.064 21.3714L29.1033 21.4199L29.1422 21.4688L29.1806 21.5181L29.2186 21.5681L29.2561 21.6183L29.2931 21.6691L29.3295 21.7203L29.3656 21.7719L29.4012 21.8241L29.4362 21.8767L29.4707 21.9296L29.5048 21.983L29.5382 22.0368L29.5712 22.091L29.6037 22.1457L29.6355 22.2007L29.667 22.2562L29.6977 22.3121L29.7281 22.3683L29.7578 22.425L29.7869 22.482L29.8156 22.5393L29.8436 22.5971L29.871 22.6553L29.8979 22.7138L29.9242 22.7726L29.95 22.8319L29.9751 22.8914L29.9996 22.9513L30.0235 23.0115L30.0468 23.072L30.0696 23.1329L30.0917 23.1941L30.1131 23.2557L30.134 23.3174L30.1542 23.3795L30.1738 23.442L30.1928 23.5046L30.2111 23.5676L30.2288 23.6309L30.2459 23.6943L30.2623 23.7581L30.278 23.8222L30.2931 23.8865L30.3075 23.9509L30.3213 24.0157L30.3344 24.0807L30.3467 24.1458L30.3585 24.2113L30.3696 24.277L30.38 24.3427L30.3897 24.4088L30.3987 24.475L30.407 24.5414L30.4147 24.608L30.4217 24.6748L30.4279 24.7416L30.4335 24.8087L30.4383 24.876L30.4425 24.9433L30.4459 25.0108L30.4486 25.0784L30.4507 25.1462L30.4519 25.214L30.4526 25.282L30.4523 25.3499L30.4516 25.4181L30.45 25.4864L30.4477 25.5547L30.4447 25.6231L30.4409 25.6915L30.4365 25.76L30.4312 25.8285L30.4252 25.8972L30.4186 25.9658L30.4112 26.0344L30.403 26.103L30.3941 26.1718L30.3846 26.2405L30.3743 26.3091L30.3631 26.3777L30.3513 26.4464L30.3387 26.515L30.3254 26.5836L30.3114 26.6521L30.2965 26.7206L30.281 26.789L30.2647 26.8574L30.2476 26.9257L30.2299 26.994L30.2114 27.0621L30.1921 27.1302L30.1721 27.198L30.1513 27.2659L30.1299 27.3336L30.1077 27.4011L30.0847 27.4686L30.061 27.5359L30.0365 27.603L30.0113 27.6701L29.9854 27.7368L29.9587 27.8036L29.9313 27.87L29.9032 27.9363L29.8743 28.0024L29.8447 28.0683L29.8144 28.134L29.7833 28.1994L29.7514 28.2647L29.7189 28.3297L29.6856 28.3944L29.6516 28.4589L29.6169 28.5231L29.5814 28.5871L29.5453 28.6509L29.5085 28.7143L29.4708 28.7775L29.4326 28.8402L29.3935 28.9029L29.3539 28.9651L29.3134 29.027L29.2722 29.0886L29.2305 29.1498L29.1879 29.2108L29.1447 29.2714L29.1007 29.3316L29.0562 29.3915L29.0109 29.4509L28.9649 29.51L28.9182 29.5688L28.8709 29.6271L28.8229 29.685L28.7743 29.7425L28.725 29.7997L28.6749 29.8563L28.6242 29.9126L28.5729 29.9685L28.5209 30.0238L28.4684 30.0787L28.4151 30.1333L28.3612 30.1873L28.3067 30.2407L28.2516 30.2939L28.1957 30.3464L28.1393 30.3985L28.0823 30.45L28.0247 30.5012L27.9665 30.5518L27.9076 30.6018L27.8482 30.6513L27.7881 30.7003L27.7275 30.7488L27.6663 30.7966L27.6045 30.844L27.5422 30.8908L27.4792 30.937L27.4158 30.9827L27.3517 31.0277L27.2872 31.0723L27.222 31.1161L27.1563 31.1595L27.0901 31.2021L27.0234 31.2443L26.9561 31.2858L26.8883 31.3267L26.82 31.3668L26.7513 31.4065L26.682 31.4454L26.6121 31.4837L26.5419 31.5215L26.4711 31.5584L26.4 31.5948L26.3282 31.6305L26.2561 31.6656L26.1835 31.6999L26.1104 31.7335L26.037 31.7665L25.963 31.7987L25.8887 31.8304L25.8139 31.8613L25.7388 31.8914L25.6631 31.9208L25.5871 31.9496L25.5107 31.9776L25.434 32.0049L25.3569 32.0315L25.2794 32.0573L25.2015 32.0824L25.1233 32.1066L25.0448 32.1302L24.9658 32.1531L24.8866 32.1752L24.8071 32.1965L24.7272 32.217L24.647 32.2368L24.5665 32.2557L24.4858 32.274L24.4047 32.2914L24.3234 32.3081L24.2418 32.3239L24.1599 32.339L24.0778 32.3533L23.9954 32.3668L23.9129 32.3794L23.83 32.3912L23.747 32.4023L23.6637 32.4126L23.5803 32.422L23.4967 32.4305L23.4128 32.4384L23.3289 32.4452L23.2447 32.4514L23.1603 32.4566L23.0758 32.4612L22.9912 32.4648L22.9065 32.4676L22.8215 32.4695L22.7365 32.4706L22.6515 32.4709L22.5663 32.4704L22.481 32.4689L22.3955 32.4666L22.3101 32.4635L22.2246 32.4595L22.139 32.4546L22.0533 32.449L21.9677 32.4425L21.8821 32.4351L21.7963 32.4267L21.7107 32.4177L21.6249 32.4076L21.5393 32.3968L21.4536 32.385L21.3679 32.3725L21.2823 32.359L21.1968 32.3447L21.1112 32.3296L21.0258 32.3135L20.9404 32.2967L20.8551 32.2789L20.7699 32.2603L20.6848 32.2407L20.5999 32.2203L20.5149 32.1992L20.4302 32.177L20.3456 32.154L20.2611 32.1302L20.1769 32.1055L20.0927 32.08L20.0088 32.0535L19.925 32.0263L19.8414 31.9982L19.7581 31.9692L19.6749 31.9393L19.5919 31.9085L19.5093 31.877L19.4268 31.8445L19.3446 31.8112L19.2626 31.7771L19.181 31.7422L19.0995 31.7063L19.0184 31.6697L18.9376 31.6321L18.857 31.5937L18.7768 31.5546L18.6969 31.5145L18.6174 31.4736L18.5382 31.4319L18.4593 31.3894L18.3808 31.346L18.3027 31.3019L18.2249 31.2568L18.1476 31.211L18.0706 31.1644L17.9941 31.1169L17.9179 31.0687L17.8421 31.0196L17.7668 30.9697L17.692 30.919L17.6176 30.8675L17.5437 30.8153L17.4701 30.7623L17.3972 30.7084L17.3246 30.6538L17.2527 30.5985L17.1811 30.5422L17.1102 30.4853L17.0396 30.4277L16.9697 30.3692L16.9003 30.31L16.8314 30.25L16.7631 30.1894L16.6953 30.1279L16.6281 30.0657L16.5615 30.0029L16.4955 29.9392L16.43 29.8749L16.3652 29.8098L16.301 29.7441L16.2374 29.6776L16.1744 29.6105L16.1121 29.5425L16.0505 29.474L15.9894 29.4048L15.9291 29.3349L15.8693 29.2644L15.8102 29.1931L15.7519 29.1212L15.6943 29.0487L15.6373 28.9755L15.581 28.9017L15.5254 28.8272L15.4707 28.7521L15.4166 28.6764L15.3632 28.6001L15.3105 28.5231L15.2586 28.4457L15.2075 28.3675L15.1572 28.2888L15.1076 28.2096L15.0588 28.1298L15.0107 28.0493L14.9635 27.9684L14.9171 27.8868L14.8714 27.8048L14.8266 27.7222L14.7826 27.6391L14.7394 27.5554L14.697 27.4713L14.6554 27.3867L14.6148 27.3015L14.5749 27.216L14.5359 27.1298L14.4978 27.0433L14.4605 26.9562L14.4241 26.8687L14.3885 26.7807L14.3539 26.6924L14.3201 26.6035L14.2873 26.5143L14.2553 26.4247L14.2242 26.3347L14.194 26.2443L14.1648 26.1534L14.1365 26.0622L14.1091 25.9706L14.0825 25.8787L14.057 25.7864L14.0324 25.6937L14.0087 25.6007L13.986 25.5074L13.9642 25.4139L13.9433 25.3199L13.9235 25.2257L13.9046 25.1312L13.8866 25.0365L13.8696 24.9414L13.8536 24.8461L13.8386 24.7506L13.8245 24.6547L13.8114 24.5588L13.7994 24.4625L13.7883 24.3661L13.7782 24.2693L13.7691 24.1725L13.761 24.0754L13.7539 23.9782L13.7478 23.8808L13.7426 23.7833L13.7385 23.6857L13.7354 23.5878L13.7334 23.4899L13.7324 23.3919L13.7323 23.2937L13.7333 23.1955L13.7354 23.0972L13.7384 22.9988L13.7425 22.9003L13.7476 22.8018L13.7537 22.7032L13.7609 22.6046L13.7691 22.506L13.7783 22.4074L13.7885 22.3088L13.7998 22.2101L13.8122 22.1115L13.8255 22.013L13.8399 21.9145L13.8554 21.816L13.8719 21.7176L13.8894 21.6192L13.9079 21.5209L13.9276 21.4227L13.9482 21.3247L13.9699 21.2267L13.9925 21.1289L14.0163 21.0312L14.0411 20.9336L14.067 20.8362L14.0938 20.739L14.1217 20.642L14.1506 20.545L14.1806 20.4484L14.2116 20.3519L14.2436 20.2556L14.2767 20.1596L14.3108 20.0638L14.3459 19.9682L14.382 19.8729L14.4192 19.778L14.4574 19.6832L14.4966 19.5887L14.5368 19.4946L14.578 19.4008L14.6203 19.3072L14.6635 19.214L14.7078 19.1212L14.753 19.0287L14.7994 18.9365L14.8466 18.8448L14.8949 18.7535L14.9441 18.6625L14.9944 18.572L15.0456 18.4817L15.0978 18.392L15.151 18.3028L15.2052 18.2139L15.2603 18.1255L15.3165 18.0376L15.3736 17.95L15.4316 17.863L15.4906 17.7766L15.5505 17.6906L15.6114 17.6051L15.6733 17.5202L15.736 17.4358L15.7997 17.3519L15.8643 17.2686L15.9298 17.1859L15.9964 17.1037L16.0638 17.022L16.132 16.9411L16.2012 16.8607L16.2713 16.7809L16.3422 16.7017L16.4141 16.6231L16.4868 16.5453L16.5605 16.4681L16.635 16.3915L16.7103 16.3155L16.7865 16.2403L16.8636 16.1657L16.9415 16.0919L17.0202 16.0187L17.0997 15.9462L17.18 15.8745L17.2612 15.8034L17.3433 15.7332L17.4261 15.6636L17.5097 15.5949L17.594 15.5269L17.6792 15.4596L17.765 15.3932L17.8518 15.3276L17.9392 15.2627L18.0274 15.1986L18.1164 15.1354L18.206 15.073L18.2964 15.0114L18.3876 14.9506L18.4793 14.8907L18.5719 14.8317L18.6651 14.7735L18.759 14.7162L18.8536 14.6597L18.9488 14.6041L19.0448 14.5495L19.1413 14.4957L19.2385 14.4428L19.3363 14.3909L19.4348 14.3398L19.5338 14.2897L19.6335 14.2405L19.7338 14.1923L19.8346 14.145L19.936 14.0986L20.038 14.0533L20.1405 14.0089L20.2437 13.9654L20.3473 13.9229L20.4514 13.8815L20.5561 13.841L20.6613 13.8015L20.7669 13.7629L20.8731 13.7255L20.9798 13.689L21.0869 13.6536L21.1945 13.6192L21.3025 13.5857L21.411 13.5534L21.5199 13.5221L21.6292 13.4919L21.7389 13.4627L21.849 13.4344L21.9595 13.4073L22.0703 13.3813L22.1816 13.3564L22.2931 13.3325L22.4051 13.3097L22.5173 13.288L22.5736 13.2776ZM23.953 21.3136L22.6728 21.6184L22.5976 15.2989L22.5373 15.3124L22.4464 15.3338L22.3557 15.356L22.2656 15.379L22.1756 15.403L22.0862 15.4277L21.9968 15.4535L21.9083 15.4799L21.8195 15.5073L21.7319 15.5353L21.644 15.5644L21.5567 15.5943L21.4699 15.625L21.3834 15.6564L21.2976 15.6886L21.212 15.7218L21.1268 15.7557L21.0422 15.7903L20.9576 15.826L20.8742 15.8621L20.7908 15.8993L20.7082 15.937L20.6256 15.9757L20.5439 16.015L20.4624 16.0552L20.3817 16.0961L20.3014 16.1377L20.2217 16.1801L20.1425 16.2231L20.0637 16.267L19.9855 16.3116L19.9082 16.3567L19.8308 16.4029L19.7544 16.4495L19.6787 16.4968L19.6034 16.5449L19.5285 16.5937L19.4544 16.6432L19.3809 16.6933L19.3079 16.744L19.2357 16.7954L19.1639 16.8475L19.0928 16.9003L19.0224 16.9536L18.9525 17.0077L18.8834 17.0621L18.815 17.1173L18.747 17.1732L18.6797 17.2298L18.6133 17.2867L18.5474 17.3444L18.4822 17.4025L18.4177 17.4612L18.3538 17.5207L18.2907 17.5806L18.2283 17.6409L18.1664 17.702L18.1055 17.7634L18.0452 17.8255L17.9856 17.8879L17.9265 17.9512L17.8684 18.0147L17.811 18.0787L17.7543 18.1434L17.6984 18.2082L17.6431 18.2739L17.5888 18.3396L17.5349 18.4063L17.482 18.473L17.4297 18.5404L17.3783 18.6083L17.3276 18.6763L17.2777 18.7448L17.2286 18.8138L17.1801 18.8833L17.1325 18.953L17.0857 19.0233L17.0398 19.0937L16.9945 19.1646L16.95 19.2359L16.9065 19.3075L16.8635 19.3796L16.8215 19.4517L16.7802 19.5244L16.7396 19.5973L16.7001 19.6705L16.6612 19.744L16.6232 19.8178L16.5859 19.8921L16.5496 19.9662L16.5139 20.0411L16.4792 20.1159L16.4453 20.191L16.4121 20.2664L16.3798 20.3421L16.3483 20.4178L16.3177 20.494L16.2879 20.5702L16.2588 20.6467L16.2307 20.7232L16.2034 20.8001L16.1769 20.8772L16.1512 20.9543L16.1263 21.0316L16.1023 21.1092L16.0791 21.1868L16.0569 21.2643L16.0353 21.3423L16.0146 21.4203L15.9948 21.4983L15.9758 21.5765L15.9576 21.6547L15.9403 21.7331L15.9238 21.8116L15.9082 21.8899L15.8933 21.9684L15.8793 22.0471L15.8662 22.1256L15.8539 22.2042L15.8423 22.283L15.8316 22.3615L15.8219 22.4403L15.8129 22.5187L15.8047 22.5974L15.7973 22.6762L15.7908 22.7547L15.7851 22.8333L15.7802 22.9119L15.7761 22.9902L15.7729 23.0686L15.7704 23.1469L15.7689 23.2252L15.768 23.3034L15.7681 23.3814L15.7689 23.4593L15.7706 23.5373L15.773 23.615L15.7762 23.6925L15.7802 23.77L15.7851 23.8473L15.7908 23.9244L15.7972 24.0015L15.8044 24.0783L15.8124 24.1551L15.8212 24.2314L15.8308 24.3078L15.8411 24.3838L15.8523 24.4598L15.8642 24.5354L15.8769 24.6109L15.8903 24.6863L15.9045 24.7612L15.9195 24.836L15.9352 24.9104L15.9517 24.9848L15.9689 25.0587L15.9869 25.1325L16.0056 25.2058L16.0251 25.2792L16.0452 25.3519L16.0661 25.4246L16.0878 25.4968L16.1101 25.5689L16.1332 25.6405L16.157 25.7116L16.1815 25.7828L16.2067 25.8534L16.2326 25.9236L16.2592 25.9937L16.2865 26.0633L16.3145 26.1325L16.3431 26.2013L16.3723 26.2697L16.4024 26.3379L16.4331 26.4056L16.4644 26.4729L16.4964 26.5398L16.5289 26.6062L16.5624 26.6725L16.5961 26.738L16.6307 26.8032L16.6659 26.8681L16.7018 26.9324L16.7382 26.9964L16.7752 27.0599L16.8128 27.1228L16.8512 27.1854L16.8899 27.2475L16.9293 27.309L16.9694 27.3702L17.01 27.4309L17.0512 27.4912L17.0928 27.5507L17.1352 27.61L17.178 27.6687L17.2214 27.7268L17.2654 27.7845L17.3099 27.8417L17.3549 27.8982L17.4004 27.9543L17.4465 28.01L17.4929 28.0649L17.5401 28.1195L17.5877 28.1735L17.6356 28.2268L17.6844 28.2797L17.7333 28.3319L17.7828 28.3838L17.8328 28.4349L17.8831 28.4855L17.9341 28.5355L17.9854 28.585L18.0372 28.6339L18.0894 28.6822L18.142 28.7299L18.1951 28.777L18.2485 28.8235L18.3024 28.8695L18.3566 28.9148L18.4112 28.9596L18.4663 29.0037L18.5219 29.0472L18.5775 29.0901L18.6337 29.1323L18.6903 29.1741L18.7471 29.2151L18.8043 29.2555L18.8619 29.2954L18.9197 29.3346L18.9779 29.3731L19.0363 29.4109L19.0951 29.4482L19.1544 29.485L19.2137 29.5208L19.2734 29.5563L19.3335 29.591L19.3935 29.625L19.454 29.6584L19.5149 29.6913L19.5759 29.7234L19.6371 29.7548L19.6985 29.7856L19.7604 29.8158L19.8222 29.8453L19.8845 29.8741L19.9468 29.9024L20.0092 29.9298L20.0721 29.9567L20.135 29.983L20.198 30.0085L20.2613 30.0334L20.3248 30.0576L20.3885 30.0811L20.452 30.104L20.5161 30.1263L20.58 30.1478L20.6441 30.1687L20.7084 30.1889L20.7728 30.2085L20.8372 30.2273L20.9018 30.2456L20.9665 30.2631L21.0313 30.28L21.096 30.2962L21.1609 30.3118L21.2258 30.3266L21.2907 30.3408L21.3558 30.3544L21.4209 30.3672L21.486 30.3795L21.5511 30.391L21.6163 30.402L21.6815 30.4122L21.7467 30.4218L21.8117 30.4307L21.8769 30.4389L21.9419 30.4465L22.0071 30.4535L22.0722 30.4597L22.1373 30.4653L22.2023 30.4703L22.2671 30.4746L22.3321 30.4783L22.3969 30.4812L22.4615 30.4837L22.5264 30.4853L22.5908 30.4865L22.6552 30.4869L22.7196 30.4867L22.7838 30.4859L22.8482 30.4843L22.9122 30.4822L22.976 30.4796L23.0398 30.4762L23.1036 30.4722L23.1669 30.4675L23.2303 30.4623L23.2934 30.4565L23.3565 30.45L23.4194 30.4428L23.4819 30.4352L23.5446 30.4269L23.6068 30.4179L23.6687 30.4084L23.7308 30.3983L23.7925 30.3876L23.8539 30.3763L23.9152 30.3644L23.9763 30.3519L24.0369 30.3388L24.0974 30.3252L24.1578 30.3109L24.2179 30.2961L24.2776 30.2808L24.3372 30.2649L24.3964 30.2484L24.4556 30.2312L24.5142 30.2136L24.5724 30.1955L24.6308 30.1766L24.6886 30.1574L24.7461 30.1377L24.8033 30.1173L24.8602 30.0964L24.9169 30.0749L24.9733 30.053L25.0291 30.0305L25.0848 30.0076L25.1401 29.9841L25.1952 29.96L25.2496 29.9356L25.304 29.9106L25.3579 29.8851L25.4113 29.8591L25.4646 29.8326L25.5173 29.8057L25.5698 29.7783L25.6219 29.7503L25.6736 29.722L25.7248 29.6932L25.7757 29.6638L25.8263 29.6341L25.8763 29.6039L25.9259 29.5732L25.9752 29.5421L26.0241 29.5107L26.0726 29.4787L26.1206 29.4464L26.1683 29.4135L26.2155 29.3803L26.2621 29.3467L26.3084 29.3126L26.3543 29.2782L26.3997 29.2434L26.4447 29.2082L26.4894 29.1725L26.5333 29.1367L26.577 29.1004L26.6201 29.0636L26.6627 29.0265L26.7051 28.9891L26.7468 28.9513L26.7881 28.9132L26.8288 28.8748L26.8692 28.8359L26.9091 28.7967L26.9485 28.7573L26.9874 28.7176L27.0257 28.6774L27.0636 28.6371L27.1011 28.5963L27.1379 28.5555L27.1744 28.5141L27.2103 28.4724L27.2456 28.4307L27.2807 28.3884L27.3149 28.3462L27.3489 28.3034L27.3824 28.2606L27.4151 28.2174L27.4476 28.1739L27.4793 28.1304L27.5107 28.0864L27.5415 28.0422L27.5717 27.998L27.6015 27.9533L27.6308 27.9086L27.6594 27.8637L27.6876 27.8185L27.7152 27.7731L27.7423 27.7275L27.769 27.6818L27.795 27.6359L27.8205 27.5898L27.8455 27.5435L27.87 27.4972L27.8938 27.4506L27.9173 27.4039L27.9402 27.3571L27.9625 27.3099L27.9843 27.2629L28.0055 27.2156L28.0261 27.1684L28.0463 27.1208L28.0659 27.0733L28.0851 27.0254L28.1035 26.9779L28.1216 26.9296L28.139 26.8821L28.156 26.8339L28.1724 26.7856L28.1882 26.7376L28.2035 26.6893L28.2183 26.6412L28.2326 26.5925L28.2462 26.5444L28.2595 26.4956L28.272 26.4476L28.2841 26.3989L28.2957 26.3502L28.3067 26.3018L28.3171 26.2536L28.3271 26.2046L28.3366 26.1563L28.3455 26.1075L28.3538 26.0592L28.3617 26.0107L28.369 25.9621L28.3758 25.9135L28.382 25.8651L28.3878 25.8168L28.393 25.7686L28.3977 25.7201L28.4019 25.6719L28.4055 25.6236L28.4086 25.5755L28.4113 25.5275L28.4134 25.4795L28.415 25.4318L28.4161 25.3838L28.4168 25.3359L28.4169 25.2884L28.4164 25.2409L28.4155 25.1935L28.4141 25.1463L28.4122 25.0988L28.4098 25.0522L28.4069 25.0046L28.4035 24.9582L28.3997 24.9116L28.3953 24.8647L28.3904 24.8183L28.3852 24.7724L28.3793 24.7258L28.3731 24.6802L28.3663 24.6342L28.3592 24.589L28.3514 24.5433L28.3433 24.4979L28.3348 24.4529L28.3258 24.4081L28.3162 24.3632L28.3062 24.3188L28.2959 24.2744L28.285 24.2304L28.2738 24.1866L28.2619 24.1426L28.2499 24.0994L28.2373 24.0558L28.2243 24.013L28.2108 23.9701L28.197 23.9276L28.1826 23.8852L28.1679 23.843L28.1529 23.8013L28.1373 23.7598L28.1213 23.7182L28.105 23.6773L28.0882 23.6361L28.0712 23.5959L28.0536 23.5553L28.0358 23.5153L28.0175 23.4757L27.9988 23.4361L27.9798 23.3969L27.9604 23.3579L27.9406 23.3192L27.9205 23.2809L27.9 23.2428L27.8792 23.2051L27.858 23.1676L27.8363 23.1304L27.8145 23.0935L27.7923 23.057L27.7697 23.0206L27.7468 22.9848L27.7236 22.9492L27.7 22.9139L27.6761 22.8788L27.652 22.8443L27.6275 22.8098L27.6027 22.7759L27.5776 22.7422L27.5522 22.7089L27.5266 22.6759L27.5005 22.6431L27.4743 22.6109L27.4478 22.5789L27.421 22.5473L27.3939 22.516L27.3667 22.4851L27.339 22.4545L27.3112 22.4243L27.2831 22.3943L27.2547 22.3649L27.2261 22.3358L27.1972 22.3069L27.1682 22.2785L27.1389 22.2505L27.1095 22.2229L27.0795 22.1954L27.0497 22.1685L27.0195 22.1419L26.9892 22.1157L26.9585 22.0898L26.9278 22.0645L26.8968 22.0394L26.8657 22.0147L26.8343 21.9903L26.8028 21.9663L26.7711 21.9428L26.7393 21.9196L26.7072 21.8968L26.6751 21.8744L26.6427 21.8523L26.6103 21.8307L26.5777 21.8095L26.5448 21.7885L26.512 21.7681L26.4788 21.7479L26.4457 21.7282L26.4125 21.709L26.3791 21.69L26.3454 21.6714L26.3119 21.6533L26.2782 21.6355L26.2443 21.6181L26.2106 21.6012L26.1764 21.5844L26.1424 21.5683L26.1082 21.5526L26.074 21.5371L26.0396 21.522L26.0051 21.5073L25.9709 21.4931L25.9362 21.4793L25.9016 21.4658L25.867 21.4527L25.8324 21.44L25.7977 21.4277L25.763 21.4158L25.7282 21.4041L25.6935 21.3931L25.6587 21.3822L25.6238 21.3718L25.5891 21.3619L25.554 21.3522L25.5194 21.343L25.4845 21.3342L25.4496 21.3257L25.4148 21.3176L25.38 21.3098L25.3451 21.3025L25.3104 21.2956L25.2757 21.2889L25.241 21.2827L25.2062 21.2769L25.1717 21.2714L25.1369 21.2663L25.1025 21.2616L25.0679 21.2572L25.0335 21.2532L24.9992 21.2495L24.9648 21.2463L24.9306 21.2433L24.8964 21.2408L24.8623 21.2386L24.8282 21.2367L24.7942 21.2352L24.7606 21.2341L24.7267 21.2332L24.693 21.2328L24.6594 21.2327L24.6259 21.233L24.5925 21.2336L24.5593 21.2345L24.5261 21.2358L24.4932 21.2373L24.4601 21.2393L24.4275 21.2415L24.3948 21.2441L24.3623 21.2471L24.3299 21.2503L24.2975 21.2538L24.2655 21.2577L24.2335 21.2619L24.2018 21.2665L24.17 21.2713L24.1386 21.2764L24.1071 21.2818L24.0761 21.2876L24.0449 21.2937L24.0142 21.3L23.9834 21.3066L23.953 21.3136Z" fill="black"></path></svg>