<svg xmlns="http://www.w3.org/2000/svg" width="121" height="29" viewBox="0 0 121 29" fill="none"><path d="M20.3291 13.6512C21.3606 12.7875 22.0165 11.4901 22.0165 10.0395C22.0165 8.58897 21.3606 7.2916 20.3291 6.42784C20.4473 6.3706 20.5611 6.30847 20.6694 6.24115C21.3536 5.81575 22.1611 5.57007 23.026 5.57007C25.4945 5.57007 27.4955 7.57115 27.4955 10.0395C27.4955 12.5079 25.4945 14.509 23.026 14.509C22.1611 14.509 21.3536 14.2633 20.6694 13.8379C20.5611 13.7706 20.4473 13.7085 20.3291 13.6512Z" fill="url(#paint0_linear_5222_25575)"></path><path d="M19.0878 10.7431C19.5492 9.47935 19.4686 8.02783 18.7432 6.77161C18.0179 5.51537 16.8012 4.71978 15.4761 4.48748C15.5498 4.37882 15.6173 4.26813 15.6774 4.15564C16.0572 3.44516 16.6338 2.82863 17.3828 2.39617C19.5205 1.16196 22.254 1.8944 23.4882 4.0321C24.7224 6.16982 23.99 8.90332 21.8522 10.1375C21.1032 10.57 20.281 10.7609 19.4758 10.7347C19.3484 10.7305 19.2187 10.7336 19.0878 10.7431Z" fill="url(#paint1_linear_5222_25575)"></path><path d="M16.5585 8.84529C16.3262 7.52017 15.5306 6.30342 14.2744 5.57813C13.0181 4.85285 11.5666 4.77222 10.3029 5.2336C10.3124 5.10263 10.3155 4.97304 10.3113 4.84556C10.285 4.04035 10.476 3.21816 10.9085 2.46912C12.1427 0.331409 14.8762 -0.401024 17.0139 0.833183C19.1516 2.06739 19.8841 4.80087 18.6498 6.9386C18.2173 7.68761 17.6008 8.26414 16.8903 8.64397C16.7779 8.70411 16.6672 8.77152 16.5585 8.84529Z" fill="url(#paint2_linear_5222_25575)"></path><path d="M13.419 8.46646C12.5552 7.43501 11.2578 6.77909 9.80723 6.77909C8.35662 6.77909 7.05928 7.43501 6.19554 8.46646C6.13832 8.34825 6.07618 8.23449 6.00883 8.12611C5.58345 7.44195 5.33777 6.63445 5.33777 5.76952C5.33777 3.3011 7.33881 1.30005 9.80723 1.30005C12.2757 1.30005 14.2767 3.3011 14.2767 5.76952C14.2767 6.63445 14.031 7.44195 13.6057 8.12611C13.5382 8.23449 13.4761 8.34825 13.419 8.46646Z" fill="url(#paint3_linear_5222_25575)"></path><path d="M10.5102 9.70776C9.24649 9.24639 7.79495 9.32701 6.53871 10.0522C5.28247 10.7775 4.48687 11.9943 4.25458 13.3194C4.14592 13.2456 4.03523 13.1782 3.92273 13.1181C3.21226 12.7383 2.59572 12.1617 2.16327 11.4127C0.929051 9.27497 1.66148 6.54153 3.7992 5.30731C5.93691 4.07309 8.67038 4.80553 9.90463 6.94326C10.3371 7.69227 10.5281 8.51448 10.5017 9.31966C10.4976 9.44713 10.5007 9.57674 10.5102 9.70776Z" fill="url(#paint4_linear_5222_25575)"></path><path d="M8.61158 12.2373C7.28643 12.4696 6.06969 13.2652 5.3444 14.5214C4.61911 15.7776 4.53849 17.2291 4.99988 18.4929C4.86889 18.4833 4.73929 18.4803 4.61179 18.4844C3.80658 18.5107 2.9844 18.3197 2.23536 17.8873C0.0976445 16.653 -0.63479 13.9196 0.599419 11.7818C1.83363 9.64418 4.56711 8.91169 6.70482 10.1459C7.45386 10.5784 8.03036 11.1949 8.41018 11.9053C8.47032 12.0179 8.53781 12.1286 8.61158 12.2373Z" fill="url(#paint5_linear_5222_25575)"></path><path d="M8.23195 15.3771C7.20049 16.2409 6.54456 17.5382 6.54456 18.9887C6.54456 20.4394 7.20049 21.7367 8.23195 22.6005C8.11374 22.6576 7.99997 22.7198 7.89164 22.7872C7.20747 23.2125 6.39993 23.4582 5.53501 23.4582C3.0666 23.4582 1.06555 21.4572 1.06555 18.9887C1.06555 16.5203 3.0666 14.5193 5.53501 14.5193C6.39993 14.5193 7.20747 14.765 7.89164 15.1904C7.99997 15.2577 8.11374 15.3198 8.23195 15.3771Z" fill="url(#paint6_linear_5222_25575)"></path><path d="M9.47303 18.2859C9.01158 19.5496 9.09221 21.0012 9.81751 22.2574C10.5428 23.5137 11.7596 24.3092 13.0847 24.5415C13.0109 24.6502 12.9435 24.7609 12.8834 24.8734C12.5035 25.5839 11.927 26.2004 11.178 26.6328C9.04024 27.8671 6.30677 27.1346 5.07257 24.9969C3.83835 22.8592 4.57079 20.1257 6.7085 18.8915C7.45754 18.459 8.27975 18.268 9.08494 18.2944C9.2124 18.2985 9.34201 18.2955 9.47303 18.2859Z" fill="url(#paint7_linear_5222_25575)"></path><path d="M12.0023 20.1846C12.2346 21.5097 13.0302 22.7264 14.2865 23.4517C15.5427 24.177 16.9943 24.2576 18.258 23.7962C18.2485 23.9272 18.2454 24.0568 18.2495 24.1843C18.2759 24.9895 18.0849 25.8117 17.6524 26.5607C16.4182 28.6985 13.6847 29.4309 11.547 28.1966C9.40926 26.9624 8.67685 24.229 9.9111 22.0913C10.3436 21.3422 10.9601 20.7657 11.6705 20.3859C11.783 20.3257 11.8937 20.2583 12.0023 20.1846Z" fill="url(#paint8_linear_5222_25575)"></path><path d="M15.142 20.5645C16.0058 21.5959 17.3032 22.2518 18.7538 22.2518C20.2044 22.2518 21.5017 21.5959 22.3655 20.5645C22.4227 20.6827 22.4848 20.7964 22.5522 20.9047C22.9775 21.5889 23.2232 22.3965 23.2232 23.2614C23.2232 25.7298 21.2222 27.7308 18.7538 27.7308C16.2853 27.7308 14.2843 25.7298 14.2843 23.2614C14.2843 22.3965 14.53 21.5889 14.9553 20.9047C15.0227 20.7964 15.0849 20.6827 15.142 20.5645Z" fill="url(#paint9_linear_5222_25575)"></path><path d="M18.051 19.3231C19.3148 19.7844 20.7663 19.7038 22.0225 18.9786C23.2788 18.2533 24.0744 17.0366 24.3066 15.7114C24.4153 15.7851 24.526 15.8526 24.6385 15.9127C25.349 16.2926 25.9655 16.8691 26.398 17.6181C27.6322 19.7559 26.8997 22.4893 24.7621 23.7236C22.6243 24.9577 19.8909 24.2253 18.6566 22.0876C18.2242 21.3386 18.0332 20.5164 18.0595 19.7112C18.0637 19.5837 18.0606 19.4541 18.051 19.3231Z" fill="url(#paint10_linear_5222_25575)"></path><path d="M23.2195 14.505C23.2186 14.5065 23.2177 14.5081 23.2168 14.5097C22.4916 15.7659 21.2748 16.5615 19.9497 16.7938C20.0234 16.9025 20.0909 17.0132 20.151 17.1256C20.5309 17.8362 21.1074 18.4527 21.8564 18.8851C23.9941 20.1194 26.7276 19.3869 27.9618 17.2492C29.0199 15.4165 28.6325 13.1459 27.1534 11.7576C26.5036 13.317 24.9958 14.4293 23.2195 14.505Z" fill="url(#paint11_linear_5222_25575)"></path><path d="M38.7404 24.3695V6.34584H45.8513C47.2124 6.34584 48.3741 6.58932 49.3363 7.07629C50.3044 7.55739 51.0407 8.24091 51.5453 9.12684C52.0557 10.0069 52.3109 11.0424 52.3109 12.2335C52.3109 13.4304 52.0528 14.46 51.5365 15.3225C51.0202 16.1791 50.2721 16.8362 49.2923 17.2938C48.3184 17.7515 47.1391 17.9803 45.7545 17.9803H40.9933V14.9177H45.1384C45.8659 14.9177 46.4703 14.8179 46.9514 14.6184C47.4325 14.419 47.7903 14.1197 48.025 13.7208C48.2656 13.3218 48.3859 12.826 48.3859 12.2335C48.3859 11.635 48.2656 11.1305 48.025 10.7198C47.7903 10.3091 47.4295 9.9981 46.9426 9.78689C46.4615 9.56981 45.8542 9.46126 45.1208 9.46126H42.551V24.3695H38.7404ZM48.4739 16.1674L52.9534 24.3695H48.7467L44.364 16.1674H48.4739Z" fill="#2E4681"></path><path d="M54.9335 24.3695V10.8518H58.6826V24.3695H54.9335ZM56.8169 9.10924C56.2595 9.10924 55.7813 8.92442 55.3824 8.5548C54.9893 8.1793 54.7927 7.73047 54.7927 7.2083C54.7927 6.692 54.9893 6.24903 55.3824 5.8794C55.7813 5.50391 56.2595 5.31616 56.8169 5.31616C57.3742 5.31616 57.8495 5.50391 58.2426 5.8794C58.6415 6.24903 58.841 6.692 58.841 7.2083C58.841 7.73047 58.6415 8.1793 58.2426 8.5548C57.8495 8.92442 57.3742 9.10924 56.8169 9.10924Z" fill="#2E4681"></path><path d="M66.667 24.5896C65.6402 24.5896 64.7103 24.3255 63.8772 23.7975C63.0499 23.2636 62.3928 22.4803 61.9058 21.4477C61.4247 20.4093 61.1842 19.1361 61.1842 17.6283C61.1842 16.0793 61.4335 14.7915 61.9322 13.7648C62.4309 12.7322 63.0939 11.9606 63.9212 11.4502C64.7543 10.9339 65.6667 10.6758 66.6582 10.6758C67.415 10.6758 68.0458 10.8048 68.5503 11.063C69.0608 11.3153 69.4715 11.6321 69.7824 12.0134C70.0992 12.3889 70.3398 12.7586 70.5041 13.1223H70.6185V6.34584H74.3587V24.3695H70.6625V22.2046H70.5041C70.3281 22.5801 70.0787 22.9526 69.756 23.3223C69.4392 23.686 69.0256 23.9882 68.5151 24.2287C68.0106 24.4693 67.3945 24.5896 66.667 24.5896ZM67.8551 21.6061C68.4594 21.6061 68.9698 21.4419 69.3864 21.1133C69.8088 20.7789 70.1315 20.3125 70.3545 19.714C70.5833 19.1156 70.6977 18.4144 70.6977 17.6107C70.6977 16.8069 70.5862 16.1087 70.3633 15.5161C70.1403 14.9235 69.8176 14.4659 69.3952 14.1432C68.9728 13.8205 68.4594 13.6592 67.8551 13.6592C67.239 13.6592 66.7198 13.8264 66.2974 14.1608C65.8749 14.4952 65.5552 14.9587 65.3381 15.5513C65.121 16.1439 65.0125 16.8303 65.0125 17.6107C65.0125 18.3968 65.121 19.0921 65.3381 19.6964C65.561 20.2949 65.8808 20.7642 66.2974 21.1045C66.7198 21.4389 67.239 21.6061 67.8551 21.6061Z" fill="#2E4681"></path><path d="M83.5488 24.6336C82.1818 24.6336 80.9996 24.3431 80.0022 23.7623C79.0106 23.1756 78.245 22.3601 77.7052 21.3157C77.1654 20.2655 76.8955 19.0481 76.8955 17.6635C76.8955 16.2671 77.1654 15.0467 77.7052 14.0024C78.245 12.9522 79.0106 12.1367 80.0022 11.5558C80.9996 10.9691 82.1818 10.6758 83.5488 10.6758C84.9158 10.6758 86.0951 10.9691 87.0867 11.5558C88.0841 12.1367 88.8527 12.9522 89.3924 14.0024C89.9322 15.0467 90.2021 16.2671 90.2021 17.6635C90.2021 19.0481 89.9322 20.2655 89.3924 21.3157C88.8527 22.3601 88.0841 23.1756 87.0867 23.7623C86.0951 24.3431 84.9158 24.6336 83.5488 24.6336ZM83.5664 21.7294C84.1883 21.7294 84.7076 21.5533 85.1241 21.2013C85.5407 20.8434 85.8546 20.3565 86.0658 19.7404C86.2829 19.1244 86.3914 18.4232 86.3914 17.6371C86.3914 16.8509 86.2829 16.1498 86.0658 15.5337C85.8546 14.9177 85.5407 14.4307 85.1241 14.0728C84.7076 13.7149 84.1883 13.536 83.5664 13.536C82.9386 13.536 82.4106 13.7149 81.9823 14.0728C81.5599 14.4307 81.2401 14.9177 81.023 15.5337C80.8118 16.1498 80.7062 16.8509 80.7062 17.6371C80.7062 18.4232 80.8118 19.1244 81.023 19.7404C81.2401 20.3565 81.5599 20.8434 81.9823 21.2013C82.4106 21.5533 82.9386 21.7294 83.5664 21.7294Z" fill="#2E4681"></path><path d="M92.6399 24.3695V10.8518H96.2745V13.2103H96.4154C96.6618 12.3713 97.0754 11.7377 97.6562 11.3094C98.2371 10.8752 98.9059 10.6582 99.6628 10.6582C99.8505 10.6582 100.053 10.6699 100.27 10.6934C100.487 10.7168 100.678 10.7491 100.842 10.7902V14.1168C100.666 14.064 100.423 14.0171 100.112 13.976C99.8007 13.9349 99.5161 13.9144 99.258 13.9144C98.7064 13.9144 98.2136 14.0347 97.7794 14.2752C97.3512 14.5099 97.0109 14.8385 96.7586 15.2609C96.5122 15.6833 96.389 16.1703 96.389 16.7218V24.3695H92.6399Z" fill="#2E4681"></path><path d="M102.78 24.3695V10.8518H106.529V24.3695H102.78ZM104.664 9.10924C104.106 9.10924 103.628 8.92442 103.229 8.5548C102.836 8.1793 102.64 7.73047 102.64 7.2083C102.64 6.692 102.836 6.24903 103.229 5.8794C103.628 5.50391 104.106 5.31616 104.664 5.31616C105.221 5.31616 105.696 5.50391 106.089 5.8794C106.488 6.24903 106.688 6.692 106.688 7.2083C106.688 7.73047 106.488 8.1793 106.089 8.5548C105.696 8.92442 105.221 9.10924 104.664 9.10924Z" fill="#2E4681"></path><path d="M113.387 24.6248C112.525 24.6248 111.756 24.4752 111.082 24.1759C110.407 23.8708 109.873 23.422 109.48 22.8294C109.093 22.231 108.899 21.4859 108.899 20.5941C108.899 19.8431 109.037 19.2124 109.313 18.7019C109.588 18.1915 109.964 17.7808 110.439 17.4698C110.914 17.1589 111.454 16.9242 112.058 16.7658C112.669 16.6074 113.308 16.4959 113.977 16.4314C114.763 16.3492 115.397 16.273 115.878 16.2026C116.359 16.1263 116.708 16.0148 116.925 15.8681C117.142 15.7215 117.251 15.5044 117.251 15.2169V15.1641C117.251 14.6067 117.075 14.1755 116.723 13.8704C116.377 13.5653 115.884 13.4128 115.244 13.4128C114.57 13.4128 114.033 13.5624 113.634 13.8616C113.235 14.1549 112.971 14.5246 112.842 14.9705L109.374 14.6888C109.55 13.8675 109.896 13.1575 110.413 12.5591C110.929 11.9548 111.595 11.4913 112.411 11.1686C113.232 10.84 114.182 10.6758 115.262 10.6758C116.013 10.6758 116.732 10.7638 117.418 10.9398C118.11 11.1158 118.724 11.3886 119.257 11.7582C119.797 12.1279 120.223 12.6031 120.534 13.1839C120.844 13.7589 121 14.4483 121 15.2521V24.3695H117.444V22.495H117.339C117.122 22.9174 116.831 23.29 116.468 23.6127C116.104 23.9295 115.667 24.1789 115.156 24.3607C114.646 24.5368 114.056 24.6248 113.387 24.6248ZM114.461 22.0374C115.013 22.0374 115.5 21.9288 115.922 21.7118C116.344 21.4888 116.676 21.1896 116.916 20.8141C117.157 20.4386 117.277 20.0132 117.277 19.538V18.1035C117.16 18.1798 116.999 18.2502 116.793 18.3147C116.594 18.3734 116.368 18.4291 116.116 18.4819C115.863 18.5289 115.611 18.5729 115.359 18.6139C115.106 18.6491 114.878 18.6814 114.672 18.7107C114.232 18.7753 113.848 18.8779 113.519 19.0188C113.191 19.1596 112.936 19.3502 112.754 19.5908C112.572 19.8255 112.481 20.1188 112.481 20.4709C112.481 20.9813 112.666 21.3715 113.035 21.6413C113.411 21.9054 113.886 22.0374 114.461 22.0374Z" fill="#2E4681"></path><defs><linearGradient id="paint0_linear_5222_25575" x1="20.8887" y1="5.57007" x2="20.8887" y2="14.509" gradientUnits="userSpaceOnUse"><stop stop-color="#25136D"></stop><stop offset="1" stop-color="#3D9BA2"></stop></linearGradient><linearGradient id="paint1_linear_5222_25575" x1="15.5318" y1="3.46482" x2="20.0013" y2="11.2062" gradientUnits="userSpaceOnUse"><stop stop-color="#25136D"></stop><stop offset="1" stop-color="#3D9BA2"></stop></linearGradient><linearGradient id="paint2_linear_5222_25575" x1="9.83983" y1="4.32009" x2="17.5812" y2="8.78953" gradientUnits="userSpaceOnUse"><stop stop-color="#25136D"></stop><stop offset="1" stop-color="#3D9BA2"></stop></linearGradient><linearGradient id="paint3_linear_5222_25575" x1="5.33777" y1="7.90679" x2="14.2767" y2="7.90679" gradientUnits="userSpaceOnUse"><stop stop-color="#25136D"></stop><stop offset="1" stop-color="#3D9BA2"></stop></linearGradient><linearGradient id="paint4_linear_5222_25575" x1="3.23193" y1="13.2636" x2="10.9733" y2="8.79419" gradientUnits="userSpaceOnUse"><stop stop-color="#25136D"></stop><stop offset="1" stop-color="#3D9BA2"></stop></linearGradient><linearGradient id="paint5_linear_5222_25575" x1="4.08634" y1="18.9559" x2="8.55582" y2="11.2146" gradientUnits="userSpaceOnUse"><stop stop-color="#25136D"></stop><stop offset="1" stop-color="#3D9BA2"></stop></linearGradient><linearGradient id="paint6_linear_5222_25575" x1="7.67233" y1="23.4582" x2="7.67233" y2="14.5193" gradientUnits="userSpaceOnUse"><stop stop-color="#25136D"></stop><stop offset="1" stop-color="#3D9BA2"></stop></linearGradient><linearGradient id="paint7_linear_5222_25575" x1="13.0289" y1="25.5642" x2="8.55946" y2="17.8229" gradientUnits="userSpaceOnUse"><stop stop-color="#25136D"></stop><stop offset="1" stop-color="#3D9BA2"></stop></linearGradient><linearGradient id="paint8_linear_5222_25575" x1="18.7211" y1="24.7098" x2="10.9797" y2="20.2403" gradientUnits="userSpaceOnUse"><stop stop-color="#25136D"></stop><stop offset="1" stop-color="#3D9BA2"></stop></linearGradient><linearGradient id="paint9_linear_5222_25575" x1="23.2232" y1="21.124" x2="14.2843" y2="21.124" gradientUnits="userSpaceOnUse"><stop stop-color="#25136D"></stop><stop offset="1" stop-color="#3D9BA2"></stop></linearGradient><linearGradient id="paint10_linear_5222_25575" x1="25.3293" y1="15.7672" x2="17.588" y2="20.2366" gradientUnits="userSpaceOnUse"><stop stop-color="#25136D"></stop><stop offset="1" stop-color="#3D9BA2"></stop></linearGradient><linearGradient id="paint11_linear_5222_25575" x1="24.4749" y1="10.0752" x2="20.0055" y2="17.8165" gradientUnits="userSpaceOnUse"><stop stop-color="#25136D"></stop><stop offset="1" stop-color="#3D9BA2"></stop></linearGradient></defs></svg>