<svg xmlns="http://www.w3.org/2000/svg" width="200" height="39" viewBox="0 0 200 39" fill="none"><path d="M60.2021 30.5633V10.3901H64.0252V27.1051H73.2933V30.5633H60.2021Z" fill="black"></path><path d="M81.5474 30.9668C80.1186 30.9668 78.8345 30.6786 77.6954 30.1022C76.5561 29.5259 75.6583 28.6901 75.0018 27.595C74.3453 26.4999 74.0171 25.1838 74.0171 23.6468V23.1857C74.0171 21.6487 74.3453 20.3326 75.0018 19.2375C75.6583 18.1424 76.5561 17.3066 77.6954 16.7302C78.8345 16.1539 80.1186 15.8657 81.5474 15.8657C82.9762 15.8657 84.2603 16.1539 85.3995 16.7302C86.5386 17.3066 87.4365 18.1424 88.0931 19.2375C88.7495 20.3326 89.0778 21.6487 89.0778 23.1857V23.6468C89.0778 25.1838 88.7495 26.4999 88.0931 27.595C87.4365 28.6901 86.5386 29.5259 85.3995 30.1022C84.2603 30.6786 82.9762 30.9668 81.5474 30.9668ZM81.5474 27.739C82.6673 27.739 83.5941 27.3836 84.3279 26.6728C85.0615 25.9427 85.4285 24.9052 85.4285 23.5604V23.2721C85.4285 21.9272 85.0615 20.8994 84.3279 20.1884C83.6134 19.4585 82.6866 19.0933 81.5474 19.0933C80.4275 19.0933 79.5007 19.4585 78.767 20.1884C78.0332 20.8994 77.6664 21.9272 77.6664 23.2721V23.5604C77.6664 24.9052 78.0332 25.9427 78.767 26.6728C79.5007 27.3836 80.4275 27.739 81.5474 27.739Z" fill="black"></path><path d="M90.4478 23.4739V23.0128C90.4478 21.5142 90.747 20.2365 91.3456 19.1798C91.9442 18.104 92.7359 17.2874 93.7206 16.7302C94.7247 16.1539 95.8156 15.8657 96.9934 15.8657C98.3064 15.8657 99.3008 16.0962 99.9766 16.5573C100.652 17.0184 101.145 17.4987 101.454 17.9982H101.975V16.2691H105.566V33.0993C105.566 34.0792 105.277 34.8573 104.698 35.4337C104.118 36.0293 103.346 36.327 102.38 36.327H92.7649V33.157H101.106C101.647 33.157 101.917 32.8688 101.917 32.2924V28.5748H101.396C101.203 28.8822 100.932 29.1991 100.585 29.5259C100.237 29.8331 99.7739 30.0926 99.1946 30.3039C98.6153 30.5152 97.8817 30.621 96.9934 30.621C95.8156 30.621 94.7247 30.3423 93.7206 29.7852C92.7359 29.2088 91.9442 28.3922 91.3456 27.3355C90.747 26.2597 90.4478 24.9724 90.4478 23.4739ZM98.0362 27.4508C99.156 27.4508 100.092 27.0954 100.845 26.3846C101.599 25.6737 101.975 24.6747 101.975 23.3875V23.0992C101.975 21.7927 101.599 20.7937 100.845 20.102C100.112 19.3912 99.1753 19.0357 98.0362 19.0357C96.9161 19.0357 95.9797 19.3912 95.2267 20.102C94.4736 20.7937 94.0971 21.7927 94.0971 23.0992V23.3875C94.0971 24.6747 94.4736 25.6737 95.2267 26.3846C95.9797 27.0954 96.9161 27.4508 98.0362 27.4508Z" fill="black"></path><path d="M115.145 30.9668C113.716 30.9668 112.432 30.6786 111.293 30.1022C110.154 29.5259 109.256 28.6901 108.599 27.595C107.943 26.4999 107.614 25.1838 107.614 23.6468V23.1857C107.614 21.6487 107.943 20.3326 108.599 19.2375C109.256 18.1424 110.154 17.3066 111.293 16.7302C112.432 16.1539 113.716 15.8657 115.145 15.8657C116.574 15.8657 117.858 16.1539 118.997 16.7302C120.136 17.3066 121.034 18.1424 121.691 19.2375C122.347 20.3326 122.675 21.6487 122.675 23.1857V23.6468C122.675 25.1838 122.347 26.4999 121.691 27.595C121.034 28.6901 120.136 29.5259 118.997 30.1022C117.858 30.6786 116.574 30.9668 115.145 30.9668ZM115.145 27.739C116.265 27.739 117.192 27.3836 117.925 26.6728C118.659 25.9427 119.026 24.9052 119.026 23.5604V23.2721C119.026 21.9272 118.659 20.8994 117.925 20.1884C117.211 19.4585 116.284 19.0933 115.145 19.0933C114.025 19.0933 113.098 19.4585 112.364 20.1884C111.631 20.8994 111.264 21.9272 111.264 23.2721V23.5604C111.264 24.9052 111.631 25.9427 112.364 26.6728C113.098 27.3836 114.025 27.739 115.145 27.739Z" fill="black"></path><path d="M124.741 30.5632V16.269H128.39V30.5632H124.741ZM126.565 14.5976C125.908 14.5976 125.349 14.3862 124.885 13.9635C124.441 13.5409 124.219 12.9837 124.219 12.2921C124.219 11.6004 124.441 11.0433 124.885 10.6206C125.349 10.1979 125.908 9.98657 126.565 9.98657C127.241 9.98657 127.801 10.1979 128.245 10.6206C128.689 11.0433 128.912 11.6004 128.912 12.2921C128.912 12.9837 128.689 13.5409 128.245 13.9635C127.801 14.3862 127.241 14.5976 126.565 14.5976Z" fill="black"></path><path d="M131.131 36.327V16.2691H134.722V17.9982H135.243C135.571 17.4411 136.082 16.9512 136.778 16.5285C137.472 16.0867 138.467 15.8657 139.762 15.8657C140.919 15.8657 141.991 16.1539 142.975 16.7302C143.961 17.2874 144.753 18.1135 145.35 19.2086C145.949 20.3038 146.249 21.6295 146.249 23.1857V23.6468C146.249 25.203 145.949 26.5286 145.35 27.6237C144.753 28.7188 143.961 29.5546 142.975 30.131C141.991 30.6881 140.919 30.9668 139.762 30.9668C138.893 30.9668 138.158 30.8611 137.56 30.6497C136.981 30.4576 136.508 30.2078 136.141 29.9004C135.793 29.5738 135.513 29.2472 135.3 28.9206H134.779V36.327H131.131ZM138.66 27.7966C139.8 27.7966 140.736 27.4413 141.469 26.7304C142.222 26.0003 142.6 24.9437 142.6 23.5604V23.2721C142.6 21.8888 142.222 20.8418 141.469 20.1309C140.716 19.4007 139.78 19.0357 138.66 19.0357C137.541 19.0357 136.604 19.4007 135.851 20.1309C135.098 20.8418 134.722 21.8888 134.722 23.2721V23.5604C134.722 24.9437 135.098 26.0003 135.851 26.7304C136.604 27.4413 137.541 27.7966 138.66 27.7966Z" fill="black"></path><path d="M154.263 30.9668C152.39 30.9668 150.855 30.5633 149.658 29.7564C148.461 28.9495 147.737 27.7966 147.486 26.2981L150.845 25.4335C150.981 26.106 151.202 26.6343 151.512 27.0186C151.84 27.4028 152.235 27.6814 152.7 27.8543C153.181 28.008 153.703 28.0848 154.263 28.0848C155.113 28.0848 155.741 27.9408 156.145 27.6526C156.551 27.3452 156.754 26.9705 156.754 26.5286C156.754 26.0867 156.561 25.7506 156.175 25.52C155.788 25.2703 155.17 25.0685 154.322 24.9148L153.51 24.7706C152.506 24.5785 151.589 24.3192 150.759 23.9926C149.928 23.6468 149.262 23.176 148.76 22.5804C148.259 21.9849 148.007 21.2164 148.007 20.275C148.007 18.8532 148.529 17.7677 149.572 17.0184C150.614 16.2499 151.985 15.8657 153.684 15.8657C155.286 15.8657 156.619 16.2211 157.681 16.932C158.743 17.6429 159.437 18.5746 159.766 19.7275L156.378 20.7649C156.223 20.0349 155.905 19.516 155.422 19.2086C154.958 18.9012 154.379 18.7475 153.684 18.7475C152.988 18.7475 152.458 18.8725 152.091 19.1222C151.724 19.3528 151.541 19.6794 151.541 20.102C151.541 20.5631 151.734 20.909 152.12 21.1395C152.506 21.3508 153.027 21.5142 153.684 21.6295L154.495 21.7735C155.576 21.9656 156.551 22.2251 157.42 22.5517C158.308 22.8591 159.003 23.3105 159.506 23.9061C160.026 24.4826 160.288 25.2703 160.288 26.2693C160.288 27.7679 159.737 28.9303 158.637 29.7564C157.555 30.5633 156.098 30.9668 154.263 30.9668Z" fill="black"></path><path d="M167.657 30.7938C166.536 30.7938 165.552 30.544 164.702 30.0445C163.871 29.5258 163.225 28.8149 162.761 27.9119C162.298 27.0089 162.066 25.9715 162.066 24.7994V16.269H165.716V24.5112C165.716 25.5871 165.976 26.394 166.498 26.9321C167.038 27.47 167.801 27.739 168.786 27.739C169.906 27.739 170.775 27.374 171.392 26.6439C172.011 25.8945 172.319 24.857 172.319 23.5314V16.269H175.969V30.5632H172.377V28.69H171.856C171.625 29.1703 171.189 29.641 170.553 30.1021C169.916 30.5632 168.95 30.7938 167.657 30.7938Z" fill="black"></path><path d="M178.726 30.5632V16.2691H182.317V17.8253H182.838C183.09 17.345 183.505 16.9319 184.084 16.5861C184.663 16.221 185.426 16.0386 186.372 16.0386C187.395 16.0386 188.217 16.2403 188.834 16.6437C189.451 17.028 189.924 17.5371 190.253 18.1712H190.775C191.103 17.5564 191.566 17.0472 192.165 16.6437C192.764 16.2403 193.613 16.0386 194.713 16.0386C195.602 16.0386 196.403 16.2307 197.118 16.615C197.851 16.98 198.431 17.5467 198.855 18.3152C199.3 19.0646 199.521 20.0155 199.521 21.1683V30.5632H195.872V21.4277C195.872 20.64 195.669 20.054 195.264 19.6697C194.859 19.2663 194.288 19.0646 193.555 19.0646C192.725 19.0646 192.078 19.3334 191.615 19.8715C191.17 20.3902 190.949 21.1395 190.949 22.1193V30.5632H187.299V21.4277C187.299 20.64 187.096 20.054 186.691 19.6697C186.285 19.2663 185.716 19.0646 184.982 19.0646C184.151 19.0646 183.504 19.3334 183.041 19.8715C182.597 20.3902 182.375 21.1395 182.375 22.1193V30.5632H178.726Z" fill="black"></path><path d="M48.6365 19.7567C48.6365 14.6611 46.6021 9.77417 42.981 6.17105C39.3598 2.56792 34.4485 0.543702 29.3274 0.543701C24.2064 0.543701 19.2951 2.56792 15.6739 6.17105C12.0528 9.77417 10.0184 14.6611 10.0184 19.7567H16.0526C18.0521 19.7567 19.6115 18.0894 20.3439 16.238C20.8247 15.0225 21.5544 13.9055 22.5006 12.9638C24.3112 11.1623 26.7669 10.1502 29.3274 10.1502C31.888 10.1502 34.3437 11.1623 36.1543 12.9638C37.9648 14.7654 38.9819 17.2089 38.9819 19.7567H48.6365Z" fill="url(#paint0_linear_17_439)"></path><path d="M37.5133 27.109C38.4837 24.778 38.9832 22.2796 38.9832 19.7566H48.6366C48.6366 30.3676 39.9916 38.9694 29.3276 38.9694C27.6575 38.9694 26.0369 38.7585 24.4915 38.3619C25.3659 38.1378 26.2254 37.8523 27.0633 37.507C29.406 36.5414 31.5346 35.1263 33.3276 33.3422C35.1207 31.5581 36.543 29.4401 37.5133 27.109Z" fill="black"></path><path d="M0.364868 19.7563C0.364868 22.2795 0.86431 24.7779 1.83468 27.1089C2.80505 29.4399 4.22734 31.5579 6.02035 33.3421C7.81335 35.126 9.94197 36.5413 12.2846 37.5069C14.6273 38.4724 17.1382 38.9693 19.6739 38.9693C22.2095 38.9693 24.7204 38.4724 27.0631 37.5069C29.4058 36.5413 31.5344 35.126 33.3274 33.3421C35.1204 31.5579 36.5427 29.4399 37.5131 27.1089C38.4834 24.7779 38.983 22.2795 38.983 19.7563H32.9488C30.9492 19.7563 29.3899 21.4237 28.6575 23.2749C28.6367 23.3277 28.6153 23.3802 28.5935 23.4327C28.1083 24.5981 27.3972 25.6572 26.5006 26.5492C25.6042 27.4412 24.5398 28.1489 23.3685 28.6317C22.1972 29.1144 20.9418 29.3629 19.6739 29.3629C18.406 29.3629 17.1506 29.1144 15.9793 28.6317C14.8079 28.1489 13.7437 27.4412 12.8471 26.5492C11.9506 25.6572 11.2395 24.5981 10.7543 23.4327C10.2691 22.2671 10.0194 21.0179 10.0194 19.7563H0.364868Z" fill="url(#paint1_linear_17_439)"></path><path d="M0.366821 19.7567C0.366821 9.1456 9.01174 0.543701 19.6758 0.543701C21.3454 0.543701 22.9656 0.754556 24.5109 1.15098C21.1951 2.00092 18.1363 3.72097 15.6738 6.17106C12.0527 9.77415 10.0184 14.6611 10.0184 19.7567H0.366821Z" fill="black"></path><defs><linearGradient id="paint0_linear_17_439" x1="48.6365" y1="10.1502" x2="10.0184" y2="10.1502" gradientUnits="userSpaceOnUse"><stop></stop><stop offset="1" stop-color="#716767"></stop></linearGradient><linearGradient id="paint1_linear_17_439" x1="0.364869" y1="29.3629" x2="38.983" y2="29.3629" gradientUnits="userSpaceOnUse"><stop></stop><stop offset="1" stop-color="#716767"></stop></linearGradient></defs></svg>