<svg xmlns="http://www.w3.org/2000/svg" width="138" height="30" viewBox="0 0 138 30" fill="none"><path d="M0 14.6698C0 7.86457 0 4.46194 2.11412 2.34782C4.22824 0.233704 7.63087 0.233704 14.4361 0.233704C21.2414 0.233704 24.644 0.233704 26.7582 2.34782C28.8723 4.46194 28.8723 7.86457 28.8723 14.6698C28.8723 21.4751 28.8723 24.8777 26.7582 26.9919C24.644 29.106 21.2414 29.106 14.4361 29.106C7.63087 29.106 4.22824 29.106 2.11412 26.9919C0 24.8777 0 21.4751 0 14.6698Z" fill="#232B36"></path><path d="M17.3236 19.0007C17.7222 19.0007 18.0527 19.3271 17.9735 19.7178C17.8335 20.4078 17.4936 21.0474 16.9883 21.5527C16.3115 22.2295 15.3935 22.6098 14.4363 22.6098C13.4792 22.6098 12.5612 22.2295 11.8844 21.5527C11.3791 21.0474 11.0392 20.4078 10.8993 19.7178C10.82 19.3271 11.1505 19.0007 11.5491 19.0007H17.3236Z" fill="#2DF8BB"></path><path d="M18.8408 13.0649C18.4557 13.1681 18.2199 13.5709 18.4151 13.9185C18.6206 14.2843 18.9049 14.6035 19.2507 14.8513C19.7936 15.2404 20.4547 15.4292 21.1212 15.3855C21.7878 15.3418 22.4186 15.0684 22.9061 14.6118C23.3936 14.1551 23.7077 13.5436 23.7949 12.8813C23.8821 12.219 23.737 11.547 23.3843 10.9798C23.0315 10.4126 22.493 9.98519 21.8605 9.77046C21.2279 9.55572 20.5406 9.56698 19.9154 9.80229C19.5172 9.95213 19.1601 10.1869 18.8669 10.4871C18.5884 10.7723 18.7119 11.2224 19.0571 11.4217L19.4233 11.6332C19.9801 11.9547 19.8704 12.7891 19.2492 12.9555L18.8408 13.0649Z" fill="#2DF8BB"></path><path d="M10.0314 13.0649C10.4165 13.1681 10.6523 13.5709 10.4571 13.9185C10.2516 14.2843 9.96735 14.6035 9.6216 14.8513C9.07866 15.2404 8.41756 15.4292 7.75104 15.3855C7.08447 15.3418 6.45369 15.0684 5.96616 14.6118C5.47863 14.1551 5.16451 13.5436 5.07732 12.8813C4.99013 12.219 5.13527 11.547 5.488 10.9798C5.84074 10.4126 6.37925 9.98519 7.01177 9.77046C7.64429 9.55572 8.33173 9.56698 8.95689 9.80229C9.35497 9.95213 9.71219 10.1869 10.0054 10.4871C10.2839 10.7723 10.1604 11.2224 9.81512 11.4217L9.44895 11.6332C8.89207 11.9547 9.00193 12.7891 9.62305 12.9555L10.0314 13.0649Z" fill="#2DF8BB"></path><path d="M44.5964 21.7041L43.809 18.6977H40.3911L39.6216 21.7041H36.9016L40.2837 9.21345H44.0775L47.4596 21.7041H44.5964ZM42.1806 11.8082H42.0374L40.8206 16.5325H43.3975L42.1806 11.8082Z" fill="#232B36"></path><path d="M49.4472 19.6462H52.2746V10.5198H49.4472V8.46187H54.923V19.6462H57.7504V21.7041H49.4472V19.6462Z" fill="#232B36"></path><path d="M65.7328 21.7041C64.7784 21.7041 64.0686 21.4536 63.6033 20.9525C63.1381 20.4514 62.9054 19.8132 62.9054 19.0378V14.5282H60.4001V12.4703H62.0286C62.4223 12.4703 62.7026 12.3928 62.8696 12.2377C63.0367 12.0826 63.1202 11.7963 63.1202 11.3787V9.21345H65.5539V12.4703H69.1507V14.5282H65.5539V19.6462H69.1507V21.7041H65.7328Z" fill="#232B36"></path><path d="M76.6858 21.9188C75.1349 21.9188 73.9598 21.4894 73.1605 20.6304C72.3612 19.7714 71.9615 18.6023 71.9615 17.123C71.9615 16.3714 72.0629 15.6974 72.2657 15.1009C72.4805 14.4924 72.7787 13.9795 73.1605 13.5619C73.5542 13.1324 74.0254 12.8103 74.5742 12.5956C75.1349 12.3689 75.7612 12.2556 76.4531 12.2556C77.1451 12.2556 77.7654 12.3689 78.3142 12.5956C78.863 12.8103 79.3282 13.1205 79.71 13.5261C80.0918 13.9317 80.384 14.4268 80.5869 15.0114C80.8016 15.584 80.909 16.2283 80.909 16.944V17.7314H74.5921V17.8925C74.5921 18.489 74.777 18.9721 75.1468 19.342C75.5166 19.6999 76.0594 19.8788 76.7752 19.8788C77.324 19.8788 77.7953 19.7774 78.1889 19.5746C78.5826 19.3599 78.9226 19.0795 79.209 18.7335L80.6405 20.2904C80.2826 20.7318 79.7816 21.1136 79.1374 21.4357C78.4932 21.7578 77.676 21.9188 76.6858 21.9188ZM76.471 14.1524C75.8984 14.1524 75.4391 14.3314 75.0931 14.6893C74.7591 15.0353 74.5921 15.5065 74.5921 16.103V16.2461H78.3142V16.103C78.3142 15.4946 78.1472 15.0174 77.8131 14.6714C77.491 14.3254 77.0437 14.1524 76.471 14.1524Z" fill="#232B36"></path><path d="M83.8092 19.6462H85.9387V14.5282H83.8092V12.4703H88.5871V15.083H88.7124C88.7959 14.7489 88.9093 14.4268 89.0524 14.1167C89.2075 13.7945 89.3984 13.5142 89.625 13.2756C89.8637 13.0251 90.15 12.8282 90.484 12.6851C90.818 12.5419 91.2117 12.4703 91.6651 12.4703H92.5419V14.904H90.5735C89.9173 14.904 89.4222 15.1009 89.0882 15.4946C88.7542 15.8763 88.5871 16.3476 88.5871 16.9083V19.6462H91.6293V21.7041H83.8092V19.6462Z" fill="#232B36"></path><path d="M94.959 8.46187H97.6074V14.1524H97.7327C97.9594 13.6037 98.2875 13.1503 98.7169 12.7924C99.1464 12.4345 99.731 12.2556 100.471 12.2556C100.984 12.2556 101.449 12.351 101.866 12.5419C102.296 12.7328 102.66 13.0251 102.958 13.4188C103.268 13.8124 103.507 14.3135 103.674 14.9219C103.853 15.5304 103.942 16.2521 103.942 17.0872C103.942 17.9223 103.853 18.6441 103.674 19.2525C103.507 19.8609 103.268 20.362 102.958 20.7557C102.66 21.1493 102.296 21.4416 101.866 21.6325C101.449 21.8234 100.984 21.9188 100.471 21.9188C99.731 21.9188 99.1464 21.7458 98.7169 21.3999C98.2875 21.042 97.9594 20.5827 97.7327 20.022H97.6074V21.7041H94.959V8.46187ZM99.3254 19.8609C99.9218 19.8609 100.381 19.682 100.703 19.3241C101.025 18.9542 101.186 18.4472 101.186 17.803V16.3714C101.186 15.7272 101.025 15.2261 100.703 14.8682C100.381 14.4984 99.9218 14.3135 99.3254 14.3135C98.8601 14.3135 98.4545 14.4268 98.1085 14.6535C97.7745 14.8802 97.6074 15.2381 97.6074 15.7272V18.4472C97.6074 18.9363 97.7745 19.2942 98.1085 19.5209C98.4545 19.7476 98.8601 19.8609 99.3254 19.8609Z" fill="#232B36"></path><path d="M110.69 21.9188C109.974 21.9188 109.33 21.8115 108.757 21.5967C108.185 21.3701 107.695 21.0479 107.29 20.6304C106.896 20.2128 106.592 19.7058 106.377 19.1093C106.162 18.5128 106.055 17.8388 106.055 17.0872C106.055 16.3356 106.162 15.6616 106.377 15.0651C106.592 14.4686 106.896 13.9616 107.29 13.544C107.695 13.1265 108.185 12.8103 108.757 12.5956C109.33 12.3689 109.974 12.2556 110.69 12.2556C111.406 12.2556 112.05 12.3689 112.623 12.5956C113.195 12.8103 113.678 13.1265 114.072 13.544C114.478 13.9616 114.788 14.4686 115.003 15.0651C115.217 15.6616 115.325 16.3356 115.325 17.0872C115.325 17.8388 115.217 18.5128 115.003 19.1093C114.788 19.7058 114.478 20.2128 114.072 20.6304C113.678 21.0479 113.195 21.3701 112.623 21.5967C112.05 21.8115 111.406 21.9188 110.69 21.9188ZM110.69 19.9504C111.286 19.9504 111.752 19.7655 112.086 19.3956C112.42 19.0258 112.587 18.5009 112.587 17.8209V16.3535C112.587 15.6735 112.42 15.1486 112.086 14.7788C111.752 14.4089 111.286 14.224 110.69 14.224C110.093 14.224 109.628 14.4089 109.294 14.7788C108.96 15.1486 108.793 15.6735 108.793 16.3535V17.8209C108.793 18.5009 108.96 19.0258 109.294 19.3956C109.628 19.7655 110.093 19.9504 110.69 19.9504Z" fill="#232B36"></path><path d="M117.903 21.7041V12.4703H120.551V14.1524H120.659C120.766 13.89 120.897 13.6454 121.052 13.4188C121.207 13.1921 121.392 12.9952 121.607 12.8282C121.834 12.6493 122.09 12.5121 122.377 12.4166C122.675 12.3093 123.009 12.2556 123.379 12.2556C123.82 12.2556 124.226 12.3331 124.595 12.4882C124.965 12.6314 125.281 12.8521 125.544 13.1503C125.806 13.4486 126.009 13.8124 126.152 14.2419C126.307 14.6714 126.385 15.1665 126.385 15.7272V21.7041H123.737V16.0851C123.737 14.8921 123.218 14.2956 122.18 14.2956C121.977 14.2956 121.774 14.3254 121.571 14.3851C121.38 14.4328 121.207 14.5163 121.052 14.6356C120.897 14.743 120.772 14.8802 120.676 15.0472C120.593 15.2142 120.551 15.4111 120.551 15.6377V21.7041H117.903Z" fill="#232B36"></path><path d="M133.777 21.9188C132.226 21.9188 131.051 21.4894 130.252 20.6304C129.452 19.7714 129.053 18.6023 129.053 17.123C129.053 16.3714 129.154 15.6974 129.357 15.1009C129.572 14.4924 129.87 13.9795 130.252 13.5619C130.645 13.1324 131.116 12.8103 131.665 12.5956C132.226 12.3689 132.852 12.2556 133.544 12.2556C134.236 12.2556 134.856 12.3689 135.405 12.5956C135.954 12.8103 136.419 13.1205 136.801 13.5261C137.183 13.9317 137.475 14.4268 137.678 15.0114C137.893 15.584 138 16.2283 138 16.944V17.7314H131.683V17.8925C131.683 18.489 131.868 18.9721 132.238 19.342C132.608 19.6999 133.151 19.8788 133.866 19.8788C134.415 19.8788 134.886 19.7774 135.28 19.5746C135.674 19.3599 136.014 19.0795 136.3 18.7335L137.732 20.2904C137.374 20.7318 136.873 21.1136 136.228 21.4357C135.584 21.7578 134.767 21.9188 133.777 21.9188ZM133.562 14.1524C132.989 14.1524 132.53 14.3314 132.184 14.6893C131.85 15.0353 131.683 15.5065 131.683 16.103V16.2461H135.405V16.103C135.405 15.4946 135.238 15.0174 134.904 14.6714C134.582 14.3254 134.135 14.1524 133.562 14.1524Z" fill="#232B36"></path></svg>