<svg xmlns="http://www.w3.org/2000/svg" width="201" height="48" viewBox="0 0 201 48" fill="none"><path d="M60.788 34.4472H74.9849V30.171H65.8339V14.064H60.788V34.4472Z" fill="black"></path><path d="M83.3974 31.5963C81.3734 31.5963 80.3186 29.8288 80.3186 27.1776C80.3186 24.5263 81.3734 22.7303 83.3974 22.7303C85.4215 22.7303 86.5048 24.5263 86.5048 27.1776C86.5048 29.8288 85.4215 31.5963 83.3974 31.5963ZM83.4259 34.9032C88.1297 34.9032 91.2086 31.5678 91.2086 27.1776C91.2086 22.7873 88.1297 19.4519 83.4259 19.4519C78.7506 19.4519 75.6147 22.7873 75.6147 27.1776C75.6147 31.5678 78.7506 34.9032 83.4259 34.9032Z" fill="black"></path><path d="M99.35 39.4929C101.517 39.4929 103.427 39.0083 104.709 37.868C105.878 36.8132 106.648 35.2167 106.648 33.0216V19.851H102.201V21.4189H102.144C101.289 20.1931 99.9772 19.4233 98.0386 19.4233C94.4181 19.4233 91.9094 22.4452 91.9094 26.7214C91.9094 31.1971 94.9598 33.6488 98.2382 33.6488C100.006 33.6488 101.117 32.9361 101.973 31.9668H102.087V33.4207C102.087 35.1882 101.26 36.2145 99.293 36.2145C97.7536 36.2145 96.9838 35.5588 96.7273 34.7891H92.223C92.6791 37.8395 95.3304 39.4929 99.35 39.4929ZM99.3215 30.1993C97.5825 30.1993 96.4422 28.7739 96.4422 26.5788C96.4422 24.3552 97.5825 22.9298 99.3215 22.9298C101.26 22.9298 102.286 24.5833 102.286 26.5503C102.286 28.6029 101.346 30.1993 99.3215 30.1993Z" fill="black"></path><path d="M115.791 31.5963C113.767 31.5963 112.713 29.8288 112.713 27.1776C112.713 24.5263 113.767 22.7303 115.791 22.7303C117.816 22.7303 118.898 24.5263 118.898 27.1776C118.898 29.8288 117.816 31.5963 115.791 31.5963ZM115.82 34.9032C120.523 34.9032 123.602 31.5678 123.602 27.1776C123.602 22.7873 120.523 19.4519 115.82 19.4519C111.145 19.4519 108.009 22.7873 108.009 27.1776C108.009 31.5678 111.145 34.9032 115.82 34.9032Z" fill="black"></path><path d="M124.961 34.4472H129.607V19.8511H124.961V34.4472ZM124.961 17.827H129.607V14.064H124.961V17.827Z" fill="black"></path><path d="M131.623 39.2649H136.27V32.9361H136.327C137.239 34.162 138.579 34.9032 140.461 34.9032C144.281 34.9032 146.818 31.8813 146.818 27.149C146.818 22.7588 144.452 19.4233 140.575 19.4233C138.579 19.4233 137.154 20.3071 136.156 21.6185H136.07V19.851H131.623V39.2649ZM139.263 31.3112C137.268 31.3112 136.127 29.6862 136.127 27.32C136.127 24.9539 137.154 23.1579 139.178 23.1579C141.173 23.1579 142.114 24.8113 142.114 27.32C142.114 29.8002 141.031 31.3112 139.263 31.3112Z" fill="black"></path><path d="M154.382 34.9032C158.202 34.9032 161.025 33.2497 161.025 30.0568C161.025 26.3223 158.003 25.6666 155.437 25.239C153.584 24.8969 151.931 24.7543 151.931 23.728C151.931 22.8158 152.814 22.3882 153.955 22.3882C155.238 22.3882 156.121 22.7873 156.292 24.0986H160.569C160.341 21.2193 158.117 19.4233 153.983 19.4233C150.534 19.4233 147.683 21.0198 147.683 24.0986C147.683 27.5196 150.391 28.2038 152.929 28.6314C154.867 28.9735 156.635 29.116 156.635 30.4274C156.635 31.3682 155.751 31.8813 154.354 31.8813C152.814 31.8813 151.845 31.1686 151.674 29.7147H147.284C147.426 32.9361 150.106 34.9032 154.382 34.9032Z" fill="black"></path><path d="M167.337 34.8748C169.362 34.8748 170.644 34.0765 171.699 32.6511H171.785V34.4471H176.232V19.8511H171.585V28.0043C171.585 29.7433 170.616 30.9407 169.019 30.9407C167.537 30.9407 166.824 30.0569 166.824 28.4605V19.8511H162.206V29.4297C162.206 32.6797 163.974 34.8748 167.337 34.8748Z" fill="black"></path><path d="M178.254 34.447H182.901V26.2652C182.901 24.5263 183.756 23.3004 185.21 23.3004C186.607 23.3004 187.262 24.2127 187.262 25.7806V34.447H191.909V26.2652C191.909 24.5263 192.736 23.3004 194.218 23.3004C195.615 23.3004 196.271 24.2127 196.271 25.7806V34.447H200.918V24.9539C200.918 21.6755 199.264 19.4233 195.957 19.4233C194.076 19.4233 192.508 20.2216 191.368 21.9891H191.311C190.569 20.4211 189.115 19.4233 187.205 19.4233C185.096 19.4233 183.699 20.4211 182.787 21.932H182.701V19.851H178.254V34.447Z" fill="black"></path><path fill-rule="evenodd" clip-rule="evenodd" d="M23.7566 47.5132C36.8771 47.5132 47.5132 36.877 47.5132 23.7566C47.5132 10.6362 36.8771 0 23.7566 0C10.6362 0 0 10.6362 0 23.7566C0 36.877 10.6362 47.5132 23.7566 47.5132ZM27.4234 18.355C29.4484 16.3299 29.4484 13.0466 27.4234 11.0215C25.3983 8.99637 22.115 8.99637 20.0899 11.0215C18.0648 13.0466 18.0648 16.3299 20.0899 18.355L23.7566 22.0217L27.4234 18.355ZM29.1582 27.4234C31.1834 29.4485 34.4667 29.4485 36.4918 27.4234C38.5168 25.3983 38.5168 22.115 36.4918 20.0899C34.4667 18.0648 31.1834 18.0648 29.1582 20.0899L25.4915 23.7567L29.1582 27.4234ZM27.4234 36.4918C29.4484 34.4667 29.4484 31.1834 27.4234 29.1582L23.7566 25.4915L20.0899 29.1582C18.0648 31.1834 18.0648 34.4667 20.0899 36.4918C22.115 38.5169 25.3983 38.5169 27.4234 36.4918ZM11.0214 27.4234C8.99638 25.3983 8.99638 22.115 11.0214 20.0899C13.0466 18.0648 16.3299 18.0648 18.355 20.0899L22.0218 23.7567L18.355 27.4234C16.3299 29.4485 13.0466 29.4485 11.0214 27.4234Z" fill="black"></path></svg>