<svg xmlns="http://www.w3.org/2000/svg" width="210" height="39" viewBox="0 0 210 39" fill="none"><path d="M15.008 33.0672C10.9804 37.1036 4.15907 37.0875 2.25407 31.708C1.8811 30.6548 1.58289 29.5718 1.36356 28.4668C0.468047 23.955 0.927659 19.2784 2.68428 15.0284C4.4409 10.7785 7.41562 7.14594 11.2323 4.59023C15.049 2.03452 19.5362 0.67041 24.1264 0.67041C28.7167 0.67041 33.2039 2.03452 37.0205 4.59023C40.8372 7.14594 43.8119 10.7785 45.5685 15.0285C47.3252 19.2784 47.7847 23.955 46.8893 28.4668C46.6699 29.5718 46.3717 30.6548 45.9987 31.708C44.0937 37.0875 37.2724 37.1036 33.2448 33.0672L27.0275 26.8366C26.4335 26.2413 26.4949 25.2596 26.6587 24.434C26.7583 23.9321 26.7072 23.4119 26.5117 22.939C26.3163 22.4662 25.9854 22.0621 25.5609 21.7778C25.1363 21.4936 24.6371 21.3418 24.1264 21.3418C23.6158 21.3418 23.1166 21.4936 22.692 21.7778C22.2673 22.0621 21.9365 22.4662 21.741 22.939C21.5456 23.4119 21.4945 23.9321 21.5941 24.434C21.758 25.2596 21.8193 26.2413 21.2253 26.8366L15.008 33.0672Z" fill="black"></path><path d="M66.2182 27.483H72.4566V31.1672H61.4557V11.574H66.2182V27.483Z" fill="black"></path><path d="M80.9664 31.3905C79.4439 31.3905 78.0699 31.0649 76.8444 30.4137C75.6377 29.7625 74.6814 28.8321 73.9759 27.6226C73.289 26.4132 72.9454 24.999 72.9454 23.3801C72.9454 21.78 73.2981 20.3751 74.0037 19.1656C74.7093 17.9376 75.6748 16.998 76.9001 16.3467C78.1256 15.6955 79.4996 15.3699 81.0221 15.3699C82.5446 15.3699 83.9186 15.6955 85.1439 16.3467C86.3694 16.998 87.3349 17.9376 88.0404 19.1656C88.7459 20.3751 89.0988 21.78 89.0988 23.3801C89.0988 24.9804 88.7366 26.3945 88.0126 27.6226C87.3071 28.8321 86.3323 29.7625 85.0882 30.4137C83.8629 31.0649 82.4889 31.3905 80.9664 31.3905ZM80.9664 27.2597C81.8761 27.2597 82.6467 26.9249 83.278 26.255C83.9279 25.5851 84.2528 24.6269 84.2528 23.3801C84.2528 22.1335 83.937 21.1753 83.3058 20.5054C82.6931 19.8355 81.9318 19.5006 81.0221 19.5006C80.0937 19.5006 79.3232 19.8355 78.7105 20.5054C78.0977 21.1566 77.7914 22.1148 77.7914 23.3801C77.7914 24.6269 78.0885 25.5851 78.6827 26.255C79.2954 26.9249 80.0567 27.2597 80.9664 27.2597Z" fill="black"></path><path d="M96.693 15.3699C97.7884 15.3699 98.7447 15.5932 99.5617 16.0398C100.397 16.4862 101.038 17.0724 101.483 17.798V15.5932H106.246V31.1393C106.246 32.572 105.958 33.8653 105.382 35.0188C104.825 36.1911 103.962 37.1215 102.792 37.8099C101.641 38.4984 100.202 38.8427 98.4755 38.8427C96.1732 38.8427 94.3071 38.2938 92.8775 37.196C91.4479 36.1167 90.6308 34.6467 90.4266 32.786H95.1334C95.2819 33.3814 95.6347 33.8467 96.1918 34.1816C96.7487 34.5351 97.4357 34.7119 98.2527 34.7119C99.2367 34.7119 100.016 34.4234 100.592 33.8467C101.186 33.2884 101.483 32.386 101.483 31.1393V28.9344C101.019 29.66 100.379 30.2555 99.5617 30.7207C98.7447 31.1672 97.7884 31.3905 96.693 31.3905C95.4119 31.3905 94.2514 31.0649 93.2117 30.4137C92.1719 29.7438 91.3457 28.8041 90.7331 27.5946C90.1389 26.3667 89.8418 24.9525 89.8418 23.3523C89.8418 21.7521 90.1389 20.3473 90.7331 19.1378C91.3457 17.9283 92.1719 16.998 93.2117 16.3467C94.2514 15.6955 95.4119 15.3699 96.693 15.3699ZM101.483 23.3801C101.483 22.1893 101.149 21.2496 100.481 20.5612C99.8309 19.8728 99.0324 19.5286 98.0856 19.5286C97.1386 19.5286 96.331 19.8728 95.6625 20.5612C95.0127 21.2311 94.6878 22.1615 94.6878 23.3523C94.6878 24.5431 95.0127 25.4921 95.6625 26.1992C96.331 26.8876 97.1386 27.2319 98.0856 27.2319C99.0324 27.2319 99.8309 26.8876 100.481 26.1992C101.149 25.5106 101.483 24.5711 101.483 23.3801Z" fill="black"></path><path d="M115.931 31.3905C114.408 31.3905 113.034 31.0649 111.809 30.4137C110.602 29.7625 109.646 28.8321 108.94 27.6226C108.253 26.4132 107.91 24.999 107.91 23.3801C107.91 21.78 108.262 20.3751 108.968 19.1656C109.673 17.9376 110.639 16.998 111.864 16.3467C113.09 15.6955 114.464 15.3699 115.986 15.3699C117.509 15.3699 118.883 15.6955 120.108 16.3467C121.334 16.998 122.299 17.9376 123.005 19.1656C123.71 20.3751 124.063 21.78 124.063 23.3801C124.063 24.9804 123.701 26.3945 122.977 27.6226C122.271 28.8321 121.296 29.7625 120.052 30.4137C118.827 31.0649 117.453 31.3905 115.931 31.3905ZM115.931 27.2597C116.84 27.2597 117.611 26.9249 118.242 26.255C118.892 25.5851 119.217 24.6269 119.217 23.3801C119.217 22.1335 118.901 21.1753 118.27 20.5054C117.657 19.8355 116.896 19.5006 115.986 19.5006C115.058 19.5006 114.287 19.8355 113.675 20.5054C113.062 21.1566 112.756 22.1148 112.756 23.3801C112.756 24.6269 113.053 25.5851 113.647 26.255C114.26 26.9249 115.021 27.2597 115.931 27.2597Z" fill="black"></path><path d="M128.148 13.9745C127.313 13.9745 126.626 13.7326 126.087 13.2488C125.567 12.7464 125.307 12.1324 125.307 11.4067C125.307 10.6624 125.567 10.0484 126.087 9.56462C126.626 9.06223 127.313 8.81104 128.148 8.81104C128.965 8.81104 129.634 9.06223 130.153 9.56462C130.692 10.0484 130.961 10.6624 130.961 11.4067C130.961 12.1324 130.692 12.7464 130.153 13.2488C129.634 13.7326 128.965 13.9745 128.148 13.9745ZM130.515 15.5933V31.1674H125.753V15.5933H130.515Z" fill="black"></path><path d="M137.894 17.798C138.358 17.0724 138.998 16.4862 139.816 16.0398C140.633 15.5932 141.589 15.3699 142.685 15.3699C143.966 15.3699 145.126 15.6955 146.166 16.3467C147.206 16.998 148.023 17.9283 148.616 19.1378C149.229 20.3473 149.536 21.7521 149.536 23.3523C149.536 24.9525 149.229 26.3667 148.616 27.5946C148.023 28.8041 147.206 29.7438 146.166 30.4137C145.126 31.0649 143.966 31.3905 142.685 31.3905C141.607 31.3905 140.652 31.1672 139.816 30.7207C138.998 30.2741 138.358 29.6973 137.894 28.9902V38.5914H133.132V15.5932H137.894V17.798ZM144.69 23.3523C144.69 22.1615 144.356 21.2311 143.687 20.5612C143.037 19.8728 142.23 19.5286 141.264 19.5286C140.318 19.5286 139.51 19.8728 138.841 20.5612C138.192 21.2496 137.867 22.1893 137.867 23.3801C137.867 24.5711 138.192 25.5106 138.841 26.1992C139.51 26.8876 140.318 27.2319 141.264 27.2319C142.211 27.2319 143.019 26.8876 143.687 26.1992C144.356 25.4921 144.69 24.5431 144.69 23.3523Z" fill="black"></path><path d="M157.521 31.3905C156.166 31.3905 154.959 31.1579 153.9 30.6928C152.842 30.2276 152.006 29.595 151.394 28.7948C150.782 27.9761 150.438 27.0644 150.363 26.0596H155.071C155.126 26.5991 155.377 27.0364 155.822 27.3714C156.268 27.7063 156.816 27.8738 157.466 27.8738C158.059 27.8738 158.514 27.7621 158.83 27.5388C159.164 27.297 159.331 26.9899 159.331 26.6178C159.331 26.1712 159.099 25.8456 158.635 25.6409C158.171 25.4176 157.419 25.1758 156.379 24.9152C155.265 24.6548 154.337 24.385 153.594 24.1059C152.852 23.8082 152.211 23.3523 151.673 22.7382C151.134 22.1057 150.865 21.259 150.865 20.1984C150.865 19.3053 151.107 18.4959 151.589 17.7702C152.09 17.0259 152.814 16.4397 153.761 16.0118C154.727 15.5838 155.869 15.3699 157.187 15.3699C159.136 15.3699 160.668 15.8536 161.782 16.8212C162.915 17.7888 163.565 19.0726 163.732 20.6729H159.331C159.257 20.1333 159.016 19.7054 158.607 19.3889C158.217 19.0726 157.698 18.9145 157.048 18.9145C156.491 18.9145 156.063 19.0261 155.767 19.2494C155.47 19.4541 155.321 19.7425 155.321 20.1146C155.321 20.5612 155.553 20.8962 156.017 21.1195C156.5 21.3428 157.242 21.5661 158.246 21.7892C159.396 22.087 160.333 22.3848 161.058 22.6824C161.782 22.9615 162.413 23.4266 162.951 24.078C163.508 24.7106 163.797 25.5665 163.816 26.6458C163.816 27.5575 163.556 28.3762 163.035 29.1019C162.535 29.809 161.801 30.3672 160.835 30.7765C159.888 31.1859 158.784 31.3905 157.521 31.3905Z" fill="black"></path><path d="M181.239 15.5933V31.1673H176.477V29.0462C175.994 29.7346 175.334 30.2928 174.499 30.7207C173.682 31.1302 172.773 31.3348 171.77 31.3348C170.581 31.3348 169.532 31.0743 168.623 30.5533C167.712 30.0137 167.007 29.2415 166.507 28.2368C166.005 27.232 165.754 26.0505 165.754 24.692V15.5933H170.488V24.0501C170.488 25.0921 170.758 25.9015 171.296 26.4784C171.834 27.0552 172.559 27.3436 173.469 27.3436C174.397 27.3436 175.131 27.0552 175.669 26.4784C176.207 25.9015 176.477 25.0921 176.477 24.0501V15.5933H181.239Z" fill="black"></path><path d="M203.654 15.4258C205.584 15.4258 207.117 16.0119 208.249 17.1842C209.4 18.3563 209.976 19.9844 209.976 22.0684V31.1673H205.242V22.7105C205.242 21.7056 204.972 20.9334 204.434 20.3938C203.913 19.8356 203.19 19.5565 202.261 19.5565C201.333 19.5565 200.599 19.8356 200.061 20.3938C199.542 20.9334 199.282 21.7056 199.282 22.7105V31.1673H194.546V22.7105C194.546 21.7056 194.278 20.9334 193.739 20.3938C193.219 19.8356 192.495 19.5565 191.567 19.5565C190.639 19.5565 189.905 19.8356 189.367 20.3938C188.846 20.9334 188.587 21.7056 188.587 22.7105V31.1673H183.825V15.5933H188.587V17.547C189.07 16.8957 189.701 16.384 190.481 16.0119C191.26 15.6211 192.143 15.4258 193.126 15.4258C194.297 15.4258 195.336 15.6769 196.245 16.1793C197.173 16.6818 197.898 17.3981 198.418 18.3285C198.956 17.4725 199.69 16.7747 200.618 16.2352C201.546 15.6956 202.559 15.4258 203.654 15.4258Z" fill="black"></path></svg>