<svg xmlns="http://www.w3.org/2000/svg" width="190" height="46" viewBox="0 0 190 46" fill="none"><path d="M55.9084 31.8288H69.4293V27.7612H60.714V12.4399H55.9084V31.8288Z" fill="black"></path><path d="M77.4406 29.1174C75.5129 29.1174 74.5084 27.4361 74.5084 24.9142C74.5084 22.3923 75.5129 20.6839 77.4406 20.6839C79.3683 20.6839 80.4 22.3923 80.4 24.9142C80.4 27.4361 79.3683 29.1174 77.4406 29.1174ZM77.4678 32.263C81.9476 32.263 84.8799 29.0903 84.8799 24.9142C84.8799 20.7382 81.9476 17.5654 77.4678 17.5654C73.0151 17.5654 70.0286 20.7382 70.0286 24.9142C70.0286 29.0903 73.0151 32.263 77.4678 32.263Z" fill="black"></path><path d="M92.6338 36.6287C94.6972 36.6287 96.5163 36.1677 97.7381 35.083C98.8513 34.0796 99.5843 32.5611 99.5843 30.473V17.9448H95.3489V19.4363H95.2946C94.48 18.2703 93.2311 17.5381 91.3849 17.5381C87.9368 17.5381 85.5475 20.4125 85.5475 24.4801C85.5475 28.7375 88.4526 31.0696 91.5749 31.0696C93.2583 31.0696 94.3171 30.3917 95.1316 29.4697H95.2403V30.8527C95.2403 32.534 94.4529 33.5102 92.5795 33.5102C91.1134 33.5102 90.3803 32.8865 90.136 32.1543H85.8462C86.2806 35.0559 88.8056 36.6287 92.6338 36.6287ZM92.6067 27.7884C90.9505 27.7884 89.8645 26.4326 89.8645 24.3445C89.8645 22.2294 90.9505 20.8735 92.6067 20.8735C94.4529 20.8735 95.4303 22.4463 95.4303 24.3174C95.4303 26.2699 94.5343 27.7884 92.6067 27.7884Z" fill="black"></path><path d="M108.292 29.1174C106.364 29.1174 105.36 27.4361 105.36 24.9142C105.36 22.3923 106.364 20.6839 108.292 20.6839C110.22 20.6839 111.251 22.3923 111.251 24.9142C111.251 27.4361 110.22 29.1174 108.292 29.1174ZM108.319 32.263C112.799 32.263 115.731 29.0903 115.731 24.9142C115.731 20.7382 112.799 17.5654 108.319 17.5654C103.866 17.5654 100.88 20.7382 100.88 24.9142C100.88 29.0903 103.866 32.263 108.319 32.263Z" fill="black"></path><path d="M117.025 31.8288H121.45V17.9448H117.025V31.8288ZM117.025 16.0194H121.45V12.4399H117.025V16.0194Z" fill="black"></path><path d="M123.37 36.4117H127.796V30.3917H127.85C128.719 31.5577 129.995 32.2628 131.787 32.2628C135.425 32.2628 137.842 29.3884 137.842 24.8869C137.842 20.7108 135.588 17.5381 131.896 17.5381C129.995 17.5381 128.638 18.3787 127.687 19.6261H127.606V17.9448H123.37V36.4117ZM130.647 28.846C128.746 28.846 127.66 27.3003 127.66 25.0496C127.66 22.7988 128.638 21.0905 130.565 21.0905C132.466 21.0905 133.362 22.6633 133.362 25.0496C133.362 27.4088 132.33 28.846 130.647 28.846Z" fill="black"></path><path d="M145.046 32.2628C148.684 32.2628 151.372 30.69 151.372 27.6528C151.372 24.1005 148.494 23.4768 146.051 23.07C144.286 22.7446 142.711 22.609 142.711 21.6328C142.711 20.765 143.553 20.3583 144.639 20.3583C145.861 20.3583 146.702 20.7379 146.865 21.9853H150.938C150.721 19.2465 148.603 17.5381 144.666 17.5381C141.381 17.5381 138.666 19.0567 138.666 21.9853C138.666 25.2394 141.245 25.8902 143.662 26.297C145.508 26.6224 147.191 26.758 147.191 28.0054C147.191 28.9002 146.35 29.3884 145.019 29.3884C143.553 29.3884 142.63 28.7104 142.467 27.3274H138.286C138.422 30.3917 140.974 32.2628 145.046 32.2628Z" fill="black"></path><path d="M157.383 32.2357C159.311 32.2357 160.533 31.4764 161.537 30.1205H161.619V31.8289H165.854V17.9448H161.429V25.7004C161.429 27.3545 160.506 28.4935 158.985 28.4935C157.574 28.4935 156.895 27.6528 156.895 26.1343V17.9448H152.496V27.0562C152.496 30.1476 154.18 32.2357 157.383 32.2357Z" fill="black"></path><path d="M167.78 31.8289H172.206V24.0462C172.206 22.3921 173.02 21.226 174.405 21.226C175.735 21.226 176.36 22.0938 176.36 23.5852V31.8289H180.785V24.0462C180.785 22.3921 181.573 21.226 182.984 21.226C184.315 21.226 184.939 22.0938 184.939 23.5852V31.8289H189.365V22.7988C189.365 19.6804 187.79 17.5381 184.641 17.5381C182.849 17.5381 181.355 18.2974 180.269 19.9786H180.215C179.509 18.4872 178.124 17.5381 176.305 17.5381C174.296 17.5381 172.966 18.4872 172.097 19.9244H172.016V17.9448H167.78V31.8289Z" fill="black"></path><path d="M28.9076 1.34968L24.4583 0.158936L20.7088 14.1352L17.3238 1.51733L12.8744 2.70808L16.5318 16.3407L7.42206 7.24218L4.16493 10.4953L14.1571 20.4754L1.71343 17.1452L0.52124 21.589L14.1175 25.2277C13.9619 24.5571 13.8795 23.8584 13.8795 23.1405C13.8795 18.0587 18.0041 13.9391 23.0921 13.9391C28.1801 13.9391 32.3047 18.0587 32.3047 23.1405C32.3047 23.8538 32.2233 24.5482 32.0696 25.2149L44.4261 28.5217L45.6182 24.0778L31.9679 20.4247L44.4124 17.0942L43.2202 12.6504L29.5704 16.3033L38.6801 7.20483L35.4229 3.95166L25.5693 13.7933L28.9076 1.34968Z" fill="black"></path><path d="M32.0576 25.2666C31.6761 26.8774 30.8708 28.3244 29.7657 29.4838L38.7175 38.4247L41.9746 35.1715L32.0576 25.2666Z" fill="black"></path><path d="M29.6753 29.5774C28.5569 30.7182 27.1436 31.5696 25.5587 32.0083L28.8161 44.1501L33.2654 42.9593L29.6753 29.5774Z" fill="black"></path><path d="M25.3927 32.0525C24.6574 32.2414 23.8867 32.3417 23.0924 32.3417C22.2415 32.3417 21.4175 32.2264 20.6352 32.0107L17.3749 44.1636L21.8242 45.3543L25.3927 32.0525Z" fill="black"></path><path d="M20.477 31.9662C18.9163 31.5056 17.5281 30.6434 16.4326 29.4993L7.45886 38.4621L10.716 41.7153L20.477 31.9662Z" fill="black"></path><path d="M16.3589 29.4199C15.2821 28.2685 14.4978 26.8408 14.1245 25.2549L1.72766 28.5726L2.91985 33.0164L16.3589 29.4199Z" fill="black"></path></svg>