<svg xmlns="http://www.w3.org/2000/svg" width="331" height="102" viewBox="0 0 331 102" fill="none"><rect x="2" y="1.5" width="327" height="99" rx="6.5" fill="white" stroke="black" stroke-width="3"></rect><line x1="30" y1="54.5" x2="300" y2="54.5" stroke="#EAEDF0" stroke-width="11" stroke-linecap="round"></line><line x1="30" y1="54.5" x2="149" y2="54.5" stroke="#1E1A1C" stroke-width="11" stroke-linecap="round"></line><path d="M24.3608 29V20.2727H27.6335C28.304 20.2727 28.8665 20.3977 29.321 20.6477C29.7784 20.8977 30.1236 21.2415 30.3565 21.679C30.5923 22.1136 30.7102 22.608 30.7102 23.1619C30.7102 23.7216 30.5923 24.2187 30.3565 24.6534C30.1207 25.0881 29.7727 25.4304 29.3125 25.6804C28.8523 25.9276 28.2855 26.0511 27.6122 26.0511H25.4432V24.7514H27.3991C27.7912 24.7514 28.1122 24.6832 28.3622 24.5469C28.6122 24.4105 28.7969 24.223 28.9162 23.9844C29.0384 23.7457 29.0994 23.4716 29.0994 23.1619C29.0994 22.8523 29.0384 22.5795 28.9162 22.3438C28.7969 22.108 28.6108 21.9247 28.358 21.794C28.108 21.6605 27.7855 21.5938 27.3906 21.5938H25.9418V29H24.3608ZM32.0153 29V22.4545H33.511V23.5455H33.5792C33.6985 23.1676 33.9031 22.8764 34.1928 22.6719C34.4854 22.4645 34.8192 22.3608 35.1942 22.3608C35.2795 22.3608 35.3746 22.3651 35.4798 22.3736C35.5877 22.3793 35.6772 22.3892 35.7482 22.4034V23.8224C35.6829 23.7997 35.5792 23.7798 35.4371 23.7628C35.2979 23.7429 35.163 23.733 35.0323 23.733C34.7511 23.733 34.4982 23.794 34.2738 23.9162C34.0522 24.0355 33.8775 24.2017 33.7496 24.4148C33.6218 24.6278 33.5579 24.8736 33.5579 25.152V29H32.0153ZM39.3587 29.1278C38.7195 29.1278 38.1655 28.9872 37.6967 28.706C37.228 28.4247 36.8643 28.0312 36.6058 27.5256C36.3501 27.0199 36.2223 26.429 36.2223 25.7528C36.2223 25.0767 36.3501 24.4844 36.6058 23.9759C36.8643 23.4673 37.228 23.0724 37.6967 22.7912C38.1655 22.5099 38.7195 22.3693 39.3587 22.3693C39.9979 22.3693 40.5518 22.5099 41.0206 22.7912C41.4893 23.0724 41.8516 23.4673 42.1072 23.9759C42.3658 24.4844 42.495 25.0767 42.495 25.7528C42.495 26.429 42.3658 27.0199 42.1072 27.5256C41.8516 28.0312 41.4893 28.4247 41.0206 28.706C40.5518 28.9872 39.9979 29.1278 39.3587 29.1278ZM39.3672 27.892C39.7138 27.892 40.0036 27.7969 40.2365 27.6065C40.4695 27.4134 40.6428 27.1548 40.7564 26.831C40.8729 26.5071 40.9311 26.1463 40.9311 25.7486C40.9311 25.348 40.8729 24.9858 40.7564 24.6619C40.6428 24.3352 40.4695 24.0753 40.2365 23.8821C40.0036 23.6889 39.7138 23.5923 39.3672 23.5923C39.0121 23.5923 38.7166 23.6889 38.4808 23.8821C38.2479 24.0753 38.0732 24.3352 37.9567 24.6619C37.843 24.9858 37.7862 25.348 37.7862 25.7486C37.7862 26.1463 37.843 26.5071 37.9567 26.831C38.0732 27.1548 38.2479 27.4134 38.4808 27.6065C38.7166 27.7969 39.0121 27.892 39.3672 27.892ZM46.6594 29.1278C46.006 29.1278 45.445 28.9844 44.9762 28.6974C44.5103 28.4105 44.1509 28.0142 43.8981 27.5085C43.6481 27 43.5231 26.4148 43.5231 25.7528C43.5231 25.0881 43.6509 24.5014 43.9066 23.9929C44.1623 23.4815 44.5231 23.0838 44.989 22.7997C45.4577 22.5128 46.0117 22.3693 46.6509 22.3693C47.1822 22.3693 47.6523 22.4673 48.0614 22.6634C48.4734 22.8565 48.8015 23.1307 49.0458 23.4858C49.2901 23.8381 49.4293 24.25 49.4634 24.7216H47.989C47.9293 24.4062 47.7873 24.1435 47.5629 23.9332C47.3413 23.7202 47.0444 23.6136 46.6722 23.6136C46.3569 23.6136 46.0799 23.6989 45.8413 23.8693C45.6026 24.0369 45.4165 24.2784 45.283 24.5938C45.1523 24.9091 45.087 25.2869 45.087 25.7273C45.087 26.1733 45.1523 26.5568 45.283 26.8778C45.4137 27.196 45.5969 27.4418 45.8327 27.6151C46.0714 27.7855 46.3512 27.8707 46.6722 27.8707C46.8995 27.8707 47.1026 27.8281 47.2816 27.7429C47.4634 27.6548 47.6154 27.5284 47.7376 27.3636C47.8597 27.1989 47.9435 26.9986 47.989 26.7628H49.4634C49.4265 27.2259 49.2901 27.6364 49.0543 27.9943C48.8185 28.3494 48.4975 28.6278 48.0913 28.8295C47.685 29.0284 47.2077 29.1278 46.6594 29.1278ZM53.6278 29.1278C52.9716 29.1278 52.4048 28.9915 51.9276 28.7188C51.4531 28.4432 51.0881 28.054 50.8324 27.5511C50.5767 27.0455 50.4489 26.4503 50.4489 25.7656C50.4489 25.0923 50.5767 24.5014 50.8324 23.9929C51.0909 23.4815 51.4517 23.0838 51.9148 22.7997C52.3778 22.5128 52.9219 22.3693 53.5469 22.3693C53.9503 22.3693 54.331 22.4347 54.6889 22.5653C55.0497 22.6932 55.3679 22.892 55.6435 23.1619C55.9219 23.4318 56.1406 23.7756 56.2997 24.1932C56.4588 24.608 56.5384 25.1023 56.5384 25.6761V26.1491H51.1733V25.1094H55.0597C55.0568 24.8139 54.9929 24.5511 54.8679 24.321C54.7429 24.0881 54.5682 23.9048 54.3438 23.7713C54.1222 23.6378 53.8636 23.571 53.5682 23.571C53.2528 23.571 52.9759 23.6477 52.7372 23.8011C52.4986 23.9517 52.3125 24.1506 52.179 24.3977C52.0483 24.642 51.9815 24.9105 51.9787 25.2031V26.1108C51.9787 26.4915 52.0483 26.8182 52.1875 27.0909C52.3267 27.3608 52.5213 27.5682 52.7713 27.7131C53.0213 27.8551 53.3139 27.9261 53.6491 27.9261C53.8736 27.9261 54.0767 27.8949 54.2585 27.8324C54.4403 27.767 54.598 27.6719 54.7315 27.5469C54.8651 27.4219 54.9659 27.267 55.0341 27.0824L56.4744 27.2443C56.3835 27.625 56.2102 27.9574 55.9545 28.2415C55.7017 28.5227 55.3778 28.7415 54.983 28.8977C54.5881 29.0511 54.1364 29.1278 53.6278 29.1278ZM63.0167 24.1847L61.6104 24.3381C61.5707 24.196 61.5011 24.0625 61.4016 23.9375C61.305 23.8125 61.1744 23.7116 61.0096 23.6349C60.8448 23.5582 60.6431 23.5199 60.4045 23.5199C60.0835 23.5199 59.8136 23.5895 59.5948 23.7287C59.3789 23.8679 59.2724 24.0483 59.2752 24.2699C59.2724 24.4602 59.342 24.6151 59.484 24.7344C59.6289 24.8537 59.8675 24.9517 60.1999 25.0284L61.3164 25.267C61.9357 25.4006 62.396 25.6122 62.6971 25.902C63.0011 26.1918 63.1545 26.571 63.1573 27.0398C63.1545 27.4517 63.0337 27.8153 62.7951 28.1307C62.5593 28.4432 62.2312 28.6875 61.8107 28.8636C61.3903 29.0398 60.9073 29.1278 60.3619 29.1278C59.5607 29.1278 58.9158 28.9602 58.4272 28.625C57.9386 28.2869 57.6474 27.8168 57.5536 27.2145L59.0579 27.0696C59.1261 27.3651 59.271 27.5881 59.4925 27.7386C59.7141 27.8892 60.0025 27.9645 60.3576 27.9645C60.7241 27.9645 61.0181 27.8892 61.2397 27.7386C61.4641 27.5881 61.5763 27.402 61.5763 27.1804C61.5763 26.9929 61.5039 26.8381 61.359 26.7159C61.217 26.5937 60.9954 26.5 60.6942 26.4347L59.5778 26.2003C58.9499 26.0696 58.4854 25.8494 58.1843 25.5398C57.8832 25.2273 57.734 24.8324 57.7369 24.3551C57.734 23.9517 57.8434 23.6023 58.065 23.3068C58.2894 23.0085 58.6005 22.7784 58.9982 22.6165C59.3988 22.4517 59.8604 22.3693 60.3832 22.3693C61.1502 22.3693 61.7539 22.5327 62.1942 22.8594C62.6374 23.1861 62.9116 23.6278 63.0167 24.1847ZM69.6026 24.1847L68.1964 24.3381C68.1566 24.196 68.087 24.0625 67.9876 23.9375C67.891 23.8125 67.7603 23.7116 67.5955 23.6349C67.4308 23.5582 67.229 23.5199 66.9904 23.5199C66.6694 23.5199 66.3995 23.5895 66.1808 23.7287C65.9648 23.8679 65.8583 24.0483 65.8612 24.2699C65.8583 24.4602 65.9279 24.6151 66.07 24.7344C66.2148 24.8537 66.4535 24.9517 66.7859 25.0284L67.9023 25.267C68.5217 25.4006 68.9819 25.6122 69.283 25.902C69.587 26.1918 69.7404 26.571 69.7433 27.0398C69.7404 27.4517 69.6197 27.8153 69.381 28.1307C69.1452 28.4432 68.8171 28.6875 68.3967 28.8636C67.9762 29.0398 67.4933 29.1278 66.9478 29.1278C66.1467 29.1278 65.5018 28.9602 65.0131 28.625C64.5245 28.2869 64.2333 27.8168 64.1396 27.2145L65.6438 27.0696C65.712 27.3651 65.8569 27.5881 66.0785 27.7386C66.3001 27.8892 66.5884 27.9645 66.9435 27.9645C67.31 27.9645 67.604 27.8892 67.8256 27.7386C68.0501 27.5881 68.1623 27.402 68.1623 27.1804C68.1623 26.9929 68.0898 26.8381 67.945 26.7159C67.8029 26.5937 67.5813 26.5 67.2802 26.4347L66.1637 26.2003C65.5359 26.0696 65.0714 25.8494 64.7702 25.5398C64.4691 25.2273 64.32 24.8324 64.3228 24.3551C64.32 23.9517 64.4293 23.6023 64.6509 23.3068C64.8754 23.0085 65.1864 22.7784 65.5842 22.6165C65.9847 22.4517 66.4464 22.3693 66.9691 22.3693C67.7362 22.3693 68.3398 22.5327 68.7802 22.8594C69.2234 23.1861 69.4975 23.6278 69.6026 24.1847Z" fill="black"></path><path d="M30.2188 73.5653C30.1733 73.1619 29.9858 72.8494 29.6562 72.6278C29.3267 72.4034 28.9119 72.2912 28.4119 72.2912C28.054 72.2912 27.7443 72.348 27.483 72.4616C27.2216 72.5724 27.0185 72.7259 26.8736 72.9219C26.7315 73.1151 26.6605 73.3352 26.6605 73.5824C26.6605 73.7898 26.7088 73.9687 26.8054 74.1193C26.9048 74.2699 27.0341 74.3963 27.1932 74.4986C27.3551 74.598 27.5284 74.6818 27.7131 74.75C27.8977 74.8153 28.0753 74.8693 28.2457 74.9119L29.098 75.1335C29.3764 75.2017 29.6619 75.294 29.9545 75.4105C30.2472 75.527 30.5185 75.6804 30.7685 75.8707C31.0185 76.0611 31.2202 76.2969 31.3736 76.5781C31.5298 76.8594 31.608 77.196 31.608 77.5881C31.608 78.0824 31.4801 78.5213 31.2244 78.9048C30.9716 79.2884 30.6037 79.5909 30.1207 79.8125C29.6406 80.0341 29.0597 80.1449 28.3778 80.1449C27.7244 80.1449 27.1591 80.0412 26.6818 79.8338C26.2045 79.6264 25.831 79.3324 25.5611 78.9517C25.2912 78.5682 25.142 78.1136 25.1136 77.5881H26.4347C26.4602 77.9034 26.5625 78.1662 26.7415 78.3764C26.9233 78.5838 27.1548 78.7386 27.4361 78.8409C27.7202 78.9403 28.0312 78.9901 28.3693 78.9901C28.7415 78.9901 29.0724 78.9318 29.3622 78.8153C29.6548 78.696 29.8849 78.5312 30.0526 78.321C30.2202 78.108 30.304 77.8594 30.304 77.5753C30.304 77.3168 30.2301 77.1051 30.0824 76.9403C29.9375 76.7756 29.7401 76.6392 29.4901 76.5312C29.2429 76.4233 28.9631 76.3281 28.6506 76.2457L27.6193 75.9645C26.9205 75.7741 26.3665 75.4943 25.9574 75.125C25.5511 74.7557 25.348 74.267 25.348 73.6591C25.348 73.1562 25.4844 72.7173 25.7571 72.3423C26.0298 71.9673 26.3991 71.6761 26.8651 71.4688C27.331 71.2585 27.8565 71.1534 28.4418 71.1534C29.0327 71.1534 29.554 71.2571 30.0057 71.4645C30.4602 71.6719 30.8182 71.9574 31.0795 72.321C31.3409 72.6818 31.4773 73.0966 31.4886 73.5653H30.2188ZM36.1346 73.4545V74.4773H32.5593V73.4545H36.1346ZM33.5181 71.8864H34.7923V78.0781C34.7923 78.3253 34.8292 78.5114 34.9031 78.6364C34.9769 78.7585 35.0721 78.8423 35.1886 78.8878C35.3079 78.9304 35.4371 78.9517 35.5763 78.9517C35.6786 78.9517 35.7681 78.9446 35.8448 78.9304C35.9215 78.9162 35.9812 78.9048 36.0238 78.8963L36.2539 79.9489C36.18 79.9773 36.0749 80.0057 35.9386 80.0341C35.8022 80.0653 35.6317 80.0824 35.4272 80.0852C35.092 80.0909 34.7795 80.0312 34.4897 79.9062C34.1999 79.7812 33.9656 79.5881 33.7866 79.3267C33.6076 79.0653 33.5181 78.7372 33.5181 78.3423V71.8864ZM39.4489 80.1449C39.0341 80.1449 38.6591 80.0682 38.3239 79.9148C37.9886 79.7585 37.723 79.5327 37.527 79.2372C37.3338 78.9418 37.2372 78.5795 37.2372 78.1506C37.2372 77.7812 37.3082 77.4773 37.4503 77.2386C37.5923 77 37.7841 76.8111 38.0256 76.6719C38.267 76.5327 38.5369 76.4276 38.8352 76.3565C39.1335 76.2855 39.4375 76.2315 39.7472 76.1946C40.1392 76.1491 40.4574 76.1122 40.7017 76.0838C40.946 76.0526 41.1236 76.0028 41.2344 75.9347C41.3452 75.8665 41.4006 75.7557 41.4006 75.6023V75.5724C41.4006 75.2003 41.2955 74.9119 41.0852 74.7074C40.8778 74.5028 40.5682 74.4006 40.1562 74.4006C39.7273 74.4006 39.3892 74.4957 39.142 74.6861C38.8977 74.8736 38.7287 75.0824 38.6349 75.3125L37.4375 75.0398C37.5795 74.642 37.7869 74.321 38.0597 74.0767C38.3352 73.8295 38.652 73.6506 39.0099 73.5398C39.3679 73.4261 39.7443 73.3693 40.1392 73.3693C40.4006 73.3693 40.6776 73.4006 40.9702 73.4631C41.2656 73.5227 41.5412 73.6335 41.7969 73.7955C42.0554 73.9574 42.267 74.1889 42.4318 74.4901C42.5966 74.7884 42.679 75.1761 42.679 75.6534V80H41.4347V79.1051H41.3835C41.3011 79.2699 41.1776 79.4318 41.0128 79.5909C40.848 79.75 40.6364 79.8821 40.3778 79.9872C40.1193 80.0923 39.8097 80.1449 39.4489 80.1449ZM39.7259 79.1222C40.0781 79.1222 40.3793 79.0526 40.6293 78.9134C40.8821 78.7741 41.0739 78.5923 41.2045 78.3679C41.3381 78.1406 41.4048 77.8977 41.4048 77.6392V76.7955C41.3594 76.8409 41.2713 76.8835 41.1406 76.9233C41.0128 76.9602 40.8665 76.9929 40.7017 77.0213C40.5369 77.0469 40.3764 77.071 40.2202 77.0938C40.0639 77.1136 39.9332 77.1307 39.8281 77.1449C39.581 77.1761 39.3551 77.2287 39.1506 77.3026C38.9489 77.3764 38.7869 77.483 38.6648 77.6222C38.5455 77.7585 38.4858 77.9403 38.4858 78.1676C38.4858 78.483 38.6023 78.7216 38.8352 78.8835C39.0682 79.0426 39.3651 79.1222 39.7259 79.1222ZM44.3761 80V73.4545H45.6076V74.4943H45.6758C45.7951 74.142 46.0053 73.8651 46.3065 73.6634C46.6104 73.4588 46.9542 73.3565 47.3377 73.3565C47.4173 73.3565 47.511 73.3594 47.619 73.3651C47.7298 73.3707 47.8164 73.3778 47.8789 73.3864V74.6051C47.8278 74.5909 47.7369 74.5753 47.6062 74.5582C47.4755 74.5384 47.3448 74.5284 47.2141 74.5284C46.913 74.5284 46.6445 74.5923 46.4087 74.7202C46.1758 74.8452 45.9911 75.0199 45.8548 75.2443C45.7184 75.4659 45.6502 75.7187 45.6502 76.0028V80H44.3761ZM52.4237 73.4545V74.4773H48.8484V73.4545H52.4237ZM49.8072 71.8864H51.0813V78.0781C51.0813 78.3253 51.1183 78.5114 51.1921 78.6364C51.266 78.7585 51.3612 78.8423 51.4776 78.8878C51.5969 78.9304 51.7262 78.9517 51.8654 78.9517C51.9677 78.9517 52.0572 78.9446 52.1339 78.9304C52.2106 78.9162 52.2702 78.9048 52.3129 78.8963L52.543 79.9489C52.4691 79.9773 52.364 80.0057 52.2276 80.0341C52.0913 80.0653 51.9208 80.0824 51.7163 80.0852C51.381 80.0909 51.0685 80.0312 50.7788 79.9062C50.489 79.7812 50.2546 79.5881 50.0756 79.3267C49.8967 79.0653 49.8072 78.7372 49.8072 78.3423V71.8864ZM56.5838 80.1321C55.9389 80.1321 55.3835 79.9943 54.9176 79.7188C54.4545 79.4403 54.0966 79.0497 53.8438 78.5469C53.5938 78.0412 53.4688 77.4489 53.4688 76.7699C53.4688 76.0994 53.5938 75.5085 53.8438 74.9972C54.0966 74.4858 54.4489 74.0866 54.9006 73.7997C55.3551 73.5128 55.8864 73.3693 56.4943 73.3693C56.8636 73.3693 57.2216 73.4304 57.5682 73.5526C57.9148 73.6747 58.2259 73.8665 58.5014 74.1278C58.777 74.3892 58.9943 74.7287 59.1534 75.1463C59.3125 75.5611 59.392 76.0653 59.392 76.6591V77.1108H54.1889V76.1562H58.1435C58.1435 75.821 58.0753 75.5241 57.9389 75.2656C57.8026 75.0043 57.6108 74.7983 57.3636 74.6477C57.1193 74.4972 56.8324 74.4219 56.5028 74.4219C56.1449 74.4219 55.8324 74.5099 55.5653 74.6861C55.3011 74.8594 55.0966 75.0866 54.9517 75.3679C54.8097 75.6463 54.7386 75.9489 54.7386 76.2756V77.0213C54.7386 77.4588 54.8153 77.831 54.9688 78.1378C55.125 78.4446 55.3423 78.679 55.6207 78.8409C55.8991 79 56.2244 79.0795 56.5966 79.0795C56.8381 79.0795 57.0582 79.0455 57.2571 78.9773C57.456 78.9062 57.6278 78.8011 57.7727 78.6619C57.9176 78.5227 58.0284 78.3509 58.1051 78.1463L59.3111 78.3636C59.2145 78.7187 59.0412 79.0298 58.7912 79.2969C58.544 79.5611 58.233 79.767 57.858 79.9148C57.4858 80.0597 57.0611 80.1321 56.5838 80.1321ZM63.256 80.1278C62.7276 80.1278 62.256 79.9929 61.8413 79.723C61.4293 79.4503 61.1055 79.0625 60.8697 78.5597C60.6367 78.054 60.5202 77.4474 60.5202 76.7401C60.5202 76.0327 60.6381 75.4276 60.8739 74.9247C61.1126 74.4219 61.4393 74.0369 61.854 73.7699C62.2688 73.5028 62.739 73.3693 63.2646 73.3693C63.6708 73.3693 63.9975 73.4375 64.2447 73.5739C64.4947 73.7074 64.6879 73.8636 64.8242 74.0426C64.9634 74.2216 65.0714 74.3793 65.1481 74.5156H65.2248V71.2727H66.4989V80H65.2546V78.9815H65.1481C65.0714 79.1207 64.9606 79.2798 64.8157 79.4588C64.6737 79.6378 64.4776 79.794 64.2276 79.9276C63.9776 80.0611 63.6538 80.1278 63.256 80.1278ZM63.5373 79.0412C63.9038 79.0412 64.2134 78.9446 64.4663 78.7514C64.7219 78.5554 64.9151 78.2841 65.0458 77.9375C65.1793 77.5909 65.2461 77.1875 65.2461 76.7273C65.2461 76.2727 65.1808 75.875 65.0501 75.5341C64.9194 75.1932 64.7276 74.9276 64.4748 74.7372C64.2219 74.5469 63.9094 74.4517 63.5373 74.4517C63.1538 74.4517 62.8342 74.5511 62.5785 74.75C62.3228 74.9489 62.1296 75.2202 61.9989 75.5639C61.8711 75.9077 61.8072 76.2955 61.8072 76.7273C61.8072 77.1648 61.8725 77.5582 62.0032 77.9077C62.1339 78.2571 62.3271 78.5341 62.5827 78.7386C62.8413 78.9403 63.1594 79.0412 63.5373 79.0412Z" fill="#7E8083"></path><path d="M257.707 74.1108H256.378C256.327 73.8267 256.232 73.5767 256.092 73.3608C255.953 73.1449 255.783 72.9616 255.581 72.8111C255.379 72.6605 255.153 72.5469 254.903 72.4702C254.656 72.3935 254.393 72.3551 254.115 72.3551C253.612 72.3551 253.162 72.4815 252.764 72.7344C252.369 72.9872 252.057 73.358 251.827 73.8466C251.599 74.3352 251.486 74.9318 251.486 75.6364C251.486 76.3466 251.599 76.946 251.827 77.4347C252.057 77.9233 252.371 78.2926 252.768 78.5426C253.166 78.7926 253.614 78.9176 254.111 78.9176C254.386 78.9176 254.648 78.8807 254.895 78.8068C255.145 78.7301 255.371 78.6179 255.572 78.4702C255.774 78.3224 255.945 78.142 256.084 77.929C256.226 77.7131 256.324 77.4659 256.378 77.1875L257.707 77.1918C257.636 77.6207 257.499 78.0156 257.294 78.3764C257.092 78.7344 256.832 79.044 256.514 79.3054C256.199 79.5639 255.838 79.7642 255.432 79.9062C255.026 80.0483 254.582 80.1193 254.102 80.1193C253.347 80.1193 252.673 79.9403 252.082 79.5824C251.491 79.2216 251.026 78.706 250.685 78.0355C250.347 77.3651 250.178 76.5653 250.178 75.6364C250.178 74.7045 250.348 73.9048 250.689 73.2372C251.03 72.5668 251.496 72.0526 252.087 71.6946C252.678 71.3338 253.349 71.1534 254.102 71.1534C254.565 71.1534 254.997 71.2202 255.398 71.3537C255.801 71.4844 256.163 71.6776 256.484 71.9332C256.805 72.1861 257.071 72.4957 257.281 72.8622C257.491 73.2259 257.634 73.642 257.707 74.1108ZM261.938 80.1321C261.324 80.1321 260.789 79.9915 260.331 79.7102C259.874 79.429 259.519 79.0355 259.266 78.5298C259.013 78.0241 258.887 77.4332 258.887 76.7571C258.887 76.0781 259.013 75.4844 259.266 74.9759C259.519 74.4673 259.874 74.0724 260.331 73.7912C260.789 73.5099 261.324 73.3693 261.938 73.3693C262.551 73.3693 263.087 73.5099 263.544 73.7912C264.002 74.0724 264.357 74.4673 264.61 74.9759C264.863 75.4844 264.989 76.0781 264.989 76.7571C264.989 77.4332 264.863 78.0241 264.61 78.5298C264.357 79.0355 264.002 79.429 263.544 79.7102C263.087 79.9915 262.551 80.1321 261.938 80.1321ZM261.942 79.0625C262.34 79.0625 262.669 78.9574 262.931 78.7472C263.192 78.5369 263.385 78.2571 263.51 77.9077C263.638 77.5582 263.702 77.1733 263.702 76.7528C263.702 76.3352 263.638 75.9517 263.51 75.6023C263.385 75.25 263.192 74.9673 262.931 74.7543C262.669 74.5412 262.34 74.4347 261.942 74.4347C261.542 74.4347 261.209 74.5412 260.945 74.7543C260.684 74.9673 260.489 75.25 260.361 75.6023C260.236 75.9517 260.174 76.3352 260.174 76.7528C260.174 77.1733 260.236 77.5582 260.361 77.9077C260.489 78.2571 260.684 78.5369 260.945 78.7472C261.209 78.9574 261.542 79.0625 261.942 79.0625ZM266.411 80V73.4545H267.634V74.5199H267.715C267.852 74.1591 268.075 73.8778 268.384 73.6761C268.694 73.4716 269.065 73.3693 269.496 73.3693C269.934 73.3693 270.3 73.4716 270.596 73.6761C270.894 73.8807 271.114 74.1619 271.256 74.5199H271.325C271.481 74.1705 271.729 73.892 272.07 73.6847C272.411 73.4744 272.817 73.3693 273.289 73.3693C273.883 73.3693 274.367 73.5554 274.742 73.9276C275.12 74.2997 275.309 74.8608 275.309 75.6108V80H274.035V75.7301C274.035 75.2869 273.914 74.9659 273.673 74.767C273.431 74.5682 273.143 74.4688 272.808 74.4688C272.393 74.4688 272.07 74.5966 271.84 74.8523C271.61 75.1051 271.495 75.4304 271.495 75.8281V80H270.225V75.6491C270.225 75.294 270.114 75.0085 269.893 74.7926C269.671 74.5767 269.383 74.4688 269.028 74.4688C268.786 74.4688 268.563 74.5327 268.359 74.6605C268.157 74.7855 267.994 74.9602 267.869 75.1847C267.746 75.4091 267.685 75.669 267.685 75.9645V80H266.411ZM277.017 82.4545V73.4545H278.261V74.5156H278.368C278.441 74.3793 278.548 74.2216 278.687 74.0426C278.826 73.8636 279.02 73.7074 279.267 73.5739C279.514 73.4375 279.841 73.3693 280.247 73.3693C280.775 73.3693 281.247 73.5028 281.662 73.7699C282.076 74.0369 282.402 74.4219 282.637 74.9247C282.876 75.4276 282.995 76.0327 282.995 76.7401C282.995 77.4474 282.877 78.054 282.642 78.5597C282.406 79.0625 282.082 79.4503 281.67 79.723C281.258 79.9929 280.788 80.1278 280.26 80.1278C279.862 80.1278 279.537 80.0611 279.284 79.9276C279.034 79.794 278.838 79.6378 278.696 79.4588C278.554 79.2798 278.444 79.1207 278.368 78.9815H278.291V82.4545H277.017ZM278.265 76.7273C278.265 77.1875 278.332 77.5909 278.466 77.9375C278.599 78.2841 278.792 78.5554 279.045 78.7514C279.298 78.9446 279.608 79.0412 279.974 79.0412C280.355 79.0412 280.673 78.9403 280.929 78.7386C281.184 78.5341 281.377 78.2571 281.508 77.9077C281.642 77.5582 281.708 77.1648 281.708 76.7273C281.708 76.2955 281.643 75.9077 281.512 75.5639C281.385 75.2202 281.191 74.9489 280.933 74.75C280.677 74.5511 280.358 74.4517 279.974 74.4517C279.605 74.4517 279.292 74.5469 279.037 74.7372C278.784 74.9276 278.592 75.1932 278.461 75.5341C278.331 75.875 278.265 76.2727 278.265 76.7273ZM285.697 71.2727V80H284.423V71.2727H285.697ZM290.232 80.1321C289.587 80.1321 289.032 79.9943 288.566 79.7188C288.103 79.4403 287.745 79.0497 287.492 78.5469C287.242 78.0412 287.117 77.4489 287.117 76.7699C287.117 76.0994 287.242 75.5085 287.492 74.9972C287.745 74.4858 288.097 74.0866 288.549 73.7997C289.004 73.5128 289.535 73.3693 290.143 73.3693C290.512 73.3693 290.87 73.4304 291.217 73.5526C291.563 73.6747 291.874 73.8665 292.15 74.1278C292.425 74.3892 292.643 74.7287 292.802 75.1463C292.961 75.5611 293.04 76.0653 293.04 76.6591V77.1108H287.837V76.1562H291.792C291.792 75.821 291.724 75.5241 291.587 75.2656C291.451 75.0043 291.259 74.7983 291.012 74.6477C290.768 74.4972 290.481 74.4219 290.151 74.4219C289.793 74.4219 289.481 74.5099 289.214 74.6861C288.95 74.8594 288.745 75.0866 288.6 75.3679C288.458 75.6463 288.387 75.9489 288.387 76.2756V77.0213C288.387 77.4588 288.464 77.831 288.617 78.1378C288.773 78.4446 288.991 78.679 289.269 78.8409C289.548 79 289.873 79.0795 290.245 79.0795C290.487 79.0795 290.707 79.0455 290.906 78.9773C291.104 78.9062 291.276 78.8011 291.421 78.6619C291.566 78.5227 291.677 78.3509 291.754 78.1463L292.96 78.3636C292.863 78.7187 292.69 79.0298 292.44 79.2969C292.192 79.5611 291.881 79.767 291.506 79.9148C291.134 80.0597 290.71 80.1321 290.232 80.1321ZM297.51 73.4545V74.4773H293.934V73.4545H297.51ZM294.893 71.8864H296.167V78.0781C296.167 78.3253 296.204 78.5114 296.278 78.6364C296.352 78.7585 296.447 78.8423 296.564 78.8878C296.683 78.9304 296.812 78.9517 296.951 78.9517C297.054 78.9517 297.143 78.9446 297.22 78.9304C297.297 78.9162 297.356 78.9048 297.399 78.8963L297.629 79.9489C297.555 79.9773 297.45 80.0057 297.314 80.0341C297.177 80.0653 297.007 80.0824 296.802 80.0852C296.467 80.0909 296.154 80.0312 295.865 79.9062C295.575 79.7812 295.341 79.5881 295.162 79.3267C294.983 79.0653 294.893 78.7372 294.893 78.3423V71.8864ZM301.67 80.1321C301.025 80.1321 300.469 79.9943 300.004 79.7188C299.54 79.4403 299.183 79.0497 298.93 78.5469C298.68 78.0412 298.555 77.4489 298.555 76.7699C298.555 76.0994 298.68 75.5085 298.93 74.9972C299.183 74.4858 299.535 74.0866 299.987 73.7997C300.441 73.5128 300.972 73.3693 301.58 73.3693C301.95 73.3693 302.308 73.4304 302.654 73.5526C303.001 73.6747 303.312 73.8665 303.587 74.1278C303.863 74.3892 304.08 74.7287 304.239 75.1463C304.398 75.5611 304.478 76.0653 304.478 76.6591V77.1108H299.275V76.1562H303.229C303.229 75.821 303.161 75.5241 303.025 75.2656C302.888 75.0043 302.697 74.7983 302.45 74.6477C302.205 74.4972 301.918 74.4219 301.589 74.4219C301.231 74.4219 300.918 74.5099 300.651 74.6861C300.387 74.8594 300.183 75.0866 300.038 75.3679C299.896 75.6463 299.825 75.9489 299.825 76.2756V77.0213C299.825 77.4588 299.901 77.831 300.055 78.1378C300.211 78.4446 300.428 78.679 300.707 78.8409C300.985 79 301.31 79.0795 301.683 79.0795C301.924 79.0795 302.144 79.0455 302.343 78.9773C302.542 78.9062 302.714 78.8011 302.859 78.6619C303.004 78.5227 303.114 78.3509 303.191 78.1463L304.397 78.3636C304.3 78.7187 304.127 79.0298 303.877 79.2969C303.63 79.5611 303.319 79.767 302.944 79.9148C302.572 80.0597 302.147 80.1321 301.67 80.1321Z" fill="#7E8083"></path></svg>