<svg xmlns="http://www.w3.org/2000/svg" width="273" height="286" viewBox="0 0 273 286" fill="none"><rect x="1.5" y="1.5" width="270" height="283" rx="6.5" fill="white" stroke="black" stroke-width="3"></rect><line x1="35" y1="77.5" x2="242" y2="77.5" stroke="#EAEDF0"></line><path d="M36.272 47.2917C36.8 47.2597 37.176 47.1477 37.4 46.9557C37.64 46.7637 37.792 46.4757 37.856 46.0917C37.92 45.7077 37.952 45.2197 37.952 44.6277V34.6437C37.952 34.2917 37.96 33.9557 37.976 33.6357C37.992 33.2997 38.008 33.0117 38.024 32.7717C37.752 32.7877 37.456 32.8037 37.136 32.8197C36.816 32.8357 36.528 32.8517 36.272 32.8677V31.5477C37.216 31.5317 38.176 31.5237 39.152 31.5237C40.128 31.5077 41.12 31.4997 42.128 31.4997C43.632 31.4997 44.904 31.6837 45.944 32.0517C47 32.4037 47.808 32.9477 48.368 33.6837C48.944 34.4037 49.24 35.3157 49.256 36.4197C49.272 37.0437 49.16 37.6917 48.92 38.3637C48.68 39.0197 48.272 39.6357 47.696 40.2117C47.12 40.7717 46.336 41.2277 45.344 41.5797C44.368 41.9317 43.136 42.1077 41.648 42.1077C41.488 42.1237 41.304 42.1317 41.096 42.1317C40.904 42.1317 40.704 42.1237 40.496 42.1077V45.1317C40.496 45.5637 40.488 45.9557 40.472 46.3077C40.472 46.6437 40.456 46.9157 40.424 47.1237C40.648 47.1077 40.888 47.0917 41.144 47.0757C41.4 47.0597 41.648 47.0517 41.888 47.0517C42.144 47.0357 42.376 47.0197 42.584 47.0037V48.3477H36.272V47.2917ZM40.496 40.8357C40.768 40.8677 41 40.8917 41.192 40.9077C41.4 40.9077 41.64 40.9077 41.912 40.9077C42.808 40.9077 43.6 40.7397 44.288 40.4037C44.976 40.0677 45.512 39.5797 45.896 38.9397C46.28 38.2997 46.472 37.5397 46.472 36.6597C46.472 35.8917 46.352 35.2517 46.112 34.7397C45.888 34.2117 45.568 33.8037 45.152 33.5157C44.752 33.2117 44.288 32.9957 43.76 32.8677C43.232 32.7397 42.672 32.6757 42.08 32.6757C41.6 32.6757 41.248 32.7717 41.024 32.9637C40.8 33.1557 40.656 33.4357 40.592 33.8037C40.528 34.1717 40.496 34.6437 40.496 35.2197V40.8357ZM57.737 48.3477C57.705 48.0917 57.681 47.8677 57.665 47.6757C57.649 47.4837 57.625 47.2837 57.593 47.0757C57.049 47.6197 56.465 48.0357 55.841 48.3237C55.217 48.5957 54.569 48.7317 53.897 48.7317C52.745 48.7317 51.873 48.4517 51.281 47.8917C50.705 47.3157 50.417 46.6037 50.417 45.7557C50.417 45.0197 50.633 44.3797 51.065 43.8357C51.497 43.2917 52.065 42.8517 52.769 42.5157C53.473 42.1637 54.241 41.9077 55.073 41.7477C55.905 41.5717 56.721 41.4837 57.521 41.4837V40.0677C57.521 39.5557 57.473 39.0837 57.377 38.6517C57.281 38.2037 57.081 37.8437 56.777 37.5717C56.489 37.2837 56.033 37.1397 55.409 37.1397C54.993 37.1237 54.577 37.2037 54.161 37.3797C53.745 37.5397 53.425 37.8117 53.201 38.1957C53.329 38.3237 53.409 38.4757 53.441 38.6517C53.489 38.8117 53.513 38.9637 53.513 39.1077C53.513 39.3317 53.417 39.5877 53.225 39.8757C53.033 40.1477 52.705 40.2757 52.241 40.2597C51.857 40.2597 51.561 40.1317 51.353 39.8757C51.161 39.6037 51.065 39.2917 51.065 38.9397C51.065 38.3637 51.273 37.8517 51.689 37.4037C52.121 36.9557 52.705 36.6037 53.441 36.3477C54.177 36.0917 55.001 35.9637 55.913 35.9637C57.289 35.9637 58.313 36.3237 58.985 37.0437C59.673 37.7637 60.017 38.8997 60.017 40.4517C60.017 41.0277 60.017 41.5797 60.017 42.1077C60.017 42.6357 60.009 43.1637 59.993 43.6917C59.993 44.2197 59.993 44.7797 59.993 45.3717C59.993 45.6117 59.985 45.8837 59.969 46.1877C59.953 46.4917 59.929 46.8117 59.897 47.1477C60.169 47.1317 60.449 47.1157 60.737 47.0997C61.025 47.0837 61.297 47.0757 61.553 47.0757V48.3477H57.737ZM57.521 42.5877C57.009 42.6197 56.481 42.6917 55.937 42.8037C55.409 42.9157 54.929 43.0837 54.497 43.3077C54.065 43.5317 53.713 43.8197 53.441 44.1717C53.185 44.5237 53.057 44.9477 53.057 45.4437C53.089 45.9877 53.265 46.3877 53.585 46.6437C53.921 46.8997 54.313 47.0277 54.761 47.0277C55.321 47.0277 55.817 46.9237 56.249 46.7157C56.681 46.4917 57.105 46.1877 57.521 45.8037C57.505 45.6277 57.497 45.4517 57.497 45.2757C57.497 45.0837 57.497 44.8837 57.497 44.6757C57.497 44.5317 57.497 44.2677 57.497 43.8837C57.513 43.4837 57.521 43.0517 57.521 42.5877ZM64.9325 54.8517C64.4045 54.8517 63.9485 54.7077 63.5645 54.4197C63.1965 54.1477 63.0125 53.7477 63.0125 53.2197C63.0125 52.8837 63.1165 52.5797 63.3245 52.3077C63.5485 52.0357 63.8365 51.8997 64.1885 51.8997C64.5725 51.8837 64.8445 52.0037 65.0045 52.2597C65.1805 52.5157 65.2685 52.7797 65.2685 53.0517C65.2685 53.0997 65.2685 53.1477 65.2685 53.1957C65.2685 53.2437 65.2605 53.2997 65.2445 53.3637C65.2925 53.3957 65.3645 53.4037 65.4605 53.3877C65.6365 53.3717 65.8285 53.2757 66.0365 53.0997C66.2445 52.9237 66.4365 52.6757 66.6125 52.3557C66.8045 52.0037 67.0205 51.5157 67.2605 50.8917C67.5005 50.2677 67.7645 49.5477 68.0525 48.7317L64.2845 40.8597C63.8525 39.9637 63.5485 39.2677 63.3725 38.7717C63.2125 38.2597 63.1085 37.8597 63.0605 37.5717L61.9085 37.6197V36.3477H67.2125V37.3317H67.1645C66.5085 37.3957 66.1485 37.6437 66.0845 38.0757C66.0365 38.5077 66.1885 39.0997 66.5405 39.8517L69.1805 45.6597C69.4845 44.8437 69.7885 43.9557 70.0925 42.9957C70.4125 42.0357 70.7405 41.0517 71.0765 40.0437C71.1885 39.7397 71.3005 39.4197 71.4125 39.0837C71.5405 38.7317 71.6685 38.4117 71.7965 38.1237C71.9405 37.8357 72.0765 37.6357 72.2045 37.5237L70.6445 37.6197V36.3477H74.5805V37.3317C74.0205 37.5237 73.5805 37.8757 73.2605 38.3877C72.9565 38.8997 72.6605 39.5477 72.3725 40.3317L69.3725 48.7797C68.9085 50.1077 68.4765 51.2197 68.0765 52.1157C67.6765 53.0277 67.2285 53.7077 66.7325 54.1557C66.2525 54.6197 65.6525 54.8517 64.9325 54.8517ZM75.7117 48.3477V47.3397C76.1917 47.3397 76.5277 47.2277 76.7197 47.0037C76.9117 46.7797 77.0237 46.4677 77.0557 46.0677C77.1037 45.6677 77.1277 45.2037 77.1277 44.6757V39.6837C77.1277 39.4277 77.1277 39.1557 77.1277 38.8677C77.1437 38.5637 77.1757 38.2677 77.2237 37.9797C76.9517 37.9957 76.6637 38.0117 76.3597 38.0277C76.0557 38.0277 75.7757 38.0357 75.5197 38.0517V36.7797C76.2397 36.7797 76.7997 36.7477 77.1997 36.6837C77.6157 36.6037 77.9277 36.5157 78.1357 36.4197C78.3597 36.3237 78.5277 36.2197 78.6397 36.1077H79.5037C79.5357 36.2677 79.5517 36.4597 79.5517 36.6837C79.5677 36.8917 79.5837 37.1157 79.5997 37.3557C80.0957 36.9397 80.6557 36.6037 81.2797 36.3477C81.9197 36.0917 82.5357 35.9637 83.1277 35.9637C83.9117 35.9637 84.5597 36.1077 85.0717 36.3957C85.5997 36.6677 86.0157 37.0597 86.3197 37.5717C86.8797 37.1077 87.5117 36.7237 88.2157 36.4197C88.9197 36.1157 89.6077 35.9637 90.2797 35.9637C91.6397 35.9637 92.6477 36.3717 93.3037 37.1877C93.9597 37.9877 94.2797 39.3317 94.2637 41.2197L94.2397 45.3717C94.2397 45.6597 94.2317 45.9557 94.2157 46.2597C94.2157 46.5477 94.1917 46.8437 94.1437 47.1477C94.3997 47.1317 94.6637 47.1237 94.9357 47.1237C95.2077 47.1077 95.4557 47.0917 95.6797 47.0757V48.3477H90.3997V47.3397C90.8477 47.3397 91.1597 47.2277 91.3357 47.0037C91.5277 46.7797 91.6397 46.4677 91.6717 46.0677C91.7197 45.6677 91.7437 45.2037 91.7437 44.6757V41.2197C91.7277 39.9557 91.5197 39.0277 91.1197 38.4357C90.7197 37.8437 90.1117 37.5477 89.2957 37.5477C88.8317 37.5477 88.3757 37.6517 87.9277 37.8597C87.4797 38.0517 87.0797 38.2997 86.7277 38.6037C86.8077 38.8757 86.8637 39.1797 86.8957 39.5157C86.9437 39.8357 86.9677 40.1717 86.9677 40.5237C86.9517 41.3237 86.9437 42.1317 86.9437 42.9477C86.9437 43.7477 86.9437 44.5557 86.9437 45.3717C86.9437 45.6597 86.9357 45.9557 86.9197 46.2597C86.9037 46.5477 86.8797 46.8437 86.8477 47.1477C87.1037 47.1317 87.3597 47.1237 87.6157 47.1237C87.8877 47.1077 88.1357 47.0917 88.3597 47.0757V48.3477H83.0317V47.3397C83.5117 47.3397 83.8397 47.2277 84.0157 47.0037C84.2077 46.7797 84.3197 46.4677 84.3517 46.0677C84.3997 45.6677 84.4237 45.2037 84.4237 44.6757V41.1957C84.4397 39.9317 84.2557 39.0037 83.8717 38.4117C83.5037 37.8037 82.9117 37.5077 82.0957 37.5237C81.6317 37.5237 81.1837 37.6277 80.7517 37.8357C80.3197 38.0277 79.9437 38.2757 79.6237 38.5797C79.6237 38.7717 79.6237 38.9717 79.6237 39.1797C79.6397 39.3877 79.6477 39.6117 79.6477 39.8517V45.3717C79.6477 45.6597 79.6397 45.9557 79.6237 46.2597C79.6077 46.5477 79.5837 46.8437 79.5517 47.1477C79.8077 47.1317 80.0637 47.1237 80.3197 47.1237C80.5757 47.1077 80.8157 47.0917 81.0397 47.0757V48.3477H75.7117ZM103.151 48.7317C102.031 48.7317 101.023 48.4757 100.127 47.9637C99.2474 47.4357 98.5514 46.6997 98.0394 45.7557C97.5274 44.7957 97.2714 43.6677 97.2714 42.3717C97.2714 41.2517 97.5194 40.2037 98.0154 39.2277C98.5274 38.2517 99.2394 37.4677 100.151 36.8757C101.063 36.2677 102.119 35.9637 103.319 35.9637C103.991 35.9637 104.623 36.0677 105.215 36.2757C105.823 36.4837 106.359 36.8117 106.823 37.2597C107.303 37.6917 107.679 38.2597 107.951 38.9637C108.223 39.6517 108.359 40.4917 108.359 41.4837L100.103 41.6277C100.103 42.7157 100.223 43.6837 100.463 44.5317C100.719 45.3797 101.127 46.0357 101.687 46.4997C102.247 46.9637 102.975 47.1957 103.871 47.1957C104.303 47.1957 104.759 47.1237 105.239 46.9797C105.735 46.8197 106.199 46.5957 106.631 46.3077C107.079 46.0197 107.455 45.6757 107.759 45.2757L108.503 45.9237C108.023 46.6437 107.471 47.2117 106.847 47.6277C106.223 48.0277 105.583 48.3077 104.927 48.4677C104.287 48.6437 103.695 48.7317 103.151 48.7317ZM100.199 40.3797H105.743C105.743 39.7717 105.655 39.2277 105.479 38.7477C105.319 38.2517 105.063 37.8597 104.711 37.5717C104.359 37.2837 103.911 37.1397 103.367 37.1397C102.519 37.1397 101.823 37.4117 101.279 37.9557C100.735 38.4837 100.375 39.2917 100.199 40.3797ZM110.376 48.3477V47.3397C110.856 47.3397 111.192 47.2277 111.384 47.0037C111.576 46.7797 111.688 46.4677 111.72 46.0677C111.768 45.6677 111.792 45.2037 111.792 44.6757L111.816 39.6837C111.816 39.4277 111.816 39.1557 111.816 38.8677C111.832 38.5637 111.864 38.2677 111.912 37.9797C111.624 37.9957 111.328 38.0117 111.024 38.0277C110.736 38.0277 110.464 38.0357 110.208 38.0517V36.7797C110.928 36.7797 111.488 36.7477 111.888 36.6837C112.304 36.6037 112.616 36.5157 112.824 36.4197C113.048 36.3237 113.216 36.2197 113.328 36.1077H114.192C114.208 36.2517 114.216 36.3877 114.216 36.5157C114.232 36.6437 114.24 36.7797 114.24 36.9237C114.256 37.0677 114.272 37.2517 114.288 37.4757C114.64 37.1877 115.024 36.9317 115.44 36.7077C115.856 36.4837 116.288 36.3077 116.736 36.1797C117.2 36.0357 117.64 35.9637 118.056 35.9637C119.48 35.9637 120.504 36.3957 121.128 37.2597C121.768 38.1237 122.088 39.4757 122.088 41.3157V45.3717C122.088 45.6597 122.08 45.9557 122.064 46.2597C122.048 46.5477 122.024 46.8437 121.992 47.1477C122.248 47.1317 122.504 47.1237 122.76 47.1237C123.032 47.1077 123.28 47.0917 123.504 47.0757V48.3477H118.152V47.3397C118.632 47.3397 118.968 47.2277 119.16 47.0037C119.352 46.7797 119.464 46.4677 119.496 46.0677C119.544 45.6677 119.568 45.2037 119.568 44.6757V41.3157C119.552 40.0517 119.344 39.0997 118.944 38.4597C118.56 37.8197 117.936 37.5077 117.072 37.5237C116.56 37.5237 116.056 37.6517 115.56 37.9077C115.064 38.1637 114.648 38.4757 114.312 38.8437C114.312 39.0037 114.312 39.1797 114.312 39.3717C114.312 39.5477 114.312 39.7317 114.312 39.9237V45.3717C114.312 45.6597 114.304 45.9557 114.288 46.2597C114.272 46.5477 114.248 46.8437 114.216 47.1477C114.472 47.1317 114.728 47.1237 114.984 47.1237C115.256 47.1077 115.504 47.0917 115.728 47.0757V48.3477H110.376ZM129.585 48.7317C129.185 48.7317 128.785 48.6757 128.385 48.5637C127.985 48.4677 127.609 48.2677 127.257 47.9637C126.921 47.6437 126.657 47.1877 126.465 46.5957C126.273 46.0037 126.177 45.2197 126.177 44.2437L126.225 37.6917H124.449V36.3477C124.881 36.3317 125.321 36.1717 125.769 35.8677C126.217 35.5637 126.609 35.1557 126.945 34.6437C127.281 34.1317 127.513 33.5797 127.641 32.9877H128.769V36.3477H132.465V37.5957L128.769 37.6437L128.721 44.0517C128.721 44.6597 128.769 45.1957 128.865 45.6597C128.977 46.1077 129.153 46.4597 129.393 46.7157C129.649 46.9557 129.993 47.0757 130.425 47.0757C130.793 47.0757 131.169 46.9637 131.553 46.7397C131.953 46.5157 132.329 46.1477 132.681 45.6357L133.497 46.3557C133.113 46.9157 132.729 47.3557 132.345 47.6757C131.961 47.9957 131.593 48.2277 131.241 48.3717C130.889 48.5317 130.569 48.6277 130.281 48.6597C129.993 48.7077 129.761 48.7317 129.585 48.7317ZM148.981 48.7317C147.349 48.7317 145.917 48.3797 144.685 47.6757C143.453 46.9717 142.501 45.9877 141.829 44.7237C141.157 43.4437 140.821 41.9557 140.821 40.2597C140.821 39.1397 140.989 38.0437 141.325 36.9717C141.677 35.8997 142.197 34.9237 142.885 34.0437C143.589 33.1637 144.461 32.4677 145.501 31.9557C146.557 31.4277 147.781 31.1637 149.173 31.1637C149.701 31.1637 150.253 31.2117 150.829 31.3077C151.405 31.4037 151.965 31.5477 152.509 31.7397C153.069 31.9317 153.573 32.1637 154.021 32.4357L153.925 31.3317H155.413V36.8517H154.309C154.229 35.8917 153.957 35.0837 153.493 34.4277C153.045 33.7557 152.461 33.2517 151.741 32.9157C151.037 32.5637 150.253 32.3877 149.389 32.3877C148.541 32.3877 147.765 32.5797 147.061 32.9637C146.373 33.3317 145.773 33.8517 145.261 34.5237C144.749 35.1797 144.349 35.9557 144.061 36.8517C143.789 37.7477 143.653 38.7077 143.653 39.7317C143.653 41.2037 143.893 42.5157 144.373 43.6677C144.869 44.8037 145.565 45.6997 146.461 46.3557C147.357 47.0117 148.405 47.3397 149.605 47.3397C149.989 47.3397 150.405 47.3077 150.853 47.2437C151.317 47.1637 151.773 47.0517 152.221 46.9077C152.685 46.7477 153.101 46.5477 153.469 46.3077V43.6197C153.469 43.2197 153.469 42.8277 153.469 42.4437C153.485 42.0437 153.493 41.6757 153.493 41.3397C153.237 41.3557 152.949 41.3717 152.629 41.3877C152.309 41.4037 152.029 41.4197 151.789 41.4357V40.1157H157.525V41.1717C157.141 41.1717 156.829 41.2597 156.589 41.4357C156.365 41.6117 156.197 41.8357 156.085 42.1077C155.989 42.3637 155.925 42.6437 155.893 42.9477C155.861 43.2357 155.845 43.5077 155.845 43.7637V47.5077H155.221C154.885 47.5077 154.493 47.5637 154.045 47.6757C153.597 47.7717 153.093 47.9237 152.533 48.1317C152.037 48.3077 151.469 48.4517 150.829 48.5637C150.189 48.6757 149.573 48.7317 148.981 48.7317ZM164.96 48.7317C163.824 48.7317 162.8 48.4757 161.888 47.9637C160.976 47.4517 160.248 46.7397 159.704 45.8277C159.176 44.8997 158.912 43.8357 158.912 42.6357C158.912 41.3397 159.176 40.1957 159.704 39.2037C160.248 38.1957 160.976 37.4037 161.888 36.8277C162.8 36.2517 163.816 35.9637 164.936 35.9637C166.072 35.9637 167.096 36.2277 168.008 36.7557C168.92 37.2677 169.64 37.9877 170.168 38.9157C170.712 39.8277 170.984 40.8837 170.984 42.0837C170.984 43.3477 170.72 44.4837 170.192 45.4917C169.664 46.4997 168.944 47.2917 168.032 47.8677C167.136 48.4437 166.112 48.7317 164.96 48.7317ZM165.128 47.5317C165.896 47.5157 166.496 47.2757 166.928 46.8117C167.376 46.3477 167.696 45.7557 167.888 45.0357C168.08 44.2997 168.176 43.5397 168.176 42.7557C168.176 42.0677 168.112 41.3957 167.984 40.7397C167.872 40.0677 167.688 39.4597 167.432 38.9157C167.176 38.3717 166.84 37.9397 166.424 37.6197C166.008 37.2837 165.504 37.1237 164.912 37.1397C164.16 37.1397 163.544 37.3717 163.064 37.8357C162.6 38.2997 162.256 38.8997 162.032 39.6357C161.824 40.3557 161.72 41.1237 161.72 41.9397C161.72 42.8837 161.84 43.7797 162.08 44.6277C162.32 45.4757 162.688 46.1717 163.184 46.7157C163.696 47.2597 164.344 47.5317 165.128 47.5317ZM180.01 48.3477C179.978 48.0917 179.954 47.8677 179.938 47.6757C179.922 47.4837 179.898 47.2837 179.866 47.0757C179.322 47.6197 178.738 48.0357 178.114 48.3237C177.49 48.5957 176.842 48.7317 176.17 48.7317C175.018 48.7317 174.146 48.4517 173.554 47.8917C172.978 47.3157 172.69 46.6037 172.69 45.7557C172.69 45.0197 172.906 44.3797 173.338 43.8357C173.77 43.2917 174.338 42.8517 175.042 42.5157C175.746 42.1637 176.514 41.9077 177.346 41.7477C178.178 41.5717 178.994 41.4837 179.794 41.4837V40.0677C179.794 39.5557 179.746 39.0837 179.65 38.6517C179.554 38.2037 179.354 37.8437 179.05 37.5717C178.762 37.2837 178.306 37.1397 177.682 37.1397C177.266 37.1237 176.85 37.2037 176.434 37.3797C176.018 37.5397 175.698 37.8117 175.474 38.1957C175.602 38.3237 175.682 38.4757 175.714 38.6517C175.762 38.8117 175.786 38.9637 175.786 39.1077C175.786 39.3317 175.69 39.5877 175.498 39.8757C175.306 40.1477 174.978 40.2757 174.514 40.2597C174.13 40.2597 173.834 40.1317 173.626 39.8757C173.434 39.6037 173.338 39.2917 173.338 38.9397C173.338 38.3637 173.546 37.8517 173.962 37.4037C174.394 36.9557 174.978 36.6037 175.714 36.3477C176.45 36.0917 177.274 35.9637 178.186 35.9637C179.562 35.9637 180.586 36.3237 181.258 37.0437C181.946 37.7637 182.29 38.8997 182.29 40.4517C182.29 41.0277 182.29 41.5797 182.29 42.1077C182.29 42.6357 182.282 43.1637 182.266 43.6917C182.266 44.2197 182.266 44.7797 182.266 45.3717C182.266 45.6117 182.258 45.8837 182.242 46.1877C182.226 46.4917 182.202 46.8117 182.17 47.1477C182.442 47.1317 182.722 47.1157 183.01 47.0997C183.298 47.0837 183.57 47.0757 183.826 47.0757V48.3477H180.01ZM179.794 42.5877C179.282 42.6197 178.754 42.6917 178.21 42.8037C177.682 42.9157 177.202 43.0837 176.77 43.3077C176.338 43.5317 175.986 43.8197 175.714 44.1717C175.458 44.5237 175.33 44.9477 175.33 45.4437C175.362 45.9877 175.538 46.3877 175.858 46.6437C176.194 46.8997 176.586 47.0277 177.034 47.0277C177.594 47.0277 178.09 46.9237 178.522 46.7157C178.954 46.4917 179.378 46.1877 179.794 45.8037C179.778 45.6277 179.77 45.4517 179.77 45.2757C179.77 45.0837 179.77 44.8837 179.77 44.6757C179.77 44.5317 179.77 44.2677 179.77 43.8837C179.786 43.4837 179.794 43.0517 179.794 42.5877ZM185.088 47.3397C185.568 47.3397 185.904 47.2277 186.096 47.0037C186.288 46.7797 186.4 46.4677 186.432 46.0677C186.48 45.6677 186.504 45.2037 186.504 44.6757V33.8277C186.504 33.5557 186.504 33.2837 186.504 33.0117C186.52 32.7237 186.544 32.4197 186.576 32.0997C186.304 32.1157 186.016 32.1317 185.712 32.1477C185.408 32.1477 185.136 32.1557 184.896 32.1717V30.8997C185.616 30.8997 186.184 30.8677 186.6 30.8037C187.032 30.7237 187.36 30.6357 187.584 30.5397C187.824 30.4437 188 30.3397 188.112 30.2277H189.024V45.3717C189.024 45.6597 189.016 45.9557 189 46.2597C188.984 46.5477 188.96 46.8437 188.928 47.1477C189.184 47.1317 189.44 47.1237 189.696 47.1237C189.968 47.1077 190.216 47.0917 190.44 47.0757V48.3477H185.088V47.3397ZM197.332 48.7317C196.58 48.7317 195.884 48.6277 195.244 48.4197C194.604 48.2277 194.092 47.9957 193.708 47.7237L193.78 48.5157H192.508L192.388 44.3877H193.396C193.428 44.9797 193.612 45.5157 193.948 45.9957C194.284 46.4757 194.716 46.8517 195.244 47.1237C195.788 47.3957 196.372 47.5317 196.996 47.5317C197.364 47.5317 197.724 47.4757 198.076 47.3637C198.428 47.2357 198.724 47.0517 198.964 46.8117C199.204 46.5557 199.324 46.2437 199.324 45.8757C199.324 45.4757 199.196 45.1477 198.94 44.8917C198.7 44.6197 198.364 44.3797 197.932 44.1717C197.516 43.9637 197.036 43.7557 196.492 43.5477C196.012 43.3557 195.524 43.1557 195.028 42.9477C194.548 42.7397 194.1 42.4917 193.684 42.2037C193.268 41.9157 192.94 41.5637 192.7 41.1477C192.46 40.7157 192.34 40.1877 192.34 39.5637C192.34 39.1957 192.412 38.8037 192.556 38.3877C192.7 37.9557 192.932 37.5637 193.252 37.2117C193.572 36.8437 194.004 36.5477 194.548 36.3237C195.092 36.0837 195.764 35.9637 196.564 35.9637C196.996 35.9637 197.476 36.0357 198.004 36.1797C198.548 36.3237 199.052 36.5717 199.516 36.9237L199.492 36.0837H200.764V40.3077H199.732C199.684 39.7477 199.532 39.2277 199.276 38.7477C199.036 38.2677 198.692 37.8757 198.243 37.5717C197.796 37.2677 197.252 37.1157 196.612 37.1157C195.988 37.1157 195.476 37.2757 195.076 37.5957C194.692 37.8997 194.5 38.2837 194.5 38.7477C194.5 39.2117 194.644 39.5877 194.932 39.8757C195.236 40.1637 195.628 40.4117 196.108 40.6197C196.588 40.8277 197.108 41.0357 197.668 41.2437C198.34 41.5157 198.972 41.8117 199.564 42.1317C200.156 42.4517 200.636 42.8517 201.004 43.3317C201.372 43.8117 201.556 44.4197 201.556 45.1557C201.556 45.9557 201.348 46.6277 200.932 47.1717C200.532 47.6997 200.012 48.0917 199.372 48.3477C198.732 48.6037 198.052 48.7317 197.332 48.7317Z" fill="black"></path><path d="M115.773 147.925C115.705 147.349 115.428 146.902 114.943 146.584C114.458 146.266 113.864 146.107 113.159 146.107C112.644 146.107 112.193 146.19 111.807 146.357C111.424 146.524 111.125 146.753 110.909 147.044C110.697 147.336 110.591 147.667 110.591 148.039C110.591 148.349 110.665 148.616 110.812 148.84C110.964 149.06 111.157 149.243 111.392 149.391C111.627 149.535 111.873 149.654 112.131 149.749C112.388 149.84 112.625 149.914 112.841 149.971L114.023 150.289C114.326 150.368 114.663 150.478 115.034 150.618C115.409 150.758 115.767 150.95 116.108 151.192C116.453 151.431 116.737 151.738 116.96 152.113C117.184 152.488 117.295 152.948 117.295 153.493C117.295 154.122 117.131 154.69 116.801 155.198C116.475 155.705 115.998 156.109 115.369 156.408C114.744 156.707 113.985 156.857 113.091 156.857C112.258 156.857 111.536 156.722 110.926 156.453C110.32 156.185 109.843 155.81 109.494 155.328C109.15 154.847 108.955 154.289 108.909 153.652H110.364C110.402 154.092 110.549 154.455 110.807 154.743C111.068 155.027 111.398 155.239 111.795 155.38C112.197 155.516 112.629 155.584 113.091 155.584C113.629 155.584 114.112 155.497 114.54 155.323C114.968 155.145 115.307 154.899 115.557 154.584C115.807 154.266 115.932 153.895 115.932 153.471C115.932 153.084 115.824 152.77 115.608 152.527C115.392 152.285 115.108 152.088 114.756 151.936C114.403 151.785 114.023 151.652 113.614 151.539L112.182 151.13C111.273 150.868 110.553 150.495 110.023 150.01C109.492 149.525 109.227 148.891 109.227 148.107C109.227 147.455 109.403 146.887 109.756 146.402C110.112 145.914 110.589 145.535 111.188 145.266C111.79 144.993 112.462 144.857 113.205 144.857C113.955 144.857 114.621 144.991 115.205 145.26C115.788 145.525 116.25 145.889 116.591 146.351C116.936 146.813 117.117 147.338 117.136 147.925H115.773ZM124.93 153.084V147.925H126.271V156.652H124.93V155.175H124.839C124.635 155.618 124.317 155.995 123.885 156.306C123.453 156.613 122.908 156.766 122.249 156.766C121.703 156.766 121.218 156.647 120.794 156.408C120.37 156.166 120.036 155.802 119.794 155.317C119.552 154.828 119.43 154.213 119.43 153.471V147.925H120.771V153.38C120.771 154.016 120.949 154.524 121.305 154.902C121.665 155.281 122.124 155.471 122.68 155.471C123.014 155.471 123.353 155.385 123.697 155.215C124.046 155.044 124.338 154.783 124.572 154.431C124.811 154.078 124.93 153.63 124.93 153.084ZM132.273 156.834C131.455 156.834 130.75 156.641 130.159 156.255C129.568 155.868 129.114 155.336 128.795 154.658C128.477 153.98 128.318 153.205 128.318 152.334C128.318 151.448 128.481 150.666 128.807 149.988C129.136 149.306 129.595 148.774 130.182 148.391C130.773 148.005 131.462 147.811 132.25 147.811C132.864 147.811 133.417 147.925 133.909 148.152C134.402 148.38 134.805 148.698 135.119 149.107C135.434 149.516 135.629 149.993 135.705 150.539H134.364C134.261 150.141 134.034 149.789 133.682 149.482C133.333 149.171 132.864 149.016 132.273 149.016C131.75 149.016 131.292 149.152 130.898 149.425C130.508 149.694 130.203 150.075 129.983 150.567C129.767 151.056 129.659 151.63 129.659 152.289C129.659 152.963 129.765 153.55 129.977 154.05C130.193 154.55 130.496 154.938 130.886 155.215C131.28 155.491 131.742 155.63 132.273 155.63C132.621 155.63 132.938 155.569 133.222 155.448C133.506 155.327 133.746 155.152 133.943 154.925C134.14 154.698 134.28 154.425 134.364 154.107H135.705C135.629 154.622 135.441 155.086 135.142 155.499C134.847 155.908 134.455 156.234 133.966 156.476C133.481 156.715 132.917 156.834 132.273 156.834ZM141.21 156.834C140.392 156.834 139.688 156.641 139.097 156.255C138.506 155.868 138.051 155.336 137.733 154.658C137.415 153.98 137.256 153.205 137.256 152.334C137.256 151.448 137.419 150.666 137.744 149.988C138.074 149.306 138.532 148.774 139.119 148.391C139.71 148.005 140.4 147.811 141.188 147.811C141.801 147.811 142.354 147.925 142.847 148.152C143.339 148.38 143.742 148.698 144.057 149.107C144.371 149.516 144.566 149.993 144.642 150.539H143.301C143.199 150.141 142.972 149.789 142.619 149.482C142.271 149.171 141.801 149.016 141.21 149.016C140.688 149.016 140.229 149.152 139.835 149.425C139.445 149.694 139.14 150.075 138.92 150.567C138.705 151.056 138.597 151.63 138.597 152.289C138.597 152.963 138.703 153.55 138.915 154.05C139.131 154.55 139.434 154.938 139.824 155.215C140.218 155.491 140.68 155.63 141.21 155.63C141.559 155.63 141.875 155.569 142.159 155.448C142.443 155.327 142.684 155.152 142.881 154.925C143.078 154.698 143.218 154.425 143.301 154.107H144.642C144.566 154.622 144.379 155.086 144.08 155.499C143.784 155.908 143.392 156.234 142.903 156.476C142.419 156.715 141.854 156.834 141.21 156.834ZM150.261 156.834C149.42 156.834 148.695 156.649 148.085 156.277C147.479 155.902 147.011 155.38 146.682 154.709C146.356 154.035 146.193 153.251 146.193 152.357C146.193 151.463 146.356 150.675 146.682 149.993C147.011 149.308 147.47 148.774 148.057 148.391C148.648 148.005 149.337 147.811 150.125 147.811C150.58 147.811 151.028 147.887 151.472 148.039C151.915 148.19 152.318 148.436 152.682 148.777C153.045 149.114 153.335 149.561 153.551 150.118C153.767 150.675 153.875 151.361 153.875 152.175V152.743H147.148V151.584H152.511C152.511 151.092 152.413 150.652 152.216 150.266C152.023 149.88 151.746 149.575 151.386 149.351C151.03 149.128 150.61 149.016 150.125 149.016C149.591 149.016 149.129 149.149 148.739 149.414C148.352 149.675 148.055 150.016 147.847 150.436C147.638 150.857 147.534 151.308 147.534 151.789V152.561C147.534 153.221 147.648 153.779 147.875 154.238C148.106 154.692 148.426 155.039 148.835 155.277C149.244 155.512 149.72 155.63 150.261 155.63C150.614 155.63 150.932 155.58 151.216 155.482C151.504 155.38 151.752 155.228 151.96 155.027C152.169 154.823 152.33 154.569 152.443 154.266L153.739 154.63C153.602 155.069 153.373 155.455 153.051 155.789C152.729 156.118 152.331 156.376 151.858 156.561C151.384 156.743 150.852 156.834 150.261 156.834ZM162.097 149.88L160.892 150.221C160.816 150.02 160.705 149.825 160.557 149.635C160.413 149.442 160.216 149.283 159.966 149.158C159.716 149.033 159.396 148.971 159.006 148.971C158.472 148.971 158.027 149.094 157.67 149.34C157.318 149.582 157.142 149.891 157.142 150.266C157.142 150.599 157.263 150.863 157.506 151.056C157.748 151.249 158.127 151.41 158.642 151.539L159.938 151.857C160.718 152.046 161.299 152.336 161.682 152.726C162.064 153.113 162.256 153.611 162.256 154.221C162.256 154.721 162.112 155.167 161.824 155.561C161.54 155.955 161.142 156.266 160.631 156.493C160.119 156.721 159.525 156.834 158.847 156.834C157.956 156.834 157.22 156.641 156.636 156.255C156.053 155.868 155.684 155.304 155.528 154.561L156.801 154.243C156.922 154.713 157.152 155.065 157.489 155.3C157.83 155.535 158.275 155.652 158.824 155.652C159.449 155.652 159.945 155.52 160.312 155.255C160.684 154.986 160.869 154.664 160.869 154.289C160.869 153.986 160.763 153.732 160.551 153.527C160.339 153.319 160.013 153.164 159.574 153.061L158.119 152.721C157.32 152.531 156.733 152.238 156.358 151.84C155.987 151.438 155.801 150.936 155.801 150.334C155.801 149.842 155.939 149.406 156.216 149.027C156.496 148.649 156.877 148.351 157.358 148.135C157.843 147.919 158.392 147.811 159.006 147.811C159.869 147.811 160.547 148.001 161.04 148.38C161.536 148.758 161.888 149.258 162.097 149.88ZM170.456 149.88L169.251 150.221C169.176 150.02 169.064 149.825 168.916 149.635C168.772 149.442 168.575 149.283 168.325 149.158C168.075 149.033 167.755 148.971 167.365 148.971C166.831 148.971 166.386 149.094 166.03 149.34C165.678 149.582 165.501 149.891 165.501 150.266C165.501 150.599 165.623 150.863 165.865 151.056C166.107 151.249 166.486 151.41 167.001 151.539L168.297 151.857C169.077 152.046 169.659 152.336 170.041 152.726C170.424 153.113 170.615 153.611 170.615 154.221C170.615 154.721 170.471 155.167 170.183 155.561C169.899 155.955 169.501 156.266 168.99 156.493C168.479 156.721 167.884 156.834 167.206 156.834C166.316 156.834 165.579 156.641 164.996 156.255C164.412 155.868 164.043 155.304 163.888 154.561L165.161 154.243C165.282 154.713 165.511 155.065 165.848 155.3C166.189 155.535 166.634 155.652 167.183 155.652C167.808 155.652 168.304 155.52 168.672 155.255C169.043 154.986 169.229 154.664 169.229 154.289C169.229 153.986 169.123 153.732 168.911 153.527C168.698 153.319 168.373 153.164 167.933 153.061L166.479 152.721C165.679 152.531 165.092 152.238 164.717 151.84C164.346 151.438 164.161 150.936 164.161 150.334C164.161 149.842 164.299 149.406 164.575 149.027C164.856 148.649 165.236 148.351 165.717 148.135C166.202 147.919 166.751 147.811 167.365 147.811C168.229 147.811 168.907 148.001 169.399 148.38C169.895 148.758 170.248 149.258 170.456 149.88ZM177.315 156.652V145.016H181.247C182.156 145.016 182.902 145.171 183.486 145.482C184.069 145.789 184.501 146.211 184.781 146.749C185.062 147.287 185.202 147.899 185.202 148.584C185.202 149.27 185.062 149.878 184.781 150.408C184.501 150.938 184.071 151.355 183.491 151.658C182.912 151.957 182.171 152.107 181.27 152.107H178.088V150.834H181.224C181.846 150.834 182.346 150.743 182.724 150.561C183.107 150.38 183.384 150.122 183.554 149.789C183.728 149.452 183.815 149.05 183.815 148.584C183.815 148.118 183.728 147.711 183.554 147.363C183.38 147.014 183.101 146.745 182.719 146.556C182.336 146.363 181.83 146.266 181.202 146.266H178.724V156.652H177.315ZM182.793 151.425L185.656 156.652H184.02L181.202 151.425H182.793ZM189.936 156.857C189.383 156.857 188.881 156.753 188.43 156.544C187.98 156.332 187.622 156.027 187.357 155.63C187.091 155.228 186.959 154.743 186.959 154.175C186.959 153.675 187.057 153.27 187.254 152.959C187.451 152.645 187.714 152.399 188.044 152.221C188.374 152.042 188.737 151.91 189.135 151.823C189.536 151.732 189.94 151.66 190.345 151.607C190.875 151.539 191.305 151.488 191.635 151.453C191.968 151.416 192.211 151.353 192.362 151.266C192.518 151.179 192.595 151.027 192.595 150.811V150.766C192.595 150.205 192.442 149.77 192.135 149.459C191.832 149.149 191.372 148.993 190.754 148.993C190.114 148.993 189.612 149.133 189.249 149.414C188.885 149.694 188.629 149.993 188.482 150.311L187.209 149.857C187.436 149.327 187.739 148.914 188.118 148.618C188.5 148.319 188.917 148.111 189.368 147.993C189.822 147.872 190.269 147.811 190.709 147.811C190.989 147.811 191.311 147.846 191.675 147.914C192.042 147.978 192.396 148.113 192.737 148.317C193.082 148.522 193.368 148.83 193.595 149.243C193.822 149.656 193.936 150.209 193.936 150.902V156.652H192.595V155.471H192.527C192.436 155.66 192.285 155.863 192.072 156.078C191.86 156.294 191.578 156.478 191.226 156.63C190.874 156.781 190.444 156.857 189.936 156.857ZM190.141 155.652C190.671 155.652 191.118 155.548 191.482 155.34C191.849 155.132 192.125 154.863 192.311 154.533C192.5 154.203 192.595 153.857 192.595 153.493V152.266C192.538 152.334 192.413 152.397 192.22 152.453C192.031 152.507 191.811 152.554 191.561 152.596C191.315 152.633 191.074 152.667 190.839 152.698C190.608 152.724 190.421 152.747 190.277 152.766C189.929 152.811 189.603 152.885 189.3 152.988C189 153.086 188.758 153.236 188.572 153.436C188.391 153.633 188.3 153.902 188.3 154.243C188.3 154.709 188.472 155.061 188.817 155.3C189.165 155.535 189.607 155.652 190.141 155.652ZM200.179 147.925V149.061H195.656V147.925H200.179ZM196.974 145.834H198.315V154.152C198.315 154.531 198.37 154.815 198.48 155.005C198.594 155.19 198.738 155.315 198.912 155.38C199.09 155.44 199.277 155.471 199.474 155.471C199.622 155.471 199.743 155.463 199.838 155.448C199.933 155.429 200.009 155.414 200.065 155.402L200.338 156.607C200.247 156.641 200.12 156.675 199.957 156.709C199.795 156.747 199.588 156.766 199.338 156.766C198.959 156.766 198.588 156.685 198.224 156.522C197.865 156.359 197.565 156.111 197.327 155.777C197.092 155.444 196.974 155.024 196.974 154.516V145.834ZM205.761 156.834C204.92 156.834 204.195 156.649 203.585 156.277C202.979 155.902 202.511 155.38 202.182 154.709C201.856 154.035 201.693 153.251 201.693 152.357C201.693 151.463 201.856 150.675 202.182 149.993C202.511 149.308 202.97 148.774 203.557 148.391C204.148 148.005 204.837 147.811 205.625 147.811C206.08 147.811 206.528 147.887 206.972 148.039C207.415 148.19 207.818 148.436 208.182 148.777C208.545 149.114 208.835 149.561 209.051 150.118C209.267 150.675 209.375 151.361 209.375 152.175V152.743H202.648V151.584H208.011C208.011 151.092 207.913 150.652 207.716 150.266C207.523 149.88 207.246 149.575 206.886 149.351C206.53 149.128 206.11 149.016 205.625 149.016C205.091 149.016 204.629 149.149 204.239 149.414C203.852 149.675 203.555 150.016 203.347 150.436C203.138 150.857 203.034 151.308 203.034 151.789V152.561C203.034 153.221 203.148 153.779 203.375 154.238C203.606 154.692 203.926 155.039 204.335 155.277C204.744 155.512 205.22 155.63 205.761 155.63C206.114 155.63 206.432 155.58 206.716 155.482C207.004 155.38 207.252 155.228 207.46 155.027C207.669 154.823 207.83 154.569 207.943 154.266L209.239 154.63C209.102 155.069 208.873 155.455 208.551 155.789C208.229 156.118 207.831 156.376 207.358 156.561C206.884 156.743 206.352 156.834 205.761 156.834Z" fill="#2C2D2F"></path><path d="M114.619 127.851C113.923 127.846 113.244 127.726 112.581 127.489C111.918 127.248 111.321 126.857 110.791 126.317C110.261 125.773 109.839 125.051 109.527 124.151C109.214 123.247 109.061 122.127 109.065 120.792C109.065 119.546 109.198 118.436 109.463 117.461C109.728 116.485 110.109 115.661 110.607 114.989C111.104 114.312 111.703 113.796 112.403 113.441C113.109 113.086 113.897 112.908 114.768 112.908C115.682 112.908 116.492 113.088 117.197 113.448C117.908 113.808 118.481 114.3 118.916 114.925C119.352 115.545 119.622 116.246 119.726 117.027H117.134C117.001 116.469 116.729 116.024 116.317 115.692C115.91 115.356 115.393 115.188 114.768 115.188C113.76 115.188 112.983 115.626 112.439 116.502C111.899 117.378 111.627 118.58 111.622 120.11H111.722C111.954 119.693 112.254 119.336 112.624 119.037C112.993 118.739 113.41 118.509 113.874 118.348C114.342 118.183 114.837 118.1 115.358 118.1C116.21 118.1 116.975 118.303 117.652 118.711C118.334 119.118 118.874 119.679 119.271 120.394C119.669 121.104 119.866 121.918 119.861 122.837C119.866 123.793 119.648 124.653 119.207 125.415C118.767 126.173 118.154 126.769 117.368 127.205C116.582 127.641 115.666 127.856 114.619 127.851ZM114.605 125.721C115.121 125.721 115.583 125.595 115.99 125.344C116.397 125.093 116.719 124.755 116.956 124.328C117.193 123.902 117.309 123.424 117.304 122.894C117.309 122.373 117.195 121.902 116.963 121.48C116.736 121.059 116.421 120.725 116.018 120.479C115.616 120.233 115.157 120.11 114.641 120.11C114.257 120.11 113.9 120.183 113.568 120.33C113.237 120.477 112.948 120.68 112.702 120.941C112.455 121.196 112.261 121.495 112.119 121.836C111.982 122.172 111.911 122.532 111.906 122.915C111.911 123.422 112.029 123.888 112.261 124.314C112.493 124.74 112.813 125.081 113.22 125.337C113.627 125.593 114.089 125.721 114.605 125.721ZM121.999 124.953V122.858L128.17 113.107H129.918V116.09H128.852L124.697 122.674V122.787H133.312V124.953H121.999ZM128.938 127.652V124.314L128.966 123.377V113.107H131.452V127.652H128.938ZM143.359 124.925V124.158C143.359 123.595 143.477 123.076 143.714 122.603C143.955 122.129 144.306 121.748 144.765 121.459C145.224 121.17 145.781 121.026 146.434 121.026C147.106 121.026 147.67 121.17 148.124 121.459C148.579 121.743 148.922 122.122 149.154 122.596C149.391 123.069 149.509 123.59 149.509 124.158V124.925C149.509 125.489 149.391 126.007 149.154 126.48C148.917 126.954 148.569 127.335 148.11 127.624C147.656 127.913 147.097 128.057 146.434 128.057C145.771 128.057 145.21 127.913 144.751 127.624C144.291 127.335 143.943 126.954 143.707 126.48C143.475 126.007 143.359 125.489 143.359 124.925ZM145.212 124.158V124.925C145.212 125.299 145.302 125.642 145.482 125.955C145.662 126.267 145.979 126.424 146.434 126.424C146.893 126.424 147.208 126.27 147.379 125.962C147.554 125.65 147.641 125.304 147.641 124.925V124.158C147.641 123.779 147.558 123.434 147.393 123.121C147.227 122.804 146.907 122.645 146.434 122.645C145.989 122.645 145.674 122.804 145.489 123.121C145.305 123.434 145.212 123.779 145.212 124.158ZM135.965 116.601V115.834C135.965 115.266 136.086 114.745 136.327 114.272C136.569 113.798 136.919 113.419 137.379 113.135C137.838 112.846 138.394 112.702 139.048 112.702C139.715 112.702 140.276 112.846 140.731 113.135C141.19 113.419 141.536 113.798 141.768 114.272C142 114.745 142.116 115.266 142.116 115.834V116.601C142.116 117.169 141.997 117.69 141.761 118.164C141.529 118.632 141.183 119.009 140.724 119.293C140.264 119.577 139.706 119.719 139.048 119.719C138.38 119.719 137.817 119.577 137.357 119.293C136.903 119.009 136.557 118.63 136.32 118.157C136.084 117.683 135.965 117.165 135.965 116.601ZM137.833 115.834V116.601C137.833 116.98 137.921 117.326 138.096 117.638C138.276 117.946 138.593 118.1 139.048 118.1C139.502 118.1 139.815 117.946 139.985 117.638C140.16 117.326 140.248 116.98 140.248 116.601V115.834C140.248 115.455 140.165 115.11 139.999 114.797C139.834 114.48 139.516 114.321 139.048 114.321C138.598 114.321 138.283 114.48 138.103 114.797C137.923 115.114 137.833 115.46 137.833 115.834ZM136.775 127.652L146.775 113.107H148.55L138.55 127.652H136.775Z" fill="black"></path><rect x="35" y="106.652" width="55" height="55" rx="8" fill="#EE5622"></rect><path d="M62.4996 129.264V145.153M62.4996 129.264C62.4996 129.264 62.4996 127.439 62.4996 126.819C62.4996 125.469 63.594 124.375 64.9441 124.375C66.2941 124.375 67.3885 125.469 67.3885 126.819C67.3885 128.17 66.2941 129.264 64.9441 129.264C64.214 129.264 62.4996 129.264 62.4996 129.264ZM62.4996 129.264C62.4996 129.264 62.4996 126.896 62.4996 126.208C62.4996 124.521 61.1316 123.153 59.4441 123.153C57.7565 123.153 56.3885 124.521 56.3885 126.208C56.3885 127.896 57.7565 129.264 59.4441 129.264C60.4436 129.264 62.4996 129.264 62.4996 129.264ZM53.9441 134.153H71.0552M53.9441 134.153C52.594 134.153 51.4996 133.058 51.4996 131.708C51.4996 130.358 52.594 129.264 53.9441 129.264H71.0552C72.4052 129.264 73.4996 130.358 73.4996 131.708C73.4996 133.058 72.4052 134.153 71.0552 134.153M53.9441 134.153L53.9441 142.708C53.9441 144.058 55.0385 145.153 56.3885 145.153H68.6107C69.9608 145.153 71.0552 144.058 71.0552 142.708V134.153" stroke="white" stroke-width="2.5" stroke-linecap="round" stroke-linejoin="round"></path><path d="M109.409 242.652V231.016H113.341C114.25 231.016 114.996 231.171 115.58 231.482C116.163 231.789 116.595 232.211 116.875 232.749C117.155 233.287 117.295 233.899 117.295 234.584C117.295 235.27 117.155 235.878 116.875 236.408C116.595 236.938 116.165 237.355 115.585 237.658C115.006 237.957 114.265 238.107 113.364 238.107H110.182V236.834H113.318C113.939 236.834 114.439 236.743 114.818 236.561C115.201 236.38 115.477 236.122 115.648 235.789C115.822 235.452 115.909 235.05 115.909 234.584C115.909 234.118 115.822 233.711 115.648 233.363C115.473 233.014 115.195 232.745 114.812 232.556C114.43 232.363 113.924 232.266 113.295 232.266H110.818V242.652H109.409ZM114.886 237.425L117.75 242.652H116.114L113.295 237.425H114.886ZM123.027 242.834C122.186 242.834 121.461 242.649 120.851 242.277C120.245 241.902 119.777 241.38 119.447 240.709C119.122 240.035 118.959 239.251 118.959 238.357C118.959 237.463 119.122 236.675 119.447 235.993C119.777 235.308 120.235 234.774 120.822 234.391C121.413 234.005 122.103 233.811 122.891 233.811C123.345 233.811 123.794 233.887 124.237 234.039C124.68 234.19 125.084 234.436 125.447 234.777C125.811 235.114 126.101 235.561 126.317 236.118C126.533 236.675 126.641 237.361 126.641 238.175V238.743H119.913V237.584H125.277C125.277 237.092 125.179 236.652 124.982 236.266C124.788 235.88 124.512 235.575 124.152 235.351C123.796 235.128 123.375 235.016 122.891 235.016C122.357 235.016 121.894 235.149 121.504 235.414C121.118 235.675 120.821 236.016 120.612 236.436C120.404 236.857 120.3 237.308 120.3 237.789V238.561C120.3 239.221 120.413 239.779 120.641 240.238C120.872 240.692 121.192 241.039 121.601 241.277C122.01 241.512 122.485 241.63 123.027 241.63C123.379 241.63 123.697 241.58 123.982 241.482C124.269 241.38 124.518 241.228 124.726 241.027C124.934 240.823 125.095 240.569 125.209 240.266L126.504 240.63C126.368 241.069 126.139 241.455 125.817 241.789C125.495 242.118 125.097 242.376 124.624 242.561C124.15 242.743 123.618 242.834 123.027 242.834ZM128.68 245.925V233.925H129.976V235.311H130.135C130.233 235.16 130.37 234.967 130.544 234.732C130.722 234.493 130.976 234.281 131.305 234.096C131.639 233.906 132.089 233.811 132.658 233.811C133.393 233.811 134.04 233.995 134.601 234.363C135.161 234.73 135.599 235.251 135.913 235.925C136.228 236.599 136.385 237.395 136.385 238.311C136.385 239.236 136.228 240.037 135.913 240.715C135.599 241.389 135.163 241.912 134.607 242.283C134.05 242.65 133.408 242.834 132.68 242.834C132.12 242.834 131.671 242.741 131.334 242.556C130.997 242.366 130.737 242.152 130.555 241.914C130.374 241.671 130.233 241.471 130.135 241.311H130.021V245.925H128.68ZM129.999 238.289C129.999 238.948 130.095 239.529 130.288 240.033C130.482 240.533 130.764 240.925 131.135 241.209C131.506 241.489 131.961 241.63 132.499 241.63C133.059 241.63 133.527 241.482 133.902 241.186C134.281 240.887 134.565 240.486 134.754 239.982C134.947 239.474 135.044 238.91 135.044 238.289C135.044 237.675 134.949 237.122 134.76 236.63C134.574 236.133 134.292 235.741 133.913 235.453C133.538 235.162 133.067 235.016 132.499 235.016C131.953 235.016 131.495 235.154 131.124 235.431C130.752 235.703 130.472 236.086 130.283 236.578C130.093 237.067 129.999 237.637 129.999 238.289ZM142.089 242.834C141.249 242.834 140.523 242.649 139.913 242.277C139.307 241.902 138.839 241.38 138.51 240.709C138.184 240.035 138.021 239.251 138.021 238.357C138.021 237.463 138.184 236.675 138.51 235.993C138.839 235.308 139.298 234.774 139.885 234.391C140.476 234.005 141.165 233.811 141.953 233.811C142.408 233.811 142.857 233.887 143.3 234.039C143.743 234.19 144.146 234.436 144.51 234.777C144.874 235.114 145.163 235.561 145.379 236.118C145.595 236.675 145.703 237.361 145.703 238.175V238.743H138.976V237.584H144.339C144.339 237.092 144.241 236.652 144.044 236.266C143.851 235.88 143.574 235.575 143.214 235.351C142.858 235.128 142.438 235.016 141.953 235.016C141.419 235.016 140.957 235.149 140.567 235.414C140.18 235.675 139.883 236.016 139.675 236.436C139.466 236.857 139.362 237.308 139.362 237.789V238.561C139.362 239.221 139.476 239.779 139.703 240.238C139.934 240.692 140.254 241.039 140.663 241.277C141.072 241.512 141.548 241.63 142.089 241.63C142.442 241.63 142.76 241.58 143.044 241.482C143.332 241.38 143.58 241.228 143.788 241.027C143.997 240.823 144.158 240.569 144.271 240.266L145.567 240.63C145.43 241.069 145.201 241.455 144.879 241.789C144.557 242.118 144.16 242.376 143.686 242.561C143.213 242.743 142.68 242.834 142.089 242.834ZM150.311 242.857C149.758 242.857 149.256 242.753 148.805 242.544C148.355 242.332 147.997 242.027 147.732 241.63C147.466 241.228 147.334 240.743 147.334 240.175C147.334 239.675 147.432 239.27 147.629 238.959C147.826 238.645 148.089 238.399 148.419 238.221C148.749 238.042 149.112 237.91 149.51 237.823C149.911 237.732 150.315 237.66 150.72 237.607C151.25 237.539 151.68 237.488 152.01 237.453C152.343 237.416 152.586 237.353 152.737 237.266C152.893 237.179 152.97 237.027 152.97 236.811V236.766C152.97 236.205 152.817 235.77 152.51 235.459C152.207 235.149 151.747 234.993 151.129 234.993C150.489 234.993 149.987 235.133 149.624 235.414C149.26 235.694 149.004 235.993 148.857 236.311L147.584 235.857C147.811 235.327 148.114 234.914 148.493 234.618C148.875 234.319 149.292 234.111 149.743 233.993C150.197 233.872 150.644 233.811 151.084 233.811C151.364 233.811 151.686 233.846 152.05 233.914C152.417 233.978 152.771 234.113 153.112 234.317C153.457 234.522 153.743 234.83 153.97 235.243C154.197 235.656 154.311 236.209 154.311 236.902V242.652H152.97V241.471H152.902C152.811 241.66 152.66 241.863 152.447 242.078C152.235 242.294 151.953 242.478 151.601 242.63C151.249 242.781 150.819 242.857 150.311 242.857ZM150.516 241.652C151.046 241.652 151.493 241.548 151.857 241.34C152.224 241.132 152.5 240.863 152.686 240.533C152.875 240.203 152.97 239.857 152.97 239.493V238.266C152.913 238.334 152.788 238.397 152.595 238.453C152.406 238.507 152.186 238.554 151.936 238.596C151.69 238.633 151.449 238.667 151.214 238.698C150.983 238.724 150.796 238.747 150.652 238.766C150.304 238.811 149.978 238.885 149.675 238.988C149.375 239.086 149.133 239.236 148.947 239.436C148.766 239.633 148.675 239.902 148.675 240.243C148.675 240.709 148.847 241.061 149.192 241.3C149.54 241.535 149.982 241.652 150.516 241.652ZM160.554 233.925V235.061H156.031V233.925H160.554ZM157.349 231.834H158.69V240.152C158.69 240.531 158.745 240.815 158.855 241.005C158.969 241.19 159.113 241.315 159.287 241.38C159.465 241.44 159.652 241.471 159.849 241.471C159.997 241.471 160.118 241.463 160.213 241.448C160.308 241.429 160.384 241.414 160.44 241.402L160.713 242.607C160.622 242.641 160.495 242.675 160.332 242.709C160.17 242.747 159.963 242.766 159.713 242.766C159.334 242.766 158.963 242.685 158.599 242.522C158.24 242.359 157.94 242.111 157.702 241.777C157.467 241.444 157.349 241.024 157.349 240.516V231.834ZM173.616 233.925C173.548 233.349 173.272 232.902 172.787 232.584C172.302 232.266 171.707 232.107 171.003 232.107C170.488 232.107 170.037 232.19 169.651 232.357C169.268 232.524 168.969 232.753 168.753 233.044C168.541 233.336 168.435 233.667 168.435 234.039C168.435 234.349 168.509 234.616 168.656 234.84C168.808 235.06 169.001 235.243 169.236 235.391C169.471 235.535 169.717 235.654 169.974 235.749C170.232 235.84 170.469 235.914 170.685 235.971L171.866 236.289C172.17 236.368 172.507 236.478 172.878 236.618C173.253 236.758 173.611 236.95 173.952 237.192C174.296 237.431 174.58 237.738 174.804 238.113C175.027 238.488 175.139 238.948 175.139 239.493C175.139 240.122 174.974 240.69 174.645 241.198C174.319 241.705 173.842 242.109 173.213 242.408C172.588 242.707 171.829 242.857 170.935 242.857C170.101 242.857 169.38 242.722 168.77 242.453C168.164 242.185 167.687 241.81 167.338 241.328C166.993 240.847 166.798 240.289 166.753 239.652H168.207C168.245 240.092 168.393 240.455 168.651 240.743C168.912 241.027 169.241 241.239 169.639 241.38C170.041 241.516 170.473 241.584 170.935 241.584C171.473 241.584 171.955 241.497 172.384 241.323C172.812 241.145 173.151 240.899 173.401 240.584C173.651 240.266 173.776 239.895 173.776 239.471C173.776 239.084 173.668 238.77 173.452 238.527C173.236 238.285 172.952 238.088 172.599 237.936C172.247 237.785 171.866 237.652 171.457 237.539L170.026 237.13C169.116 236.868 168.397 236.495 167.866 236.01C167.336 235.525 167.071 234.891 167.071 234.107C167.071 233.455 167.247 232.887 167.599 232.402C167.955 231.914 168.433 231.535 169.031 231.266C169.634 230.993 170.306 230.857 171.048 230.857C171.798 230.857 172.465 230.991 173.048 231.26C173.632 231.525 174.094 231.889 174.435 232.351C174.779 232.813 174.961 233.338 174.98 233.925H173.616ZM180.933 242.834C180.092 242.834 179.367 242.649 178.757 242.277C178.151 241.902 177.683 241.38 177.354 240.709C177.028 240.035 176.865 239.251 176.865 238.357C176.865 237.463 177.028 236.675 177.354 235.993C177.683 235.308 178.142 234.774 178.729 234.391C179.32 234.005 180.009 233.811 180.797 233.811C181.251 233.811 181.7 233.887 182.143 234.039C182.587 234.19 182.99 234.436 183.354 234.777C183.717 235.114 184.007 235.561 184.223 236.118C184.439 236.675 184.547 237.361 184.547 238.175V238.743H177.82V237.584H183.183C183.183 237.092 183.085 236.652 182.888 236.266C182.695 235.88 182.418 235.575 182.058 235.351C181.702 235.128 181.282 235.016 180.797 235.016C180.263 235.016 179.801 235.149 179.411 235.414C179.024 235.675 178.727 236.016 178.518 236.436C178.31 236.857 178.206 237.308 178.206 237.789V238.561C178.206 239.221 178.32 239.779 178.547 240.238C178.778 240.692 179.098 241.039 179.507 241.277C179.916 241.512 180.392 241.63 180.933 241.63C181.286 241.63 181.604 241.58 181.888 241.482C182.176 241.38 182.424 241.228 182.632 241.027C182.84 240.823 183.001 240.569 183.115 240.266L184.411 240.63C184.274 241.069 184.045 241.455 183.723 241.789C183.401 242.118 183.003 242.376 182.53 242.561C182.056 242.743 181.524 242.834 180.933 242.834ZM186.587 242.652V233.925H187.882V235.243H187.973C188.132 234.811 188.42 234.461 188.837 234.192C189.253 233.923 189.723 233.789 190.246 233.789C190.344 233.789 190.467 233.791 190.615 233.794C190.763 233.798 190.875 233.804 190.95 233.811V235.175C190.905 235.164 190.801 235.147 190.638 235.124C190.479 235.097 190.31 235.084 190.132 235.084C189.708 235.084 189.329 235.173 188.996 235.351C188.666 235.525 188.405 235.768 188.212 236.078C188.022 236.385 187.928 236.736 187.928 237.13V242.652H186.587ZM199.942 233.925L196.714 242.652H195.351L192.124 233.925H193.578L195.987 240.88H196.078L198.487 233.925H199.942ZM201.712 242.652V233.925H203.053V242.652H201.712ZM202.393 232.471C202.132 232.471 201.907 232.382 201.717 232.203C201.532 232.025 201.439 231.811 201.439 231.561C201.439 231.311 201.532 231.097 201.717 230.919C201.907 230.741 202.132 230.652 202.393 230.652C202.655 230.652 202.878 230.741 203.064 230.919C203.253 231.097 203.348 231.311 203.348 231.561C203.348 231.811 203.253 232.025 203.064 232.203C202.878 232.382 202.655 232.471 202.393 232.471ZM209.054 242.834C208.236 242.834 207.531 242.641 206.94 242.255C206.349 241.868 205.895 241.336 205.577 240.658C205.259 239.98 205.099 239.205 205.099 238.334C205.099 237.448 205.262 236.666 205.588 235.988C205.918 235.306 206.376 234.774 206.963 234.391C207.554 234.005 208.243 233.811 209.031 233.811C209.645 233.811 210.198 233.925 210.69 234.152C211.183 234.38 211.586 234.698 211.901 235.107C212.215 235.516 212.41 235.993 212.486 236.539H211.145C211.043 236.141 210.815 235.789 210.463 235.482C210.115 235.171 209.645 235.016 209.054 235.016C208.531 235.016 208.073 235.152 207.679 235.425C207.289 235.694 206.984 236.075 206.764 236.567C206.548 237.056 206.44 237.63 206.44 238.289C206.44 238.963 206.546 239.55 206.759 240.05C206.974 240.55 207.277 240.938 207.668 241.215C208.062 241.491 208.524 241.63 209.054 241.63C209.402 241.63 209.719 241.569 210.003 241.448C210.287 241.327 210.527 241.152 210.724 240.925C210.921 240.698 211.062 240.425 211.145 240.107H212.486C212.41 240.622 212.223 241.086 211.923 241.499C211.628 241.908 211.236 242.234 210.747 242.476C210.262 242.715 209.698 242.834 209.054 242.834ZM218.105 242.834C217.264 242.834 216.539 242.649 215.929 242.277C215.323 241.902 214.855 241.38 214.526 240.709C214.2 240.035 214.037 239.251 214.037 238.357C214.037 237.463 214.2 236.675 214.526 235.993C214.855 235.308 215.313 234.774 215.901 234.391C216.491 234.005 217.181 233.811 217.969 233.811C218.423 233.811 218.872 233.887 219.315 234.039C219.759 234.19 220.162 234.436 220.526 234.777C220.889 235.114 221.179 235.561 221.395 236.118C221.611 236.675 221.719 237.361 221.719 238.175V238.743H214.991V237.584H220.355C220.355 237.092 220.257 236.652 220.06 236.266C219.866 235.88 219.59 235.575 219.23 235.351C218.874 235.128 218.454 235.016 217.969 235.016C217.435 235.016 216.973 235.149 216.582 235.414C216.196 235.675 215.899 236.016 215.69 236.436C215.482 236.857 215.378 237.308 215.378 237.789V238.561C215.378 239.221 215.491 239.779 215.719 240.238C215.95 240.692 216.27 241.039 216.679 241.277C217.088 241.512 217.563 241.63 218.105 241.63C218.457 241.63 218.776 241.58 219.06 241.482C219.348 241.38 219.596 241.228 219.804 241.027C220.012 240.823 220.173 240.569 220.287 240.266L221.582 240.63C221.446 241.069 221.217 241.455 220.895 241.789C220.573 242.118 220.175 242.376 219.702 242.561C219.228 242.743 218.696 242.834 218.105 242.834Z" fill="#2C2D2F"></path><path d="M109.293 213.652V211.749L114.342 206.799C114.825 206.311 115.228 205.878 115.55 205.499C115.872 205.12 116.113 204.753 116.274 204.398C116.435 204.043 116.516 203.664 116.516 203.262C116.516 202.802 116.411 202.409 116.203 202.083C115.995 201.751 115.708 201.496 115.344 201.316C114.979 201.136 114.565 201.046 114.101 201.046C113.623 201.046 113.204 201.145 112.844 201.344C112.484 201.538 112.205 201.815 112.006 202.175C111.812 202.535 111.714 202.963 111.714 203.461H109.207C109.207 202.537 109.418 201.735 109.839 201.053C110.261 200.371 110.841 199.843 111.58 199.469C112.323 199.095 113.175 198.908 114.136 198.908C115.112 198.908 115.969 199.09 116.707 199.455C117.446 199.819 118.019 200.319 118.426 200.953C118.838 201.588 119.044 202.312 119.044 203.127C119.044 203.671 118.94 204.206 118.732 204.732C118.523 205.257 118.156 205.84 117.631 206.479C117.11 207.118 116.378 207.892 115.436 208.801L112.929 211.351V211.451H119.264V213.652H109.293ZM126.764 198.908C127.46 198.913 128.137 199.036 128.795 199.277C129.458 199.514 130.055 199.902 130.585 200.442C131.116 200.977 131.537 201.694 131.849 202.594C132.162 203.494 132.318 204.606 132.318 205.932C132.323 207.182 132.19 208.3 131.92 209.284C131.655 210.265 131.274 211.093 130.777 211.77C130.28 212.447 129.681 212.963 128.98 213.319C128.279 213.674 127.491 213.851 126.615 213.851C125.696 213.851 124.882 213.671 124.172 213.311C123.466 212.952 122.896 212.459 122.46 211.834C122.025 211.209 121.757 210.494 121.658 209.689H124.25C124.383 210.267 124.652 210.726 125.06 211.067C125.472 211.403 125.99 211.571 126.615 211.571C127.624 211.571 128.4 211.133 128.945 210.257C129.489 209.382 129.761 208.165 129.761 206.607H129.662C129.43 207.024 129.129 207.383 128.76 207.686C128.391 207.985 127.972 208.214 127.503 208.375C127.039 208.536 126.546 208.617 126.026 208.617C125.173 208.617 124.406 208.413 123.724 208.006C123.047 207.599 122.51 207.04 122.112 206.33C121.719 205.62 121.52 204.808 121.516 203.894C121.516 202.947 121.733 202.097 122.169 201.344C122.609 200.587 123.223 199.99 124.009 199.554C124.795 199.114 125.713 198.899 126.764 198.908ZM126.771 201.039C126.26 201.039 125.798 201.164 125.386 201.415C124.979 201.661 124.657 201.998 124.42 202.424C124.188 202.845 124.072 203.316 124.072 203.837C124.077 204.353 124.193 204.822 124.42 205.243C124.652 205.665 124.967 205.998 125.365 206.245C125.768 206.491 126.227 206.614 126.743 206.614C127.126 206.614 127.484 206.541 127.815 206.394C128.147 206.247 128.436 206.043 128.682 205.783C128.933 205.518 129.127 205.217 129.264 204.881C129.406 204.545 129.475 204.19 129.47 203.816C129.47 203.319 129.352 202.859 129.115 202.438C128.883 202.016 128.563 201.678 128.156 201.422C127.754 201.167 127.292 201.039 126.771 201.039ZM142.46 210.925V210.158C142.46 209.595 142.579 209.076 142.815 208.603C143.057 208.129 143.407 207.748 143.866 207.459C144.326 207.17 144.882 207.026 145.536 207.026C146.208 207.026 146.771 207.17 147.226 207.459C147.68 207.743 148.024 208.122 148.256 208.596C148.492 209.069 148.611 209.59 148.611 210.158V210.925C148.611 211.489 148.492 212.007 148.256 212.48C148.019 212.954 147.671 213.335 147.212 213.624C146.757 213.913 146.198 214.057 145.536 214.057C144.873 214.057 144.312 213.913 143.852 213.624C143.393 213.335 143.045 212.954 142.808 212.48C142.576 212.007 142.46 211.489 142.46 210.925ZM144.314 210.158V210.925C144.314 211.299 144.404 211.642 144.584 211.955C144.764 212.267 145.081 212.424 145.536 212.424C145.995 212.424 146.31 212.27 146.48 211.962C146.655 211.65 146.743 211.304 146.743 210.925V210.158C146.743 209.779 146.66 209.434 146.494 209.121C146.329 208.804 146.009 208.645 145.536 208.645C145.09 208.645 144.776 208.804 144.591 209.121C144.406 209.434 144.314 209.779 144.314 210.158ZM135.067 202.601V201.834C135.067 201.266 135.188 200.745 135.429 200.272C135.67 199.798 136.021 199.419 136.48 199.135C136.939 198.846 137.496 198.702 138.149 198.702C138.817 198.702 139.378 198.846 139.832 199.135C140.292 199.419 140.637 199.798 140.869 200.272C141.101 200.745 141.217 201.266 141.217 201.834V202.601C141.217 203.169 141.099 203.69 140.862 204.164C140.63 204.632 140.285 205.009 139.825 205.293C139.366 205.577 138.807 205.719 138.149 205.719C137.482 205.719 136.918 205.577 136.459 205.293C136.004 205.009 135.659 204.63 135.422 204.157C135.185 203.683 135.067 203.165 135.067 202.601ZM136.935 201.834V202.601C136.935 202.98 137.022 203.326 137.197 203.638C137.377 203.946 137.695 204.1 138.149 204.1C138.604 204.1 138.916 203.946 139.087 203.638C139.262 203.326 139.349 202.98 139.349 202.601V201.834C139.349 201.455 139.267 201.11 139.101 200.797C138.935 200.48 138.618 200.321 138.149 200.321C137.699 200.321 137.384 200.48 137.205 200.797C137.025 201.114 136.935 201.46 136.935 201.834ZM135.876 213.652L145.876 199.107H147.652L137.652 213.652H135.876Z" fill="black"></path><rect x="35" y="192.652" width="55" height="55" rx="8" fill="#EE5622"></rect><path d="M57.6108 214.042L72.2775 214.042M72.2775 214.042L67.3886 209.153M72.2775 214.042L67.3886 218.931M67.3886 226.264L52.7219 226.264M52.7219 226.264L57.6108 231.153M52.7219 226.264L57.6108 221.375" stroke="white" stroke-width="2.5" stroke-linecap="round" stroke-linejoin="round"></path></svg>