<svg xmlns="http://www.w3.org/2000/svg" width="222" height="129" viewBox="0 0 222 129" fill="none"><path d="M42.8798 119.994C40.4539 119.495 38.3313 119.058 36.2087 118.621C27.3791 116.678 18.9305 113.483 11.6807 107.811C1.77966 100.265 -1.89542 89.7571 1.28201 77.5569C2.88368 71.2379 6.01149 65.8028 9.95126 60.7248C17.769 50.8727 27.5079 43.3788 38.0328 36.68C53.4731 26.9402 69.9608 19.5056 87.2186 13.8758C105.911 7.71799 125.008 3.60649 144.644 1.50549C158.816 -0.137012 173.177 -0.537403 187.455 1.95773C193.011 2.91117 198.746 4.53478 203.957 6.87359C217.529 13.1493 223.777 26.8461 220.105 41.4773C218.318 48.708 214.773 55.2604 210.514 61.2858C200.325 75.6522 187.053 86.5348 172.343 95.7916C152.121 108.536 130.421 117.368 107.216 122.724C91.8353 126.27 76.2032 128.879 60.3516 128.529C55.6177 128.505 50.9715 127.738 46.2634 127.276C45.0864 127.16 43.9712 126.741 42.8561 126.322C39.9474 125.09 39.6501 123.446 41.8564 120.987C42.0519 120.647 42.417 120.406 42.8798 119.994ZM111.569 114.375C111.605 114.509 111.64 114.643 111.676 114.777C112.478 114.562 113.45 114.445 114.252 114.23C132.794 109.118 150.387 101.531 166.861 91.3707C181.144 82.6592 194.256 72.2503 204.189 58.5275C208.154 53.0116 211.611 47.201 213.408 40.5423C216.683 28.1723 211.554 17.0487 199.92 12.1214C195.557 10.2737 190.936 9.06958 186.29 8.30335C173.662 6.08443 161.012 6.45716 148.409 7.53587C130.207 9.1089 112.482 12.9963 95.0807 18.09C74.6411 24.1414 55.1869 32.8018 37.4685 44.7322C29.1081 50.4202 21.3281 56.6708 14.9866 64.5472C11.1446 69.4554 8.15041 74.8546 6.94973 81.0662C5.66127 88.0196 7.08191 94.3908 12.1731 99.4911C14.1203 101.411 16.4684 103.224 18.7087 104.635C26.1081 109.261 34.2075 111.688 42.8575 112.961C53.5943 114.538 64.311 114.97 75.1414 114.223C89.5287 113.385 103.655 111.036 116.667 104.533C117.3 104.22 118.163 103.701 118.77 103.826C119.849 104.111 121.232 104.459 121.714 105.191C122.197 105.924 121.754 107.479 121.266 108.328C120.643 109.214 119.512 109.804 118.515 110.359C116.227 111.977 113.964 113.158 111.569 114.375ZM67.6487 121.546C60.5249 121.156 53.5706 120.865 46.4467 120.475C53.5028 122.75 60.483 122.604 67.6487 121.546Z" fill="white"></path></svg>