<svg xmlns="http://www.w3.org/2000/svg" width="212" height="101" viewBox="0 0 212 101" fill="none"><path d="M3.18693 82.8009C3.18693 82.8009 12.5413 57.9786 35.3466 48.6011C58.5265 39.0695 95.1533 44.9352 97.877 69.804C99.3423 83.1819 94.3141 93.5298 81.1436 96.4161C68.0173 99.2926 57.5758 92.309 52.0976 80.0653C40.369 53.8519 70.8992 24.8276 98.961 18.4833C127.079 12.1261 167.913 25.2225 168.413 53.9937C168.646 67.4502 162.558 78.5692 149.322 81.1342C136.347 83.6485 125.466 76.9116 120.276 64.7835C109.202 38.9081 137.206 7.2263 165.174 3.64179C183.435 1.30132 197.422 7.01684 208.788 21.4643" stroke="#4B4B4B" stroke-width="6" stroke-linecap="round"></path></svg>