<svg xmlns="http://www.w3.org/2000/svg" width="179" height="74" viewBox="0 0 179 74" fill="none"><path d="M2.91044 53.0679C2.91044 53.0679 12.7057 33.7397 32.1191 28.092C51.8514 22.3516 81.2027 30.2527 81.2513 50.6554C81.2774 61.6308 76.2738 69.5915 65.2831 70.8017C54.3293 72.0079 46.4259 65.4478 43.0287 55.0478C35.7555 32.7816 63.1835 11.8633 86.6179 9.12679C110.099 6.38474 142.249 20.5112 140.143 43.8878C139.159 54.8212 133.223 63.3163 122.207 64.2603C111.408 65.1856 103.125 58.7879 99.9524 48.5064C93.1838 26.5706 118.785 3.28024 141.901 2.77389C156.995 2.44327 167.9 8.27922 175.905 20.972" stroke="#F1F0FF" stroke-opacity="0.2" stroke-width="5" stroke-linecap="round"></path></svg>