<svg xmlns="http://www.w3.org/2000/svg" width="282" height="389" viewBox="0 0 282 389" fill="none"><g opacity="0.04"><mask id="mask0_5310_27911" style="mask-type:luminance" maskUnits="userSpaceOnUse" x="0" y="-30" width="419" height="419"><path d="M7.01089 381.989V-22.9891H411.989V381.989H7.01089Z" fill="white" stroke="white" stroke-width="14.0217"></path></mask><g mask="url(#mask0_5310_27911)"><path d="M120.179 376.725L92.3953 301.94L71.7129 291.599C35.2852 273.385 12.2754 236.154 12.2754 195.427C12.2754 170.706 20.7929 146.74 36.3949 127.565L104.671 43.6524H314.329L382.604 127.565C398.206 146.74 406.725 170.706 406.725 195.427C406.725 236.154 383.714 273.385 347.286 291.599L326.604 301.94L298.82 376.725H120.179Z" stroke="black" stroke-width="14.0217" stroke-miterlimit="10"></path><path d="M295.428 175.408H332.254C332.254 202.526 310.27 224.51 283.152 224.51H246.326C246.326 197.392 268.31 175.408 295.428 175.408Z" stroke="black" stroke-width="14.0217" stroke-miterlimit="10"></path><path d="M253.337 98.0184V87.4894H263.866V98.0184H253.337Z" fill="white" stroke="black" stroke-width="14.0217"></path><path d="M228.786 147.12V136.591H239.315V147.12H228.786Z" fill="white" stroke="black" stroke-width="14.0217"></path><path d="M179.685 136.591H190.214V147.12H179.685V136.591Z" fill="white" stroke="black" stroke-width="14.0217"></path><path d="M106.032 112.04H116.561V122.569H106.032V112.04Z" fill="white" stroke="black" stroke-width="14.0217"></path><path d="M155.134 87.4894H165.663V98.0184H155.134V87.4894Z" fill="white" stroke="black" stroke-width="14.0217"></path><path d="M123.572 175.408C150.69 175.408 172.674 197.392 172.674 224.51H135.848C108.73 224.51 86.7461 202.526 86.7461 175.408H123.572Z" stroke="black" stroke-width="14.0217" stroke-miterlimit="10"></path><path d="M172.674 278.521H246.326" stroke="black" stroke-width="14.0217" stroke-miterlimit="10"></path><path d="M209.5 376.725V366.177C209.5 349.76 217.705 334.429 231.365 325.322L246.326 315.348V224.51" stroke="black" stroke-width="14.0217" stroke-miterlimit="10"></path><path d="M209.5 366.176C209.5 349.759 201.295 334.428 187.635 325.321L172.674 315.347V224.509" stroke="black" stroke-width="14.0217" stroke-miterlimit="10"></path><path d="M24.5516 145.549V10.9614C24.5516 -4.88118 37.3941 -17.7237 53.2359 -17.7237C63.5775 -17.7237 73.1171 -12.158 78.2065 -3.15607L104.671 43.6533" stroke="black" stroke-width="14.0217" stroke-miterlimit="10"></path></g></g></svg>