<svg xmlns="http://www.w3.org/2000/svg" width="153" height="38" viewBox="0 0 153 38" fill="none"><path d="M44.8745 26.1232H55.8291V22.8276H48.768V10.4144H44.8745V26.1232Z" fill="#1B1511"></path><path d="M62.3197 23.9264C60.7579 23.9264 59.944 22.5642 59.944 20.521C59.944 18.4777 60.7579 17.0936 62.3197 17.0936C63.8815 17.0936 64.7174 18.4777 64.7174 20.521C64.7174 22.5642 63.8815 23.9264 62.3197 23.9264ZM62.3417 26.4749C65.9712 26.4749 68.3469 23.9044 68.3469 20.521C68.3469 17.1375 65.9712 14.567 62.3417 14.567C58.7341 14.567 56.3145 17.1375 56.3145 20.521C56.3145 23.9044 58.7341 26.4749 62.3417 26.4749Z" fill="#1B1511"></path><path d="M74.6289 30.0121C76.3007 30.0121 77.7745 29.6386 78.7644 28.7597C79.6663 27.9468 80.2602 26.7165 80.2602 25.0248V14.8745H76.8287V16.0829H76.7847C76.1248 15.1382 75.1129 14.545 73.6171 14.545C70.8234 14.545 68.8877 16.8738 68.8877 20.1694C68.8877 23.6187 71.2414 25.5081 73.7711 25.5081C75.1349 25.5081 75.9928 24.9589 76.6527 24.2119H76.7407V25.3324C76.7407 26.6945 76.1028 27.4855 74.585 27.4855C73.3971 27.4855 72.8032 26.9801 72.6052 26.3869H69.1297C69.4816 28.7378 71.5274 30.0121 74.6289 30.0121ZM74.607 22.8497C73.2651 22.8497 72.3852 21.7512 72.3852 20.0595C72.3852 18.3458 73.2651 17.2473 74.607 17.2473C76.1028 17.2473 76.8947 18.5216 76.8947 20.0375C76.8947 21.6194 76.1688 22.8497 74.607 22.8497Z" fill="#1B1511"></path><path d="M87.3153 23.9264C85.7535 23.9264 84.9396 22.5642 84.9396 20.521C84.9396 18.4777 85.7535 17.0936 87.3153 17.0936C88.8771 17.0936 89.713 18.4777 89.713 20.521C89.713 22.5642 88.8771 23.9264 87.3153 23.9264ZM87.3373 26.4749C90.9668 26.4749 93.342 23.9044 93.342 20.521C93.342 17.1375 90.9668 14.567 87.3373 14.567C83.7297 14.567 81.3101 17.1375 81.3101 20.521C81.3101 23.9044 83.7297 26.4749 87.3373 26.4749Z" fill="#1B1511"></path><path d="M94.3906 26.1232H97.9762V14.8744H94.3906V26.1232ZM94.3906 13.3145H97.9762V10.4144H94.3906V13.3145Z" fill="#1B1511"></path><path d="M99.5317 29.8363H103.117V24.9589H103.161C103.865 25.9036 104.899 26.4748 106.351 26.4748C109.298 26.4748 111.256 24.146 111.256 20.4989C111.256 17.1155 109.43 14.545 106.439 14.545C104.899 14.545 103.799 15.226 103.029 16.2367H102.963V14.8745H99.5317V29.8363ZM105.427 23.7066C103.887 23.7066 103.007 22.4543 103.007 20.6307C103.007 18.8072 103.799 17.4231 105.361 17.4231C106.901 17.4231 107.627 18.6973 107.627 20.6307C107.627 22.5421 106.791 23.7066 105.427 23.7066Z" fill="#1B1511"></path><path d="M117.094 26.4748C120.041 26.4748 122.219 25.2006 122.219 22.7399C122.219 19.8618 119.887 19.3565 117.907 19.0269C116.478 18.7633 115.202 18.6534 115.202 17.8625C115.202 17.1594 115.884 16.8299 116.764 16.8299C117.753 16.8299 118.435 17.1374 118.567 18.1481H121.867C121.691 15.9291 119.975 14.545 116.786 14.545C114.124 14.545 111.924 15.7753 111.924 18.1481C111.924 20.7845 114.014 21.3118 115.972 21.6414C117.467 21.905 118.831 22.0149 118.831 23.0255C118.831 23.7505 118.149 24.146 117.072 24.146C115.884 24.146 115.136 23.5967 115.004 22.4762H111.616C111.726 24.9589 113.794 26.4748 117.094 26.4748Z" fill="#1B1511"></path><path d="M127.089 26.4528C128.651 26.4528 129.641 25.8376 130.454 24.7391H130.52V26.1233H133.952V14.8745H130.366V21.158C130.366 22.4981 129.619 23.4209 128.387 23.4209C127.243 23.4209 126.693 22.7398 126.693 21.5095V14.8745H123.129V22.2565C123.129 24.7611 124.493 26.4528 127.089 26.4528Z" fill="#1B1511"></path><path d="M135.512 26.1233H139.098V19.8178C139.098 18.4776 139.758 17.5329 140.88 17.5329C141.957 17.5329 142.463 18.236 142.463 19.4443V26.1233H146.049V19.8178C146.049 18.4776 146.687 17.5329 147.831 17.5329C148.908 17.5329 149.414 18.236 149.414 19.4443V26.1233H153V18.8072C153 16.2806 151.724 14.545 149.172 14.545C147.721 14.545 146.511 15.1601 145.631 16.5223H145.587C145.015 15.3139 143.893 14.545 142.419 14.545C140.792 14.545 139.714 15.3139 139.01 16.4783H138.944V14.8745H135.512V26.1233Z" fill="#1B1511"></path><path d="M22.9985 1.42912L19.3937 0.464386L16.3559 11.7879L13.6133 1.56495L10.0084 2.52969L12.9716 13.5748L5.59101 6.20319L2.9521 8.83889L11.0477 16.9247L0.96591 14.2266L0 17.8269L11.0156 20.775C10.8895 20.2317 10.8228 19.6656 10.8228 19.0839C10.8228 14.9667 14.1645 11.629 18.2868 11.629C22.409 11.629 25.7508 14.9667 25.7508 19.0839C25.7508 19.6618 25.6849 20.2245 25.5603 20.7646L35.5715 23.4437L36.5373 19.8434L25.4779 16.8836L35.5604 14.1853L34.5945 10.5849L23.5355 13.5445L30.9161 6.17293L28.2772 3.53723L20.2938 11.5108L22.9985 1.42912Z" fill="#F97316"></path><path d="M25.5507 20.8065C25.2416 22.1116 24.5891 23.284 23.6938 24.2233L30.9465 31.4672L33.5854 28.8315L25.5507 20.8065Z" fill="#F97316"></path><path d="M23.6204 24.299C22.7143 25.2233 21.5692 25.9131 20.2852 26.2685L22.9243 36.1057L26.529 35.141L23.6204 24.299Z" fill="#F97316"></path><path d="M20.1508 26.3045C19.5551 26.4575 18.9306 26.5388 18.2871 26.5388C17.5977 26.5388 16.9301 26.4454 16.2963 26.2706L13.6548 36.1168L17.2596 37.0815L20.1508 26.3045Z" fill="#F97316"></path><path d="M16.1678 26.2343C14.9034 25.8612 13.7787 25.1627 12.8911 24.2357L5.62061 31.4973L8.25952 34.133L16.1678 26.2343Z" fill="#F97316"></path><path d="M12.8317 24.1715C11.9593 23.2386 11.3239 22.0819 11.0214 20.797L0.977539 23.485L1.94344 27.0854L12.8317 24.1715Z" fill="#F97316"></path></svg>