<svg xmlns="http://www.w3.org/2000/svg" width="160" height="39" viewBox="0 0 160 39" fill="none"><path d="M48.4082 28.0592H59.7139V24.6539H52.4265V11.8272H48.4082V28.0592Z" fill="#2F234F"></path><path d="M66.413 25.7889C64.8012 25.7889 63.9612 24.3814 63.9612 22.2701C63.9612 20.1588 64.8012 18.7286 66.413 18.7286C68.0249 18.7286 68.8876 20.1588 68.8876 22.2701C68.8876 24.3814 68.0249 25.7889 66.413 25.7889ZM66.4357 28.4224C70.1816 28.4224 72.6334 25.7662 72.6334 22.2701C72.6334 18.774 70.1816 16.1178 66.4357 16.1178C62.7126 16.1178 60.2153 18.774 60.2153 22.2701C60.2153 25.7662 62.7126 28.4224 66.4357 28.4224Z" fill="#2F234F"></path><path d="M79.1172 32.0774C80.8425 32.0774 82.3636 31.6915 83.3852 30.7834C84.316 29.9434 84.9289 28.6721 84.9289 26.924V16.4356H81.3874V17.6842H81.342C80.6609 16.708 79.6166 16.0951 78.0729 16.0951C75.1897 16.0951 73.1919 18.5015 73.1919 21.9068C73.1919 25.4711 75.621 27.4235 78.2318 27.4235C79.6393 27.4235 80.5247 26.8559 81.2058 26.084H81.2966V27.2418C81.2966 28.6494 80.6382 29.4667 79.0718 29.4667C77.8458 29.4667 77.2329 28.9445 77.0286 28.3316H73.4416C73.8049 30.7607 75.9162 32.0774 79.1172 32.0774ZM79.0945 24.6765C77.7096 24.6765 76.8015 23.5414 76.8015 21.7933C76.8015 20.0225 77.7096 18.8874 79.0945 18.8874C80.6382 18.8874 81.4555 20.2042 81.4555 21.7706C81.4555 23.4052 80.7063 24.6765 79.0945 24.6765Z" fill="#2F234F"></path><path d="M92.2099 25.7889C90.598 25.7889 89.7581 24.3814 89.7581 22.2701C89.7581 20.1588 90.598 18.7286 92.2099 18.7286C93.8218 18.7286 94.6841 20.1588 94.6841 22.2701C94.6841 24.3814 93.8218 25.7889 92.2099 25.7889ZM92.2326 28.4224C95.9781 28.4224 98.4299 25.7662 98.4299 22.2701C98.4299 18.774 95.9781 16.1178 92.2326 16.1178C88.5094 16.1178 86.0122 18.774 86.0122 22.2701C86.0122 25.7662 88.5094 28.4224 92.2326 28.4224Z" fill="#2F234F"></path><path d="M99.5117 28.0592H103.212V16.4357H99.5117V28.0592ZM99.5117 14.8239H103.212V11.8272H99.5117V14.8239Z" fill="#2F234F"></path><path d="M104.817 31.8958H108.518V26.8559H108.563C109.29 27.8321 110.357 28.4224 111.855 28.4224C114.897 28.4224 116.918 26.0159 116.918 22.2474C116.918 18.7512 115.033 16.0951 111.946 16.0951C110.357 16.0951 109.222 16.7988 108.427 17.8431H108.359V16.4356H104.817V31.8958ZM110.902 25.5619C109.312 25.5619 108.404 24.2679 108.404 22.3836C108.404 20.4993 109.222 19.0691 110.833 19.0691C112.423 19.0691 113.172 20.3858 113.172 22.3836C113.172 24.3587 112.309 25.5619 110.902 25.5619Z" fill="#2F234F"></path><path d="M122.942 28.4224C125.984 28.4224 128.232 27.1056 128.232 24.563C128.232 21.589 125.825 21.0668 123.782 20.7263C122.306 20.4539 120.99 20.3404 120.99 19.5231C120.99 18.7966 121.693 18.4561 122.601 18.4561C123.623 18.4561 124.327 18.7739 124.463 19.8182H127.868C127.687 17.5253 125.916 16.0951 122.624 16.0951C119.877 16.0951 117.607 17.3664 117.607 19.8182C117.607 22.5425 119.764 23.0873 121.784 23.4279C123.328 23.7003 124.735 23.8138 124.735 24.8581C124.735 25.6073 124.032 26.0159 122.919 26.0159C121.693 26.0159 120.921 25.4484 120.785 24.2906H117.289C117.403 26.8559 119.537 28.4224 122.942 28.4224Z" fill="#2F234F"></path><path d="M133.259 28.3997C134.871 28.3997 135.892 27.7641 136.732 26.6289H136.8V28.0592H140.342V16.4357H136.641V22.9285C136.641 24.3133 135.87 25.2668 134.598 25.2668C133.418 25.2668 132.85 24.563 132.85 23.2917V16.4357H129.172V24.0636C129.172 26.6516 130.58 28.3997 133.259 28.3997Z" fill="#2F234F"></path><path d="M141.952 28.0591H145.652V21.5436C145.652 20.1588 146.333 19.1826 147.491 19.1826C148.603 19.1826 149.126 19.909 149.126 21.1577V28.0591H152.826V21.5436C152.826 20.1588 153.484 19.1826 154.665 19.1826C155.777 19.1826 156.299 19.909 156.299 21.1577V28.0591H160V20.4993C160 17.8885 158.683 16.0951 156.05 16.0951C154.551 16.0951 153.303 16.7307 152.395 18.1383H152.349C151.759 16.8896 150.601 16.0951 149.08 16.0951C147.4 16.0951 146.288 16.8896 145.561 18.0929H145.493V16.4356H141.952V28.0591Z" fill="#2F234F"></path><path fill-rule="evenodd" clip-rule="evenodd" d="M18.9185 38.4644C29.367 38.4644 37.837 29.9943 37.837 19.5459C37.837 9.09751 29.367 0.627411 18.9185 0.627411C8.47009 0.627411 0 9.09751 0 19.5459C0 29.9943 8.47009 38.4644 18.9185 38.4644ZM21.8385 15.2444C23.4512 13.6317 23.4512 11.017 21.8385 9.40433C20.2258 7.79164 17.6112 7.79164 15.9985 9.40433C14.3859 11.017 14.3859 13.6317 15.9985 15.2444L18.9185 18.1644L21.8385 15.2444ZM23.2201 22.466C24.8328 24.0787 27.4474 24.0787 29.0601 22.466C30.6727 20.8532 30.6727 18.2386 29.0601 16.6259C27.4474 15.0133 24.8328 15.0133 23.2201 16.6259L20.3001 19.546L23.2201 22.466ZM21.8385 29.6875C23.4512 28.0748 23.4512 25.4602 21.8385 23.8475L18.9185 20.9275L15.9985 23.8475C14.3859 25.4602 14.3859 28.0748 15.9985 29.6875C17.6112 31.3002 20.2258 31.3002 21.8385 29.6875ZM8.77689 22.466C7.16424 20.8532 7.16424 18.2386 8.77689 16.6259C10.3896 15.0133 13.0043 15.0133 14.617 16.6259L17.5369 19.546L14.617 22.466C13.0043 24.0787 10.3896 24.0787 8.77689 22.466Z" fill="#7F57F1"></path></svg>