<svg xmlns="http://www.w3.org/2000/svg" width="123" height="33" viewBox="0 0 123 33" fill="none"><path d="M40.5542 21.4506V7.46251H38.2524V21.4506H40.5542Z" fill="#43505C"></path><path d="M41.9639 16.7879C41.9639 19.6456 43.8883 21.6762 46.8126 21.6762C49.7369 21.6762 51.6613 19.6456 51.6613 16.7879C51.6613 13.9301 49.7369 11.8996 46.8126 11.8996C43.8883 11.8996 41.9639 13.9301 41.9639 16.7879ZM44.2845 16.7879C44.2845 15.1146 45.2844 13.9489 46.8126 13.9489C48.3408 13.9489 49.3407 15.1146 49.3407 16.7879C49.3407 18.4424 48.3408 19.6268 46.8126 19.6268C45.2844 19.6268 44.2845 18.4424 44.2845 16.7879Z" fill="#43505C"></path><path d="M52.4351 16.5998C52.4351 19.3071 54.1897 21.2625 56.8121 21.2625C58.1705 21.2625 59.3402 20.7172 59.9251 19.8148V21.3941C59.9251 22.917 58.9629 23.9322 57.3593 23.9322C55.9254 23.9322 54.9443 23.2366 54.8123 22.0145H52.4917C52.7935 24.4399 54.6613 26.0191 57.2272 26.0191C60.2458 26.0191 62.1702 24.045 62.1702 20.9804V12.1627H60.1326L60.0006 13.4224C59.4346 12.4447 58.2648 11.8619 56.8876 11.8619C54.2274 11.8619 52.4351 13.8736 52.4351 16.5998ZM54.7745 16.5434C54.7745 15.0017 55.7556 13.8736 57.2083 13.8736C58.7931 13.8736 59.8496 15.0205 59.8496 16.5434C59.8496 18.0851 58.7931 19.2695 57.2083 19.2695C55.7745 19.2695 54.7745 18.1039 54.7745 16.5434Z" fill="#43505C"></path><path d="M63.3091 16.7879C63.3091 19.6456 65.2335 21.6762 68.1578 21.6762C71.0821 21.6762 73.0065 19.6456 73.0065 16.7879C73.0065 13.9301 71.0821 11.8996 68.1578 11.8996C65.2335 11.8996 63.3091 13.9301 63.3091 16.7879ZM65.6297 16.7879C65.6297 15.1146 66.6296 13.9489 68.1578 13.9489C69.686 13.9489 70.6859 15.1146 70.6859 16.7879C70.6859 18.4424 69.686 19.6268 68.1578 19.6268C66.6296 19.6268 65.6297 18.4424 65.6297 16.7879Z" fill="#43505C"></path><path d="M75.498 10.2638C76.2527 10.2638 76.8753 9.66214 76.8753 8.89129C76.8753 8.13925 76.2527 7.53761 75.498 7.53761C74.7245 7.53761 74.1396 8.13925 74.1396 8.89129C74.1396 9.66214 74.7245 10.2638 75.498 10.2638ZM74.3472 21.4505H76.6489V12.1627H74.3472V21.4505Z" fill="#43505C"></path><path d="M78.665 25.756H80.9103V20.172C81.4952 21.1309 82.7593 21.6949 84.1554 21.6949C86.9099 21.6949 88.5513 19.5892 88.5136 16.6938C88.457 13.7797 86.7779 11.8807 84.1365 11.8807C82.7215 11.8807 81.4386 12.5012 80.8726 13.5728L80.7405 12.1628H78.665V25.756ZM81.0047 16.8066C81.0047 15.1333 82.0235 13.9677 83.6271 13.9677C85.2308 13.9677 86.193 15.1521 86.193 16.8066C86.193 18.4611 85.2308 19.6268 83.6271 19.6268C82.0235 19.6268 81.0047 18.4799 81.0047 16.8066Z" fill="#43505C"></path><path d="M89.0977 18.6679C89.1731 20.5105 90.607 21.6949 92.8333 21.6949C95.0218 21.6949 96.5122 20.5293 96.5122 18.7244C96.5122 17.3895 95.6821 16.487 94.1539 16.111L92.5125 15.7162C91.8145 15.5282 91.3428 15.2837 91.3428 14.6821C91.3428 14.0429 91.8522 13.5916 92.6823 13.5916C93.5502 13.5916 94.1162 14.0805 94.1162 14.8889H96.2104C96.1349 13.0464 94.7577 11.8807 92.7389 11.8807C90.7391 11.8807 89.2486 13.0464 89.2486 14.8137C89.2486 16.017 89.9467 17.0134 91.739 17.4835L93.3615 17.8971C93.9653 18.0663 94.3426 18.3483 94.3426 18.8748C94.3426 19.608 93.6445 19.9464 92.7955 19.9464C91.7767 19.9464 91.1919 19.4764 91.1919 18.6679H89.0977Z" fill="#43505C"></path><path d="M101.287 21.695C102.551 21.695 103.759 21.1122 104.306 20.2474L104.457 21.4506H106.608V12.1629H104.306V17.0324C104.306 18.7057 103.665 19.6457 102.155 19.6457C100.986 19.6457 100.174 19.0817 100.174 17.164V12.1629H97.8726V17.9724C97.8726 20.191 99.08 21.695 101.287 21.695Z" fill="#43505C"></path><path d="M110.94 21.4505V16.111C110.94 14.6069 111.827 13.8925 112.921 13.8925C114.016 13.8925 114.733 14.5881 114.733 15.9042V21.4505H116.978V16.1298C116.978 14.6069 117.846 13.8925 118.94 13.8925C120.053 13.8925 120.77 14.5881 120.77 15.9042V21.4505H122.996V15.3777C122.996 13.2344 121.808 11.8807 119.544 11.8807C118.129 11.8807 117.015 12.5576 116.563 13.648C116.053 12.5576 115.034 11.8807 113.487 11.8807C112.393 11.8807 111.412 12.3884 110.865 13.2156L110.752 12.1628H108.639V21.4505H110.94Z" fill="#43505C"></path><path d="M105.422 29.7508C105.765 29.7508 106.063 29.463 106.063 29.1213C106.063 28.7706 105.765 28.4829 105.422 28.4829C105.07 28.4829 104.772 28.7706 104.772 29.1213C104.772 29.463 105.07 29.7508 105.422 29.7508Z" fill="#8E98A1"></path><path d="M106.725 27.4308C106.725 28.8066 107.573 29.7327 108.809 29.7327C109.874 29.7327 110.686 29.0943 110.858 28.1412H110.046C109.892 28.6717 109.423 28.9864 108.864 28.9864C108.07 28.9864 107.564 28.375 107.564 27.4218C107.564 26.4507 108.097 25.8573 108.882 25.8573C109.423 25.8573 109.892 26.145 110.037 26.7115H110.849C110.704 25.7494 109.946 25.1019 108.891 25.1019C107.609 25.1019 106.725 26.0461 106.725 27.4308Z" fill="#8E98A1"></path><path d="M111.178 27.4219C111.178 28.7437 112.08 29.7328 113.434 29.7328C114.787 29.7328 115.689 28.7437 115.689 27.4219C115.689 26.1001 114.787 25.111 113.434 25.111C112.08 25.111 111.178 26.1001 111.178 27.4219ZM112.035 27.4219C112.035 26.5227 112.585 25.8663 113.434 25.8663C114.282 25.8663 114.832 26.5227 114.832 27.4219C114.832 28.3211 114.282 28.9775 113.434 28.9775C112.585 28.9775 112.035 28.3211 112.035 27.4219Z" fill="#8E98A1"></path><path d="M117.261 29.6339V26.9903C117.261 26.2979 117.694 25.8484 118.326 25.8484C118.931 25.8484 119.31 26.235 119.31 26.9274V29.6339H120.14V26.9993C120.14 26.2979 120.564 25.8484 121.204 25.8484C121.8 25.8484 122.179 26.235 122.179 26.9274V29.6339H123V26.7475C123 25.7315 122.404 25.111 121.394 25.111C120.708 25.111 120.176 25.4437 119.959 25.9832C119.734 25.4437 119.237 25.111 118.515 25.111C117.965 25.111 117.478 25.3628 117.234 25.7944L117.171 25.2369H116.413V29.6339H117.261Z" fill="#8E98A1"></path><path fill-rule="evenodd" clip-rule="evenodd" d="M0.000488281 16.9017L0.00207144 16.7379L0.00533612 16.574L0.0102907 16.4101L0.0169269 16.2462L0.025261 16.0823L0.0352766 15.9184L0.0469904 15.7546L0.0603858 15.5908L0.075479 15.4271L0.0922622 15.2633L0.110735 15.0998L0.13089 14.9364L0.152742 14.773L0.176284 14.6099L0.201508 14.4469L0.228422 14.2841L0.257025 14.1214L0.287302 13.9591L0.319269 13.7969L0.352917 13.635L0.388247 13.4733L0.425242 13.3119L0.463927 13.1509L0.504269 12.9901L0.546292 12.8297L0.589972 12.6696L0.635326 12.5099L0.682337 12.3505L0.731005 12.1916L0.781321 12.0331L0.833295 11.875L0.886917 11.7174L0.94218 11.5602L0.999075 11.4035L1.05761 11.2472L1.11777 11.0915L1.17956 10.9364L1.24297 10.7817L1.308 10.6277L1.37463 10.4742L1.44287 10.3212L1.51271 10.169L1.58414 10.0173L1.65716 9.86626L1.73177 9.71585L1.80795 9.56618L1.88569 9.41716L1.96501 9.26879L2.04587 9.12125L2.12828 8.97435L2.21225 8.82819L2.29774 8.68285L2.38476 8.53825L2.47331 8.39446L2.56337 8.25149L2.65493 8.10934L2.74799 7.96808L2.84254 7.82756L2.93857 7.68803L3.03608 7.54931L3.13505 7.41149L3.23547 7.27465L3.33734 7.13863L3.44065 7.00367L3.54539 6.86961L3.65154 6.73648L3.75911 6.60438L3.86808 6.47328L3.97843 6.34319L4.09017 6.21412L4.20328 6.0861L4.31774 5.95915L4.43356 5.83325L4.55072 5.70845L4.6692 5.58474L4.78901 5.46214L4.91011 5.34066L5.03252 5.22031L5.15621 5.10112L5.28117 4.98309L5.4074 4.86625L5.53487 4.75058L5.66358 4.63612L5.79352 4.52287L5.92468 4.41084L6.05703 4.30006L6.19058 4.19053L6.3253 4.08226L6.46119 3.97527L6.59824 3.86956L6.73637 3.76515L6.87574 3.66205L7.01617 3.56028L7.15767 3.45984L7.30024 3.36074L7.44395 3.263L7.58865 3.16662L7.73442 3.07162L7.88125 2.97801L8.02915 2.8858L8.17795 2.795L8.32781 2.70561L8.47858 2.61766L8.63034 2.53115L8.78308 2.44609L8.93672 2.36249L9.09126 2.28035L9.2467 2.19971L9.40305 2.12054L9.5603 2.04287L9.71837 1.96671L9.87734 1.89206L10.0371 1.81894L10.1977 1.74736L10.359 1.67731L10.5212 1.60882L10.6841 1.54189L10.8477 1.47652L11.0121 1.41271L11.1773 1.35051L11.343 1.28988L11.5096 1.23086L11.6767 1.17343L11.8446 1.11762L12.013 1.06343L12.182 1.01086L12.3517 0.959926L12.522 0.910635L12.6928 0.862986L12.8643 0.81698L13.0362 0.772634L13.2086 0.729956L13.3815 0.688953L13.555 0.64961L13.7289 0.611958L13.9032 0.575983L14.078 0.541699L14.2533 0.509116L14.4289 0.478225L14.6049 0.449042L14.7813 0.421568L14.958 0.395802L15.135 0.371761L15.3123 0.349437L15.49 0.328838L15.6679 0.309955L15.8461 0.292821L16.0245 0.277412L16.2032 0.263737L16.382 0.25181L17.3437 0.197083L17.3986 4.81454L17.43 4.81418L17.5628 4.81399L17.6956 4.8151L17.8284 4.81751L17.9614 4.82123L18.0943 4.82625L18.2272 4.83256L18.3602 4.84019L18.4932 4.84912L18.626 4.85935L18.759 4.87089L18.8918 4.88374L19.0246 4.8979L19.1573 4.91336L19.2899 4.93012L19.4224 4.94819L19.5548 4.96757L19.687 4.98826L19.8192 5.01025L19.9511 5.03354L20.0829 5.05813L20.2145 5.08403L20.3458 5.11123L20.477 5.13973L20.6079 5.16952L20.7386 5.20061L20.8691 5.233L20.9993 5.26669L21.1292 5.30166L21.2588 5.33792L21.3881 5.37546L21.5171 5.41429L21.6457 5.4544L21.774 5.4958L21.902 5.53847L22.0295 5.58241L22.1567 5.62762L22.2835 5.67409L22.4098 5.72184L22.5357 5.77083L22.6612 5.8211L22.7862 5.87261L22.9107 5.92537L23.0349 5.97938L23.1585 6.03463L23.2815 6.09112L23.4041 6.14883L23.5261 6.20777L23.6476 6.26794L23.7685 6.32933L23.8889 6.39193L24.0086 6.45574L24.1278 6.52076L24.2463 6.58698L24.3643 6.65438L24.4816 6.72297L24.5982 6.79277L24.7142 6.86372L24.8296 6.93582L24.9442 7.00914L25.0581 7.08353L25.1713 7.15914L25.2838 7.2359L25.3956 7.31372L25.5066 7.39277L25.6169 7.47288L25.7263 7.55413L25.8351 7.63653L25.9429 7.71999L26.0501 7.80459L26.1563 7.89018L26.2618 7.97691L26.3664 8.06479L26.4701 8.15364L26.5731 8.24356L26.6751 8.33454L26.7762 8.42658L26.8764 8.51969L26.9758 8.61378L27.0742 8.70885L27.1717 8.80498L27.2682 8.90209L27.3638 9.00026L27.4584 9.09934L27.552 9.19939L27.6447 9.30043L27.7363 9.40244L27.827 9.50536L27.9166 9.60926L28.0052 9.71405L28.0928 9.81975L28.1794 9.92642L28.2649 10.0339L28.3493 10.1423L28.4326 10.2516L28.5149 10.3618L28.596 10.4728L28.6761 10.5847L28.755 10.6974L28.8328 10.8109L28.9095 10.9253L28.9851 11.0404L29.0595 11.1564L29.1326 11.2732L29.2047 11.3906L29.2756 11.5089L29.3453 11.6279L29.4138 11.7477L29.4812 11.8682L29.5473 11.9894L29.6122 12.1113L29.6758 12.2339L29.7383 12.3572L29.7994 12.4811L29.8594 12.6057L29.9181 12.731L29.9756 12.8569L30.0318 12.9834L30.0866 13.1105L30.1402 13.2383L30.1925 13.3665L30.2436 13.4955L30.2933 13.6249L30.3417 13.7549L30.3887 13.8854L30.4345 14.0165L30.479 14.148L30.5221 14.2801L30.5639 14.4126L30.6043 14.5456L30.6434 14.6791L30.6811 14.813L30.7174 14.9474L30.7525 15.0822L30.786 15.2173L30.8183 15.3529L30.8492 15.4889L30.8786 15.6252L30.9068 15.7618L30.9334 15.8989L30.9587 16.0362L30.9826 16.1739L31.0051 16.3118L31.0262 16.45L31.0459 16.5886L31.0641 16.7273L31.0809 16.8663L31.0963 17.0055L31.1103 17.145L31.1228 17.2846L31.134 17.4245L31.1437 17.5645L31.1519 17.7047L31.1587 17.845L31.1641 17.9855L31.1679 18.126L31.1705 18.2667L31.1715 18.4075L31.1711 18.5483L31.1692 18.6892L31.1658 18.8302L31.161 18.9712L31.1548 19.1122L31.1472 19.2532L31.138 19.3942L31.1274 19.5352L31.1154 19.6761L31.1018 19.817L31.0869 19.9579L31.0704 20.0986L31.0525 20.2393L31.0332 20.3798L31.0124 20.5202L30.9902 20.6605L30.9665 20.8006L30.9413 20.9405L30.9147 21.0803L30.8867 21.2199L30.8571 21.3593L30.8261 21.4984L30.7937 21.6374L30.7599 21.776L30.7246 21.9144L30.6878 22.0525L30.6497 22.1903L30.6101 22.3278L30.569 22.465L30.5266 22.6019L30.4826 22.7383L30.4373 22.8745L30.3905 23.0102L30.3423 23.1456L30.2928 23.2805L30.2417 23.415L30.1893 23.5491L30.1355 23.6827L30.0803 23.8159L30.0237 23.9486L29.9657 24.0808L29.9063 24.2124L29.8455 24.3436L29.7834 24.4743L29.7199 24.6043L29.6549 24.7339L29.5887 24.8628L29.521 24.9912L29.4521 25.1189L29.3818 25.2461L29.3101 25.3725L29.2371 25.4984L29.1628 25.6237L29.0872 25.7482L29.0102 25.8721L28.9319 25.9952L28.8523 26.1176L28.7715 26.2394L28.6894 26.3603L28.6059 26.4806L28.5212 26.6001L28.4352 26.7188L28.3479 26.8367L28.2594 26.9539L28.1697 27.0702L28.0787 27.1856L27.9865 27.3003L27.8931 27.4141L27.7984 27.527L27.7025 27.6391L27.6055 27.7502L27.5072 27.8605L27.4078 27.9699L27.3072 28.0783L27.2055 28.1858L27.1026 28.2924L26.9986 28.398L26.8933 28.5026L26.787 28.6063L26.6796 28.7089L26.5711 28.8106L26.4615 28.9112L26.3508 29.0109L26.239 29.1094L26.1262 29.2069L26.0123 29.3034L25.8973 29.3988L25.7813 29.4931L25.6644 29.5864L25.5463 29.6785L25.4273 29.7695L25.3073 29.8593L25.1863 29.9481L25.0644 30.0357L24.9415 30.1221L24.8176 30.2075L24.6928 30.2916L24.5672 30.3745L24.4405 30.4562L24.313 30.5368L24.1847 30.6161L24.0554 30.6942L23.9252 30.7711L23.7942 30.8468L23.6625 30.9212L23.5297 30.9942L23.3964 31.0662L23.2621 31.1367L23.1271 31.206L22.9912 31.2741L22.8546 31.3408L22.7173 31.4062L22.5793 31.4704L22.4405 31.5332L22.301 31.5947L22.1608 31.6547L22.02 31.7135L21.8785 31.771L21.7363 31.827L21.5935 31.8817L21.4501 31.9351L21.306 31.987L21.1613 32.0376L21.0161 32.0868L20.8704 32.1346L20.7239 32.1809L20.577 32.2259L20.4296 32.2694L20.2817 32.3115L20.1332 32.3523L19.9844 32.3916L19.8349 32.4293L19.6851 32.4657L19.5348 32.5007L19.3841 32.5341L19.233 32.5662L19.0815 32.5968L18.9296 32.6259L18.7773 32.6535L18.6247 32.6796L18.4718 32.7042L18.3185 32.7275L18.1649 32.7491L18.0111 32.7693L17.8569 32.788L17.7025 32.8052L17.5479 32.8209L17.393 32.8351L17.238 32.8478L17.0827 32.859L16.9272 32.8686L16.7715 32.8768L16.6158 32.8834L16.4599 32.8885L16.3038 32.8921L16.1477 32.8941L15.9914 32.8947L15.8352 32.8937L15.6788 32.8912L15.5224 32.8872L15.366 32.8815L15.2095 32.8744L15.0531 32.8659L14.8968 32.8556L14.7403 32.8439L14.5841 32.8307L14.4278 32.8159L14.2716 32.7996L14.1156 32.7818L13.9597 32.7624L13.8038 32.7415L13.6482 32.719L13.4927 32.6951L13.3374 32.6696L13.1823 32.6426L13.0273 32.614L12.8727 32.5839L12.7182 32.5524L12.5641 32.5192L12.4101 32.4845L12.2566 32.4484L12.1033 32.4107L11.9503 32.3715L11.7976 32.3308L11.6454 32.2886L11.4935 32.2448L11.3419 32.1996L11.1908 32.1529L11.0401 32.1047L10.8898 32.0549L10.74 32.0037L10.5906 31.951L10.4417 31.8969L10.2933 31.8412L10.1454 31.7841L9.99809 31.7254L9.85125 31.6654L9.705 31.6038L9.55931 31.5409L9.4142 31.4764L9.26967 31.4106L9.12579 31.3432L8.98257 31.2745L8.84 31.2042L8.69801 31.1326L8.55676 31.0596L8.41624 30.9852L8.2763 30.9094L8.13718 30.8321L7.9988 30.7535L7.86115 30.6735L7.72425 30.5921L7.58816 30.5093L7.45281 30.4251L7.31828 30.3397L7.18466 30.2528L7.05177 30.1647L6.91979 30.0751L6.78871 29.9843L6.65844 29.8922L6.52909 29.7987L6.40065 29.7039L6.27313 29.6078L6.14655 29.5104L6.02092 29.4118L5.89624 29.3119L5.77255 29.2107L5.64984 29.1083L5.52814 29.0047L5.40745 28.8998L5.28779 28.7936L5.16918 28.6863L5.05162 28.5778L4.93512 28.468L4.81972 28.3572L4.7054 28.245L4.59219 28.1318L4.48009 28.0174L4.36913 27.9019L4.25931 27.7852L4.15065 27.6674L4.04316 27.5485L3.93684 27.4285L3.83171 27.3074L3.72779 27.1852L3.62508 27.062L3.5236 26.9377L3.42336 26.8124L3.32436 26.686L3.22663 26.5586L3.13016 26.4302L3.03497 26.3008L2.94108 26.1704L2.84849 26.0391L2.75722 25.9068L2.66726 25.7736L2.57865 25.6393L2.49138 25.5043L2.40545 25.3683L2.3209 25.2314L2.23772 25.0936L2.15592 24.9549L2.07552 24.8155L1.99652 24.6751L1.91893 24.5339L1.84277 24.3919L1.76802 24.249L1.69473 24.1055L1.62287 23.9611L1.55248 23.816L1.48355 23.6701L1.41609 23.5236L1.35012 23.3762L1.28563 23.2282L1.22264 23.0795L1.16116 22.9301L1.10118 22.78L1.04272 22.6293L0.985803 22.478L0.930409 22.326L0.876557 22.1735L0.824247 22.0204L0.773496 21.8666L0.724311 21.7124L0.676685 21.5575L0.630642 21.4022L0.586174 21.2463L0.54329 21.09L0.501997 20.9332L0.462303 20.7759L0.424209 20.6181L0.38773 20.46L0.35286 20.3013L0.319605 20.1423L0.287975 19.9829L0.257969 19.8232L0.229595 19.663L0.202862 19.5026L0.177761 19.3418L0.154309 19.1807L0.132506 19.0192L0.112359 18.8575L0.0938618 18.6956L0.0770213 18.5334L0.0618459 18.3711L0.0483358 18.2084L0.0364908 18.0456L0.0263192 17.8826L0.0178211 17.7194L0.0109962 17.5561L0.00584481 17.3927L0.00237497 17.2291L0.000594868 17.0655L0.000488281 16.9017ZM15.8961 4.91125L15.8587 1.76394L15.8232 1.76736L15.6601 1.78466L15.4975 1.80352L15.3349 1.82399L15.173 1.84598L15.0112 1.86957L14.8496 1.89474L14.6885 1.92146L14.5276 1.94977L14.3674 1.97954L14.2071 2.01099L14.0479 2.04385L13.8884 2.07837L13.7297 2.11436L13.5713 2.15194L13.4135 2.19097L13.2562 2.23156L13.0993 2.27367L12.9428 2.31729L12.7872 2.36238L12.6317 2.40903L12.4771 2.45712L12.3229 2.50674L12.1695 2.55773L12.0163 2.61033L11.864 2.66434L11.7124 2.71978L11.5612 2.77673L11.4109 2.83507L11.2613 2.89482L11.1122 2.9561L10.9638 3.01877L10.8162 3.08288L10.6693 3.14833L10.5232 3.2152L10.378 3.28343L10.2332 3.35316L10.0895 3.42416L9.94649 3.49654L9.80433 3.57029L9.663 3.64541L9.52265 3.7218L9.38287 3.79962L9.244 3.87878L9.10635 3.95907L8.96912 4.04093L8.83319 4.12387L8.69817 4.20811L8.56381 4.29373L8.43052 4.3806L8.2982 4.46873L8.16712 4.55791L8.03653 4.64866L7.90725 4.74039L7.77896 4.83338L7.65157 4.92764L7.52533 5.02303L7.40023 5.11956L7.27588 5.21745L7.15292 5.31627L7.03086 5.41639L6.90995 5.5176L6.7901 5.61998L6.67149 5.72335L6.55376 5.82802L6.43738 5.93363L6.32199 6.04045L6.20793 6.14817L6.09492 6.25706L5.98317 6.36694L5.87255 6.4779L5.76301 6.59L5.6549 6.70287L5.54801 6.81672L5.44207 6.93189L5.3376 7.04781L5.23441 7.16454L5.13227 7.28249L5.03162 7.40119L4.93209 7.52094L4.83389 7.64151L4.73698 7.76307L4.64134 7.88544L4.5471 8.00863L4.4541 8.13271L4.36237 8.25778L4.27213 8.38342L4.18308 8.51013L4.09546 8.63748L4.00919 8.76566L3.92422 8.89465L3.84068 9.02438L3.75851 9.15476L3.67772 9.28596L3.59837 9.41781L3.52033 9.55048L3.44369 9.68389L3.36856 9.81779L3.29478 9.95242L3.2224 10.0878L3.1515 10.2237L3.08199 10.3603L3.01397 10.4974L2.94737 10.6351L2.88224 10.7735L2.81853 10.9124L2.75632 11.0518L2.69553 11.1918L2.63622 11.3323L2.57843 11.4733L2.52209 11.6148L2.46722 11.7568L2.41386 11.8992L2.36198 12.042L2.31163 12.1853L2.26273 12.329L2.21535 12.4732L2.16949 12.6177L2.12514 12.7625L2.08227 12.9078L2.04096 13.0533L2.00115 13.1992L1.96285 13.3454L1.92608 13.4919L1.89084 13.6387L1.85712 13.7857L1.82493 13.933L1.79428 14.0806L1.76516 14.2283L1.73756 14.3762L1.71151 14.5244L1.68699 14.6727L1.66402 14.8212L1.64258 14.9698L1.62268 15.1186L1.60431 15.2674L1.58748 15.4164L1.5722 15.5655L1.55846 15.7146L1.54626 15.8637L1.53559 16.0129L1.52647 16.1622L1.51888 16.3114L1.51284 16.4606L1.50833 16.6098L1.50536 16.759L1.50391 16.9081L1.50401 17.0572L1.50564 17.2061L1.50879 17.3551L1.51348 17.5039L1.51969 17.6525L1.52743 17.801L1.53668 17.9493L1.54746 18.0975L1.55976 18.2454L1.57357 18.3932L1.58889 18.5409L1.60572 18.6882L1.62405 18.8353L1.64389 18.9821L1.66522 19.1287L1.68806 19.275L1.71237 19.4209L1.73819 19.5666L1.76548 19.7119L1.79425 19.8569L1.82449 20.0015L1.8562 20.1457L1.88938 20.2896L1.92402 20.4331L1.96012 20.5761L1.99767 20.7188L2.03665 20.8608L2.07709 21.0026L2.11896 21.1438L2.16225 21.2846L2.20697 21.4249L2.2531 21.5646L2.30064 21.7038L2.3496 21.8424L2.39995 21.9806L2.45168 22.1181L2.50482 22.2551L2.55931 22.3914L2.61518 22.5272L2.67243 22.6623L2.73102 22.7968L2.79098 22.9307L2.85227 23.0639L2.9149 23.1964L2.97885 23.3283L3.04413 23.4594L3.11071 23.5899L3.17861 23.7196L3.24779 23.8486L3.31827 23.9768L3.39002 24.1043L3.46304 24.231L3.53733 24.3569L3.61288 24.482L3.68963 24.6063L3.76767 24.7299L3.8469 24.8525L3.92738 24.9744L4.00905 25.0953L4.09191 25.2154L4.17596 25.3347L4.26121 25.4531L4.3476 25.5705L4.43518 25.6871L4.52387 25.8027L4.61375 25.9174L4.70471 26.0311L4.79681 26.1439L4.89004 26.2558L4.98432 26.3666L5.07972 26.4765L5.17617 26.5854L5.27373 26.6933L5.37231 26.8001L5.47192 26.906L5.57259 27.0108L5.67426 27.1146L5.77698 27.2173L5.88066 27.3189L5.98536 27.4196L6.091 27.5191L6.19761 27.6176L6.30521 27.7149L6.41373 27.8111L6.52311 27.9062L6.63351 28.0002L6.74482 28.0931L6.85687 28.1848L6.96999 28.2754L7.08385 28.3648L7.1986 28.4531L7.31418 28.5402L7.43066 28.6261L7.54788 28.7108L7.66592 28.7943L7.7847 28.8767L7.90438 28.9578L8.02472 29.0377L8.14596 29.1164L8.26777 29.1939L8.3904 29.2701L8.51377 29.3451L8.63772 29.4189L8.76249 29.4914L8.88783 29.5626L9.0139 29.6325L9.14056 29.7012L9.26795 29.7687L9.39583 29.8348L9.52437 29.8997L9.65357 29.9632L9.78333 30.0255L9.9136 30.0865L10.0444 30.1461L10.1758 30.2044L10.3077 30.2615L10.4401 30.3172L10.5731 30.3716L10.7065 30.4246L10.8404 30.4763L10.9747 30.5267L11.1094 30.5758L11.2446 30.6234L11.3803 30.6698L11.5163 30.7148L11.6527 30.7585L11.7894 30.8008L11.9266 30.8417L12.064 30.8813L12.2018 30.9194L12.3399 30.9563L12.4783 30.9918L12.617 31.0259L12.7559 31.0586L12.8952 31.09L13.0346 31.1199L13.1742 31.1485L13.3142 31.1757L13.4543 31.2015L13.5946 31.226L13.735 31.249L13.8756 31.2707L14.0164 31.291L14.1573 31.3099L14.2982 31.3274L14.4393 31.3435L14.5805 31.3582L14.7217 31.3717L14.8631 31.3836L15.0044 31.3942L15.1457 31.4034L15.2871 31.4112L15.4285 31.4176L15.5698 31.4227L15.7112 31.4263L15.8525 31.4285L15.9937 31.4294L16.1348 31.429L16.2759 31.4271L16.4168 31.4239L16.5577 31.4192L16.6985 31.4133L16.839 31.4059L16.9794 31.3972L17.1197 31.3871L17.2598 31.3757L17.3996 31.3628L17.5392 31.3486L17.6787 31.3331L17.8178 31.3162L17.9568 31.298L18.0954 31.2784L18.2338 31.2575L18.3718 31.2352L18.5096 31.2116L18.6471 31.1867L18.7842 31.1604L18.9209 31.1329L19.0574 31.1039L19.1934 31.0738L19.329 31.0422L19.4642 31.0094L19.599 30.9753L19.7334 30.9398L19.8672 30.9031L20.0008 30.8651L20.1337 30.8258L20.2663 30.7852L20.3983 30.7435L20.5299 30.7003L20.6609 30.656L20.7912 30.6104L20.9212 30.5634L21.0506 30.5154L21.1794 30.466L21.3076 30.4155L21.4351 30.3637L21.5621 30.3107L21.6885 30.2565L21.8143 30.2011L21.9393 30.1445L22.0638 30.0867L22.1876 30.0277L22.3106 29.9676L22.4331 29.9062L22.5547 29.8438L22.6757 29.7802L22.7961 29.7154L22.9155 29.6495L23.0343 29.5824L23.1522 29.5143L23.2696 29.445L23.3859 29.3747L23.5018 29.3032L23.6165 29.2307L23.7305 29.157L23.8438 29.0823L23.9563 29.0065L24.0677 28.9298L24.1783 28.8519L24.2882 28.773L24.3971 28.6931L24.5052 28.6121L24.6123 28.5303L24.7187 28.4473L24.8239 28.3634L24.9282 28.2785L25.0318 28.1926L25.1344 28.1057L25.2359 28.018L25.3365 27.9292L25.4361 27.8397L25.5348 27.7491L25.6325 27.6576L25.729 27.5653L25.8247 27.472L25.9194 27.3778L26.013 27.2828L26.1056 27.1869L26.1971 27.0903L26.2875 26.9929L26.377 26.8943L26.4653 26.7952L26.5527 26.6952L26.6388 26.5944L26.7239 26.4928L26.8079 26.3906L26.8908 26.2875L26.9727 26.1836L27.0533 26.0791L27.1329 25.9738L27.2113 25.8678L27.2886 25.7611L27.3649 25.6536L27.4397 25.5457L27.5136 25.4369L27.5862 25.3276L27.6578 25.2175L27.7282 25.1067L27.7973 24.9955L27.8652 24.8837L27.9321 24.771L27.9975 24.6581L28.0619 24.5444L28.1252 24.4301L28.187 24.3155L28.2478 24.2001L28.3073 24.0842L28.3655 23.9682L28.4226 23.8512L28.4785 23.7338L28.533 23.6161L28.5863 23.4979L28.6384 23.3792L28.6892 23.2602L28.7388 23.1405L28.7871 23.0205L28.8341 22.9004L28.8799 22.7795L28.9244 22.6585L28.9677 22.5369L29.0097 22.4151L29.0504 22.2929L29.0897 22.1707L29.1279 22.0476L29.1646 21.9247L29.2001 21.8013L29.2344 21.6778L29.2674 21.5538L29.299 21.4298L29.3294 21.3054L29.3585 21.1807L29.3863 21.056L29.4128 20.9309L29.4379 20.8059L29.4617 20.6803L29.4843 20.5551L29.5055 20.4294L29.5255 20.3036L29.5441 20.1778L29.5615 20.0517L29.5775 19.9258L29.5922 19.7994L29.6056 19.6734L29.6178 19.547L29.6285 19.4209L29.638 19.2944L29.6462 19.1683L29.6531 19.0419L29.6587 18.9153L29.663 18.7891L29.666 18.6631L29.6676 18.5367L29.668 18.4105L29.6671 18.2844L29.6649 18.1585L29.6614 18.0325L29.6566 17.907L29.6505 17.781L29.6431 17.6557L29.6344 17.5303L29.6245 17.4053L29.6132 17.28L29.6008 17.1554L29.587 17.0306L29.5719 16.9063L29.5556 16.7821L29.538 16.6582L29.5191 16.5343L29.499 16.4109L29.4776 16.288L29.455 16.165L29.4311 16.0424L29.406 15.9202L29.3795 15.798L29.3521 15.6767L29.3231 15.5552L29.2932 15.4346L29.2618 15.3138L29.2293 15.1938L29.1956 15.0741L29.1606 14.9546L29.1245 14.8358L29.0872 14.7174L29.0486 14.5992L29.0089 14.4818L28.9679 14.3645L28.9259 14.2479L28.8826 14.1316L28.8382 14.0161L28.7925 13.9007L28.7458 13.7861L28.698 13.6721L28.649 13.5586L28.5986 13.4453L28.5475 13.3331L28.4949 13.221L28.4415 13.1099L28.3868 12.9992L28.331 12.8889L28.2742 12.7795L28.2162 12.6707L28.1571 12.5623L28.0972 12.4549L28.0359 12.3478L27.9737 12.2417L27.9103 12.136L27.8462 12.0313L27.7806 11.9269L27.7144 11.8235L27.6468 11.7206L27.5784 11.6186L27.5091 11.5175L27.4386 11.4168L27.3671 11.317L27.2948 11.2179L27.2214 11.1197L27.147 11.0221L27.0717 10.9255L26.9955 10.8295L26.9184 10.7345L26.8403 10.6402L26.7612 10.5467L26.6812 10.4541L26.6004 10.3623L26.5188 10.2714L26.4362 10.1813L26.3525 10.092L26.2684 10.0038L26.183 9.91621L26.0971 9.8298L26.0102 9.74405L25.9226 9.65937L25.8338 9.57533L25.7448 9.49261L25.6545 9.41054L25.5636 9.32945L25.4721 9.24942L25.3797 9.17029L25.2863 9.0919L25.1924 9.01465L25.0978 8.93838L25.0024 8.8631L24.9063 8.78871L24.8096 8.71555L24.7119 8.64296L24.6139 8.57176L24.5151 8.50146L24.4155 8.43206L24.3155 8.3638L24.2144 8.29637L24.1134 8.23032L24.0112 8.165L23.9086 8.10083L23.8053 8.03765L23.7015 7.97552L23.5972 7.91454L23.4924 7.8547L23.3867 7.7956L23.2809 7.73789L23.1743 7.68108L23.0673 7.62541L22.9598 7.57089L22.8517 7.51734L22.7432 7.46487L22.6342 7.41361L22.5247 7.36334L22.415 7.31429L22.3046 7.26623L22.1904 7.21783L22.0829 7.17361L21.9711 7.12882L21.8595 7.08541L21.7469 7.04282L21.6344 7.00162L21.5213 6.9614L21.4081 6.92241L21.2943 6.8844L21.1804 6.8477L21.0661 6.81206L20.9515 6.77756L20.8368 6.74429L20.7216 6.71205L20.6061 6.68092L20.4906 6.65106L20.375 6.62234L20.2586 6.59467L20.1426 6.56827L20.026 6.54293L19.9095 6.51882L19.7925 6.4958L19.6757 6.47399L19.5586 6.45331L19.4415 6.43383L19.3239 6.41543L19.2066 6.39826L19.089 6.38222L18.9713 6.36734L18.8536 6.35362L18.7359 6.34108L18.6181 6.32969L18.5002 6.31945L18.3823 6.31037L18.2642 6.30244L18.1465 6.29569L18.0287 6.29009L17.9105 6.28563L17.793 6.28235L17.6752 6.28021L17.5575 6.27922L17.4396 6.27939L17.416 6.27966L17.4531 9.40408L17.52 9.40375L17.606 9.40424L17.6921 9.40555L17.7782 9.40776L17.8644 9.41078L17.9506 9.41471L18.0368 9.41945L18.1231 9.42501L18.2094 9.43146L18.2957 9.43874L18.382 9.44691L18.4682 9.45591L18.5545 9.4658L18.6407 9.47651L18.7269 9.48803L18.813 9.50054L18.899 9.51378L18.985 9.52792L19.071 9.54296L19.1568 9.55882L19.2425 9.57558L19.3281 9.59315L19.4137 9.61155L19.4991 9.63084L19.5843 9.65103L19.6695 9.67204L19.7544 9.69386L19.8392 9.71659L19.9238 9.74013L20.0083 9.76457L20.0926 9.78983L20.1767 9.81591L20.2606 9.84288L20.3442 9.87068L20.4277 9.89937L20.5109 9.92888L20.5939 9.9592L20.6766 9.99035L20.7591 10.0224L20.8413 10.0553L20.9233 10.0889L21.0049 10.1235L21.0863 10.1588L21.1673 10.195L21.248 10.232L21.3284 10.2698L21.4086 10.3085L21.4883 10.348L21.5677 10.3883L21.6468 10.4294L21.7254 10.4712L21.8038 10.514L21.8817 10.5575L21.9592 10.6018L22.0364 10.6469L22.1132 10.6929L22.1895 10.7395L22.2653 10.787L22.3408 10.8353L22.4159 10.8844L22.4904 10.9342L22.5646 10.9848L22.6382 11.0362L22.7114 11.0883L22.7841 11.1411L22.8563 11.1948L22.9281 11.2492L22.9992 11.3044L23.0699 11.3603L23.14 11.4169L23.2097 11.4742L23.2787 11.5324L23.3473 11.5911L23.4153 11.6507L23.4827 11.7109L23.5496 11.7719L23.6158 11.8335L23.6815 11.8959L23.7465 11.9589L23.811 12.0227L23.8749 12.0871L23.9382 12.1522L24.0008 12.218L24.0628 12.2844L24.1241 12.3515L24.1848 12.4193L24.2449 12.4876L24.3043 12.5567L24.363 12.6263L24.4211 12.6966L24.4784 12.7676L24.5351 12.8391L24.591 12.9113L24.6463 12.9841L24.7009 13.0575L24.7547 13.1314L24.8078 13.2059L24.8602 13.281L24.9118 13.3567L24.9627 13.433L25.0128 13.5098L25.0622 13.5872L25.1108 13.6651L25.1587 13.7435L25.2058 13.8224L25.2521 13.902L25.2976 13.9819L25.3423 14.0624L25.3862 14.1434L25.4294 14.2249L25.4717 14.3069L25.5131 14.3894L25.5538 14.4724L25.5937 14.5558L25.6326 14.6395L25.6708 14.7239L25.7081 14.8086L25.7446 14.8938L25.7802 14.9794L25.815 15.0653L25.8489 15.1518L25.8818 15.2385L25.914 15.3257L25.9452 15.4132L25.9757 15.5012L26.0052 15.5895L26.0337 15.6782L26.0615 15.7671L26.0883 15.8565L26.1142 15.9461L26.1392 16.0361L26.1633 16.1265L26.1865 16.217L26.2087 16.3079L26.23 16.3991L26.2505 16.4906L26.2699 16.5823L26.2884 16.6742L26.306 16.7664L26.3227 16.859L26.3384 16.9517L26.3532 17.0445L26.3669 17.1377L26.3798 17.231L26.3917 17.3245L26.4027 17.4183L26.4126 17.5122L26.4217 17.6062L26.4298 17.7004L26.4368 17.7948L26.443 17.8893L26.4481 17.9839L26.4523 18.0786L26.4555 18.1735L26.4577 18.2684L26.4589 18.3635L26.4592 18.4586L26.4584 18.5538L26.4567 18.649L26.454 18.7443L26.4503 18.8397L26.4456 18.935L26.44 19.0304L26.4333 19.1259L26.4257 19.2213L26.417 19.3167L26.4074 19.4121L26.3967 19.5074L26.3852 19.6028L26.3725 19.698L26.3589 19.7933L26.3443 19.8884L26.3287 19.9835L26.3122 20.0785L26.2945 20.1734L26.276 20.2682L26.2564 20.3629L26.2358 20.4574L26.2143 20.5518L26.1917 20.6461L26.1682 20.7402L26.1437 20.8342L26.1182 20.9279L26.0917 21.0215L26.0642 21.1149L26.0357 21.2081L26.0063 21.3011L25.9758 21.3939L25.9443 21.4863L25.9119 21.5786L25.8786 21.6707L25.8443 21.7624L25.8089 21.8539L25.7727 21.9451L25.7354 22.036L25.6972 22.1266L25.658 22.2169L25.6179 22.3069L25.5768 22.3966L25.5347 22.4858L25.4917 22.5748L25.4477 22.6634L25.4028 22.7516L25.3569 22.8395L25.3102 22.9268L25.2624 23.0139L25.2138 23.1005L25.1642 23.1868L25.1137 23.2725L25.0623 23.358L25.0099 23.4428L24.9567 23.5273L24.9025 23.6113L24.8474 23.6948L24.7914 23.7778L24.7346 23.8604L24.6768 23.9424L24.6182 24.0239L24.5586 24.1049L24.4982 24.1854L24.437 24.2654L24.3748 24.3448L24.3118 24.4236L24.2479 24.5019L24.1832 24.5795L24.1176 24.6567L24.0512 24.7332L23.9839 24.8092L23.9158 24.8844L23.8469 24.9592L23.7772 25.0332L23.7068 25.1067L23.6354 25.1795L23.5633 25.2516L23.4903 25.3231L23.4166 25.394L23.3421 25.4641L23.2668 25.5335L23.1908 25.6023L23.1139 25.6703L23.0364 25.7377L22.9581 25.8044L22.8791 25.8703L22.7993 25.9355L22.7188 25.9999L22.6375 26.0636L22.5556 26.1265L22.473 26.1887L22.3896 26.2501L22.3055 26.3108L22.2209 26.3707L22.1355 26.4297L22.0494 26.488L21.9627 26.5455L21.8753 26.6021L21.7873 26.658L21.6987 26.713L21.6094 26.7671L21.5195 26.8205L21.429 26.8729L21.3379 26.9245L21.2462 26.9753L21.1539 27.0252L21.0611 27.0743L20.9676 27.1224L20.8736 27.1697L20.7791 27.216L20.6841 27.2616L20.5884 27.3061L20.4923 27.3498L20.3957 27.3925L20.2985 27.4344L20.2008 27.4752L20.1027 27.5152L20.0041 27.5543L19.905 27.5924L19.8055 27.6296L19.7055 27.6658L19.6051 27.701L19.5042 27.7353L19.403 27.7686L19.3013 27.8009L19.1993 27.8323L19.0968 27.8627L18.9939 27.8921L18.8908 27.9205L18.7872 27.9479L18.6832 27.9743L18.579 27.9997L18.4744 28.0242L18.3694 28.0475L18.2642 28.0699L18.1586 28.0913L18.0528 28.1116L17.9468 28.131L17.8404 28.1493L17.7337 28.1665L17.6269 28.1827L17.5198 28.1979L17.4124 28.2121L17.3049 28.2252L17.1972 28.2373L17.0892 28.2483L16.9811 28.2583L16.8728 28.2672L16.7644 28.275L16.6558 28.2818L16.547 28.2875L16.4382 28.2922L16.3292 28.2958L16.2201 28.2983L16.1109 28.2998L16.0015 28.3002L15.8922 28.2995L15.7828 28.2977L15.6733 28.295L15.5638 28.291L15.4543 28.2861L15.3447 28.28L15.2352 28.2729L15.1256 28.2647L15.0161 28.2554L14.9066 28.245L14.7971 28.2336L14.6877 28.2211L14.5783 28.2075L14.469 28.1928L14.3598 28.177L14.2507 28.1602L14.1417 28.1423L14.0328 28.1232L13.924 28.1032L13.8154 28.082L13.7069 28.0597L13.5986 28.0364L13.4905 28.0121L13.3825 27.9865L13.2747 27.96L13.1672 27.9324L13.0598 27.9037L12.9527 27.8739L12.8459 27.8431L12.7392 27.8112L12.6329 27.7783L12.5268 27.7442L12.4211 27.7091L12.3155 27.673L12.2103 27.6358L12.1055 27.5975L12.0009 27.5582L11.8967 27.5178L11.7929 27.4765L11.6894 27.434L11.5862 27.3905L11.4835 27.346L11.3813 27.3004L11.2793 27.2538L11.1778 27.2062L11.0768 27.1576L10.9761 27.1079L10.8759 27.0572L10.7762 27.0055L10.677 26.9528L10.5782 26.8991L10.4799 26.8444L10.3821 26.7887L10.2849 26.732L10.1881 26.6743L10.0919 26.6156L9.99628 26.556L9.90121 26.4954L9.80671 26.4338L9.71279 26.3712L9.61944 26.3077L9.52667 26.2433L9.43455 26.1779L9.343 26.1115L9.25212 26.0442L9.1618 25.976L9.07223 25.9068L8.98331 25.8368L8.89504 25.7657L8.80744 25.6939L8.72049 25.621L8.63427 25.5474L8.5488 25.4728L8.46398 25.3973L8.3799 25.321L8.29664 25.2438L8.21404 25.1657L8.13218 25.0868L8.05113 25.007L7.97091 24.9264L7.89142 24.8449L7.81267 24.7626L7.73475 24.6795L7.65772 24.5956L7.58143 24.5109L7.50597 24.4254L7.4314 24.339L7.35758 24.252L7.28474 24.1641L7.21263 24.0754L7.14151 23.9861L7.07121 23.8959L7.00182 23.805L6.93332 23.7134L6.86565 23.6211L6.79896 23.528L6.73325 23.4342L6.66837 23.3397L6.60447 23.2446L6.54152 23.1488L6.47952 23.0522L6.41846 22.955L6.35838 22.8572L6.29927 22.7587L6.24115 22.6596L6.18401 22.5598L6.12786 22.4595L6.07272 22.3585L6.01859 22.2569L5.96546 22.1548L5.91337 22.052L5.86231 21.9487L5.81228 21.8448L5.76329 21.7404L5.71535 21.6354L5.66846 21.5299L5.62264 21.4239L5.57789 21.3173L5.5342 21.2103L5.4916 21.1028L5.45008 20.9947L5.40965 20.8863L5.3703 20.7774L5.33207 20.6679L5.29494 20.5581L5.25893 20.4479L5.22402 20.3372L5.19024 20.2262L5.15759 20.1147L5.12606 20.0029L5.09567 19.8906L5.06643 19.778L5.03832 19.6651L5.01136 19.5518L4.98556 19.4382L4.96091 19.3242L4.93743 19.21L4.91511 19.0955L4.89395 18.9806L4.87397 18.8655L4.85517 18.7502L4.83754 18.6346L4.8211 18.5188L4.80584 18.4027L4.79177 18.2864L4.77889 18.1699L4.7672 18.0533L4.75671 17.9364L4.74743 17.8193L4.73934 17.7022L4.73245 17.5848L4.72677 17.4673L4.7223 17.3498L4.71904 17.2321L4.71699 17.1143L4.71616 16.9963L4.71654 16.8783L4.71813 16.7603L4.72096 16.6423L4.72498 16.5242L4.73024 16.4059L4.73672 16.2878L4.74442 16.1696L4.75334 16.0515L4.76348 15.9333L4.77485 15.8153L4.78745 15.6971L4.80126 15.5792L4.81631 15.4612L4.83257 15.3434L4.85006 15.2256L4.86878 15.1079L4.88871 14.9904L4.90988 14.873L4.93226 14.7557L4.95587 14.6386L4.98069 14.5217L5.00674 14.4049L5.03401 14.2883L5.06249 14.1719L5.09219 14.0557L5.1231 13.9398L5.15522 13.8241L5.18856 13.7086L5.22311 13.5935L5.25886 13.4785L5.29582 13.3638L5.33398 13.2496L5.37334 13.1355L5.4139 13.0218L5.45566 12.9084L5.4986 12.7954L5.54273 12.6828L5.58805 12.5704L5.63455 12.4585L5.68224 12.347L5.73109 12.2359L5.78113 12.1252L5.83232 12.0149L5.88469 11.905L5.93821 11.7957L5.9929 11.6868L6.04874 11.5783L6.10573 11.4704L6.16385 11.3629L6.22313 11.256L6.28353 11.1496L6.34506 11.0436L6.40772 10.9383L6.47151 10.8335L6.5364 10.7293L6.60242 10.6257L6.66952 10.5226L6.73777 10.4202L6.807 10.3183L6.87746 10.2171L6.94891 10.1165L7.02142 10.0165L7.09508 9.91727L7.16973 9.8186L7.24553 9.72067L7.3223 9.6234L7.40015 9.52686L7.47898 9.43106L7.55888 9.33591L7.63984 9.24149L7.72179 9.14781L7.80472 9.05495L7.88871 8.96283L7.97361 8.87144L8.05958 8.78086L8.14653 8.69103L8.23438 8.60209L8.32322 8.51389L8.41304 8.4265L8.50385 8.34002L8.59556 8.25427L8.68817 8.1695L8.78176 8.08547L8.87626 8.00241L8.97158 7.92018L9.06788 7.83884L9.16508 7.75841L9.26311 7.67887L9.36203 7.60023L9.46186 7.52258L9.56251 7.44582L9.66398 7.37004L9.76636 7.29516L9.86947 7.22127L9.9734 7.14835L10.0782 7.07642L10.1838 7.00546L10.2901 6.93557L10.3973 6.86658L10.5052 6.79865L10.6139 6.73174L10.7233 6.66584L10.8335 6.60099L10.9443 6.53718L11.0559 6.47441L11.1682 6.4127L11.2812 6.35208L11.3949 6.29252L11.5092 6.23404L11.6242 6.17664L11.7399 6.12035L11.8562 6.06515L11.9732 6.01107L12.0907 5.9581L12.2089 5.90625L12.3277 5.85554L12.4471 5.80596L12.567 5.75752L12.6874 5.71023L12.8085 5.66409L12.93 5.61912L13.0522 5.57531L13.1748 5.53267L13.2979 5.49121L13.4216 5.45094L13.5456 5.41185L13.6702 5.37396L13.7952 5.33726L13.9207 5.30178L14.0465 5.2675L14.1729 5.23443L14.2996 5.20258L14.4267 5.17196L14.5542 5.14257L14.6821 5.1144L14.8103 5.08748L14.9389 5.06179L15.0678 5.03736L15.197 5.01417L15.3265 4.99223L15.4564 4.97155L15.5865 4.95213L15.7168 4.93397L15.8474 4.91707L15.8961 4.91125ZM15.9513 9.54541L15.9137 6.38665L15.8066 6.40156L15.6915 6.41875L15.5764 6.43709L15.4619 6.45647L15.3474 6.47704L15.2333 6.49866L15.1196 6.52139L15.0062 6.54519L14.8931 6.57011L14.7802 6.59614L14.6677 6.62324L14.5556 6.65141L14.4436 6.6807L14.3361 6.70996L14.2215 6.74241L14.1109 6.77486L14.0007 6.80838L13.8911 6.84288L13.7818 6.87852L13.6728 6.91522L13.5644 6.9529L13.4565 6.99157L13.349 7.03138L13.2421 7.07209L13.1355 7.11394L13.0298 7.15669L12.9241 7.20059L12.8191 7.24538L12.7147 7.29116L12.611 7.33792L12.5076 7.38574L12.4047 7.43454L12.3028 7.48416L12.201 7.53492L12.1002 7.5865L11.9997 7.63923L11.9001 7.6926L11.8007 7.74729L11.7022 7.80255L11.6045 7.85887L11.5072 7.91617L11.4106 7.97429L11.3146 8.03348L11.2195 8.09331L11.1248 8.15421L11.0311 8.21593L10.938 8.27846L10.8455 8.34198L10.7537 8.40639L10.6628 8.47138L10.5725 8.53751L10.483 8.60438L10.3942 8.67206L10.3063 8.74048L10.2189 8.80988L10.1325 8.87994L10.0469 8.95081L9.96191 9.02266L9.878 9.09501L9.79465 9.16833L9.71213 9.24239L9.63052 9.3171L9.5498 9.39255L9.46966 9.4689L9.39066 9.54574L9.31241 9.6234L9.23489 9.70187L9.15836 9.78092L9.08264 9.86078L9.00783 9.94122L8.93393 10.0223L8.86084 10.1041L8.78857 10.1867L8.71753 10.2697L8.64715 10.3535L8.57767 10.4379L8.50918 10.5228L8.44167 10.6083L8.3749 10.6947L8.30919 10.7814L8.24439 10.8688L8.18057 10.9567L8.11766 11.0453L8.05581 11.1342L7.99486 11.2238L7.93481 11.3139L7.87575 11.4046L7.81776 11.4957L7.76075 11.5873L7.70464 11.6796L7.64952 11.7721L7.59546 11.8652L7.54231 11.9588L7.4903 12.0527L7.4392 12.1472L7.38899 12.2422L7.34002 12.3373L7.29195 12.4331L7.24495 12.5292L7.19893 12.6256L7.15398 12.7226L7.11001 12.8198L7.06711 12.9174L7.0252 13.0153L6.98443 13.1135L6.94464 13.2121L6.90584 13.3111L6.86811 13.4104L6.83153 13.5098L6.79584 13.6097L6.76139 13.7097L6.72784 13.8101L6.69544 13.9107L6.66402 14.0116L6.63375 14.1126L6.60447 14.2139L6.57633 14.3153L6.54919 14.4171L6.52314 14.519L6.49816 14.6211L6.47426 14.7233L6.45141 14.8257L6.42963 14.9283L6.40895 15.0309L6.38932 15.1337L6.37077 15.2367L6.35331 15.3397L6.33689 15.4428L6.32158 15.5459L6.30731 15.6492L6.29414 15.7526L6.28203 15.856L6.271 15.9594L6.26104 16.0629L6.25216 16.1664L6.24435 16.2698L6.2376 16.3733L6.23193 16.4768L6.22733 16.5802L6.2238 16.6836L6.22133 16.787L6.21993 16.8903L6.2196 16.9936L6.22033 17.0968L6.22213 17.1998L6.22498 17.3028L6.22888 17.4057L6.23386 17.5085L6.23988 17.6112L6.24695 17.7136L6.25508 17.816L6.26425 17.9182L6.27447 18.0202L6.28573 18.1221L6.29803 18.2238L6.31137 18.3253L6.32574 18.4265L6.34116 18.5276L6.35759 18.6283L6.37505 18.729L6.39354 18.8293L6.41304 18.9293L6.43356 19.0292L6.45509 19.1287L6.47764 19.228L6.50116 19.3268L6.52572 19.4255L6.55127 19.5238L6.57781 19.6218L6.60529 19.7194L6.63384 19.8168L6.66328 19.9138L6.6938 20.0104L6.72522 20.1067L6.75762 20.2025L6.791 20.2979L6.82529 20.3929L6.86056 20.4876L6.89682 20.5818L6.93398 20.6756L6.97204 20.769L7.01109 20.8619L7.05103 20.9544L7.09197 21.0463L7.13372 21.1379L7.17646 21.2288L7.2201 21.3194L7.26456 21.4095L7.31 21.499L7.35626 21.5881L7.40343 21.6766L7.4515 21.7646L7.50039 21.8521L7.55018 21.939L7.60079 22.0253L7.65231 22.111L7.70464 22.1963L7.7578 22.2809L7.81177 22.3649L7.86665 22.4485L7.92218 22.5312L7.9787 22.6135L8.03587 22.6951L8.09395 22.7761L8.15277 22.8565L8.2124 22.9362L8.27277 23.0152L8.33397 23.0937L8.39582 23.1714L8.45849 23.2485L8.52189 23.3249L8.58604 23.4007L8.65093 23.4757L8.71655 23.5501L8.78283 23.6237L8.84985 23.6967L8.91752 23.7689L8.98593 23.8404L9.055 23.9112L9.12481 23.9813L9.19519 24.0506L9.26631 24.1192L9.33808 24.187L9.41035 24.254L9.48344 24.3204L9.55702 24.3859L9.63125 24.4506L9.70615 24.5146L9.78161 24.5778L9.85765 24.6403L9.93427 24.7018L10.0115 24.7626L10.0892 24.8226L10.1676 24.8819L10.2465 24.9403L10.3258 24.9978L10.4057 25.0546L10.4862 25.1105L10.5671 25.1656L10.6487 25.2198L10.7306 25.2732L10.813 25.3258L10.896 25.3775L10.9793 25.4284L11.0632 25.4784L11.1475 25.5275L11.2321 25.5758L11.3174 25.6232L11.4028 25.6697L11.4889 25.7154L11.5753 25.7602L11.662 25.804L11.7492 25.8471L11.8368 25.8892L11.9246 25.9304L12.0128 25.9707L12.1015 26.0102L12.1903 26.0487L12.2796 26.0863L12.3691 26.1231L12.459 26.1589L12.5491 26.1938L12.6396 26.2278L12.7303 26.2609L12.8213 26.2931L12.9125 26.3244L13.004 26.3548L13.0957 26.3841L13.1877 26.4126L13.2799 26.4402L13.3723 26.4668L13.4648 26.4926L13.5576 26.5174L13.6505 26.5413L13.7436 26.5642L13.8369 26.5862L13.9303 26.6073L14.0239 26.6275L14.1176 26.6467L14.2113 26.6649L14.3053 26.6822L14.3993 26.6987L14.4934 26.7142L14.5876 26.7287L14.6819 26.7423L14.7762 26.755L14.8705 26.7668L14.9649 26.7776L15.0594 26.7874L15.1538 26.7964L15.2483 26.8044L15.3428 26.8114L15.4373 26.8176L15.5318 26.8228L15.6262 26.8271L15.7207 26.8304L15.815 26.8329L15.9093 26.8344L16.0035 26.8349L16.0977 26.8346L16.1918 26.8333L16.2858 26.8312L16.3796 26.8281L16.4734 26.8241L16.567 26.8191L16.6606 26.8133L16.7539 26.8065L16.8472 26.7988L16.9402 26.7902L17.0331 26.7807L17.1259 26.7704L17.2184 26.7591L17.3108 26.7469L17.4029 26.7339L17.4949 26.7199L17.5866 26.705L17.678 26.6894L17.7693 26.6727L17.8602 26.6552L17.951 26.6369L18.0415 26.6176L18.1316 26.5975L18.2215 26.5765L18.3111 26.5546L18.4004 26.532L18.4894 26.5085L18.5781 26.484L18.6664 26.4588L18.7544 26.4327L18.842 26.4058L18.9293 26.378L19.0163 26.3494L19.1029 26.32L19.1891 26.2897L19.2749 26.2586L19.3603 26.2268L19.4453 26.1941L19.5298 26.1606L19.6141 26.1262L19.6978 26.0911L19.7811 26.0553L19.864 26.0186L19.9464 25.9812L20.0284 25.9429L20.11 25.904L20.1908 25.8643L20.2715 25.8237L20.3515 25.7825L20.4312 25.7404L20.5101 25.6977L20.5887 25.6542L20.6668 25.61L20.7442 25.565L20.8212 25.5194L20.8977 25.473L20.9735 25.4259L21.0489 25.3781L21.1236 25.3297L21.1978 25.2805L21.2716 25.2305L21.3446 25.18L21.4169 25.1289L21.4889 25.077L21.5601 25.0246L21.6308 24.9713L21.701 24.9175L21.7702 24.8631L21.8392 24.8079L21.9074 24.7522L21.9748 24.6959L22.0419 24.6388L22.1081 24.5813L22.1736 24.5233L22.2388 24.4644L22.3029 24.4052L22.3666 24.3453L22.4296 24.2848L22.4917 24.2238L22.5533 24.1622L22.6143 24.1L22.6745 24.0373L22.7339 23.9741L22.7927 23.9104L22.8509 23.8461L22.9081 23.7815L22.9649 23.7161L23.0207 23.6504L23.0759 23.5841L23.1304 23.5173L23.1841 23.4502L23.2371 23.3825L23.2893 23.3144L23.3408 23.2457L23.3915 23.1767L23.4414 23.1074L23.4907 23.0374L23.5391 22.9671L23.5867 22.8964L23.6337 22.8252L23.6797 22.7539L23.7251 22.6819L23.7697 22.6096L23.8135 22.537L23.8564 22.464L23.8987 22.3905L23.94 22.317L23.9806 22.2428L24.0204 22.1685L24.0593 22.0939L24.0976 22.0187L24.1349 21.9436L24.1715 21.8678L24.2071 21.7921L24.2422 21.7157L24.2762 21.6395L24.3096 21.5625L24.3421 21.4857L24.3736 21.4085L24.4045 21.331L24.4345 21.2533L24.4636 21.1756L24.492 21.0973L24.5194 21.019L24.5461 20.9405L24.5719 20.8618L24.5969 20.7829L24.6211 20.7038L24.6444 20.6247L24.6669 20.5452L24.6885 20.4658L24.7093 20.3861L24.7292 20.3063L24.7484 20.2265L24.7666 20.1463L24.784 20.0662L24.8007 19.986L24.8164 19.9058L24.8313 19.8255L24.8453 19.7448L24.8585 19.6644L24.8709 19.5838L24.8824 19.5032L24.8931 19.4226L24.9029 19.342L24.9119 19.261L24.92 19.1807L24.9274 19.0997L24.9339 19.019L24.9395 18.9385L24.9443 18.8577L24.9483 18.7771L24.9514 18.6966L24.9537 18.6158L24.9551 18.5355L24.9557 18.4549L24.9555 18.3746L24.9545 18.2942L24.9526 18.2142L24.9499 18.134L24.9464 18.054L24.942 17.9743L24.9369 17.8943L24.9309 17.8146L24.9241 17.7354L24.9165 17.6558L24.9081 17.5768L24.8988 17.4976L24.8888 17.4188L24.878 17.34L24.8663 17.2614L24.8538 17.1831L24.8406 17.105L24.8266 17.0271L24.8118 16.9495L24.7961 16.8717L24.7797 16.7946L24.7625 16.7176L24.7446 16.6408L24.7258 16.5641L24.7064 16.4881L24.686 16.4118L24.665 16.3362L24.6432 16.2607L24.6206 16.1856L24.5973 16.1107L24.5732 16.0361L24.5485 15.9619L24.5229 15.888L24.4965 15.8142L24.4696 15.741L24.4418 15.668L24.4133 15.5955L24.3841 15.5232L24.3542 15.4512L24.3236 15.3798L24.2922 15.3085L24.2602 15.2378L24.2275 15.1675L24.194 15.0974L24.1598 15.0277L24.1251 14.9586L24.0895 14.8897L24.0534 14.8214L24.0166 14.7536L23.979 14.6858L23.9409 14.6189L23.9021 14.5522L23.8626 14.486L23.8224 14.4201L23.7818 14.355L23.7403 14.29L23.6984 14.2258L23.6557 14.1619L23.6125 14.0986L23.5685 14.0355L23.5241 13.9732L23.4791 13.9114L23.4334 13.8498L23.3872 13.789L23.3402 13.7286L23.293 13.6688L23.2449 13.6094L23.1964 13.5506L23.1472 13.4923L23.0976 13.4346L23.0475 13.3775L22.9966 13.3208L22.9454 13.2648L22.8936 13.2092L22.8414 13.1544L22.7884 13.0999L22.7352 13.0462L22.6812 12.9928L22.6269 12.9402L22.5722 12.8883L22.5169 12.8368L22.4611 12.7858L22.4048 12.7356L22.3481 12.686L22.2908 12.6368L22.2334 12.5886L22.1753 12.5406L22.1168 12.4934L22.0579 12.4469L21.9985 12.4008L21.9388 12.3555L21.8788 12.311L21.8181 12.2668L21.757 12.2233L21.6959 12.1807L21.634 12.1384L21.5721 12.0971L21.5097 12.0563L21.4469 12.016L21.3836 11.9765L21.3203 11.9377L21.2563 11.8995L21.1922 11.862L21.1276 11.8251L21.063 11.789L20.9979 11.7536L20.9325 11.7187L20.8668 11.6845L20.8009 11.6511L20.7346 11.6183L20.668 11.5862L20.6013 11.5548L20.5345 11.5241L20.4669 11.4939L20.3996 11.4647L20.3318 11.4361L20.2638 11.408L20.1956 11.3808L20.1273 11.3543L20.0588 11.3285L19.9898 11.3032L19.921 11.2789L19.8517 11.2551L19.7823 11.232L19.713 11.2097L19.6434 11.1881L19.5737 11.1672L19.5035 11.1469L19.4335 11.1275L19.3634 11.1087L19.2931 11.0906L19.2227 11.0732L19.152 11.0565L19.0815 11.0406L19.0109 11.0254L18.9401 11.0108L18.869 10.9969L18.7984 10.9839L18.7273 10.9715L18.6563 10.9598L18.585 10.9488L18.5142 10.9386L18.4427 10.9289L18.3718 10.9202L18.3006 10.912L18.2294 10.9046L18.1582 10.8979L18.087 10.8918L18.016 10.8865L17.9446 10.8819L17.8736 10.878L17.8027 10.8748L17.7314 10.8723L17.6606 10.8705L17.5897 10.8694L17.5189 10.869L17.4705 10.8692L17.5072 13.9553L17.5291 13.9554L17.5698 13.956L17.6105 13.957L17.6514 13.9583L17.6922 13.9602L17.7332 13.9624L17.7741 13.965L17.8151 13.9681L17.8561 13.9716L17.8972 13.9755L17.9383 13.9799L17.9794 13.9846L18.0206 13.9898L18.0617 13.9955L18.1029 14.0015L18.144 14.0081L18.1852 14.015L18.2263 14.0224L18.2675 14.0302L18.3086 14.0384L18.3497 14.0471L18.3908 14.0562L18.4319 14.0658L18.4728 14.0758L18.5138 14.0861L18.5548 14.097L18.5956 14.1083L18.6365 14.12L18.6772 14.1322L18.7179 14.1447L18.7585 14.1578L18.7991 14.1713L18.8396 14.1852L18.88 14.1995L18.9203 14.2143L18.9605 14.2295L19.0006 14.2451L19.0406 14.2612L19.0805 14.2777L19.1203 14.2947L19.16 14.3121L19.1995 14.3299L19.239 14.3481L19.2783 14.3668L19.3174 14.3859L19.3564 14.4054L19.3952 14.4255L19.434 14.4458L19.4725 14.4667L19.5109 14.4879L19.5491 14.5096L19.5872 14.5316L19.625 14.5541L19.6627 14.5771L19.7002 14.6005L19.7375 14.6243L19.7746 14.6484L19.8115 14.673L19.8483 14.6981L19.8848 14.7235L19.921 14.7493L19.9571 14.7756L19.993 14.8022L20.0286 14.8293L20.0639 14.8567L20.0991 14.8846L20.134 14.9129L20.1686 14.9415L20.2031 14.9706L20.2372 15L20.2711 15.0299L20.3047 15.0601L20.338 15.0908L20.371 15.1217L20.4038 15.1531L20.4363 15.1849L20.4685 15.2171L20.5004 15.2496L20.5321 15.2825L20.5633 15.3157L20.5943 15.3494L20.625 15.3834L20.6554 15.4177L20.6855 15.4525L20.7152 15.4876L20.7446 15.523L20.7736 15.5588L20.8024 15.5949L20.8307 15.6313L20.8588 15.6682L20.8865 15.7053L20.9138 15.7428L20.9407 15.7806L20.9674 15.8188L20.9936 15.8573L21.0195 15.8961L21.045 15.9352L21.0702 15.9747L21.0949 16.0144L21.1192 16.0545L21.1432 16.0948L21.1667 16.1355L21.1899 16.1764L21.2127 16.2177L21.2351 16.2592L21.257 16.3011L21.2785 16.3432L21.2997 16.3855L21.3204 16.4282L21.3406 16.4712L21.3605 16.5143L21.3799 16.5578L21.399 16.6016L21.4175 16.6455L21.4356 16.6898L21.4533 16.7342L21.4705 16.7789L21.4873 16.8239L21.5036 16.8691L21.5195 16.9146L21.5349 16.9602L21.5498 17.006L21.5642 17.0521L21.5783 17.0984L21.5918 17.1449L21.6048 17.1917L21.6175 17.2385L21.6296 17.2856L21.6412 17.3329L21.6523 17.3804L21.663 17.428L21.6732 17.4759L21.6829 17.5239L21.692 17.5719L21.7007 17.6203L21.7089 17.6688L21.7166 17.7174L21.7237 17.7662L21.7303 17.8151L21.7365 17.8641L21.7422 17.9133L21.7473 17.9626L21.7519 18.012L21.756 18.0615L21.7596 18.1112L21.7627 18.1609L21.7652 18.2108L21.7672 18.2607L21.7687 18.3107L21.7696 18.3609L21.7701 18.411L21.77 18.4612L21.7694 18.5116L21.7682 18.562L21.7665 18.6125L21.7643 18.663L21.7615 18.7135L21.7582 18.7641L21.7544 18.8147L21.75 18.8654L21.745 18.9161L21.7396 18.9667L21.7335 19.0174L21.727 19.0682L21.7199 19.119L21.7123 19.1696L21.7041 19.2203L21.6953 19.271L21.6861 19.3217L21.6762 19.3724L21.6659 19.423L21.6549 19.4736L21.6434 19.5241L21.6314 19.5746L21.6188 19.625L21.6057 19.6755L21.592 19.7257L21.5778 19.776L21.563 19.8261L21.5477 19.8762L21.5318 19.9263L21.5154 19.9761L21.4985 20.026L21.481 20.0757L21.4629 20.1252L21.4442 20.1748L21.4251 20.2241L21.4054 20.2733L21.3852 20.3224L21.3644 20.3714L21.3431 20.4202L21.3212 20.4689L21.2988 20.5173L21.2758 20.5657L21.2523 20.6139L21.2283 20.6619L21.2037 20.7097L21.1786 20.7573L21.1529 20.8048L21.1268 20.852L21.1001 20.8991L21.0729 20.9459L21.0451 20.9926L21.0169 21.039L20.988 21.0852L20.9587 21.1312L20.9288 21.1769L20.8984 21.2224L20.8676 21.2676L20.8362 21.3126L20.8042 21.3574L20.7718 21.4018L20.7389 21.446L20.7054 21.4899L20.6714 21.5336L20.637 21.577L20.602 21.6201L20.5666 21.6628L20.5307 21.7053L20.4943 21.7475L20.4573 21.7894L20.4199 21.8309L20.382 21.8722L20.3436 21.913L20.3048 21.9536L20.2654 21.9939L20.2256 22.0338L20.1853 22.0733L20.1446 22.1125L20.1034 22.1513L20.0617 22.1898L20.0196 22.2278L19.9771 22.2656L19.9341 22.303L19.8906 22.3399L19.8467 22.3765L19.8023 22.4127L19.7576 22.4485L19.7124 22.4838L19.6667 22.5188L19.6207 22.5533L19.5742 22.5875L19.5274 22.6212L19.4801 22.6545L19.4324 22.6874L19.3842 22.7198L19.3358 22.7518L19.2869 22.7833L19.2376 22.8144L19.1879 22.8451L19.1378 22.8753L19.0874 22.9049L19.0366 22.9342L18.9854 22.963L18.9338 22.9913L18.882 23.0191L18.8297 23.0464L18.7771 23.0733L18.7242 23.0996L18.6709 23.1256L18.6173 23.1509L18.5633 23.1757L18.5091 23.2001L18.4544 23.2239L18.3996 23.2473L18.3444 23.2701L18.2888 23.2923L18.233 23.3141L18.1769 23.3353L18.1204 23.356L18.0637 23.3762L18.0068 23.3958L17.9496 23.4148L17.8921 23.4334L17.8343 23.4513L17.7763 23.4687L17.718 23.4856L17.6595 23.5019L17.6008 23.5177L17.5418 23.5328L17.4826 23.5474L17.4231 23.5614L17.3635 23.5749L17.3036 23.5877L17.2435 23.6001L17.1832 23.6118L17.1228 23.6229L17.0622 23.6334L17.0013 23.6434L16.9404 23.6527L16.8792 23.6615L16.8179 23.6696L16.7564 23.6772L16.6948 23.6842L16.633 23.6905L16.5711 23.6963L16.509 23.7014L16.4469 23.7059L16.3845 23.7098L16.3222 23.7131L16.2597 23.7158L16.1971 23.7179L16.1343 23.7193L16.0716 23.7201L16.0088 23.7203L15.9458 23.7199L15.8828 23.7189L15.8198 23.7171L15.7567 23.7148L15.6935 23.7119L15.6303 23.7083L15.567 23.7041L15.5038 23.6993L15.4405 23.6938L15.3772 23.6877L15.314 23.681L15.2506 23.6736L15.1874 23.6656L15.1241 23.6569L15.0608 23.6477L14.9976 23.6377L14.9344 23.6271L14.8713 23.6159L14.8082 23.6041L14.7451 23.5917L14.6821 23.5785L14.6192 23.5648L14.5563 23.5503L14.4936 23.5353L14.4308 23.5196L14.3683 23.5033L14.3058 23.4863L14.2434 23.4687L14.1812 23.4505L14.1191 23.4316L14.057 23.4121L13.9952 23.392L13.9334 23.3712L13.8719 23.3498L13.8105 23.3277L13.7492 23.305L13.6882 23.2817L13.6272 23.2577L13.5665 23.2331L13.506 23.208L13.4457 23.1821L13.3856 23.1556L13.3256 23.1286L13.266 23.1009L13.2064 23.0725L13.1472 23.0436L13.0882 23.014L13.0295 22.9838L12.971 22.953L12.9127 22.9216L12.8547 22.8896L12.7971 22.8569L12.7396 22.8237L12.6825 22.7898L12.6256 22.7554L12.5691 22.7204L12.5128 22.6847L12.4569 22.6485L12.4013 22.6116L12.346 22.5742L12.2911 22.5362L12.2365 22.4976L12.1822 22.4584L12.1283 22.4186L12.0747 22.3783L12.0216 22.3375L11.9687 22.2959L11.9163 22.2539L11.8642 22.2113L11.8126 22.1682L11.7613 22.1244L11.7104 22.0801L11.66 22.0353L11.61 21.99L11.5603 21.944L11.5111 21.8976L11.4624 21.8506L11.414 21.8031L11.3662 21.755L11.3188 21.7065L11.2717 21.6574L11.2252 21.6078L11.1792 21.5576L11.1337 21.507L11.0886 21.4559L11.044 21.4043L10.9999 21.3522L10.9563 21.2996L10.9132 21.2464L10.8706 21.1929L10.8285 21.1388L10.787 21.0843L10.7459 21.0293L10.7055 20.9739L10.6656 20.918L10.6261 20.8616L10.5872 20.8048L10.5489 20.7475L10.5112 20.6898L10.474 20.6317L10.4374 20.5732L10.4013 20.5142L10.3658 20.4548L10.331 20.3951L10.2967 20.3348L10.263 20.2742L10.2298 20.2133L10.1973 20.1519L10.1654 20.0901L10.1341 20.0279L10.1034 19.9655L10.0734 19.9026L10.0439 19.8394L10.0151 19.7758L9.98701 19.7118L9.95945 19.6475L9.93255 19.5829L9.9063 19.5179L9.8807 19.4527L9.85577 19.3871L9.83157 19.3212L9.80794 19.255L9.78498 19.1885L9.76266 19.1217L9.74109 19.0546L9.72017 18.9873L9.69991 18.9197L9.68031 18.8517L9.66144 18.7836L9.64331 18.7151L9.62576 18.6465L9.60902 18.5776L9.59295 18.5085L9.57753 18.4391L9.56284 18.3695L9.5489 18.2997L9.53561 18.2297L9.52306 18.1595L9.51125 18.0891L9.50017 18.0186L9.48975 17.9478L9.48007 17.8769L9.47122 17.8058L9.46301 17.7346L9.45555 17.6632L9.44882 17.5916L9.44283 17.52L9.43758 17.4482L9.43307 17.3763L9.4293 17.3042L9.42626 17.2321L9.42397 17.1599L9.42249 17.0875L9.42175 17.0152L9.42167 16.9427L9.42241 16.8701L9.42397 16.7975L9.42618 16.7248L9.42922 16.6521L9.43299 16.5793L9.4375 16.5066L9.44275 16.4337L9.44882 16.3609L9.45563 16.2881L9.46318 16.2152L9.47154 16.1424L9.48065 16.0696L9.49049 15.9968L9.50116 15.9241L9.51256 15.8513L9.52478 15.7786L9.53766 15.706L9.55136 15.6334L9.56588 15.5609L9.58113 15.4885L9.59713 15.4161L9.61386 15.3438L9.63142 15.2717L9.64971 15.1997L9.66882 15.1277L9.68867 15.0559L9.70926 14.9843L9.73059 14.9126L9.75274 14.8413L9.77562 14.77L9.79925 14.6989L9.82369 14.628L9.84888 14.5572L9.8748 14.4867L9.90146 14.4163L9.92894 14.3462L9.95715 14.2762L9.98611 14.2064L10.0158 14.1369L10.0462 14.0676L10.0775 13.9985L10.1094 13.9297L10.1421 13.8611L10.1755 13.7928L10.2097 13.7247L10.2446 13.657L10.2803 13.5895L10.3166 13.5223L10.3538 13.4555L10.3916 13.3889L10.4301 13.3226L10.4694 13.2567L10.5095 13.191L10.5501 13.1257L10.5916 13.0608L10.6338 12.9962L10.6766 12.9319L10.7202 12.8681L10.7645 12.8046L10.8094 12.7414L10.8551 12.6787L10.9015 12.6164L10.9485 12.5544L10.9962 12.4929L11.0446 12.4318L11.0937 12.3711L11.1435 12.3108L11.1939 12.2511L11.245 12.1916L11.2968 12.1327L11.3492 12.0742L11.4023 12.0162L11.456 11.9587L11.5104 11.9017L11.5654 11.8451L11.621 11.789L11.6773 11.7335L11.7342 11.6784L11.7917 11.6238L11.8499 11.5698L11.9086 11.5163L11.9679 11.4633L12.0279 11.4108L12.0885 11.359L12.1496 11.3076L12.2114 11.2568L12.2737 11.2066L12.3366 11.1569L12.4 11.1079L12.464 11.0594L12.5286 11.0115L12.5937 10.9642L12.6594 10.9175L12.7256 10.8714L12.7924 10.8259L12.8597 10.781L12.9275 10.7368L12.9958 10.6932L13.0647 10.6502L13.1341 10.6078L13.2039 10.5662L13.2742 10.5251L13.3451 10.4847L13.4164 10.445L13.4882 10.4059L13.5604 10.3676L13.6331 10.3299L13.7063 10.2929L13.7799 10.2566L13.8539 10.2209L13.9284 10.186L14.0033 10.1518L14.0786 10.1183L14.1543 10.0855L14.2305 10.0534L14.3071 10.022L14.3839 9.99141L14.4613 9.96149L14.539 9.93231L14.617 9.90386L14.6954 9.87623L14.7742 9.84926L14.8533 9.8231L14.9328 9.79768L15.0125 9.77299L15.0927 9.74912L15.173 9.72599L15.2538 9.70367L15.3348 9.68209L15.4161 9.66125L15.4977 9.64122L15.5796 9.62201L15.6618 9.60362L15.7441 9.58596L15.8268 9.56912L15.9097 9.5531L15.9513 9.54541ZM16.97 15.4803L16.0245 15.7054L15.969 11.0382L15.9244 11.0482L15.8573 11.064L15.7903 11.0804L15.7238 11.0974L15.6573 11.1151L15.5913 11.1334L15.5253 11.1524L15.4599 11.1719L15.3944 11.1921L15.3296 11.2128L15.2648 11.2343L15.2003 11.2564L15.1361 11.279L15.0722 11.3023L15.0089 11.326L14.9457 11.3506L14.8827 11.3756L14.8202 11.4012L14.7578 11.4275L14.6962 11.4541L14.6346 11.4816L14.5736 11.5095L14.5126 11.5381L14.4523 11.5671L14.392 11.5968L14.3325 11.6269L14.2732 11.6577L14.2143 11.689L14.1558 11.7208L14.0976 11.7532L14.0399 11.7861L13.9828 11.8195L13.9256 11.8535L13.8692 11.888L13.8132 11.9229L13.7576 11.9584L13.7023 11.9945L13.6476 12.031L13.5933 12.068L13.5394 12.1055L13.4861 12.1434L13.433 12.1819L13.3805 12.2209L13.3285 12.2603L13.2769 12.3002L13.2259 12.3404L13.1754 12.3812L13.1252 12.4225L13.0755 12.4643L13.0264 12.5063L12.9778 12.5489L12.9296 12.5918L12.882 12.6352L12.8348 12.6791L12.7882 12.7233L12.7421 12.7678L12.6964 12.813L12.6514 12.8583L12.6069 12.9042L12.5629 12.9503L12.5192 12.9971L12.4763 13.0439L12.4339 13.0912L12.392 13.139L12.3508 13.1869L12.3099 13.2353L12.2698 13.2839L12.23 13.3331L12.191 13.3824L12.1523 13.4322L12.1143 13.4823L12.0769 13.5326L12.04 13.5832L12.0038 13.6341L11.968 13.6854L11.9328 13.7369L11.8983 13.7888L11.8643 13.8408L11.8309 13.8931L11.798 13.9459L11.7659 13.9987L11.7341 14.052L11.7031 14.1052L11.6726 14.1589L11.6427 14.2128L11.6135 14.2668L11.5848 14.3211L11.5567 14.3756L11.5292 14.4304L11.5023 14.4852L11.476 14.5405L11.4503 14.5957L11.4253 14.6512L11.4008 14.7069L11.3769 14.7628L11.3537 14.8187L11.3311 14.875L11.3091 14.9313L11.2876 14.9878L11.2668 15.0443L11.2466 15.1011L11.227 15.158L11.2081 15.2149L11.1897 15.272L11.172 15.3293L11.1549 15.3866L11.1385 15.4439L11.1225 15.5015L11.1072 15.5591L11.0926 15.6167L11.0786 15.6744L11.0651 15.7322L11.0523 15.7901L11.0402 15.848L11.0286 15.9059L11.0176 15.9639L11.0073 16.022L10.9976 16.08L10.9885 16.138L10.98 16.1962L10.9721 16.2542L10.9649 16.3124L10.9582 16.3703L10.9522 16.4284L10.9468 16.4866L10.9419 16.5446L10.9377 16.6026L10.9341 16.6607L10.9311 16.7185L10.9287 16.7764L10.9269 16.8342L10.9258 16.8921L10.9251 16.9498L10.9252 17.0074L10.9258 17.065L10.927 17.1225L10.9288 17.1799L10.9312 17.2372L10.9341 17.2944L10.9377 17.3515L10.9419 17.4085L10.9467 17.4654L10.952 17.5221L10.9579 17.5788L10.9644 17.6351L10.9714 17.6916L10.9791 17.7477L10.9874 17.8039L10.9961 17.8597L11.0055 17.9154L11.0154 17.9711L11.0259 18.0264L11.037 18.0817L11.0485 18.1366L11.0608 18.1916L11.0735 18.2462L11.0868 18.3007L11.1006 18.3548L11.115 18.409L11.1298 18.4627L11.1453 18.5164L11.1613 18.5697L11.1777 18.6229L11.1948 18.6758L11.2124 18.7284L11.2305 18.7809L11.2491 18.8331L11.2682 18.8849L11.2878 18.9367L11.308 18.9881L11.3287 19.0392L11.3498 19.09L11.3714 19.1405L11.3936 19.1909L11.4163 19.2409L11.4394 19.2906L11.463 19.34L11.4871 19.389L11.5118 19.438L11.5367 19.4864L11.5622 19.5345L11.5882 19.5824L11.6147 19.6299L11.6416 19.6772L11.6689 19.7241L11.6967 19.7705L11.725 19.8168L11.7537 19.8627L11.7828 19.9081L11.8124 19.9533L11.8423 19.9981L11.8728 20.0427L11.9035 20.0866L11.9348 20.1304L11.9665 20.1737L11.9984 20.2166L12.031 20.2593L12.0638 20.3015L12.097 20.3432L12.1307 20.3847L12.1647 20.4258L12.199 20.4663L12.2339 20.5066L12.269 20.5465L12.3044 20.5859L12.3404 20.625L12.3765 20.6635L12.4131 20.7018L12.45 20.7396L12.4872 20.777L12.5248 20.8139L12.5627 20.8505L12.6009 20.8866L12.6395 20.9222L12.6784 20.9575L12.7176 20.9923L12.757 21.0266L12.7968 21.0605L12.8369 21.0941L12.8772 21.1271L12.9179 21.1597L12.9589 21.1918L13 21.2235L13.0415 21.2547L13.0833 21.2855L13.1253 21.3158L13.1675 21.3457L13.21 21.3751L13.2527 21.404L13.2957 21.4325L13.3389 21.4604L13.3823 21.488L13.4261 21.5151L13.4699 21.5416L13.5139 21.5678L13.5583 21.5934L13.6027 21.6185L13.6473 21.6432L13.6923 21.6675L13.7374 21.6912L13.7826 21.7144L13.8279 21.7371L13.8736 21.7594L13.9192 21.7812L13.9653 21.8025L14.0113 21.8234L14.0574 21.8436L14.1038 21.8635L14.1503 21.8829L14.1968 21.9018L14.2436 21.9202L14.2904 21.938L14.3375 21.9554L14.3844 21.9723L14.4317 21.9887L14.4789 22.0046L14.5262 22.02L14.5737 22.035L14.6213 22.0495L14.6689 22.0634L14.7166 22.0769L14.7644 22.0898L14.8122 22.1023L14.86 22.1142L14.9079 22.1257L14.9558 22.1367L15.0038 22.1472L15.0519 22.1572L15.1 22.1667L15.148 22.1758L15.1961 22.1843L15.2442 22.1924L15.2924 22.1999L15.3405 22.207L15.3885 22.2135L15.4367 22.2196L15.4848 22.2252L15.5329 22.2304L15.581 22.235L15.629 22.2391L15.677 22.2428L15.7249 22.246L15.7729 22.2487L15.8207 22.2509L15.8685 22.2527L15.9164 22.2539L15.964 22.2547L16.0115 22.2551L16.0591 22.2549L16.1065 22.2543L16.154 22.2532L16.2014 22.2516L16.2484 22.2497L16.2955 22.2471L16.3427 22.2442L16.3894 22.2408L16.4363 22.2369L16.4829 22.2326L16.5295 22.2278L16.5759 22.2225L16.6221 22.2169L16.6683 22.2108L16.7143 22.2041L16.7601 22.1971L16.8059 22.1897L16.8514 22.1817L16.8968 22.1734L16.9421 22.1646L16.9872 22.1553L17.032 22.1457L17.0766 22.1356L17.1212 22.1251L17.1656 22.1141L17.2097 22.1029L17.2537 22.0911L17.2974 22.0789L17.3411 22.0662L17.3845 22.0532L17.4274 22.0398L17.4706 22.0259L17.5132 22.0117L17.5557 21.9972L17.598 21.9821L17.64 21.9667L17.6819 21.9508L17.7235 21.9346L17.7647 21.918L17.8058 21.9011L17.8467 21.8837L17.8874 21.866L17.9276 21.8479L17.9678 21.8294L18.0076 21.8106L18.047 21.7914L18.0864 21.7719L18.1253 21.752L18.1641 21.7317L18.2025 21.7111L18.2407 21.6901L18.2785 21.6689L18.3161 21.6472L18.3535 21.6252L18.3904 21.6029L18.427 21.5803L18.4635 21.5573L18.4996 21.5341L18.5354 21.5105L18.5708 21.4866L18.606 21.4623L18.6409 21.4378L18.6753 21.413L18.7096 21.3878L18.7434 21.3624L18.777 21.3367L18.8102 21.3107L18.8432 21.2844L18.8757 21.2579L18.9079 21.2311L18.9397 21.2039L18.9712 21.1765L19.0025 21.1489L19.0333 21.1209L19.0638 21.0928L19.0939 21.0645L19.1237 21.0358L19.1532 21.0068L19.1823 20.9777L19.211 20.9484L19.2393 20.9187L19.2673 20.889L19.295 20.8588L19.3221 20.8286L19.3491 20.7981L19.3756 20.7673L19.4017 20.7365L19.4276 20.7053L19.4529 20.6741L19.478 20.6425L19.5027 20.6109L19.5269 20.579L19.5508 20.5469L19.5743 20.5147L19.5974 20.4822L19.6202 20.4496L19.6425 20.417L19.6645 20.3839L19.6862 20.3509L19.7073 20.3177L19.7281 20.2844L19.7485 20.2509L19.7685 20.2172L19.7882 20.1834L19.8074 20.1495L19.8263 20.1155L19.8448 20.0812L19.8628 20.0471L19.8804 20.0127L19.8977 19.9782L19.9146 19.9436L19.9311 19.9088L19.9472 19.874L19.9629 19.8391L19.9781 19.8042L19.9931 19.7691L20.0075 19.734L20.0217 19.6986L20.0353 19.6635L20.0487 19.6279L20.0615 19.5928L20.074 19.5572L20.0862 19.5215L20.0978 19.4861L20.1091 19.4504L20.12 19.4149L20.1306 19.3789L20.1406 19.3434L20.1505 19.3074L20.1597 19.2719L20.1687 19.2359L20.1772 19.2L20.1853 19.1642L20.193 19.1286L20.2004 19.0925L20.2074 19.0567L20.214 19.0207L20.2201 18.9851L20.2259 18.9493L20.2314 18.9134L20.2364 18.8775L20.241 18.8417L20.2452 18.806L20.2491 18.7705L20.2525 18.7346L20.2556 18.699L20.2583 18.6634L20.2606 18.6278L20.2626 18.5924L20.2642 18.557L20.2653 18.5217L20.2661 18.4863L20.2666 18.4509L20.2667 18.4158L20.2664 18.3807L20.2657 18.3457L20.2647 18.3108L20.2633 18.2758L20.2615 18.2413L20.2593 18.2062L20.2569 18.1719L20.254 18.1375L20.2508 18.1029L20.2472 18.0686L20.2433 18.0347L20.239 18.0003L20.2344 17.9666L20.2294 17.9327L20.2241 17.8993L20.2184 17.8655L20.2124 17.832L20.2061 17.7988L20.1994 17.7657L20.1924 17.7325L20.185 17.6997L20.1774 17.6669L20.1693 17.6344L20.1611 17.6021L20.1523 17.5696L20.1434 17.5377L20.1341 17.5055L20.1245 17.4739L20.1145 17.4422L20.1043 17.4108L20.0937 17.3795L20.0828 17.3483L20.0717 17.3176L20.0602 17.2869L20.0484 17.2562L20.0364 17.2259L20.024 17.1955L20.0114 17.1658L19.9984 17.1358L19.9853 17.1063L19.9717 17.0771L19.958 17.0478L19.9439 17.0189L19.9296 16.9901L19.915 16.9615L19.9001 16.9332L19.8849 16.9051L19.8696 16.8772L19.8539 16.8495L19.8379 16.822L19.8219 16.7948L19.8055 16.7678L19.7887 16.7409L19.7718 16.7145L19.7547 16.6882L19.7373 16.6621L19.7197 16.6362L19.7019 16.6107L19.6837 16.5853L19.6654 16.5602L19.6469 16.5354L19.6281 16.5107L19.6092 16.4864L19.59 16.4622L19.5706 16.4384L19.551 16.4148L19.5312 16.3914L19.5112 16.3683L19.4911 16.3455L19.4707 16.3229L19.4501 16.3006L19.4294 16.2784L19.4084 16.2567L19.3873 16.2352L19.3659 16.2139L19.3445 16.1929L19.3229 16.1722L19.3011 16.1518L19.279 16.1315L19.257 16.1117L19.2347 16.092L19.2123 16.0727L19.1897 16.0535L19.1669 16.0348L19.1441 16.0163L19.1211 15.998L19.098 15.9801L19.0747 15.9623L19.0513 15.945L19.0277 15.9278L19.004 15.911L18.9803 15.8945L18.9565 15.8781L18.9325 15.8622L18.9084 15.8465L18.8841 15.831L18.8599 15.8159L18.8354 15.801L18.8109 15.7865L18.7864 15.7723L18.7617 15.7583L18.7369 15.7446L18.7121 15.7312L18.6872 15.718L18.6622 15.7052L18.6373 15.6926L18.612 15.6803L18.5869 15.6684L18.5617 15.6568L18.5364 15.6453L18.511 15.6342L18.4855 15.6233L18.4603 15.6129L18.4347 15.6027L18.4091 15.5927L18.3836 15.583L18.358 15.5736L18.3324 15.5646L18.3067 15.5557L18.281 15.5471L18.2554 15.539L18.2297 15.531L18.2039 15.5233L18.1783 15.5159L18.1524 15.5088L18.1268 15.502L18.1011 15.4955L18.0753 15.4892L18.0495 15.4832L18.0239 15.4775L17.9981 15.4721L17.9724 15.467L17.9468 15.4621L17.9213 15.4575L17.8955 15.4531L17.8701 15.4491L17.8443 15.4454L17.819 15.4419L17.7934 15.4386L17.7679 15.4356L17.7427 15.433L17.7173 15.4306L17.692 15.4284L17.6667 15.4265L17.6415 15.4249L17.6164 15.4235L17.5913 15.4224L17.5664 15.4216L17.5414 15.4209L17.5165 15.4206L17.4917 15.4205L17.467 15.4208L17.4423 15.4212L17.4178 15.4218L17.3932 15.4228L17.369 15.424L17.3445 15.4254L17.3204 15.4271L17.2963 15.4289L17.2722 15.4312L17.2484 15.4335L17.2244 15.4361L17.2008 15.439L17.1772 15.4421L17.1537 15.4455L17.1303 15.4491L17.107 15.4528L17.0838 15.4568L17.0609 15.4611L17.0379 15.4656L17.0152 15.4702L16.9924 15.4751L16.97 15.4803Z" fill="#43505C"></path></svg>