<svg xmlns="http://www.w3.org/2000/svg" width="161" height="32" viewBox="0 0 161 32" fill="none"><path d="M48.7163 24.4826V8.22412H51.7975V21.6955H59.2671V24.4826H48.7163Z" fill="#1D2948"></path><path d="M65.9192 24.8078C64.7676 24.8078 63.7327 24.5755 62.8146 24.1109C61.8964 23.6465 61.1728 22.9729 60.6437 22.0903C60.1146 21.2077 59.8501 20.147 59.8501 18.9082V18.5366C59.8501 17.2978 60.1146 16.2372 60.6437 15.3546C61.1728 14.472 61.8964 13.7984 62.8146 13.3338C63.7327 12.8694 64.7676 12.6371 65.9192 12.6371C67.0707 12.6371 68.1056 12.8694 69.0237 13.3338C69.9418 13.7984 70.6654 14.472 71.1946 15.3546C71.7237 16.2372 71.9882 17.2978 71.9882 18.5366V18.9082C71.9882 20.147 71.7237 21.2077 71.1946 22.0903C70.6654 22.9729 69.9418 23.6465 69.0237 24.1109C68.1056 24.5755 67.0707 24.8078 65.9192 24.8078ZM65.9192 22.2064C66.8217 22.2064 67.5687 21.9199 68.1601 21.347C68.7513 20.7586 69.0471 19.9224 69.0471 18.8386V18.6063C69.0471 17.5223 68.7513 16.6939 68.1601 16.121C67.5842 15.5326 66.8373 15.2384 65.9192 15.2384C65.0166 15.2384 64.2696 15.5326 63.6783 16.121C63.0869 16.6939 62.7912 17.5223 62.7912 18.6063V18.8386C62.7912 19.9224 63.0869 20.7586 63.6783 21.347C64.2696 21.9199 65.0166 22.2064 65.9192 22.2064Z" fill="#1D2948"></path><path d="M73.0923 18.7689V18.3973C73.0923 17.1894 73.3334 16.1597 73.8159 15.3081C74.2983 14.441 74.9363 13.7829 75.73 13.3338C76.5392 12.8694 77.4184 12.6371 78.3677 12.6371C79.4259 12.6371 80.2273 12.8228 80.772 13.1945C81.3167 13.5661 81.7134 13.9532 81.9624 14.3558H82.3827V12.9622H85.2772V26.5264C85.2772 27.3162 85.0437 27.9433 84.5768 28.4078C84.1099 28.8879 83.4876 29.1278 82.7094 29.1278H74.9597V26.573H81.6823C82.1181 26.573 82.3359 26.3407 82.3359 25.8761V22.8799H81.9158C81.7602 23.1277 81.5423 23.3831 81.2622 23.6465C80.9821 23.8941 80.6086 24.1032 80.1418 24.2735C79.6749 24.4438 79.0836 24.5291 78.3677 24.5291C77.4184 24.5291 76.5392 24.3045 75.73 23.8555C74.9363 23.3909 74.2983 22.7328 73.8159 21.8812C73.3334 21.0141 73.0923 19.9766 73.0923 18.7689ZM79.2081 21.9741C80.1107 21.9741 80.8654 21.6876 81.4723 21.1147C82.0792 20.5418 82.3827 19.7366 82.3827 18.6992V18.4669C82.3827 17.4139 82.0792 16.6088 81.4723 16.0513C80.8809 15.4784 80.1262 15.192 79.2081 15.192C78.3054 15.192 77.5507 15.4784 76.9438 16.0513C76.3369 16.6088 76.0334 17.4139 76.0334 18.4669V18.6992C76.0334 19.7366 76.3369 20.5418 76.9438 21.1147C77.5507 21.6876 78.3054 21.9741 79.2081 21.9741Z" fill="#1D2948"></path><path d="M92.9969 24.8078C91.8453 24.8078 90.8105 24.5755 89.8922 24.1109C88.9741 23.6465 88.2505 22.9729 87.7215 22.0903C87.1924 21.2077 86.9277 20.147 86.9277 18.9082V18.5366C86.9277 17.2978 87.1924 16.2372 87.7215 15.3546C88.2505 14.472 88.9741 13.7984 89.8922 13.3338C90.8105 12.8694 91.8453 12.6371 92.9969 12.6371C94.1484 12.6371 95.1832 12.8694 96.1014 13.3338C97.0196 13.7984 97.7432 14.472 98.2723 15.3546C98.8014 16.2372 99.066 17.2978 99.066 18.5366V18.9082C99.066 20.147 98.8014 21.2077 98.2723 22.0903C97.7432 22.9729 97.0196 23.6465 96.1014 24.1109C95.1832 24.5755 94.1484 24.8078 92.9969 24.8078ZM92.9969 22.2064C93.8995 22.2064 94.6464 21.9199 95.2377 21.347C95.8291 20.7586 96.1247 19.9224 96.1247 18.8386V18.6063C96.1247 17.5223 95.8291 16.6939 95.2377 16.121C94.662 15.5326 93.915 15.2384 92.9969 15.2384C92.0942 15.2384 91.3474 15.5326 90.756 16.121C90.1646 16.6939 89.869 17.5223 89.869 18.6063V18.8386C89.869 19.9224 90.1646 20.7586 90.756 21.347C91.3474 21.9199 92.0942 22.2064 92.9969 22.2064Z" fill="#1D2948"></path><path d="M100.731 24.4826V12.9622H103.672V24.4826H100.731ZM102.201 11.6152C101.672 11.6152 101.221 11.4448 100.847 11.1041C100.49 10.7635 100.311 10.3144 100.311 9.75701C100.311 9.19958 100.49 8.75053 100.847 8.40988C101.221 8.06923 101.672 7.8989 102.201 7.8989C102.746 7.8989 103.198 8.06923 103.555 8.40988C103.913 8.75053 104.092 9.19958 104.092 9.75701C104.092 10.3144 103.913 10.7635 103.555 11.1041C103.198 11.4448 102.746 11.6152 102.201 11.6152Z" fill="#1D2948"></path><path d="M105.88 29.1278V12.9622H108.775V14.3558H109.195C109.459 13.9068 109.871 13.5119 110.432 13.1712C110.992 12.8152 111.793 12.6371 112.836 12.6371C113.769 12.6371 114.633 12.8694 115.427 13.3338C116.221 13.7829 116.859 14.4487 117.341 15.3313C117.823 16.2139 118.065 17.2824 118.065 18.5366V18.9082C118.065 20.1625 117.823 21.2308 117.341 22.1134C116.859 22.996 116.221 23.6696 115.427 24.1342C114.633 24.5832 113.769 24.8078 112.836 24.8078C112.136 24.8078 111.544 24.7226 111.062 24.5522C110.595 24.3974 110.214 24.1961 109.918 23.9483C109.638 23.6851 109.413 23.4219 109.241 23.1586H108.821V29.1278H105.88ZM111.949 22.2528C112.868 22.2528 113.622 21.9664 114.213 21.3934C114.82 20.805 115.124 19.9534 115.124 18.8386V18.6063C115.124 17.4914 114.82 16.6475 114.213 16.0746C113.606 15.4861 112.851 15.192 111.949 15.192C111.047 15.192 110.291 15.4861 109.684 16.0746C109.078 16.6475 108.775 17.4914 108.775 18.6063V18.8386C108.775 19.9534 109.078 20.805 109.684 21.3934C110.291 21.9664 111.047 22.2528 111.949 22.2528Z" fill="#1D2948"></path><path d="M124.524 24.8078C123.015 24.8078 121.778 24.4825 120.813 23.8322C119.849 23.1819 119.265 22.2528 119.062 21.0451L121.77 20.3482C121.879 20.8902 122.058 21.316 122.307 21.6257C122.571 21.9354 122.89 22.1599 123.264 22.2993C123.653 22.4232 124.073 22.4851 124.524 22.4851C125.21 22.4851 125.715 22.369 126.041 22.1367C126.368 21.8889 126.532 21.587 126.532 21.2308C126.532 20.8747 126.376 20.6038 126.065 20.4179C125.753 20.2167 125.256 20.0541 124.571 19.9302L123.917 19.814C123.108 19.6592 122.37 19.4502 121.7 19.1869C121.03 18.9082 120.494 18.5288 120.089 18.0488C119.685 17.5689 119.482 16.9495 119.482 16.1908C119.482 15.0448 119.903 14.17 120.743 13.5661C121.583 12.9467 122.689 12.6371 124.058 12.6371C125.349 12.6371 126.423 12.9235 127.279 13.4964C128.135 14.0694 128.695 14.8203 128.959 15.7495L126.229 16.5855C126.104 15.9972 125.848 15.5791 125.458 15.3313C125.084 15.0836 124.618 14.9597 124.058 14.9597C123.497 14.9597 123.07 15.0604 122.774 15.2616C122.478 15.4475 122.33 15.7107 122.33 16.0513C122.33 16.4229 122.486 16.7017 122.797 16.8875C123.108 17.0578 123.528 17.1894 124.058 17.2824L124.711 17.3985C125.583 17.5533 126.368 17.7624 127.068 18.0256C127.785 18.2734 128.344 18.6372 128.75 19.1173C129.169 19.5818 129.38 20.2167 129.38 21.0218C129.38 22.2296 128.936 23.1664 128.05 23.8322C127.178 24.4825 126.003 24.8078 124.524 24.8078Z" fill="#1D2948"></path><path d="M135.319 24.6684C134.416 24.6684 133.622 24.4671 132.937 24.0645C132.268 23.6465 131.747 23.0735 131.373 22.3457C131 21.6179 130.813 20.7819 130.813 19.8373V12.9622H133.755V19.605C133.755 20.4721 133.964 21.1224 134.385 21.5561C134.82 21.9896 135.435 22.2064 136.229 22.2064C137.132 22.2064 137.832 21.9122 138.329 21.3238C138.828 20.7199 139.077 19.8837 139.077 18.8153V12.9622H142.018V24.4826H139.123V22.9729H138.704C138.517 23.36 138.166 23.7393 137.653 24.1109C137.14 24.4826 136.361 24.6684 135.319 24.6684Z" fill="#1D2948"></path><path d="M144.24 24.4827V12.9623H147.134V14.2165H147.554C147.757 13.8294 148.092 13.4965 148.558 13.2179C149.025 12.9236 149.64 12.7766 150.402 12.7766C151.227 12.7766 151.889 12.9392 152.387 13.2643C152.884 13.574 153.265 13.9843 153.53 14.4953H153.951C154.215 13.9998 154.589 13.5895 155.071 13.2643C155.554 12.9392 156.238 12.7766 157.125 12.7766C157.841 12.7766 158.487 12.9314 159.063 13.2411C159.654 13.5353 160.121 13.992 160.463 14.6114C160.821 15.2153 161 15.9817 161 16.9109V24.4827H158.059V17.1199C158.059 16.485 157.895 16.0128 157.569 15.7031C157.242 15.3779 156.783 15.2153 156.192 15.2153C155.523 15.2153 155.001 15.432 154.628 15.8657C154.27 16.2837 154.091 16.8876 154.091 17.6773V24.4827H151.15V17.1199C151.15 16.485 150.986 16.0128 150.659 15.7031C150.332 15.3779 149.874 15.2153 149.282 15.2153C148.613 15.2153 148.091 15.432 147.718 15.8657C147.36 16.2837 147.181 16.8876 147.181 17.6773V24.4827H144.24Z" fill="#1D2948"></path><path d="M39.3947 15.773C39.3947 11.6662 37.7551 7.72763 34.8366 4.82369C31.9181 1.91976 27.9599 0.288346 23.8326 0.288345C19.7053 0.288345 15.747 1.91976 12.8286 4.82369C9.91008 7.72763 8.27051 11.6662 8.27051 15.773H13.1337C14.7452 15.773 16.002 14.4292 16.5923 12.9371C16.9798 11.9575 17.5679 11.0573 18.3305 10.2983C19.7897 8.84637 21.7689 8.03067 23.8326 8.03067C25.8962 8.03067 27.8754 8.84637 29.3346 10.2983C30.7939 11.7503 31.6136 13.7196 31.6136 15.773H39.3947Z" fill="url(#paint0_linear_5563_2532)"></path><path d="M30.4305 21.6987C31.2125 19.82 31.6151 17.8064 31.6151 15.773H39.3953C39.3953 24.3249 32.4279 31.2575 23.8332 31.2575C22.4872 31.2575 21.1811 31.0876 19.9355 30.7679C20.6403 30.5873 21.333 30.3572 22.0083 30.0789C23.8964 29.3007 25.612 28.1602 27.057 26.7223C28.5021 25.2844 29.6485 23.5774 30.4305 21.6987Z" fill="#FBCF8E"></path><path d="M0.490234 15.7729C0.490234 17.8064 0.892759 19.82 1.67482 21.6987C2.4569 23.5774 3.60318 25.2844 5.04826 26.7223C6.49333 28.1601 8.20888 29.3007 10.097 30.0789C11.985 30.8571 14.0086 31.2576 16.0523 31.2576C18.0959 31.2576 20.1195 30.8571 22.0076 30.0789C23.8957 29.3007 25.6113 28.1601 27.0563 26.7223C28.5014 25.2844 29.6477 23.5774 30.4298 21.6987C31.2118 19.82 31.6144 17.8064 31.6144 15.7729H26.7512C25.1397 15.7729 23.8829 17.1167 23.2926 18.6087C23.2759 18.6512 23.2586 18.6935 23.241 18.7358C22.85 19.6751 22.2769 20.5287 21.5543 21.2476C20.8318 21.9665 19.974 22.5368 19.03 22.9259C18.086 23.315 17.0742 23.5153 16.0523 23.5153C15.0305 23.5153 14.0187 23.315 13.0747 22.9259C12.1306 22.5368 11.2729 21.9665 10.5503 21.2476C9.82774 20.5287 9.2546 19.6751 8.86357 18.7358C8.47253 17.7964 8.27127 16.7896 8.27127 15.7729H0.490234Z" fill="url(#paint1_linear_5563_2532)"></path><path d="M0.491699 15.773C0.491699 7.22103 7.45905 0.288345 16.0537 0.288345C17.3994 0.288345 18.7051 0.458284 19.9506 0.777782C17.2782 1.46279 14.813 2.84906 12.8284 4.8237C9.90992 7.72761 8.27037 11.6662 8.27037 15.773H0.491699Z" fill="#73E5E2"></path><defs><linearGradient id="paint0_linear_5563_2532" x1="39.3947" y1="8.03067" x2="8.27051" y2="8.03067" gradientUnits="userSpaceOnUse"><stop stop-color="#73E5E2"></stop><stop offset="1" stop-color="#394F87"></stop></linearGradient><linearGradient id="paint1_linear_5563_2532" x1="0.490235" y1="23.5153" x2="31.6144" y2="23.5153" gradientUnits="userSpaceOnUse"><stop stop-color="#FBDC8E"></stop><stop offset="1" stop-color="#FB958E"></stop></linearGradient></defs></svg>