<svg xmlns="http://www.w3.org/2000/svg" width="157" height="38" viewBox="0 0 157 38" fill="none"><path d="M46.2539 26.1779H57.4233V22.8178H50.2237V10.1611H46.2539V26.1779Z" fill="#FFEEE2"></path><path d="M64.042 23.9374C62.4496 23.9374 61.6198 22.5485 61.6198 20.4652C61.6198 18.3819 62.4496 16.9707 64.042 16.9707C65.6345 16.9707 66.4867 18.3819 66.4867 20.4652C66.4867 22.5485 65.6345 23.9374 64.042 23.9374ZM64.0645 26.5359C67.7652 26.5359 70.1874 23.915 70.1874 20.4652C70.1874 17.0155 67.7652 14.3945 64.0645 14.3945C60.3862 14.3945 57.9191 17.0155 57.9191 20.4652C57.9191 23.915 60.3862 26.5359 64.0645 26.5359Z" fill="#FFEEE2"></path><path d="M76.5917 30.1424C78.2962 30.1424 79.7989 29.7616 80.8082 28.8656C81.7278 28.0367 82.3334 26.7823 82.3334 25.0574V14.7081H78.8345V15.9401H78.7897C78.1168 14.9769 77.0851 14.3721 75.56 14.3721C72.7116 14.3721 70.7379 16.7466 70.7379 20.1068C70.7379 23.6237 73.1377 25.5502 75.717 25.5502C77.1075 25.5502 77.9822 24.9902 78.6551 24.2286H78.7448V25.371C78.7448 26.7599 78.0944 27.5663 76.5468 27.5663C75.3357 27.5663 74.7301 27.0511 74.5283 26.4463H70.9846C71.3434 28.8432 73.4293 30.1424 76.5917 30.1424ZM76.5693 22.8397C75.2011 22.8397 74.304 21.7196 74.304 19.9947C74.304 18.2475 75.2011 17.1274 76.5693 17.1274C78.0944 17.1274 78.9018 18.4267 78.9018 19.9723C78.9018 21.5852 78.1617 22.8397 76.5693 22.8397Z" fill="#FFEEE2"></path><path d="M89.5279 23.9374C87.9355 23.9374 87.1057 22.5485 87.1057 20.4652C87.1057 18.3819 87.9355 16.9707 89.5279 16.9707C91.1204 16.9707 91.9726 18.3819 91.9726 20.4652C91.9726 22.5485 91.1204 23.9374 89.5279 23.9374ZM89.5504 26.5359C93.2511 26.5359 95.6729 23.915 95.6729 20.4652C95.6729 17.0155 93.2511 14.3945 89.5504 14.3945C85.8721 14.3945 83.405 17.0155 83.405 20.4652C83.405 23.915 85.8721 26.5359 89.5504 26.5359Z" fill="#FFEEE2"></path><path d="M96.7416 26.1779H100.397V14.7086H96.7416V26.1779ZM96.7416 13.1181H100.397V10.1611H96.7416V13.1181Z" fill="#FFEEE2"></path><path d="M101.984 29.9632H105.64V24.9902H105.684C106.402 25.9534 107.456 26.5359 108.937 26.5359C111.942 26.5359 113.938 24.1614 113.938 20.4428C113.938 16.993 112.077 14.3721 109.026 14.3721C107.456 14.3721 106.335 15.0665 105.55 16.097H105.483V14.7081H101.984V29.9632ZM107.995 23.7133C106.425 23.7133 105.527 22.4365 105.527 20.5772C105.527 18.7179 106.335 17.3066 107.927 17.3066C109.497 17.3066 110.237 18.6059 110.237 20.5772C110.237 22.5261 109.385 23.7133 107.995 23.7133Z" fill="#FFEEE2"></path><path d="M119.889 26.5359C122.894 26.5359 125.114 25.2366 125.114 22.7277C125.114 19.7931 122.737 19.2779 120.718 18.9419C119.261 18.6731 117.96 18.5611 117.96 17.7546C117.96 17.0378 118.655 16.7018 119.552 16.7018C120.561 16.7018 121.257 17.0154 121.391 18.0459H124.756C124.576 15.7833 122.827 14.3721 119.575 14.3721C116.861 14.3721 114.618 15.6265 114.618 18.0459C114.618 20.734 116.749 21.2716 118.745 21.6076C120.27 21.8764 121.66 21.9884 121.66 23.0189C121.66 23.7581 120.965 24.1614 119.866 24.1614C118.655 24.1614 117.893 23.6013 117.758 22.4589H114.304C114.416 24.9902 116.524 26.5359 119.889 26.5359Z" fill="#FFEEE2"></path><path d="M130.08 26.5129C131.673 26.5129 132.682 25.8857 133.512 24.7656H133.579V26.1769H137.078V14.7075H133.422V21.1142C133.422 22.4807 132.66 23.4215 131.404 23.4215C130.237 23.4215 129.677 22.7271 129.677 21.4727V14.7075H126.043V22.2343C126.043 24.788 127.434 26.5129 130.08 26.5129Z" fill="#FFEEE2"></path><path d="M138.67 26.1775H142.326V19.7483C142.326 18.3819 142.999 17.4186 144.143 17.4186C145.242 17.4186 145.757 18.1355 145.757 19.3675V26.1775H149.413V19.7483C149.413 18.3819 150.064 17.4186 151.23 17.4186C152.329 17.4186 152.845 18.1355 152.845 19.3675V26.1775H156.501V18.7179C156.501 16.1418 155.2 14.3721 152.598 14.3721C151.118 14.3721 149.884 14.9993 148.987 16.3882H148.942C148.359 15.1561 147.215 14.3721 145.713 14.3721C144.053 14.3721 142.954 15.1561 142.236 16.3434H142.169V14.7081H138.67V26.1775Z" fill="#FFEEE2"></path><path d="M23.9494 0.999275L20.274 0.015625L17.1766 11.5611L14.3802 1.13777L10.7047 2.12142L13.726 13.3831L6.20064 5.86696L3.50998 8.55434L11.7643 16.7987L1.48485 14.0476L0.5 17.7186L11.7316 20.7245C11.603 20.1705 11.535 19.5933 11.535 19.0002C11.535 14.8023 14.9423 11.3992 19.1453 11.3992C23.3484 11.3992 26.7557 14.8023 26.7557 19.0002C26.7557 19.5895 26.6885 20.1631 26.5615 20.7138L36.769 23.4456L37.7538 19.7746L26.4775 16.7568L36.7577 14.0055L35.7728 10.3346L24.497 13.3522L32.0223 5.8361L29.3316 3.14873L21.1918 11.2787L23.9494 0.999275Z" fill="#F97316"></path><path d="M26.5513 20.7578C26.2361 22.0884 25.5709 23.2838 24.658 24.2416L32.0529 31.6275L34.7435 28.9401L26.5513 20.7578Z" fill="#F97316"></path><path d="M24.5833 24.3174C23.6594 25.2598 22.4919 25.9631 21.1827 26.3255L23.8735 36.3556L27.549 35.372L24.5833 24.3174Z" fill="#F97316"></path><path d="M21.0458 26.3622C20.4383 26.5181 19.8016 26.601 19.1455 26.601C18.4426 26.601 17.7619 26.5058 17.1156 26.3276L14.4224 36.3669L18.0978 37.3505L21.0458 26.3622Z" fill="#F97316"></path><path d="M16.985 26.2908C15.6957 25.9103 14.549 25.1981 13.644 24.2529L6.23096 31.657L8.92161 34.3443L16.985 26.2908Z" fill="#F97316"></path><path d="M13.5837 24.1892C12.6942 23.238 12.0463 22.0586 11.7379 20.7485L1.49713 23.4892L2.48197 27.1602L13.5837 24.1892Z" fill="#F97316"></path></svg>