<svg width="112" height="34" viewBox="0 0 112 34" fill="none" xmlns="http://www.w3.org/2000/svg">
<path d="M45.6185 14.6372C45.4663 13.3916 45.0372 12.4366 44.3314 11.7722C43.6255 11.0941 42.7051 10.7481 41.5702 10.7342C40.8505 10.7342 40.1862 10.8934 39.5772 11.2117C38.9682 11.53 38.4423 11.9799 37.9994 12.5612C37.5565 13.1286 37.2105 13.8068 36.9613 14.5957C36.726 15.3708 36.6084 16.2219 36.6084 17.1493C36.6084 18.4087 36.8298 19.5298 37.2727 20.5125C37.7156 21.4813 38.3246 22.2356 39.0997 22.7754C39.8886 23.3152 40.7813 23.585 41.7778 23.585C42.6636 23.585 43.5355 23.3774 44.3936 22.9622C45.2656 22.5332 45.9853 21.9311 46.5527 21.1561L47.2378 21.7374C46.615 22.5955 45.9507 23.2529 45.2448 23.7096C44.539 24.1663 43.8331 24.4708 43.1272 24.6231C42.4352 24.7892 41.8055 24.8722 41.238 24.8722C40.2 24.8722 39.245 24.6854 38.3731 24.3117C37.5011 23.938 36.7468 23.419 36.1101 22.7546C35.4873 22.0764 35.0029 21.2945 34.6569 20.4087C34.3247 19.509 34.1586 18.5402 34.1586 17.5022C34.1586 16.5334 34.3109 15.5853 34.6154 14.658C34.9199 13.7307 35.3697 12.8933 35.9648 12.1459C36.56 11.3847 37.3073 10.7827 38.207 10.3398C39.1204 9.89687 40.1792 9.67542 41.3833 9.67542C42.0892 9.67542 42.7743 9.77231 43.4387 9.96607C44.1168 10.1598 44.7673 10.4574 45.3902 10.8588L45.2863 9.82075H46.5735V14.6372H45.6185ZM55.1126 23.6681C55.5278 23.6681 55.8185 23.5712 55.9846 23.3774C56.1645 23.1837 56.2683 22.9138 56.296 22.5678C56.3375 22.2218 56.3583 21.8204 56.3583 21.3637L56.3375 18.4572C56.3375 17.3638 56.1645 16.5472 55.8185 16.0074C55.4863 15.4538 54.9465 15.1839 54.1991 15.1978C53.7424 15.2116 53.2926 15.3223 52.8497 15.5299C52.4207 15.7375 52.0608 16.0005 51.7702 16.3188V21.9657C51.7702 22.2148 51.7632 22.4709 51.7494 22.7339C51.7356 22.983 51.7148 23.239 51.6871 23.502C51.9086 23.4882 52.13 23.4812 52.3515 23.4812C52.5867 23.4674 52.8013 23.4536 52.995 23.4397V24.54H48.3654V23.6681C48.7806 23.6681 49.0713 23.5712 49.2374 23.3774C49.4034 23.1837 49.5072 22.9138 49.5488 22.5678C49.5903 22.2218 49.611 21.8204 49.611 21.3637V11.9799C49.611 11.7446 49.611 11.5093 49.611 11.274C49.6249 11.0249 49.6456 10.7619 49.6733 10.4851C49.438 10.4989 49.1889 10.5128 48.9259 10.5266C48.663 10.5266 48.4208 10.5335 48.1993 10.5474V9.44706C48.8221 9.44706 49.3204 9.41938 49.6941 9.36401C50.0678 9.29481 50.3515 9.21869 50.5453 9.13565C50.7529 9.0526 50.9051 8.96264 51.002 8.86576H51.7702V15.1355C52.0746 14.8863 52.4137 14.6649 52.7874 14.4711C53.1611 14.2774 53.5417 14.1251 53.9293 14.0144C54.3306 13.8898 54.7043 13.8276 55.0503 13.8276C56.2821 13.8276 57.161 14.2012 57.6869 14.9486C58.2267 15.696 58.5035 16.8655 58.5174 18.4572V21.9657C58.5174 22.2148 58.5104 22.4709 58.4966 22.7339C58.4966 22.983 58.4758 23.239 58.4343 23.502C58.6558 23.4882 58.8841 23.4812 59.1194 23.4812C59.3547 23.4674 59.5692 23.4536 59.763 23.4397V24.54H55.1126V23.6681ZM66.1873 24.8722C65.2184 24.8722 64.3465 24.6508 63.5714 24.2079C62.8102 23.7511 62.2082 23.1145 61.7653 22.2979C61.3224 21.4675 61.1009 20.4917 61.1009 19.3706C61.1009 18.4018 61.3155 17.4953 61.7445 16.651C62.1874 15.8067 62.8033 15.1286 63.5922 14.6165C64.3811 14.0905 65.2946 13.8276 66.3326 13.8276C66.9139 13.8276 67.4606 13.9175 67.9727 14.0974C68.4986 14.2774 68.9623 14.5611 69.3637 14.9486C69.7789 15.3223 70.1041 15.8137 70.3394 16.4226C70.5747 17.0178 70.6923 17.7444 70.6923 18.6025L63.5507 18.7271C63.5507 19.6682 63.6545 20.5056 63.8621 21.2391C64.0835 21.9726 64.4365 22.5401 64.9209 22.9415C65.4053 23.3428 66.035 23.5435 66.8101 23.5435C67.1838 23.5435 67.5782 23.4812 67.9935 23.3567C68.4225 23.2183 68.8239 23.0245 69.1976 22.7754C69.5851 22.5263 69.9104 22.2287 70.1733 21.8827L70.8169 22.4432C70.4017 23.066 69.9242 23.5574 69.3844 23.9172C68.8446 24.2632 68.291 24.5054 67.7236 24.6438C67.1699 24.7961 66.6579 24.8722 66.1873 24.8722ZM63.6337 17.6475H68.4294C68.4294 17.1216 68.3533 16.651 68.2011 16.2358C68.0627 15.8067 67.8412 15.4676 67.5367 15.2185C67.2322 14.9694 66.8447 14.8448 66.3741 14.8448C65.6406 14.8448 65.0385 15.0801 64.5679 15.5507C64.0974 16.0074 63.786 16.7064 63.6337 17.6475ZM76.3005 24.8722C75.9545 24.8722 75.6084 24.8238 75.2624 24.7269C74.9164 24.6438 74.5912 24.4708 74.2867 24.2079C73.996 23.9311 73.7677 23.5366 73.6016 23.0245C73.4355 22.5124 73.3525 21.8342 73.3525 20.99L73.394 15.3223H71.8577V14.1597C72.2314 14.1459 72.612 14.0075 72.9995 13.7445C73.3871 13.4815 73.7261 13.1286 74.0168 12.6857C74.3074 12.2428 74.5081 11.7653 74.6189 11.2532H75.5946V14.1597H78.7917V15.2393L75.5946 15.2808L75.5531 20.8239C75.5531 21.3498 75.5946 21.8135 75.6776 22.2148C75.7745 22.6024 75.9268 22.9069 76.1344 23.1283C76.3558 23.3359 76.6534 23.4397 77.0271 23.4397C77.3454 23.4397 77.6707 23.3428 78.0028 23.1491C78.3488 22.9553 78.6741 22.637 78.9786 22.1941L79.6845 22.8169C79.3523 23.3013 79.0201 23.6819 78.6879 23.9587C78.3558 24.2355 78.0374 24.4362 77.733 24.5608C77.4285 24.6992 77.1517 24.7822 76.9025 24.8099C76.6534 24.8514 76.4527 24.8722 76.3005 24.8722ZM86.6908 24.54C86.6632 24.3186 86.6424 24.1248 86.6286 23.9587C86.6147 23.7927 86.594 23.6197 86.5663 23.4397C86.0957 23.9103 85.5905 24.2702 85.0508 24.5193C84.511 24.7546 83.9504 24.8722 83.3691 24.8722C82.3726 24.8722 81.6183 24.63 81.1062 24.1456C80.608 23.6473 80.3588 23.0314 80.3588 22.2979C80.3588 21.6612 80.5457 21.1076 80.9194 20.637C81.2931 20.1665 81.7844 19.7859 82.3934 19.4952C83.0024 19.1907 83.6667 18.9693 84.3864 18.8309C85.1061 18.6786 85.812 18.6025 86.504 18.6025V17.3776C86.504 16.9347 86.4625 16.5264 86.3794 16.1527C86.2964 15.7652 86.1234 15.4538 85.8604 15.2185C85.6113 14.9694 85.2168 14.8448 84.6771 14.8448C84.3172 14.831 83.9574 14.9002 83.5975 15.0524C83.2377 15.1908 82.9608 15.4261 82.7671 15.7583C82.8778 15.869 82.947 16.0005 82.9747 16.1527C83.0162 16.2911 83.037 16.4226 83.037 16.5472C83.037 16.741 82.9539 16.9624 82.7878 17.2115C82.6218 17.4468 82.338 17.5575 81.9367 17.5437C81.6045 17.5437 81.3484 17.433 81.1685 17.2115C81.0024 16.9762 80.9194 16.7064 80.9194 16.4019C80.9194 15.9036 81.0993 15.4607 81.4592 15.0732C81.8329 14.6857 82.338 14.3812 82.9747 14.1597C83.6113 13.9383 84.3241 13.8276 85.113 13.8276C86.3033 13.8276 87.1891 14.139 87.7704 14.7618C88.3655 15.3846 88.6631 16.3673 88.6631 17.7098C88.6631 18.208 88.6631 18.6855 88.6631 19.1423C88.6631 19.599 88.6562 20.0557 88.6423 20.5125C88.6423 20.9692 88.6423 21.4536 88.6423 21.9657C88.6423 22.1733 88.6354 22.4086 88.6216 22.6716C88.6077 22.9345 88.587 23.2114 88.5593 23.502C88.7946 23.4882 89.0368 23.4743 89.2859 23.4605C89.5351 23.4466 89.7703 23.4397 89.9918 23.4397V24.54H86.6908ZM86.504 19.5575C86.0611 19.5852 85.6044 19.6474 85.1338 19.7443C84.6771 19.8412 84.2618 19.9865 83.8882 20.1803C83.5145 20.3741 83.21 20.6232 82.9747 20.9277C82.7532 21.2322 82.6425 21.5989 82.6425 22.028C82.6702 22.4986 82.8224 22.8446 83.0993 23.066C83.3899 23.2875 83.729 23.3982 84.1165 23.3982C84.6009 23.3982 85.03 23.3082 85.4037 23.1283C85.7774 22.9345 86.1441 22.6716 86.504 22.3394C86.4902 22.1872 86.4832 22.0349 86.4832 21.8827C86.4832 21.7166 86.4832 21.5436 86.4832 21.3637C86.4832 21.2391 86.4832 21.0107 86.4832 20.6786C86.4971 20.3326 86.504 19.9589 86.504 19.5575ZM97.8301 23.6681C98.2453 23.6681 98.5359 23.5712 98.702 23.3774C98.8819 23.1837 98.9857 22.9138 99.0134 22.5678C99.0549 22.2218 99.0757 21.8204 99.0757 21.3637L99.0549 18.4572C99.0549 17.3638 98.8819 16.5472 98.5359 16.0074C98.2037 15.4538 97.664 15.1839 96.9166 15.1978C96.4599 15.2116 96.01 15.3223 95.5671 15.5299C95.1381 15.7375 94.7782 16.0005 94.4876 16.3188V21.9657C94.4876 22.2148 94.4807 22.4709 94.4668 22.7339C94.453 22.983 94.4322 23.239 94.4046 23.502C94.626 23.4882 94.8474 23.4812 95.0689 23.4812C95.3042 23.4674 95.5187 23.4536 95.7125 23.4397V24.54H91.0828V23.6681C91.4981 23.6681 91.7887 23.5712 91.9548 23.3774C92.1209 23.1837 92.2247 22.9138 92.2662 22.5678C92.3077 22.2218 92.3285 21.8204 92.3285 21.3637V11.9799C92.3285 11.7446 92.3285 11.5093 92.3285 11.274C92.3423 11.0249 92.3631 10.7619 92.3908 10.4851C92.1555 10.4989 91.9064 10.5128 91.6434 10.5266C91.3804 10.5266 91.1382 10.5335 90.9168 10.5474V9.44706C91.5396 9.44706 92.0378 9.41938 92.4115 9.36401C92.7852 9.29481 93.069 9.21869 93.2627 9.13565C93.4703 9.0526 93.6226 8.96264 93.7195 8.86576H94.4876V15.1355C94.7921 14.8863 95.1312 14.6649 95.5049 14.4711C95.8786 14.2774 96.2592 14.1251 96.6467 14.0144C97.0481 13.8898 97.4218 13.8276 97.7678 13.8276C98.9996 13.8276 99.8784 14.2012 100.404 14.9486C100.944 15.696 101.221 16.8655 101.235 18.4572V21.9657C101.235 22.2148 101.228 22.4709 101.214 22.7339C101.214 22.983 101.193 23.239 101.152 23.502C101.373 23.4882 101.602 23.4812 101.837 23.4812C102.072 23.4674 102.287 23.4536 102.48 23.4397V24.54H97.8301V23.6681Z" fill="white"/>
<g filter="url(#filter0_d_5235_21898)">
<circle cx="15.8575" cy="16.8862" r="13.3461" fill="#EE5622"/>
<mask id="mask0_5235_21898" style="mask-type:luminance" maskUnits="userSpaceOnUse" x="9" y="10" width="14" height="14">
<path d="M22.2833 10.4602H9.43151V23.312H22.2833V10.4602Z" fill="white"/>
</mask>
<g mask="url(#mask0_5235_21898)">
<path d="M13.1176 22.9355L12.2654 20.6417L11.6311 20.3245C10.5137 19.7659 9.80795 18.6239 9.80795 17.3747C9.80795 16.6164 10.0692 15.8813 10.5478 15.2932L12.642 12.7194H19.0727L21.1669 15.2932C21.6455 15.8813 21.9067 16.6164 21.9067 17.3747C21.9067 18.6239 21.2009 19.7659 20.0836 20.3245L19.4492 20.6417L18.597 22.9355H13.1176Z" stroke="white" stroke-width="0.988602" stroke-miterlimit="10"/>
<path d="M18.493 16.7605H19.6226C19.6226 17.5923 18.9483 18.2666 18.1165 18.2666H16.9869C16.9869 17.4348 17.6612 16.7605 18.493 16.7605Z" stroke="white" stroke-width="0.988602" stroke-miterlimit="10"/>
<path d="M19.246 14.6019H18.4929V15.355H19.246V14.6019Z" fill="white"/>
<path d="M17.74 13.849H16.987V14.6021H17.74V13.849Z" fill="white"/>
<path d="M16.9869 15.3549H16.2339V16.1079H16.9869V15.3549Z" fill="white"/>
<path d="M14.7278 15.3549H15.4808V16.1079H14.7278V15.3549Z" fill="white"/>
<path d="M12.4686 14.6019H13.2217V15.355H12.4686V14.6019Z" fill="white"/>
<path d="M13.9747 13.849H14.7278V14.6021H13.9747V13.849Z" fill="white"/>
<path d="M13.2217 16.7605C14.0535 16.7605 14.7278 17.4348 14.7278 18.2666H13.5982C12.7664 18.2666 12.0922 17.5923 12.0922 16.7605H13.2217Z" stroke="white" stroke-width="0.988602" stroke-miterlimit="10"/>
<path d="M14.7278 19.9233H16.9869" stroke="white" stroke-width="0.988602" stroke-miterlimit="10"/>
<path d="M15.8574 22.9355V22.612C15.8574 22.1085 16.109 21.6382 16.528 21.3589L16.9869 21.053V18.2667" stroke="white" stroke-width="0.988602" stroke-miterlimit="10"/>
<path d="M15.8573 22.6123C15.8573 22.1087 15.6056 21.6385 15.1866 21.3592L14.7277 21.0532V18.267" stroke="white" stroke-width="0.988602" stroke-miterlimit="10"/>
<path d="M21.5303 15.8447V11.7166C21.5303 11.2306 21.1364 10.8367 20.6505 10.8367C20.3332 10.8367 20.0406 11.0074 19.8845 11.2836L19.0728 12.7193" stroke="white" stroke-width="0.988602" stroke-miterlimit="10"/>
<path d="M10.1845 15.8447V11.7166C10.1845 11.2306 10.5784 10.8367 11.0643 10.8367C11.3815 10.8367 11.6741 11.0074 11.8302 11.2836L12.642 12.7193" stroke="white" stroke-width="0.988602" stroke-miterlimit="10"/>
</g>
</g>
<defs>
<filter id="filter0_d_5235_21898" x="0.534149" y="2.55144" width="30.6467" height="30.6468" filterUnits="userSpaceOnUse" color-interpolation-filters="sRGB">
<feFlood flood-opacity="0" result="BackgroundImageFix"/>
<feColorMatrix in="SourceAlpha" type="matrix" values="0 0 0 0 0 0 0 0 0 0 0 0 0 0 0 0 0 0 127 0" result="hardAlpha"/>
<feOffset dy="0.988602"/>
<feGaussianBlur stdDeviation="0.988602"/>
<feComposite in2="hardAlpha" operator="out"/>
<feColorMatrix type="matrix" values="0 0 0 0 0 0 0 0 0 0 0 0 0 0 0 0 0 0 0.1 0"/>
<feBlend mode="normal" in2="BackgroundImageFix" result="effect1_dropShadow_5235_21898"/>
<feBlend mode="normal" in="SourceGraphic" in2="effect1_dropShadow_5235_21898" result="shape"/>
</filter>
</defs>
</svg>
