<svg xmlns="http://www.w3.org/2000/svg" width="132" height="38" viewBox="0 0 132 38" fill="none"><path d="M52.6917 15.7981C52.5097 14.309 51.9968 13.1674 51.153 12.3732C50.3091 11.5624 49.2089 11.1488 47.8521 11.1323C46.9918 11.1323 46.1976 11.3225 45.4696 11.7031C44.7416 12.0836 44.1129 12.6214 43.5834 13.3163C43.054 13.9946 42.6403 14.8054 42.3425 15.7484C42.0612 16.675 41.9206 17.6925 41.9206 18.8011C41.9206 20.3067 42.1853 21.6469 42.7148 22.8216C43.2442 23.9798 43.9722 24.8815 44.8988 25.5268C45.8419 26.1721 46.9091 26.4947 48.1003 26.4947C49.1592 26.4947 50.2016 26.2465 51.2274 25.7502C52.2698 25.2373 53.1301 24.5175 53.8085 23.591L54.6275 24.2859C53.883 25.3117 53.0888 26.0976 52.245 26.6436C51.4011 27.1896 50.5573 27.5536 49.7135 27.7356C48.8862 27.9342 48.1334 28.0334 47.4551 28.0334C46.2141 28.0334 45.0725 27.8101 44.0301 27.3634C42.9878 26.9166 42.0861 26.2962 41.325 25.502C40.5804 24.6913 40.0013 23.7564 39.5877 22.6975C39.1906 21.6221 38.9921 20.4639 38.9921 19.223C38.9921 18.0648 39.1741 16.9314 39.5381 15.8229C39.9021 14.7144 40.4398 13.7134 41.1512 12.8199C41.8627 11.9099 42.7561 11.1902 43.8316 10.6607C44.9236 10.1313 46.1893 9.86654 47.6288 9.86654C48.4726 9.86654 49.2916 9.98235 50.0858 10.214C50.8965 10.4456 51.6741 10.8014 52.4187 11.2812L52.2946 10.0403H53.8333V15.7981H52.6917ZM64.0414 26.594C64.5377 26.594 64.8852 26.4782 65.0837 26.2465C65.2988 26.0149 65.4229 25.6923 65.456 25.2786C65.5056 24.865 65.5304 24.3852 65.5304 23.8392L65.5056 20.3646C65.5056 19.0575 65.2988 18.0814 64.8852 17.4361C64.4881 16.7743 63.8428 16.4516 62.9494 16.4682C62.4034 16.4847 61.8656 16.6171 61.3362 16.8653C60.8233 17.1134 60.3931 17.4278 60.0456 17.8084V24.5589C60.0456 24.8567 60.0374 25.1628 60.0208 25.4772C60.0043 25.775 59.9794 26.0811 59.9464 26.3954C60.2111 26.3789 60.4758 26.3706 60.7405 26.3706C61.0218 26.3541 61.2783 26.3375 61.5099 26.321V27.6364H55.9754V26.594C56.4718 26.594 56.8193 26.4782 57.0178 26.2465C57.2164 26.0149 57.3404 25.6923 57.3901 25.2786C57.4397 24.865 57.4645 24.3852 57.4645 23.8392V12.6214C57.4645 12.3401 57.4645 12.0588 57.4645 11.7775C57.4811 11.4797 57.5059 11.1654 57.539 10.8344C57.2577 10.851 56.9599 10.8675 56.6455 10.8841C56.3312 10.8841 56.0416 10.8924 55.7769 10.9089V9.59353C56.5214 9.59353 57.1171 9.56044 57.5638 9.49426C58.0105 9.41153 58.3497 9.32053 58.5814 9.22126C58.8295 9.12199 59.0115 9.01444 59.1274 8.89863H60.0456V16.3937C60.4096 16.0959 60.815 15.8312 61.2617 15.5995C61.7084 15.3679 62.1634 15.1859 62.6267 15.0535C63.1065 14.9046 63.5533 14.8302 63.9669 14.8302C65.4394 14.8302 66.4901 15.2769 67.1188 16.1704C67.7641 17.0638 68.095 18.4619 68.1115 20.3646V24.5589C68.1115 24.8567 68.1033 25.1628 68.0867 25.4772C68.0867 25.775 68.0619 26.0811 68.0123 26.3954C68.277 26.3789 68.55 26.3706 68.8313 26.3706C69.1125 26.3541 69.369 26.3375 69.6006 26.321V27.6364H64.0414V26.594ZM77.2805 28.0334C76.1223 28.0334 75.0799 27.7687 74.1534 27.2393C73.2434 26.6933 72.5237 25.9322 71.9942 24.956C71.4648 23.9633 71.2 22.7968 71.2 21.4566C71.2 20.2984 71.4565 19.2147 71.9694 18.2054C72.4989 17.1962 73.2351 16.3854 74.1782 15.7733C75.1213 15.1445 76.2133 14.8302 77.4542 14.8302C78.1491 14.8302 78.8027 14.9377 79.4149 15.1528C80.0436 15.3679 80.5979 15.7071 81.0777 16.1704C81.574 16.6171 81.9629 17.2044 82.2441 17.9324C82.5254 18.6439 82.666 19.5125 82.666 20.5384L74.1286 20.6873C74.1286 21.8124 74.2527 22.8134 74.5009 23.6903C74.7656 24.5672 75.1875 25.2455 75.7666 25.7254C76.3457 26.2052 77.0985 26.4451 78.025 26.4451C78.4718 26.4451 78.9433 26.3706 79.4397 26.2217C79.9526 26.0563 80.4324 25.8246 80.8791 25.5268C81.3424 25.229 81.7312 24.8733 82.0456 24.4596L82.8149 25.1297C82.3186 25.8743 81.7478 26.4616 81.1025 26.8918C80.4572 27.3054 79.7954 27.595 79.117 27.7604C78.4552 27.9424 77.843 28.0334 77.2805 28.0334ZM74.2279 19.3967H79.9609C79.9609 18.768 79.8699 18.2054 79.6879 17.7091C79.5224 17.1962 79.2577 16.7908 78.8937 16.493C78.5297 16.1952 78.0664 16.0463 77.5039 16.0463C76.6269 16.0463 75.9072 16.3275 75.3447 16.8901C74.7821 17.4361 74.4099 18.2716 74.2279 19.3967ZM89.3702 28.0334C88.9566 28.0334 88.543 27.9755 88.1293 27.8597C87.7157 27.7604 87.3269 27.5536 86.9629 27.2393C86.6154 26.9084 86.3424 26.4368 86.1439 25.8246C85.9453 25.2124 85.8461 24.4017 85.8461 23.3924L85.8957 16.6171H84.0592V15.2273C84.5059 15.2107 84.9609 15.0453 85.4242 14.7309C85.8874 14.4165 86.2928 13.9946 86.6402 13.4652C86.9877 12.9357 87.2276 12.3649 87.36 11.7527H88.5264V15.2273H92.3484V16.5178L88.5264 16.5674L88.4768 23.1939C88.4768 23.8226 88.5264 24.3769 88.6257 24.8567C88.7415 25.32 88.9235 25.684 89.1717 25.9487C89.4364 26.1969 89.7922 26.321 90.2389 26.321C90.6194 26.321 91.0082 26.2052 91.4053 25.9735C91.819 25.7419 92.2078 25.3614 92.5718 24.8319L93.4156 25.5764C93.0185 26.1555 92.6214 26.6105 92.2243 26.9414C91.8272 27.2724 91.4467 27.5123 91.0827 27.6612C90.7187 27.8266 90.3878 27.9259 90.09 27.959C89.7922 28.0086 89.5522 28.0334 89.3702 28.0334ZM101.791 27.6364C101.758 27.3716 101.733 27.14 101.717 26.9414C101.7 26.7429 101.676 26.5361 101.642 26.321C101.08 26.8835 100.476 27.3137 99.8307 27.6115C99.1854 27.8928 98.5154 28.0334 97.8204 28.0334C96.6292 28.0334 95.7274 27.7439 95.1153 27.1648C94.5196 26.5692 94.2218 25.8329 94.2218 24.956C94.2218 24.1949 94.4452 23.5331 94.8919 22.9705C95.3386 22.408 95.926 21.953 96.654 21.6055C97.382 21.2415 98.1762 20.9768 99.0365 20.8114C99.8969 20.6294 100.741 20.5384 101.568 20.5384V19.0741C101.568 18.5446 101.518 18.0565 101.419 17.6098C101.32 17.1465 101.113 16.7743 100.799 16.493C100.501 16.1952 100.029 16.0463 99.384 16.0463C98.9538 16.0297 98.5236 16.1124 98.0934 16.2944C97.6633 16.4599 97.3324 16.7412 97.1007 17.1383C97.2331 17.2706 97.3158 17.4278 97.3489 17.6098C97.3985 17.7753 97.4234 17.9324 97.4234 18.0814C97.4234 18.313 97.3241 18.5777 97.1255 18.8755C96.927 19.1568 96.5878 19.2892 96.108 19.2726C95.7109 19.2726 95.4048 19.1403 95.1897 18.8755C94.9912 18.5943 94.8919 18.2716 94.8919 17.9076C94.8919 17.312 95.107 16.7825 95.5372 16.3193C95.9839 15.856 96.5878 15.492 97.3489 15.2273C98.11 14.9625 98.9621 14.8302 99.9052 14.8302C101.328 14.8302 102.387 15.2024 103.082 15.947C103.793 16.6915 104.149 17.8663 104.149 19.4712C104.149 20.0668 104.149 20.6376 104.149 21.1836C104.149 21.7296 104.141 22.2756 104.124 22.8216C104.124 23.3676 104.124 23.9467 104.124 24.5589C104.124 24.8071 104.116 25.0884 104.099 25.4027C104.083 25.7171 104.058 26.048 104.025 26.3954C104.306 26.3789 104.596 26.3624 104.894 26.3458C105.191 26.3293 105.473 26.321 105.737 26.321V27.6364H101.791ZM101.568 21.68C101.039 21.7131 100.493 21.7875 99.93 21.9034C99.384 22.0192 98.8876 22.1929 98.4409 22.4245C97.9942 22.6562 97.6302 22.954 97.3489 23.318C97.0842 23.682 96.9518 24.1204 96.9518 24.6334C96.9849 25.1959 97.1669 25.6095 97.4978 25.8743C97.8453 26.139 98.2506 26.2714 98.7139 26.2714C99.293 26.2714 99.8059 26.1638 100.253 25.9487C100.699 25.7171 101.138 25.4027 101.568 25.0056C101.551 24.8236 101.543 24.6416 101.543 24.4596C101.543 24.2611 101.543 24.0543 101.543 23.8392C101.543 23.6903 101.543 23.4173 101.543 23.0202C101.56 22.6065 101.568 22.1598 101.568 21.68ZM115.108 26.594C115.604 26.594 115.951 26.4782 116.15 26.2465C116.365 26.0149 116.489 25.6923 116.522 25.2786C116.572 24.865 116.597 24.3852 116.597 23.8392L116.572 20.3646C116.572 19.0575 116.365 18.0814 115.951 17.4361C115.554 16.7743 114.909 16.4516 114.016 16.4682C113.47 16.4847 112.932 16.6171 112.402 16.8653C111.89 17.1134 111.459 17.4278 111.112 17.8084V24.5589C111.112 24.8567 111.104 25.1628 111.087 25.4772C111.071 25.775 111.046 26.0811 111.013 26.3954C111.277 26.3789 111.542 26.3706 111.807 26.3706C112.088 26.3541 112.345 26.3375 112.576 26.321V27.6364H107.042V26.594C107.538 26.594 107.886 26.4782 108.084 26.2465C108.283 26.0149 108.407 25.6923 108.456 25.2786C108.506 24.865 108.531 24.3852 108.531 23.8392V12.6214C108.531 12.3401 108.531 12.0588 108.531 11.7775C108.547 11.4797 108.572 11.1654 108.605 10.8344C108.324 10.851 108.026 10.8675 107.712 10.8841C107.397 10.8841 107.108 10.8924 106.843 10.9089V9.59353C107.588 9.59353 108.183 9.56044 108.63 9.49426C109.077 9.41153 109.416 9.32053 109.648 9.22126C109.896 9.12199 110.078 9.01444 110.194 8.89863H111.112V16.3937C111.476 16.0959 111.881 15.8312 112.328 15.5995C112.775 15.3679 113.23 15.1859 113.693 15.0535C114.173 14.9046 114.62 14.8302 115.033 14.8302C116.506 14.8302 117.556 15.2769 118.185 16.1704C118.83 17.0638 119.161 18.4619 119.178 20.3646V24.5589C119.178 24.8567 119.17 25.1628 119.153 25.4772C119.153 25.775 119.128 26.0811 119.079 26.3954C119.343 26.3789 119.616 26.3706 119.898 26.3706C120.179 26.3541 120.435 26.3375 120.667 26.321V27.6364H115.108V26.594Z" fill="#1E1A1C"></path><circle cx="16.7727" cy="18.4091" r="15.0682" fill="#EE5622" stroke="white" stroke-width="1.77273"></circle><mask id="mask0_12_1919" style="mask-type:luminance" maskUnits="userSpaceOnUse" x="9" y="10" width="16" height="17"><path d="M24.4546 10.7273H9.09096V26.0909H24.4546V10.7273Z" fill="white"></path></mask><g mask="url(#mask0_12_1919)"><path d="M13.4975 25.6409L12.4788 22.8987L11.7204 22.5195C10.3847 21.8517 9.54097 20.4865 9.54097 18.9932C9.54097 18.0867 9.85329 17.2079 10.4254 16.5048L12.9289 13.428H20.6165L23.12 16.5048C23.6921 17.2079 24.0044 18.0867 24.0044 18.9932C24.0044 20.4865 23.1607 21.8517 21.8249 22.5195L21.0666 22.8987L20.0478 25.6409H13.4975Z" stroke="white" stroke-width="1.18182" stroke-miterlimit="10"></path><path d="M19.9234 18.2591H21.2737C21.2737 19.2535 20.4676 20.0596 19.4733 20.0596H18.1229C18.1229 19.0652 18.929 18.2591 19.9234 18.2591Z" stroke="white" stroke-width="1.18182" stroke-miterlimit="10"></path><path d="M20.8237 15.6785H19.9235V16.5787H20.8237V15.6785Z" fill="white"></path><path d="M19.0232 14.7783H18.123V15.6785H19.0232V14.7783Z" fill="white"></path><path d="M18.123 16.5787H17.2228V17.4789H18.123V16.5787Z" fill="white"></path><path d="M15.4223 16.5787H16.3225V17.4789H15.4223V16.5787Z" fill="white"></path><path d="M12.7219 15.6785H13.6221V16.5787H12.7219V15.6785Z" fill="white"></path><path d="M14.5222 14.7783H15.4224V15.6785H14.5222V14.7783Z" fill="white"></path><path d="M13.6219 18.2591C14.6163 18.2591 15.4224 19.0652 15.4224 20.0596H14.072C13.0777 20.0596 12.2716 19.2535 12.2716 18.2591H13.6219Z" stroke="white" stroke-width="1.18182" stroke-miterlimit="10"></path><path d="M15.4224 22.04H18.123" stroke="white" stroke-width="1.18182" stroke-miterlimit="10"></path><path d="M16.7727 25.6409V25.2541C16.7727 24.6521 17.0736 24.09 17.5745 23.7561L18.123 23.3903V20.0595" stroke="white" stroke-width="1.18182" stroke-miterlimit="10"></path><path d="M16.7727 25.254C16.7727 24.6521 16.4719 24.0899 15.971 23.756L15.4224 23.3903V20.0595" stroke="white" stroke-width="1.18182" stroke-miterlimit="10"></path><path d="M23.5544 17.1641V12.2291C23.5544 11.6482 23.0835 11.1773 22.5027 11.1773C22.1235 11.1773 21.7737 11.3814 21.5871 11.7114L20.6167 13.4278" stroke="white" stroke-width="1.18182" stroke-miterlimit="10"></path><path d="M9.99117 17.1641V12.2291C9.99117 11.6482 10.4621 11.1773 11.0429 11.1773C11.4221 11.1773 11.7719 11.3814 11.9586 11.7114L12.929 13.4278" stroke="white" stroke-width="1.18182" stroke-miterlimit="10"></path></g></svg>